<svg xmlns="http://www.w3.org/2000/svg" viewBox="0 0 100 100"><defs><style>.cls-1{fill:#315b77;}.cls-2{fill:none;}</style></defs><title>instagram</title><g id="レイヤー_2" data-name="レイヤー 2"><g id="レイヤー_1-2" data-name="レイヤー 1"><path class="cls-1" d="M50,15.57c11.21,0,12.54,0,17,.24a23.15,23.15,0,0,1,7.8,1.45,13.89,13.89,0,0,1,8,8A23.15,23.15,0,0,1,84.19,33c.2,4.43.24,5.76.24,17s0,12.54-.24,17a23.15,23.15,0,0,1-1.45,7.8,13.89,13.89,0,0,1-8,8A23.15,23.15,0,0,1,67,84.19c-4.43.2-5.75.24-17,.24s-12.54,0-17-.24a23.15,23.15,0,0,1-7.8-1.45,13.89,13.89,0,0,1-8-8A23.15,23.15,0,0,1,15.81,67c-.2-4.43-.24-5.76-.24-17s0-12.54.24-17a23.15,23.15,0,0,1,1.45-7.8,13.89,13.89,0,0,1,8-8A23.15,23.15,0,0,1,33,15.81c4.43-.2,5.76-.24,17-.24M50,8c-11.41,0-12.84.05-17.32.25A31.16,31.16,0,0,0,22.49,10.2,21.53,21.53,0,0,0,10.2,22.49,31.16,31.16,0,0,0,8.25,32.68C8.05,37.16,8,38.59,8,50s.05,12.84.25,17.32A31.16,31.16,0,0,0,10.2,77.51,21.53,21.53,0,0,0,22.49,89.8a31.16,31.16,0,0,0,10.19,2C37.16,92,38.59,92,50,92s12.84,0,17.32-.25a31.16,31.16,0,0,0,10.19-2A21.53,21.53,0,0,0,89.8,77.51a31.16,31.16,0,0,0,2-10.19C92,62.84,92,61.41,92,50s0-12.84-.25-17.32a31.16,31.16,0,0,0-2-10.19A21.53,21.53,0,0,0,77.51,10.2,31.16,31.16,0,0,0,67.32,8.25C62.84,8.05,61.41,8,50,8Z"/><path class="cls-1" d="M50,28.43A21.57,21.57,0,1,0,71.57,50,21.57,21.57,0,0,0,50,28.43ZM50,64A14,14,0,1,1,64,50,14,14,0,0,1,50,64Z"/><circle class="cls-1" cx="72.42" cy="27.58" r="5.04"/><rect class="cls-2" width="100" height="100"/></g></g></svg>