<svg xmlns="http://www.w3.org/2000/svg" viewBox="0 0 100 100"><defs><style>.cls-1{fill:#315b77;}.cls-2{fill:none;}</style></defs><title>twitter</title><g id="レイヤー_2" data-name="レイヤー 2"><g id="レイヤー_1-2" data-name="レイヤー 1"><path class="cls-1" d="M35.57,86C68,86,85.78,59.05,85.78,35.75c0-.75,0-1.51,0-2.27a36,36,0,0,0,8.81-9.15,35.9,35.9,0,0,1-10.15,2.79,17.79,17.79,0,0,0,7.77-9.78A35,35,0,0,1,81,21.61,17.66,17.66,0,0,0,50.44,33.69a19.21,19.21,0,0,0,.45,4A50.15,50.15,0,0,1,14.51,19.27,17.73,17.73,0,0,0,20,42.84a17.75,17.75,0,0,1-8-2.2v.24A17.67,17.67,0,0,0,26.14,58.19a16.88,16.88,0,0,1-4.64.62,17.12,17.12,0,0,1-3.31-.31A17.64,17.64,0,0,0,34.68,70.75a35.39,35.39,0,0,1-21.92,7.57,32.55,32.55,0,0,1-4.2-.24,50.16,50.16,0,0,0,27,7.88"/><rect class="cls-2" width="100" height="100"/></g></g></svg>