<svg xmlns="http://www.w3.org/2000/svg" viewBox="0 0 82.88 26.51"><defs><style>.cls-1{fill:#7b7b7c;}</style></defs><title>アセット 3</title><g id="レイヤー_2" data-name="レイヤー 2"><g id="レイヤー_1-2" data-name="レイヤー 1"><path class="cls-1" d="M25.56,24.17a24.41,24.41,0,0,0-3.47.31,2,2,0,0,0-.61.2.68.68,0,0,1-.33.09c-.15,0-.35-.13-.75-.54a1,1,0,0,1-.38-.59.85.85,0,0,1,.11-.36s0-.06.07-.06,0,0,.08,0a1,1,0,0,0,.7.28,6,6,0,0,0,.66-.05c1.07-.12,2.53-.27,3.44-.35l.42,0c.15-1,.27-1.76.33-2.42,0-.19,0-.22-.28-.22a32.55,32.55,0,0,0-3.39.38,1.33,1.33,0,0,0-.52.17.91.91,0,0,1-.38.13c-.17,0-.43-.15-.8-.57a1,1,0,0,1-.32-.6,1.28,1.28,0,0,1,.06-.35c0-.05,0-.08.05-.08s.05,0,.1.06a1.2,1.2,0,0,0,.89.27,7.59,7.59,0,0,0,.79,0l3.16-.32a1.11,1.11,0,0,0,.69-.21.52.52,0,0,1,.32-.14c.11,0,.34.15.87.55s.58.52.58.66a.41.41,0,0,1-.16.32,1.19,1.19,0,0,0-.3.64c-.16.6-.32,1.2-.49,1.82l.21.16a.72.72,0,0,1,.27.48c0,.26-.16.41-.46.41s-.54,0-.84,0Z"/><path class="cls-1" d="M30.91,21c-.36,0-.55-.18-.77-.55A3.54,3.54,0,0,0,28.77,19a.05.05,0,0,1,0-.05s0-.06.08-.07l.36,0c1.52,0,2.44.59,2.44,1.38A.72.72,0,0,1,30.91,21Zm-1,4.33a5.59,5.59,0,0,1-.74-.72.9.9,0,0,1-.23-.45,3.89,3.89,0,0,1,0-.44c0-.07,0-.08.06-.08a.31.31,0,0,1,.12.06,1.17,1.17,0,0,0,.72.25,1.48,1.48,0,0,0,.61-.17,24.35,24.35,0,0,0,6.17-4.47.18.18,0,0,1,.09,0,.07.07,0,0,1,.08.08.06.06,0,0,1,0,0A19.79,19.79,0,0,1,31,25.06l-.43.3a.46.46,0,0,1-.3.11A.53.53,0,0,1,29.94,25.33Z"/><path class="cls-1" d="M41.88,23.4c0,.82.18,1,1.12,1a4.9,4.9,0,0,0,1-.11,2.89,2.89,0,0,1,.62-.09c.67,0,1.1.36,1.1.76a.43.43,0,0,1-.32.43,10.14,10.14,0,0,1-2.05.16c-1.3,0-1.76-.26-2.15-.75-.26-.32-.4-.66-.41-2v-.65c-.44.18-.84.36-1.36.6A2.25,2.25,0,0,0,39,23a.42.42,0,0,1-.33.15c-.16,0-.39-.11-.74-.44s-.44-.45-.44-.6a1.76,1.76,0,0,1,0-.34s0-.06,0-.06l.09,0a1.6,1.6,0,0,0,.64.18,4.43,4.43,0,0,0,.8-.19l1.67-.54V19.32c0-.38-.07-.55-.56-.7-.09,0-.12-.06-.12-.09s0-.05.09-.1a1.73,1.73,0,0,1,.79-.38,1.63,1.63,0,0,1,.77.39c.5.39.59.5.59.63a.47.47,0,0,1-.16.33A.85.85,0,0,0,42,20c0,.25,0,.51,0,.8l1.64-.53a1.84,1.84,0,0,0,.79-.4c.14-.12.23-.19.33-.19s.29.09.85.53.8.7.8.93-.11.3-.38.4a3.2,3.2,0,0,0-.66.36,15.17,15.17,0,0,1-1.84,1l-.08,0a.06.06,0,0,1-.06-.05s0-.05,0-.09a7.56,7.56,0,0,0,1-1.61.42.42,0,0,0,.06-.19c0-.07,0-.11-.12-.11a.16.16,0,0,0-.09,0c-.73.23-1.5.51-2.3.82C41.9,22.37,41.88,23,41.88,23.4Z"/><path class="cls-1" d="M48.6,26.25c-.05,0-.08,0-.08-.07a.08.08,0,0,1,0-.07,12.1,12.1,0,0,0,4.77-6.24.2.2,0,0,0,0-.07c0-.07,0-.09-.13-.09l-.65.05a26.73,26.73,0,0,0-2.94.53,2.27,2.27,0,0,0-.57.2.71.71,0,0,1-.32.12c-.21,0-.37-.12-.75-.53s-.41-.54-.41-.71a1,1,0,0,1,.09-.34c0-.08,0-.08.06-.08s0,0,.06,0a1.21,1.21,0,0,0,.74.34,7.38,7.38,0,0,0,.89-.06l3.48-.44a1.2,1.2,0,0,0,.59-.18.58.58,0,0,1,.28-.11c.14,0,.29.06.8.49s.63.56.63.72-.06.2-.2.33a.92.92,0,0,0-.32.39c-1.54,3.15-3.12,4.77-6,5.79Zm8-8.53a1.09,1.09,0,1,1-1.09-1.09A1.1,1.1,0,0,1,56.64,17.72Zm-1.81,0a.73.73,0,1,0,.72-.73A.74.74,0,0,0,54.83,17.72Z"/><path class="cls-1" d="M59.49,23.23c0,1.11,0,1.74,0,2.61,0,.44-.23.67-.51.67s-.51-.15-.73-.59a1.5,1.5,0,0,1-.2-.77.72.72,0,0,1,.07-.28,1,1,0,0,0,.1-.44c0-.54.07-2,.07-3.3s0-2.13,0-2.61-.13-.52-.52-.74c-.06,0-.09-.05-.09-.09s0,0,.09-.07a1.75,1.75,0,0,1,.69-.24,1.72,1.72,0,0,1,.78.38c.4.29.5.42.5.56a.5.5,0,0,1-.11.28c-.06.1-.14.19-.15.9,0,.43,0,.86,0,1.28,1.92,0,3,.66,3,1.44a.71.71,0,0,1-.72.73,1,1,0,0,1-.74-.49,3.74,3.74,0,0,0-1.5-1.35C59.48,21.81,59.48,22.17,59.49,23.23Z"/><path class="cls-1" d="M10.23,3.2a.19.19,0,0,1-.16.23c-.16,0-.19,0-.26-.13a6.25,6.25,0,0,0-1.44-2,3.15,3.15,0,0,0-2-.76C4,.54,2.21,2.72,2.21,6.05c0,3,1.81,5.19,4.19,5.19A4.31,4.31,0,0,0,10.34,9c.05-.08.11-.11.32,0s.18.16.11.28a5,5,0,0,1-4.7,2.9A5.84,5.84,0,0,1,0,6.08,5.9,5.9,0,0,1,6.13,0a8,8,0,0,1,2,.26A4.18,4.18,0,0,0,10,.43C10,1.26,10.13,2.37,10.23,3.2Z"/><path class="cls-1" d="M24.13,6.07a6,6,0,0,1-6.21,6.13,6,6,0,0,1-6.19-6.1A5.94,5.94,0,0,1,17.92,0,5.9,5.9,0,0,1,24.13,6.07ZM14,6.07c0,3.37,1.59,5.57,4,5.57s4-2.2,4-5.53S20.28.54,17.92.54,14,2.75,14,6.07Z"/><path class="cls-1" d="M27.76,2l.08,7a4.19,4.19,0,0,0,.34,2,1.67,1.67,0,0,0,1.2.49c.12,0,.14.05.14.21s0,.19-.16.19c-.61,0-1.22,0-1.87,0s-1.35,0-1.92,0c-.13,0-.15,0-.15-.17s0-.19.13-.21A1.5,1.5,0,0,0,26.66,11a4,4,0,0,0,.4-2l.08-5.83a3.88,3.88,0,0,0-.26-1.95,1.85,1.85,0,0,0-1.34-.5c-.12,0-.15,0-.15-.24s0-.22.15-.22c.57,0,1.2,0,1.68,0h2c.35.65.61,1,1.23,2l3.67,5.45c.56.85.89,1.35,1.31,2.07V8l0-4.79a3.89,3.89,0,0,0-.39-2c-.19-.34-.7-.43-1.13-.48-.15,0-.2,0-.2-.22s0-.24.15-.24c.51,0,1.23.06,1.86.06s1.4,0,1.84-.06c.11,0,.14,0,.14.22s0,.21-.14.22c-.45.07-.85.16-1,.5a4.06,4.06,0,0,0-.39,2L36,9c0,1.1,0,1.78,0,2.66-1,.54-1.09.56-1.17.56a.16.16,0,0,1-.14-.08c-.52-.82-.8-1.28-1.81-2.8L28,2Z"/><path class="cls-1" d="M49.12,3.2c0,.13,0,.19-.16.23s-.19,0-.25-.13a6.4,6.4,0,0,0-1.44-2A3.17,3.17,0,0,0,45.22.54C42.9.54,41.1,2.72,41.1,6.05c0,3,1.81,5.19,4.2,5.19A4.33,4.33,0,0,0,49.24,9c0-.08.11-.11.32,0a.18.18,0,0,1,.11.28A5,5,0,0,1,45,12.18a5.84,5.84,0,0,1-6.06-6.1A5.89,5.89,0,0,1,45,0a8.08,8.08,0,0,1,2,.26,4.14,4.14,0,0,0,1.79.17C48.92,1.26,49,2.37,49.12,3.2Z"/><path class="cls-1" d="M54,9a4.67,4.67,0,0,0,.22,1.94c.26.43.84.46,1.54.46a4,4,0,0,0,2.75-.77A6.29,6.29,0,0,0,59.76,9c.05-.11.1-.16.26-.11s.19.13.18.22a20,20,0,0,1-.84,2.83c-1.4,0-2.88,0-4.21,0s-2.94,0-4.37,0c-.11,0-.14,0-.14-.19s0-.19.14-.21c.61-.06.88-.08,1.06-.41A5.58,5.58,0,0,0,52.05,9V3.17c0-1.54,0-1.75-.19-2.1s-.5-.32-1.17-.38c-.11,0-.15,0-.15-.21s0-.22.15-.22c1.41,0,2.88.06,4.24.06S57.65.3,59,.26c.07.81.18,1.88.31,2.72,0,.09,0,.16-.18.19s-.24,0-.27-.11a4.11,4.11,0,0,0-1.09-1.65,3.49,3.49,0,0,0-2.4-.58c-.58,0-1.07,0-1.28.4A5.26,5.26,0,0,0,54,3.17V5.51h.9a4,4,0,0,0,2-.35,1.74,1.74,0,0,0,.63-1.09c0-.09,0-.14.24-.14s.19.05.19.16q0,.86,0,1.68c0,.59,0,1.28,0,1.85,0,.13,0,.18-.19.18s-.21,0-.24-.16a2.18,2.18,0,0,0-.64-1.2,4.33,4.33,0,0,0-2-.38H54Z"/><path class="cls-1" d="M64.51,9c0,1.6,0,1.84.15,2.13s.61.35,1.29.42c.12,0,.13.05.13.21s0,.2-.14.2c-.75,0-1.6,0-2.34,0s-1.62,0-2.29,0c-.09,0-.13,0-.13-.2s0-.21.15-.21c.61,0,.93-.07,1.12-.42A6.32,6.32,0,0,0,62.62,9V3.17c0-1.54,0-1.73-.16-2.08s-.65-.34-1.28-.4c-.11,0-.14,0-.14-.23s0-.2.14-.2c.72,0,1.64,0,2.39,0s1.6-.06,2.62-.06c3.37,0,4.5,1.26,4.5,3.09s-1,3.34-5,3.34a9.68,9.68,0,0,1-1.19-.06Zm0-2.94a5.56,5.56,0,0,0,1,.09c2.3,0,3.1-1.2,3.1-2.7A2.44,2.44,0,0,0,65.87.78c-.36,0-.94,0-1.15.34a5,5,0,0,0-.21,2.05Z"/><path class="cls-1" d="M76.3,3.17c0-1.47,0-1.73-.17-2s-.51-.29-.91-.29a3.07,3.07,0,0,0-1.91.56A5,5,0,0,0,72.16,3.1c0,.09-.06.13-.26.1s-.17-.08-.17-.18c.13-.81.24-1.95.3-2.76,1.83,0,3.52.06,5.27.06s3.45,0,5.3-.06c.06.81.17,2,.28,2.76,0,.1,0,.15-.17.18s-.24,0-.27-.1a4.63,4.63,0,0,0-1.12-1.71,3.07,3.07,0,0,0-2-.56c-.4,0-.72,0-.94.32a4.58,4.58,0,0,0-.21,2V9c0,1.6,0,1.78.14,2.13s.63.33,1.24.4c.11,0,.14.05.14.21s0,.2-.16.2c-.69,0-1.58,0-2.3,0s-1.59,0-2.21,0c-.12,0-.15,0-.15-.19s0-.21.15-.22c.56-.07.93-.08,1.1-.4A6.18,6.18,0,0,0,76.3,9Z"/></g></g></svg>