<svg xmlns="http://www.w3.org/2000/svg" viewBox="0 0 39.13 9.31"><defs><style>.cls-1{fill:#fff;stroke:#fff;stroke-miterlimit:10;stroke-width:0.25px;}</style></defs><title>アセット 10</title><g id="レイヤー_2" data-name="レイヤー 2"><g id="レイヤー_1-2" data-name="レイヤー 1"><path class="cls-1" d="M2.59,5.9V3.43a5.11,5.11,0,0,0-1.21.24c-.14.08-.3,0-.51-.12A1,1,0,0,1,.4,2.73q0-.19.12,0a.71.71,0,0,0,.58.47,6,6,0,0,0,1.49-.12c0-.23.05-.65.07-1.25A.77.77,0,0,0,2.08,1Q1.84.9,2.08.82a1.55,1.55,0,0,1,1.21.43c.1.13.12.23,0,.31a.94.94,0,0,0-.2.59c0,.2,0,.48-.08.82A3.65,3.65,0,0,0,4.19,2.5q.22-.19.39-.12a1.27,1.27,0,0,1,.31.16c.16.1.1.22-.16.35A4.29,4.29,0,0,1,4.19,3c-.5.13-.89.23-1.17.28C3,4,3,4.75,3,5.66A6.24,6.24,0,0,1,6.22,4.49,2.49,2.49,0,0,1,7.86,5a1.66,1.66,0,0,1,.55,1.33A1.62,1.62,0,0,1,8,7.46,2.15,2.15,0,0,1,6.41,8,2,2,0,0,1,5.2,7.65a2.21,2.21,0,0,1-.82-1.33c0-.13.11-.13.16,0a2.53,2.53,0,0,0,.66.9,1.73,1.73,0,0,0,1.14.39,1.46,1.46,0,0,0,1.09-.35,1.32,1.32,0,0,0,.43-1,1.54,1.54,0,0,0-.43-1.14,1.72,1.72,0,0,0-1.25-.43A5.71,5.71,0,0,0,3,6.13V7a9.54,9.54,0,0,0,.11,1,.72.72,0,0,1-.35.78c-.21.13-.32.07-.35-.16a.91.91,0,0,0-.31-.7l-.67-.51a3.11,3.11,0,0,1-.5.39.75.75,0,0,1-.47.16C.23,7.87.12,7.69.12,7.38A1.33,1.33,0,0,1,.36,6.6c.08-.08.12-.07.12,0,0,.36.05.54.23.54a.54.54,0,0,0,.35-.11Zm0,.46c-.32.26-.67.56-1.06.9l.82.43q.24.12.24-.12ZM6.22,2c0-.05,0-.09,0-.12a3.87,3.87,0,0,1,1.6.43,1.59,1.59,0,0,1,.74.82.41.41,0,0,1,0,.35.17.17,0,0,1-.27,0,.79.79,0,0,0-.51-.19,6.32,6.32,0,0,0-.94.12c-.13,0-.14,0,0-.12L7.55,3c.13,0,.15-.14.07-.27A2.42,2.42,0,0,0,6.22,2Z"/><path class="cls-1" d="M10.48,8.94V.39l.58.35h2.11l.24-.31L14,.82q.24.19-.15.27V4.14c-.34.31-.51.32-.51,0V3.82H11V8.9C10.65,9.22,10.48,9.23,10.48,8.94Zm2.81-8H11V2.18h2.31ZM11,2.42V3.59h2.31V2.42Zm5,3.12V7.81c-.33.31-.5.33-.5,0V7.46H13.29v.62c-.34.32-.51.33-.51,0V4.8l.59.39h2l.23-.31.55.39C16.3,5.4,16.24,5.49,16,5.54ZM13.29,7.22h2.19V5.43H13.29Zm5-6.13v7a.84.84,0,0,1-.28.7,1,1,0,0,1-.46.24c-.16,0-.24,0-.24-.2a.41.41,0,0,0-.19-.27l-.67-.16q-.19-.07,0-.15h1a.31.31,0,0,0,.35-.35V3.82h-2.3v.24c-.34.31-.51.33-.51,0V.39l.58.35H17.7l.24-.31.54.39Q18.72,1,18.33,1.09ZM17.82,1h-2.3V2.18h2.3Zm-2.3,1.45V3.59h2.3V2.42Z"/><path class="cls-1" d="M24.34.78a11.68,11.68,0,0,1-4.45,4.1c-.13,0-.17,0-.12-.16A10.13,10.13,0,0,0,23.91.15l.86.28q.24.2,0,.27a8.72,8.72,0,0,0,4.34,3.48,1.36,1.36,0,0,0-.82.5A9.89,9.89,0,0,1,24.5.78ZM21.73,5.23l.58.35H26l.28-.35.62.43c.21.16.12.26-.27.31v3c-.34.31-.51.33-.51,0V8.51H22.23V8.9c-.33.32-.5.33-.5,0Zm.35-1.09V3.9h3.28l.43-.43.55.39c.15.13.15.23,0,.28Zm4.06,4.14V5.82H22.23V8.28Z"/><path class="cls-1" d="M37.62,3.51l-1.56.08V5c0,.88-.18,1.43-.54,1.64s-.38.13-.36-.08a.4.4,0,0,0-.23-.43L33.8,5.5c-.13-.1-.11-.14.08-.11l1.21.47c.2.07.35,0,.43-.24a12.73,12.73,0,0,0,.07-1.95c-1,.13-1.92.29-2.73.47v2A5.91,5.91,0,0,0,33,7.26a.79.79,0,0,0,.31.55A2.93,2.93,0,0,0,34.62,8a7.82,7.82,0,0,0,2.18-.23c.26-.08.45-.08.55,0a1.15,1.15,0,0,1,.27.27c.13.19.08.29-.15.32s-1.25,0-3,0A2.13,2.13,0,0,1,32.9,8a3.45,3.45,0,0,1-.51-2.3V4.22q-.35.08-1.29.39a2.17,2.17,0,0,0-.47.19c-.1.08-.22,0-.35-.08-.39-.36-.57-.62-.55-.78s.06-.21.16-.08a.77.77,0,0,0,.7.39,4.71,4.71,0,0,0,.79-.11l1-.24a9.94,9.94,0,0,0-.08-1.4.75.75,0,0,0-.74-.67q-.32,0,0-.15A2,2,0,0,1,32.94,2c.23.15.24.3,0,.43a3.23,3.23,0,0,0-.12,1.33c1-.19,1.93-.33,2.73-.43,0-1,0-1.59,0-1.8s-.24-.4-.66-.51c-.18,0-.19-.05,0-.15a2,2,0,0,1,1.37.35q.31.22,0,.39c-.11.05-.16.61-.16,1.68a8.59,8.59,0,0,0,2-.39.37.37,0,0,1,.43,0,4.11,4.11,0,0,1,.46.31c.16.23.11.34-.15.31C38.18,3.54,37.81,3.51,37.62,3.51Z"/></g></g></svg>