<svg xmlns="http://www.w3.org/2000/svg" viewBox="0 0 179.78 8.86"><defs><style>.cls-1{fill:#fff;stroke:#fff;stroke-miterlimit:10;stroke-width:0.25px;}</style></defs><title>アセット 14</title><g id="レイヤー_2" data-name="レイヤー 2"><g id="レイヤー_1-2" data-name="レイヤー 1"><path class="cls-1" d="M5.87,5.46A3.18,3.18,0,0,1,5,6.78a2.56,2.56,0,0,1-1.76.55,3.2,3.2,0,0,1-2.15-.86A3.22,3.22,0,0,1,.12,3.93,3.53,3.53,0,0,1,1,1.47a3.11,3.11,0,0,1,2.39-1,5.18,5.18,0,0,1,1,.08,4.41,4.41,0,0,0,.75.12.47.47,0,0,0,.23,0,.38.38,0,0,0,.2-.16l.35,1.72-.24.08a2,2,0,0,0-.82-1.13A2.7,2.7,0,0,0,3.29.77a2.07,2.07,0,0,0-1.8.9A4,4,0,0,0,.91,3.89a3.53,3.53,0,0,0,.66,2.27A2.12,2.12,0,0,0,3.25,7a2.33,2.33,0,0,0,1.56-.47,2.43,2.43,0,0,0,.82-1.21Z"/><path class="cls-1" d="M11.06,5.06a2.26,2.26,0,0,1-.58,1.61,2,2,0,0,1-2.93,0A2.33,2.33,0,0,1,7,5.06,2.38,2.38,0,0,1,7.55,3.5,1.83,1.83,0,0,1,9,2.8a1.79,1.79,0,0,1,1.49.7A2.51,2.51,0,0,1,11.06,5.06Zm-3.44,0A2.25,2.25,0,0,0,8,6.59,1.27,1.27,0,0,0,9,7.1a1.21,1.21,0,0,0,1-.55,2.46,2.46,0,0,0,.39-1.45A2.54,2.54,0,0,0,10,3.54,1.19,1.19,0,0,0,9,3a1.28,1.28,0,0,0-1,.51A2.54,2.54,0,0,0,7.62,5.1Z"/><path class="cls-1" d="M13.33,8.46h.27V8.7H11.8V8.46H12a.34.34,0,0,0,.27-.08.38.38,0,0,0,.08-.27V3.5a.5.5,0,0,0-.08-.27A.38.38,0,0,0,12,3.15H11.8V2.92h.36a1.87,1.87,0,0,0,.35,0,.93.93,0,0,0,.35-.16h.08v.9A2,2,0,0,1,13.52,3a1.52,1.52,0,0,1,.75-.19,1.65,1.65,0,0,1,1.28.51A2.38,2.38,0,0,1,16.06,5a2.42,2.42,0,0,1-.54,1.68,1.72,1.72,0,0,1-1.29.58,1.78,1.78,0,0,1-.75-.16,1.53,1.53,0,0,1-.54-.39V8.11a.31.31,0,0,0,.11.27A.44.44,0,0,0,13.33,8.46Zm-.39-2.22a1.18,1.18,0,0,0,.47.58,1.27,1.27,0,0,0,.7.2,1.16,1.16,0,0,0,.94-.51A2.3,2.3,0,0,0,15.44,5a2.68,2.68,0,0,0-.32-1.41.91.91,0,0,0-.85-.47,1.31,1.31,0,0,0-.71.2,1.67,1.67,0,0,0-.62.7Z"/><path class="cls-1" d="M21.18,3.11H21a.53.53,0,0,0-.32.12.72.72,0,0,0-.23.31L18.88,7.41a3.68,3.68,0,0,1-.55.78,1.11,1.11,0,0,1-.82.47.69.69,0,0,1-.43-.12.27.27,0,0,1-.16-.27A.46.46,0,0,1,17,8a.45.45,0,0,1,.31-.11.53.53,0,0,1,.31.11c.11.11.19.16.24.16a.22.22,0,0,0,.16,0A.47.47,0,0,0,18.17,8a2.07,2.07,0,0,0,.31-.46A2.57,2.57,0,0,0,18.76,7L17.2,3.46a1.35,1.35,0,0,0-.2-.27.5.5,0,0,0-.27-.08h-.16V2.88h1.68v.23h-.16a.37.37,0,0,0-.27.12.26.26,0,0,0,0,.27L19,6.16h.08l1-2.62a.28.28,0,0,0,0-.31.38.38,0,0,0-.28-.12h-.23V2.88h1.64Z"/><path class="cls-1" d="M24.85,3.38a.42.42,0,0,1-.12.32.29.29,0,0,1-.27.11.41.41,0,0,1-.31-.11.41.41,0,0,1,0-.32.19.19,0,0,0,0-.19s-.1-.08-.23-.08a.93.93,0,0,0-.55.2,2.61,2.61,0,0,0-.63.86V6.71a.32.32,0,0,0,.08.23A.51.51,0,0,0,23,7h.31v.23H21.45V7h.32A.38.38,0,0,0,22,6.94a.32.32,0,0,0,.08-.23V3.46A.5.5,0,0,0,22,3.19a.38.38,0,0,0-.27-.08h-.16V2.88h.12a2.86,2.86,0,0,0,.43,0,1,1,0,0,0,.39-.16h.11v1A2.42,2.42,0,0,1,23.25,3,1.55,1.55,0,0,1,24,2.8a.9.9,0,0,1,.59.16A.56.56,0,0,1,24.85,3.38Z"/><path class="cls-1" d="M27.08,7.25h-1.8V7h.27a.41.41,0,0,0,.28-.08.32.32,0,0,0,.08-.23V3.46a.5.5,0,0,0-.08-.27.41.41,0,0,0-.28-.08h-.27V2.88h.16A1.7,1.7,0,0,0,26,2.8a2.39,2.39,0,0,0,.43-.2h.07V6.71a.32.32,0,0,0,.08.23A.5.5,0,0,0,26.8,7h.28ZM26.73,1a.5.5,0,0,1-.16.35.46.46,0,0,1-.7,0A.46.46,0,0,1,25.71,1a.47.47,0,0,1,.16-.35.57.57,0,0,1,.7,0A.51.51,0,0,1,26.73,1Z"/><path class="cls-1" d="M30.55,6.43a1.49,1.49,0,0,1,.86.31,1,1,0,0,1,.28.71,1.07,1.07,0,0,1-.51.93,2.52,2.52,0,0,1-1.52.36,2.34,2.34,0,0,1-1.33-.36A.8.8,0,0,1,28,7.1a1.17,1.17,0,0,1,.62-.43,1.3,1.3,0,0,1-.39-.28.41.41,0,0,1-.12-.31.64.64,0,0,1,.16-.43,1,1,0,0,1,.39-.27,2.58,2.58,0,0,1-.43-.47,1.08,1.08,0,0,1-.16-.59,1.5,1.5,0,0,1,.39-1.05,1.5,1.5,0,0,1,1.18-.43,1.85,1.85,0,0,1,.58.08,1,1,0,0,1,.51.27c.18-.13.34-.23.47-.31a1.35,1.35,0,0,1,.39-.08.29.29,0,0,1,.27.12.63.63,0,0,1,.08.27.32.32,0,0,1-.08.23.17.17,0,0,1-.19.12.24.24,0,0,1-.2-.08.22.22,0,0,1-.11-.15.19.19,0,0,0-.2-.12,1,1,0,0,0-.27.16.93.93,0,0,1,.23.43,2,2,0,0,1,.08.54,1.42,1.42,0,0,1-.39.9,1.44,1.44,0,0,1-1.17.47,1.18,1.18,0,0,1-.43-.08.71.71,0,0,1-.32-.12.65.65,0,0,0-.23.2.41.41,0,0,0-.08.19.33.33,0,0,0,.08.24.32.32,0,0,0,.23.08c.34,0,.64.09.9.11A7.41,7.41,0,0,0,30.55,6.43ZM29,6.74a1.37,1.37,0,0,0-.5.36,1.13,1.13,0,0,0-.12.54.77.77,0,0,0,.35.59,1.71,1.71,0,0,0,1.05.27,2.27,2.27,0,0,0,1.06-.23.66.66,0,0,0,.39-.63.71.71,0,0,0-.12-.43A.35.35,0,0,0,30.79,7l-.86-.16A9,9,0,0,1,29,6.74Zm-.31-2.42a1.14,1.14,0,0,0,.27.78.9.9,0,0,0,.75.36.93.93,0,0,0,.74-.32,1.21,1.21,0,0,0,.27-.82,1.3,1.3,0,0,0-.31-1,.93.93,0,0,0-.7-.28,1,1,0,0,0-.75.28A1.36,1.36,0,0,0,28.64,4.32Z"/><path class="cls-1" d="M32.43,7.25V7h.19a.41.41,0,0,0,.28-.08A.32.32,0,0,0,33,6.71V1.12A.36.36,0,0,0,32.9.88a.41.41,0,0,0-.28-.07h-.23V.57h.43a.6.6,0,0,0,.31-.08,1.28,1.28,0,0,0,.32-.23h.07V3.58A2.34,2.34,0,0,1,34.23,3a1.73,1.73,0,0,1,.82-.16,1.16,1.16,0,0,1,.9.31,1.61,1.61,0,0,1,.31,1.06V6.71a.28.28,0,0,0,.08.23.46.46,0,0,0,.27.08h.19v.23H35.16V7h.2a.38.38,0,0,0,.27-.08.32.32,0,0,0,.08-.23V4.24a1.29,1.29,0,0,0-.23-.89.76.76,0,0,0-.55-.2,1.6,1.6,0,0,0-.7.2,2.38,2.38,0,0,0-.71.66v2.7a.32.32,0,0,0,.08.23.51.51,0,0,0,.28.08h.19v.23Z"/><path class="cls-1" d="M40.12,6.43a.91.91,0,0,1-.31.63,1.13,1.13,0,0,1-.74.23A1,1,0,0,1,38.33,7a1.6,1.6,0,0,1-.28-1.1V3.11h-.82V2.88h.36a.47.47,0,0,0,.5-.32,2.36,2.36,0,0,0,.24-.89l0-.32h.23V2.88h1.25v.23H38.6V6c0,.39.07.64.2.74a.64.64,0,0,0,.43.16.83.83,0,0,0,.47-.16.63.63,0,0,0,.23-.43Z"/><path class="cls-1" d="M47,6.86A3,3,0,0,1,44.81,6,2.92,2.92,0,0,1,44,3.81a2.92,2.92,0,0,1,.86-2.14,3.11,3.11,0,0,1,4.38,0,2.92,2.92,0,0,1,.86,2.14A2.92,2.92,0,0,1,49.19,6,3,3,0,0,1,47,6.86Zm2-1.09a2.65,2.65,0,0,0,.78-2A2.65,2.65,0,0,0,49,1.86a2.82,2.82,0,0,0-4,0,2.65,2.65,0,0,0-.78,2,2.65,2.65,0,0,0,.78,2,2.82,2.82,0,0,0,4,0ZM48.25,3a3.13,3.13,0,0,0-.35-.66A1.28,1.28,0,0,0,47,2a.91.91,0,0,0-.66.31A2.12,2.12,0,0,0,46,3.81a1.86,1.86,0,0,0,.46,1.37,1,1,0,0,0,.75.31,1.38,1.38,0,0,0,1.21-.89l.11,0A1.47,1.47,0,0,1,47,5.73a1.55,1.55,0,0,1-1.13-.47,2,2,0,0,1-.51-1.45,1.93,1.93,0,0,1,.55-1.44A1.51,1.51,0,0,1,47,1.86a2,2,0,0,1,.59.08A.45.45,0,0,0,47.9,2l.19-.08.28,1Z"/><path class="cls-1" d="M55.91,7.33a1.7,1.7,0,0,1-1.45-.9,4.64,4.64,0,0,1-.58-2.54,4.77,4.77,0,0,1,.54-2.46A1.74,1.74,0,0,1,55.91.49a1.6,1.6,0,0,1,1.4.9,4.69,4.69,0,0,1,.59,2.5,4.67,4.67,0,0,1-.59,2.5A1.66,1.66,0,0,1,55.91,7.33Zm0-6.52c-.39,0-.71.27-.94.82a5.59,5.59,0,0,0-.35,2.26A5.76,5.76,0,0,0,55,6.2c.26.54.57.82.94.82s.69-.28.89-.82a6.08,6.08,0,0,0,.36-2.31,6.69,6.69,0,0,0-.32-2.26C56.63,1.08,56.32.81,55.91.81Z"/><path class="cls-1" d="M60.91,7.33a1.7,1.7,0,0,1-1.45-.9,4.64,4.64,0,0,1-.58-2.54,4.77,4.77,0,0,1,.54-2.46A1.74,1.74,0,0,1,60.91.49a1.6,1.6,0,0,1,1.4.9,4.69,4.69,0,0,1,.59,2.5,4.67,4.67,0,0,1-.59,2.5A1.66,1.66,0,0,1,60.91,7.33Zm0-6.52c-.39,0-.71.27-.94.82a5.59,5.59,0,0,0-.35,2.26A5.76,5.76,0,0,0,60,6.2c.26.54.57.82.94.82s.69-.28.89-.82a6.08,6.08,0,0,0,.36-2.31,6.69,6.69,0,0,0-.32-2.26C61.63,1.08,61.32.81,60.91.81Z"/><path class="cls-1" d="M65.91,7.33a1.7,1.7,0,0,1-1.45-.9,4.64,4.64,0,0,1-.58-2.54,4.77,4.77,0,0,1,.54-2.46A1.74,1.74,0,0,1,65.91.49a1.6,1.6,0,0,1,1.4.9,4.69,4.69,0,0,1,.59,2.5,4.67,4.67,0,0,1-.59,2.5A1.66,1.66,0,0,1,65.91,7.33Zm0-6.52c-.39,0-.71.27-.94.82a5.59,5.59,0,0,0-.35,2.26A5.76,5.76,0,0,0,65,6.2c.26.54.57.82.94.82s.69-.28.89-.82a6.08,6.08,0,0,0,.36-2.31,6.69,6.69,0,0,0-.32-2.26C66.63,1.08,66.32.81,65.91.81Z"/><path class="cls-1" d="M70.91,7.33a1.7,1.7,0,0,1-1.45-.9,4.64,4.64,0,0,1-.58-2.54,4.77,4.77,0,0,1,.54-2.46A1.74,1.74,0,0,1,70.91.49a1.6,1.6,0,0,1,1.4.9,4.69,4.69,0,0,1,.59,2.5,4.67,4.67,0,0,1-.59,2.5A1.66,1.66,0,0,1,70.91,7.33Zm0-6.52c-.39,0-.71.27-.94.82a5.59,5.59,0,0,0-.35,2.26A5.76,5.76,0,0,0,70,6.2c.26.54.57.82.94.82s.69-.28.89-.82a6.08,6.08,0,0,0,.36-2.31,6.69,6.69,0,0,0-.32-2.26C71.63,1.08,71.32.81,70.91.81Z"/><path class="cls-1" d="M75.91,7.33a1.7,1.7,0,0,1-1.45-.9,4.64,4.64,0,0,1-.58-2.54,4.77,4.77,0,0,1,.54-2.46A1.74,1.74,0,0,1,75.91.49a1.6,1.6,0,0,1,1.4.9,4.69,4.69,0,0,1,.59,2.5,4.67,4.67,0,0,1-.59,2.5A1.66,1.66,0,0,1,75.91,7.33Zm0-6.52c-.39,0-.71.27-.94.82a5.59,5.59,0,0,0-.35,2.26A5.76,5.76,0,0,0,75,6.2c.26.54.57.82.94.82s.69-.28.89-.82a6.08,6.08,0,0,0,.36-2.31,6.69,6.69,0,0,0-.32-2.26C76.63,1.08,76.32.81,75.91.81Z"/><path class="cls-1" d="M80.91,7.33a1.7,1.7,0,0,1-1.45-.9,4.64,4.64,0,0,1-.58-2.54,4.77,4.77,0,0,1,.54-2.46A1.74,1.74,0,0,1,80.91.49a1.6,1.6,0,0,1,1.4.9,4.69,4.69,0,0,1,.59,2.5,4.67,4.67,0,0,1-.59,2.5A1.66,1.66,0,0,1,80.91,7.33Zm0-6.52c-.39,0-.71.27-.94.82a5.59,5.59,0,0,0-.35,2.26A5.76,5.76,0,0,0,80,6.2c.26.54.57.82.94.82s.69-.28.89-.82a6.08,6.08,0,0,0,.36-2.31,6.69,6.69,0,0,0-.32-2.26C81.63,1.08,81.32.81,80.91.81Z"/><path class="cls-1" d="M85.91,7.33a1.7,1.7,0,0,1-1.45-.9,4.64,4.64,0,0,1-.58-2.54,4.77,4.77,0,0,1,.54-2.46A1.74,1.74,0,0,1,85.91.49a1.6,1.6,0,0,1,1.4.9,4.69,4.69,0,0,1,.59,2.5,4.67,4.67,0,0,1-.59,2.5A1.66,1.66,0,0,1,85.91,7.33Zm0-6.52c-.39,0-.71.27-.94.82a5.59,5.59,0,0,0-.35,2.26A5.76,5.76,0,0,0,85,6.2c.26.54.57.82.94.82s.69-.28.89-.82a6.08,6.08,0,0,0,.36-2.31,6.69,6.69,0,0,0-.32-2.26C86.63,1.08,86.32.81,85.91.81Z"/><path class="cls-1" d="M90.91,7.33a1.7,1.7,0,0,1-1.45-.9,4.64,4.64,0,0,1-.58-2.54,4.77,4.77,0,0,1,.54-2.46A1.74,1.74,0,0,1,90.91.49a1.6,1.6,0,0,1,1.4.9,4.69,4.69,0,0,1,.59,2.5,4.67,4.67,0,0,1-.59,2.5A1.66,1.66,0,0,1,90.91,7.33Zm0-6.52c-.39,0-.71.27-.94.82a5.59,5.59,0,0,0-.35,2.26A5.76,5.76,0,0,0,90,6.2c.26.54.57.82.94.82s.69-.28.89-.82a6.08,6.08,0,0,0,.36-2.31,6.69,6.69,0,0,0-.32-2.26C91.63,1.08,91.32.81,90.91.81Z"/><path class="cls-1" d="M103,7.25h-1.76V7h.16c.15,0,.24,0,.27-.16a.52.52,0,0,0,0-.39L101,4.75H98.09l-.66,1.68a.41.41,0,0,0,0,.43.56.56,0,0,0,.43.16H98v.23H96.49V7h.08a.36.36,0,0,0,.27-.12.49.49,0,0,0,.24-.31l2.38-6,.59-.19,2.34,6.17a.58.58,0,0,0,.2.31.34.34,0,0,0,.27.12H103Zm-2.07-2.73L99.58,1.08h0L98.17,4.52Z"/><path class="cls-1" d="M105.2,7.25h-1.79V7h.27a.38.38,0,0,0,.27-.08.32.32,0,0,0,.08-.23V1.12A.36.36,0,0,0,104,.88a.38.38,0,0,0-.27-.07h-.27V.57h.23a1,1,0,0,0,.43-.08,2.64,2.64,0,0,0,.43-.23h.08V6.71a.28.28,0,0,0,.08.23.48.48,0,0,0,.27.08h.27Z"/><path class="cls-1" d="M107.62,7.25h-1.79V7h.27a.43.43,0,0,0,.28-.08.32.32,0,0,0,.07-.23V1.12a.36.36,0,0,0-.07-.24.43.43,0,0,0-.28-.07h-.27V.57h.23a1,1,0,0,0,.43-.08,2.28,2.28,0,0,0,.43-.23H107V6.71a.32.32,0,0,0,.08.23.5.5,0,0,0,.27.08h.27Z"/><path class="cls-1" d="M116.84,7.25h-1.09l-1.68-3.36h-1.41V6.71a.32.32,0,0,0,.08.23A.51.51,0,0,0,113,7h.23v.23h-1.8V7h.24a.38.38,0,0,0,.27-.08.32.32,0,0,0,.08-.23V1.12A.36.36,0,0,0,112,.88a.38.38,0,0,0-.27-.07h-.24V.57h2.74a3.09,3.09,0,0,1,1.64.39,1.3,1.3,0,0,1,.62,1.17,1.47,1.47,0,0,1-.54,1.22,2.59,2.59,0,0,1-1.25.54l1.56,2.85a.38.38,0,0,0,.16.2.4.4,0,0,0,.23.08h.23Zm-1-5a1.25,1.25,0,0,0-.51-1A2.13,2.13,0,0,0,114,.81H113a.51.51,0,0,0-.28.07.36.36,0,0,0-.08.24V3.66H114a2.06,2.06,0,0,0,1.25-.35A1.25,1.25,0,0,0,115.79,2.21Z"/><path class="cls-1" d="M119.11,7.25h-1.8V7h.28a.38.38,0,0,0,.27-.08.32.32,0,0,0,.08-.23V3.46a.5.5,0,0,0-.08-.27.38.38,0,0,0-.27-.08h-.28V2.88h.16A1.7,1.7,0,0,0,118,2.8a2.11,2.11,0,0,0,.43-.2h.07V6.71a.32.32,0,0,0,.08.23.51.51,0,0,0,.28.08h.27ZM118.76,1a.46.46,0,0,1-.16.35.46.46,0,0,1-.7,0,.46.46,0,0,1-.16-.35.47.47,0,0,1,.16-.35.57.57,0,0,1,.7,0A.47.47,0,0,1,118.76,1Z"/><path class="cls-1" d="M122.59,6.43a1.55,1.55,0,0,1,.86.31,1,1,0,0,1,.27.71,1.07,1.07,0,0,1-.51.93,2.52,2.52,0,0,1-1.52.36,2.36,2.36,0,0,1-1.33-.36.87.87,0,0,1-.51-.74.93.93,0,0,1,.2-.54,1.17,1.17,0,0,1,.62-.43,1.44,1.44,0,0,1-.39-.28.41.41,0,0,1-.12-.31.69.69,0,0,1,.16-.43,1,1,0,0,1,.39-.27,2.58,2.58,0,0,1-.43-.47,1.08,1.08,0,0,1-.16-.59,1.47,1.47,0,0,1,.4-1.05,1.49,1.49,0,0,1,1.17-.43,1.81,1.81,0,0,1,.58.08,1,1,0,0,1,.51.27c.18-.13.34-.23.47-.31a1.41,1.41,0,0,1,.39-.08.29.29,0,0,1,.27.12.51.51,0,0,1,.08.27.28.28,0,0,1-.08.23.17.17,0,0,1-.19.12.26.26,0,0,1-.2-.08.22.22,0,0,1-.11-.15.19.19,0,0,0-.2-.12,1,1,0,0,0-.27.16.93.93,0,0,1,.23.43,2,2,0,0,1,.08.54,1.42,1.42,0,0,1-.39.9,1.44,1.44,0,0,1-1.17.47,1.18,1.18,0,0,1-.43-.08.63.63,0,0,1-.31-.12.61.61,0,0,0-.24.2.41.41,0,0,0-.08.19.28.28,0,0,0,.32.32c.33,0,.63.09.89.11A7.11,7.11,0,0,0,122.59,6.43ZM121,6.74a1.37,1.37,0,0,0-.5.36,1.13,1.13,0,0,0-.12.54.77.77,0,0,0,.35.59,1.74,1.74,0,0,0,1.06.27,2.26,2.26,0,0,0,1-.23.66.66,0,0,0,.39-.63.71.71,0,0,0-.12-.43.35.35,0,0,0-.27-.19L122,6.86A9,9,0,0,1,121,6.74Zm-.31-2.42a1.1,1.1,0,0,0,.28.78.88.88,0,0,0,.74.36.93.93,0,0,0,.74-.32,1.21,1.21,0,0,0,.27-.82,1.3,1.3,0,0,0-.31-1,.93.93,0,0,0-.7-.28,1,1,0,0,0-.74.28A1.31,1.31,0,0,0,120.67,4.32Z"/><path class="cls-1" d="M124.46,7.25V7h.2a.38.38,0,0,0,.27-.08.32.32,0,0,0,.08-.23V1.12a.36.36,0,0,0-.08-.24.38.38,0,0,0-.27-.07h-.24V.57h.43a.58.58,0,0,0,.31-.08,1.28,1.28,0,0,0,.32-.23h.07V3.58a2.34,2.34,0,0,1,.71-.62,1.76,1.76,0,0,1,.82-.16,1.16,1.16,0,0,1,.9.31,1.61,1.61,0,0,1,.31,1.06V6.71a.28.28,0,0,0,.08.23.5.5,0,0,0,.27.08h.2v.23H127.2V7h.19a.38.38,0,0,0,.27-.08.28.28,0,0,0,.08-.23V4.24a1.29,1.29,0,0,0-.23-.89.74.74,0,0,0-.55-.2,1.6,1.6,0,0,0-.7.2,2.38,2.38,0,0,0-.71.66v2.7a.32.32,0,0,0,.08.23.51.51,0,0,0,.28.08h.19v.23Z"/><path class="cls-1" d="M132.16,6.43a.92.92,0,0,1-.32.63,1.13,1.13,0,0,1-.74.23,1,1,0,0,1-.74-.31,1.61,1.61,0,0,1-.27-1.1V3.11h-.82V2.88h.35a.47.47,0,0,0,.5-.32,2.36,2.36,0,0,0,.24-.89l0-.32h.23V2.88h1.25v.23h-1.25V6c0,.39.07.64.2.74a.64.64,0,0,0,.43.16.83.83,0,0,0,.47-.16.63.63,0,0,0,.23-.43Z"/><path class="cls-1" d="M136.22,6a1.09,1.09,0,0,1-.43.9,1.53,1.53,0,0,1-1,.35,1.87,1.87,0,0,1-.74-.12,1.07,1.07,0,0,0-.39-.07.6.6,0,0,0-.2,0c0,.06-.09.11-.19.16l-.12-1.44.24,0a1.5,1.5,0,0,0,.43.93,1.4,1.4,0,0,0,1,.32,1.15,1.15,0,0,0,.67-.2.67.67,0,0,0,.27-.58.69.69,0,0,0-.23-.55,1.9,1.9,0,0,0-.59-.39l-.47-.24a1.93,1.93,0,0,1-.35-.15,3,3,0,0,1-.55-.43.74.74,0,0,1-.23-.51,1.09,1.09,0,0,1,.39-.9,1.44,1.44,0,0,1,.94-.31,1.67,1.67,0,0,1,.58.08.87.87,0,0,0,.35.11.3.3,0,0,0,.16,0,1.05,1.05,0,0,0,.2-.16l.15,1.29-.23,0a1.66,1.66,0,0,0-.43-.82A1,1,0,0,0,134.7,3a1.09,1.09,0,0,0-.71.2.74.74,0,0,0-.19.55.55.55,0,0,0,.19.46,5.36,5.36,0,0,0,.55.32l.31.15c.13.06.3.13.51.24a1.94,1.94,0,0,1,.59.47A1,1,0,0,1,136.22,6Z"/><path class="cls-1" d="M145.71,7.25h-1.09l-1.68-3.36h-1.41V6.71a.32.32,0,0,0,.08.23.5.5,0,0,0,.27.08h.24v.23h-1.8V7h.23a.41.41,0,0,0,.28-.08.32.32,0,0,0,.08-.23V1.12a.36.36,0,0,0-.08-.24.41.41,0,0,0-.28-.07h-.23V.57h2.73A3.1,3.1,0,0,1,144.7,1a1.3,1.3,0,0,1,.62,1.17,1.45,1.45,0,0,1-.55,1.22,2.54,2.54,0,0,1-1.25.54l1.57,2.85a.43.43,0,0,0,.15.2.46.46,0,0,0,.24.08h.23Zm-1.05-5a1.25,1.25,0,0,0-.51-1,2.15,2.15,0,0,0-1.33-.35h-.94a.5.5,0,0,0-.27.07.36.36,0,0,0-.08.24V3.66h1.37a2.06,2.06,0,0,0,1.25-.35A1.25,1.25,0,0,0,144.66,2.21Z"/><path class="cls-1" d="M147,5.06a2.22,2.22,0,0,0,.39,1.49,1.44,1.44,0,0,0,1.1.47,1.37,1.37,0,0,0,.85-.31,1.81,1.81,0,0,0,.51-.71l.2.08a2.07,2.07,0,0,1-.55.82,1.47,1.47,0,0,1-1.09.43,2,2,0,0,1-1.49-.59,2.39,2.39,0,0,1-.54-1.68,2.44,2.44,0,0,1,.54-1.64,1.82,1.82,0,0,1,1.41-.62,1.85,1.85,0,0,1,1.29.51,2.33,2.33,0,0,1,.54,1.75Zm2.5-.23a2,2,0,0,0-.31-1.33,1,1,0,0,0-.86-.43,1.24,1.24,0,0,0-1,.47A2,2,0,0,0,147,4.83Z"/><path class="cls-1" d="M154.15,6a1.12,1.12,0,0,1-.43.9,1.53,1.53,0,0,1-1,.35,1.87,1.87,0,0,1-.74-.12,1.07,1.07,0,0,0-.39-.07.6.6,0,0,0-.2,0c0,.06-.09.11-.19.16l-.12-1.44.24,0a1.5,1.5,0,0,0,.43.93,1.4,1.4,0,0,0,1,.32,1.15,1.15,0,0,0,.67-.2.67.67,0,0,0,.27-.58.69.69,0,0,0-.23-.55,1.9,1.9,0,0,0-.59-.39l-.47-.24A1.93,1.93,0,0,1,152,5a3,3,0,0,1-.55-.43.74.74,0,0,1-.23-.51,1.09,1.09,0,0,1,.39-.9,1.44,1.44,0,0,1,.94-.31,1.67,1.67,0,0,1,.58.08.87.87,0,0,0,.35.11.3.3,0,0,0,.16,0,1.05,1.05,0,0,0,.2-.16L154,4.09l-.23,0a1.66,1.66,0,0,0-.43-.82,1,1,0,0,0-.75-.28,1.08,1.08,0,0,0-.7.2.74.74,0,0,0-.19.55.55.55,0,0,0,.19.46,5.36,5.36,0,0,0,.55.32l.31.15c.13.06.3.13.51.24a1.94,1.94,0,0,1,.59.47A1,1,0,0,1,154.15,6Z"/><path class="cls-1" d="M155.83,5.06a2.22,2.22,0,0,0,.39,1.49,1.41,1.41,0,0,0,1.09.47,1.4,1.4,0,0,0,.86-.31,1.81,1.81,0,0,0,.51-.71l.2.08a2.18,2.18,0,0,1-.55.82,1.48,1.48,0,0,1-1.1.43,2,2,0,0,1-1.48-.59,2.35,2.35,0,0,1-.55-1.68,2.39,2.39,0,0,1,.55-1.64,1.79,1.79,0,0,1,1.41-.62,1.85,1.85,0,0,1,1.29.51A2.33,2.33,0,0,1,159,5.06Zm2.5-.23A2.09,2.09,0,0,0,158,3.5a1,1,0,0,0-.86-.43,1.24,1.24,0,0,0-1,.47,2,2,0,0,0-.35,1.29Z"/><path class="cls-1" d="M163,3.38a.42.42,0,0,1-.12.32.31.31,0,0,1-.28.11.41.41,0,0,1-.31-.11.46.46,0,0,1,0-.32.15.15,0,0,0,0-.19s-.1-.08-.23-.08a1,1,0,0,0-.55.2,2.48,2.48,0,0,0-.62.86V6.71a.28.28,0,0,0,.08.23.48.48,0,0,0,.27.08h.31v.23h-1.87V7h.31a.38.38,0,0,0,.27-.08.32.32,0,0,0,.08-.23V3.46a.5.5,0,0,0-.08-.27.38.38,0,0,0-.27-.08h-.16V2.88h.12a2.74,2.74,0,0,0,.43,0,.87.87,0,0,0,.39-.16h.12v1a2.4,2.4,0,0,1,.58-.71,1.62,1.62,0,0,1,.79-.19.87.87,0,0,1,.58.16A.55.55,0,0,1,163,3.38Z"/><path class="cls-1" d="M167.78,3.11h-.08a.53.53,0,0,0-.39.16,1.33,1.33,0,0,0-.23.39l-1.53,3.63h-.23L163.8,3.46a.63.63,0,0,0-.16-.27.5.5,0,0,0-.27-.08h-.2V2.88h1.68v.23h-.15c-.16,0-.25,0-.28.12a.81.81,0,0,0,0,.39l1.09,2.77h.08l1.14-2.73a.53.53,0,0,0,0-.39.32.32,0,0,0-.32-.16h-.07V2.88h1.4Z"/><path class="cls-1" d="M169,5.06a2.22,2.22,0,0,0,.39,1.49,1.44,1.44,0,0,0,1.1.47,1.4,1.4,0,0,0,.86-.31,1.88,1.88,0,0,0,.5-.71l.2.08a2.07,2.07,0,0,1-.55.82,1.45,1.45,0,0,1-1.09.43,2,2,0,0,1-1.49-.59,2.39,2.39,0,0,1-.54-1.68,2.44,2.44,0,0,1,.54-1.64,1.82,1.82,0,0,1,1.41-.62,1.85,1.85,0,0,1,1.29.51,2.33,2.33,0,0,1,.55,1.75Zm2.5-.23a2,2,0,0,0-.31-1.33,1,1,0,0,0-.86-.43,1.24,1.24,0,0,0-1,.47A2,2,0,0,0,169,4.83Z"/><path class="cls-1" d="M174.93,7.29a1.55,1.55,0,0,1-1.21-.58,2.36,2.36,0,0,1-.51-1.65,2.39,2.39,0,0,1,.55-1.64,1.69,1.69,0,0,1,1.29-.58,1.52,1.52,0,0,1,.62.12,1.25,1.25,0,0,1,.55.42V1.28a.69.69,0,0,0-.08-.36.31.31,0,0,0-.27-.11h-.32V.57H176a1,1,0,0,0,.4-.08,2.07,2.07,0,0,0,.39-.23V6.43a.43.43,0,0,0,.07.28.34.34,0,0,0,.24.07h.27V7h-.23a2,2,0,0,0-.39,0,3.8,3.8,0,0,0-.43.19h-.08V6.51a1.39,1.39,0,0,1-.55.55A1.23,1.23,0,0,1,174.93,7.29Zm1.29-3.55a1,1,0,0,0-.51-.47,1.52,1.52,0,0,0-.62-.12,1.06,1.06,0,0,0-.94.55,2.75,2.75,0,0,0-.31,1.44,2.35,2.35,0,0,0,.31,1.37,1,1,0,0,0,.9.47,1,1,0,0,0,.7-.27,1.75,1.75,0,0,0,.47-.83Z"/><path class="cls-1" d="M179.07,7.37a.64.64,0,0,1-.43-.16.58.58,0,0,1-.16-.43.61.61,0,0,1,.16-.43.68.68,0,0,1,.43-.15.53.53,0,0,1,.39.15.62.62,0,0,1,.2.43.51.51,0,0,1-.2.43A.5.5,0,0,1,179.07,7.37Z"/></g></g></svg>