<svg xmlns="http://www.w3.org/2000/svg" viewBox="0 0 69.79 27.07"><defs><style>.cls-1{fill:#7b7b7c;}</style></defs><title>アセット 7</title><g id="レイヤー_2" data-name="レイヤー 2"><g id="レイヤー_1-2" data-name="レイヤー 1"><path class="cls-1" d="M27.07,21.62c1.09,0,1.74.55,1.74,1.22a.72.72,0,0,1-.69.74c-.3,0-.49-.16-.54-.56-.06-.65-.17-1.07-.51-1.28,0,3.82,0,4.58,0,4.87s-.33.46-.83.46-.49-.11-.49-.39,0-1.15.08-2.7v-.71a8,8,0,0,1-1.94,2.23c-.05,0-.14,0-.1-.08A11.87,11.87,0,0,0,25.67,21h-.51a7,7,0,0,0-1.07.08L24,20.65a8.32,8.32,0,0,0,1.18.08h.71c0-3,0-3.37-.07-3.94,1.58.1,1.69.19,1.69.39s-.06.2-.42.35v2.29a12.91,12.91,0,0,0,.54-1.59c0-.08.05-.23.08-.44,1.14.54,1.21.62,1.21.73s0,.15-.3.23a18.25,18.25,0,0,1-1.53,1.45v.53h.36c.57-.83.61-.86.69-.86s.15,0,.53.45.35.41.35.5a.12.12,0,0,1-.12.13H27.07Zm-2.85-3.54s0-.1.06-.08a1.8,1.8,0,0,1,1.46,1.61.68.68,0,0,1-.62.76c-.29,0-.5-.22-.48-.63A2.27,2.27,0,0,0,24.22,18.08Zm8.43,2.64c0,.81,0,1.53,0,2.15.5-1.17.52-1.19.61-1.19s.13,0,.64.44.47.39.47.48,0,.12-.23.17l-1.49.33c0,2.26,0,3.29,0,3.51s-.28.46-.87.46-.57-.05-.57-.4,0-1.23.07-3.28l-2.17.49a12.55,12.55,0,0,0-1.21.34l-.18-.33c.54-.07,1-.16,1.34-.22l2.22-.5c0-.71,0-1.54,0-2.49,0-2.94,0-3.35-.07-3.94,1.65.15,1.78.26,1.78.42s-.11.19-.4.36Zm-3.51-2.83c1.27,0,1.86.59,1.86,1.19a.73.73,0,0,1-.76.79c-.37,0-.55-.22-.6-.68A1.49,1.49,0,0,0,29.1,18C29.05,18,29.07,17.89,29.14,17.89ZM31,21.72a.74.74,0,0,1-.76.8c-.38,0-.58-.26-.6-.72a1.4,1.4,0,0,0-.53-1.17c-.05,0,0-.1,0-.1C30.42,20.5,31,21.12,31,21.72Z"/><path class="cls-1" d="M37.46,23.53c.58-.1,1.16-.2,1.71-.32.06,0,.11.08,0,.12A32.49,32.49,0,0,1,36,25.2c-.05.38-.15.47-.25.47s-.29-.1-.86-1.84a5.45,5.45,0,0,0,.71,0l.64-.09V21a9.49,9.49,0,0,0-1.09.07L35,20.7c.52.05.88.08,1.19.08V19a8.36,8.36,0,0,0,0-1,8,8,0,0,0-1.14.08l-.1-.38a9.52,9.52,0,0,0,1.28.08h1.12C37.94,17,38,17,38,17s.13,0,.58.49c.29.31.33.34.33.41a.11.11,0,0,1-.12.11H37.71c0,.1-.07.18-.25.25v2.55c.51-.71.53-.73.61-.73s.12,0,.46.4.34.39.34.45,0,.1-.12.1H37.46Zm6,2.81c.69-.9.72-.92.81-.92s.15,0,.69.5.47.43.47.53,0,.11-.12.11H38.68a11.79,11.79,0,0,0-1.24.08l-.11-.37c.54.05,1,.07,1.35.07h2.38v-2h-1a6.5,6.5,0,0,0-1.11.08l-.1-.38a10.09,10.09,0,0,0,1.21.08h1v-2h-.79v.24c0,.42-.23.57-.76.57s-.51-.07-.51-.41c0-.18.06-1.43.06-3.39,0-1.07,0-1.47-.06-2.12,1,.23,1.37.33,1.47.44h2.58c.49-.52.53-.54.63-.54s.17,0,.72.46.47.39.47.5,0,.14-.36.4v1.3c0,1.32.07,2.41.07,2.65s-.23.53-.9.53c-.39,0-.47-.06-.47-.41v-.22h-.85v2h.72c.65-.83.72-.89.82-.89s.18.05.67.5.42.43.42.51-.05.1-.11.1H42.36v2Zm-3-8.71a.75.75,0,0,1-.2.16v1.9h.79V18.18c0-.23,0-.4,0-.55Zm.59,4.23V19.91h-.79v1.95Zm1.3-2.17h.85V17.63h-.65a.43.43,0,0,1-.2.22Zm.85,2.17V19.91h-.85v1.95Z"/><path class="cls-1" d="M10.23,3.2a.19.19,0,0,1-.16.23c-.16,0-.19,0-.26-.13a6.25,6.25,0,0,0-1.44-2,3.15,3.15,0,0,0-2-.76C4,.54,2.21,2.72,2.21,6.05c0,3,1.81,5.19,4.19,5.19A4.31,4.31,0,0,0,10.34,9c.05-.08.11-.11.32,0s.18.16.11.28a5,5,0,0,1-4.7,2.9A5.84,5.84,0,0,1,0,6.08,5.9,5.9,0,0,1,6.13,0a8,8,0,0,1,2,.26A4.18,4.18,0,0,0,10,.43C10,1.26,10.13,2.37,10.23,3.2Z"/><path class="cls-1" d="M21.49,3.17a4.53,4.53,0,0,0-.3-1.91A1.68,1.68,0,0,0,19.94.7c-.11,0-.14,0-.14-.22s0-.22.14-.22c.64,0,1.31.06,1.94.06s1.2,0,1.79-.06c.11,0,.14,0,.14.2s0,.23-.14.24a1.29,1.29,0,0,0-1,.58,3.58,3.58,0,0,0-.39,1.89v2c0,1,0,2,0,3a3.83,3.83,0,0,1-1.22,3,4.65,4.65,0,0,1-3.14,1.05A5.3,5.3,0,0,1,14.05,11a3.19,3.19,0,0,1-1-2.55c0-1,0-2.11,0-3.15V3.17c0-1.51,0-1.71-.19-2S12.4.77,11.71.7c-.11,0-.13,0-.13-.22s0-.22.13-.22c.74,0,1.59.06,2.28.06s1.61,0,2.33-.06c.11,0,.15,0,.15.22s0,.21-.15.22c-.64.07-.94.07-1.12.42A5,5,0,0,0,15,3.17V5.28C15,6,15,6.71,15,7.4c0,1.42.08,2.36.81,3a3.21,3.21,0,0,0,2.23.83,3.53,3.53,0,0,0,2.69-.91,3.27,3.27,0,0,0,.81-2.51c0-.8,0-1.6,0-2.66Z"/><path class="cls-1" d="M28.37,9c0,1.6,0,1.82.16,2.14s.59.34,1.25.4c.11,0,.14.05.14.21s0,.19-.16.19c-.78,0-1.61,0-2.35,0s-1.54,0-2.24,0c-.1,0-.13,0-.13-.19s0-.19.11-.21c.61-.06,1-.06,1.15-.4A5.59,5.59,0,0,0,26.48,9V3.17c0-1.54,0-1.73-.16-2.08s-.58-.34-1.25-.4C25,.69,25,.66,25,.46s0-.2.13-.2c.77,0,1.62.06,2.32.06S29,.27,29.7.26c.11,0,.14,0,.14.22s-.05.19-.14.21c-.61.06-1,.08-1.15.4a5.48,5.48,0,0,0-.18,2.08Z"/><path class="cls-1" d="M34.26,6.27c-1.91-1-2.55-1.76-2.55-3.39S33.15,0,35.3,0a6.06,6.06,0,0,1,1.61.22A4,4,0,0,0,38.5.27c0,.82.11,1.86.17,2.71,0,.08,0,.12-.15.16s-.21,0-.24-.1C37.65,1.57,36.66.51,35.38.51a1.89,1.89,0,0,0-1.92,2c0,.72.43,1.39,1.77,2.05L36.1,5c2.27,1.11,3.07,1.83,3.07,3.73,0,2.16-1.58,3.46-4.27,3.46a9.28,9.28,0,0,1-3.08-.56A25.59,25.59,0,0,1,31.26,9c0-.11,0-.23.18-.26s.24,0,.27.1c.72,1.61,2,2.88,3.36,2.88a2.22,2.22,0,0,0,2.32-2.31c0-1.21-.72-1.84-2.33-2.67Z"/><path class="cls-1" d="M44.05,9c0,1.6,0,1.82.16,2.14s.59.34,1.25.4c.11,0,.14.05.14.21s0,.19-.16.19c-.78,0-1.61,0-2.35,0s-1.54,0-2.24,0c-.1,0-.13,0-.13-.19s0-.19.11-.21c.61-.06,1-.06,1.16-.4A5.88,5.88,0,0,0,42.16,9V3.17c0-1.54,0-1.73-.16-2.08s-.58-.34-1.25-.4c-.08,0-.11,0-.11-.23s0-.2.13-.2c.77,0,1.62.06,2.32.06s1.57,0,2.29-.06c.11,0,.14,0,.14.22s-.05.19-.14.21c-.61.06-1,.08-1.15.4a5.48,5.48,0,0,0-.18,2.08Z"/><path class="cls-1" d="M49.09,2l.08,7a4.19,4.19,0,0,0,.34,2,1.67,1.67,0,0,0,1.2.49c.12,0,.14.05.14.21s0,.19-.16.19c-.61,0-1.22,0-1.87,0s-1.35,0-1.92,0c-.13,0-.15,0-.15-.17s0-.19.13-.21A1.5,1.5,0,0,0,48,11a4,4,0,0,0,.4-2l.08-5.83a3.88,3.88,0,0,0-.26-1.95,1.85,1.85,0,0,0-1.34-.5c-.12,0-.15,0-.15-.24s0-.22.15-.22c.57,0,1.2,0,1.68,0h2c.35.65.61,1,1.23,2L55.4,7.71c.56.85.89,1.35,1.31,2.07V8l0-4.79a3.89,3.89,0,0,0-.39-2c-.19-.34-.7-.43-1.13-.48C55,.7,55,.69,55,.5s0-.24.15-.24c.51,0,1.23.06,1.85.06s1.41,0,1.85-.06c.11,0,.14,0,.14.22s0,.21-.14.22c-.45.07-.85.16-1,.5a4.06,4.06,0,0,0-.39,2L57.29,9c0,1.1,0,1.78,0,2.66-1,.54-1.09.56-1.17.56a.18.18,0,0,1-.15-.08c-.51-.82-.8-1.28-1.8-2.8L49.31,2Z"/><path class="cls-1" d="M63.55,9a4.65,4.65,0,0,0,.23,1.94c.25.43.83.46,1.53.46a4,4,0,0,0,2.76-.77A6.51,6.51,0,0,0,69.35,9c.05-.11.09-.16.25-.11s.2.13.18.22A19.94,19.94,0,0,1,69,11.92c-1.41,0-2.88,0-4.21,0s-2.95,0-4.37,0c-.11,0-.15,0-.15-.19s0-.19.15-.21c.61-.06.88-.08,1.05-.41A5.38,5.38,0,0,0,61.63,9V3.17c0-1.54,0-1.75-.19-2.1S61,.75,60.27.69c-.11,0-.14,0-.14-.21s0-.22.14-.22c1.41,0,2.88.06,4.24.06s2.73,0,4.12-.06c.06.81.17,1.88.3,2.72,0,.09,0,.16-.17.19s-.24,0-.28-.11A4.2,4.2,0,0,0,67.4,1.41,3.51,3.51,0,0,0,65,.83c-.58,0-1.08,0-1.29.4a5.26,5.26,0,0,0-.16,1.94V5.51h.9a4,4,0,0,0,2-.35,1.73,1.73,0,0,0,.62-1.09c0-.09,0-.14.24-.14s.19.05.19.16c0,.57,0,1.13,0,1.68s0,1.28,0,1.85c0,.13,0,.18-.19.18s-.21,0-.24-.16a2.06,2.06,0,0,0-.64-1.2,4.3,4.3,0,0,0-2-.38h-.9Z"/></g></g></svg>