<svg xmlns="http://www.w3.org/2000/svg" viewBox="0 0 39.31 9.49"><defs><style>.cls-1{fill:#fff;stroke:#fff;stroke-miterlimit:10;stroke-width:0.25px;}</style></defs><title>アセット 9</title><g id="レイヤー_2" data-name="レイヤー 2"><g id="レイヤー_1-2" data-name="レイヤー 1"><path class="cls-1" d="M1.06,3,3,.57c.07-.06.11,0,.11.07L1.57,2.91a2.7,2.7,0,0,0-.27.63,2.22,2.22,0,0,0,0,.89c.05.32,0,.47-.28.47S.75,4.79.75,4.55a2.51,2.51,0,0,1,0-.39c.08-.55,0-.86-.16-.94L.12,3V3ZM.32,9.28c-.13,0-.16-.08-.08-.16A6.88,6.88,0,0,0,3.29,7.75l.62.47c.13.13,0,.19-.46.16A10.12,10.12,0,0,1,.32,9.28Zm1.17-7.7c-.08,0-.15-.05-.23-.15A2.06,2.06,0,0,0,.44.61C.31.53.33.49.52.49c.78.15,1.17.43,1.17.82C1.69,1.49,1.62,1.58,1.49,1.58Zm5,2.93.28-.35.62.43c.21.16.12.26-.27.31V7.6c-.34.31-.51.32-.51,0V7.56H2.31V8c-.34.31-.51.33-.51,0V4.2l.59.31Zm.12.94v-.7H2.31v.7Zm-4.26.23v.67H6.57V5.68Zm0,1.64H6.57V6.58H2.31ZM4,1.39H7.35L7.62,1l.94.66c.16.16.08.23-.23.23a1.43,1.43,0,0,0-.71.2L7,2.68c-.16.07-.2,0-.12-.12l.55-.94h-2A4.59,4.59,0,0,0,9,4.28c-.42.1-.66.27-.74.51a5.06,5.06,0,0,1-3-3,3.37,3.37,0,0,1-2.66,2.5c-.15,0-.15-.06,0-.16A3.23,3.23,0,0,0,4.89,1.62h-1A6.09,6.09,0,0,1,2.51,3.11c-.13.05-.16,0-.08-.12A7.14,7.14,0,0,0,4,.18l.82.39c.13.13,0,.18-.43.15A5,5,0,0,1,4,1.39Zm3.44,7c.36.18.55.39.55.63a.25.25,0,0,1-.28.27.57.57,0,0,1-.27-.16A8.28,8.28,0,0,0,4.89,8c-.1-.08-.09-.13,0-.16A7.32,7.32,0,0,1,7.43,8.34Z"/><path class="cls-1" d="M11.88,4H10.05V3.77h1.87V.45l.47.08c.47.08.48.19,0,.35V3.77h.7l.51-.51.63.47q.23.19,0,.27H12.43v.9a3.08,3.08,0,0,1,1.45.59.59.59,0,0,1,.15.43c0,.13,0,.19-.15.19s-.29-.1-.4-.31a2,2,0,0,0-1.05-.74V9.12c-.34.31-.51.33-.51,0V5.22A7.18,7.18,0,0,1,10.09,7.6q-.24.15-.12-.12A10.89,10.89,0,0,0,11.88,4ZM10.2,1.5c-.08-.13,0-.15.12-.07a1.67,1.67,0,0,1,.63.66,1.36,1.36,0,0,1,.19.66c0,.32-.08.47-.23.47s-.21-.11-.24-.35a4.42,4.42,0,0,0-.15-.74A1.86,1.86,0,0,0,10.2,1.5Zm4,.2c.23.16.14.23-.27.23L13,3.34c-.11.1-.15.07-.12-.12l.7-1.91Zm2.81,4V.41l.47.08c.47.08.48.19,0,.35V5.53l.62-.24.32-.78.78.39c.21.11.17.21-.12.32l-1.6.58V9c-.34.32-.51.33-.51,0V6L13.68,7.05l-.08-.27ZM14.54,1.27c-.11-.05-.09-.09,0-.12a2,2,0,0,1,1.09.55.75.75,0,0,1,.24.55c0,.18-.07.27-.2.27s-.25-.12-.35-.35A2.46,2.46,0,0,0,14.54,1.27Zm.74,3.55a2,2,0,0,0-.66-.89c-.13-.11-.09-.15.11-.12a1.89,1.89,0,0,1,.79.47.92.92,0,0,1,.31.62c0,.24-.08.35-.24.35S15.36,5.11,15.28,4.82Z"/><path class="cls-1" d="M20,2.21h2.58l.5-.51.63.47q.24.19,0,.27H20Zm.39,1.25h1.76L22.55,3l.54.39q.24.19,0,.27H20.36Zm0,1.17h1.91l.43-.43.55.39q.24.2,0,.27H20.36Zm0-3.56H22l.43-.43.55.4q.22.19,0,.27H20.4Zm.74,5h1.09l.24-.31.55.39c.15.13.1.22-.16.28V8.65c-.34.32-.51.33-.51,0V8.38H21.06V9c-.34.32-.51.33-.51,0V5.72Zm-.08,2.07h1.29V6.31H21.06Zm5.32-4.29H28l.43-.43.54.39q.24.19,0,.27H23.56V3.85h2.31V3H24.11V2.75h1.76V1.82h-2V1.58h2V.41l.66.12q.31.2-.15.27v.78H27.7l.39-.39.55.43c.08.11.05.17-.08.2H26.38v.93h1.17l.39-.39.54.43c.08.11.06.17-.07.2h-2ZM25,7.25V9c-.34.32-.51.33-.51,0V4.51l.59.35h2.42l.23-.31.55.39c.16.13.1.22-.16.28V8.38a.81.81,0,0,1-.27.66.5.5,0,0,1-.39.16A.14.14,0,0,1,27.27,9c0-.13-.07-.22-.23-.27l-.51-.12q-.15-.08,0-.15h.78a.25.25,0,0,0,.28-.28v-1ZM25,5.1V6h2.62V5.1Zm0,1.09V7h2.62V6.19Z"/><path class="cls-1" d="M34.62,3.65V8.22c0,.42-.15.68-.43.78s-.37.11-.39-.07-.06-.26-.24-.32L33,8.5c-.11-.06-.11-.09,0-.12h.78c.2,0,.31-.09.31-.27V5.72L31,7.64c.06.41-.05.52-.31.31l-.55-.55,4-1.87V3H30.2V2.75h3.91V.29l.7.12c.29.1.22.21-.19.31v2h3l.58-.58.74.55q.24.19,0,.27H34.62a9.16,9.16,0,0,0,1.09,2.26l1.64-1.83.63.51c.18.2,0,.27-.55.19L35.79,5.37A8.82,8.82,0,0,0,39,7.83a1.46,1.46,0,0,0-.78.59A9,9,0,0,1,34.62,3.65ZM32.62,5a.27.27,0,0,1-.31.31c-.15,0-.27-.13-.35-.39a3,3,0,0,0-.7-1.21c-.11-.13-.08-.17.08-.12C32.2,4,32.62,4.5,32.62,5Zm3.05-4c-.08-.08-.05-.12.08-.12,1,.34,1.52.7,1.52,1.09a.25.25,0,0,1-.27.28c-.16,0-.31-.13-.47-.4A3.31,3.31,0,0,0,35.67,1Z"/></g></g></svg>