<svg xmlns="http://www.w3.org/2000/svg" viewBox="0 0 76.37 27.02"><defs><style>.cls-1{fill:#7b7b7c;}</style></defs><title>アセット 4</title><g id="レイヤー_2" data-name="レイヤー 2"><g id="レイヤー_1-2" data-name="レイヤー 1"><path class="cls-1" d="M33,25.22c0,.31.08.38,1,.38,1.76,0,2-.15,2.32-.47a4.12,4.12,0,0,0,.68-1.33.06.06,0,0,1,.11,0c0,.5-.06.76-.07,1s0,.44.14.63a.8.8,0,0,1,.2.52c0,.56-.56.82-3.26.82-1.9,0-2.28-.36-2.28-1.22,0-.35.05-1.58.05-2.74l-.55.23a11.38,11.38,0,0,1-.32,2.56,1.65,1.65,0,0,1-1.42,1.11c-.25,0-.34,0-.36-.24a1,1,0,0,0-.81-1c-.06,0,0-.12,0-.12a5.31,5.31,0,0,0,1,0c.22-.05.4-.16.5-.56a19.77,19.77,0,0,0,.25-3.65H29.5c-.16,2.9-.83,4.38-2.65,5.71-.07,0-.12,0-.09-.09,1.18-1.33,1.51-3,1.51-6.62,0-.38,0-.58,0-.83h-.1a9.32,9.32,0,0,0-1.12.07L26.92,19a10.64,10.64,0,0,0,1.23.08h.4V17.89a6.17,6.17,0,0,0-.07-1c1.51.15,1.76.23,1.76.38s0,.2-.41.35v1.54H30c.58-.73.62-.75.71-.75s.16,0,.6.4.42.38.42.44,0,.14-.12.14H29.74c0,.11,0,.17-.21.26,0,.48,0,.93,0,1.35h.6c.52-.6.55-.62.64-.62s.14,0,.4.23a8.65,8.65,0,0,0,1.13-3.23c0-.19.06-.46.08-.67,1.59.36,1.79.48,1.79.62s-.13.24-.43.33A9,9,0,0,1,33,18.91h2.23c.65-.9.73-1,.82-1s.2,0,.83.65c.28.28.34.35.34.44a.11.11,0,0,1-.12.1H32.84a7.59,7.59,0,0,1-1.54,1.57l.12.1c.32.26.34.32.34.4s0,.14-.31.37c0,.47,0,.9-.05,1.28l.54-.23a19.37,19.37,0,0,0-.06-2.34c1.3.19,1.48.27,1.48.44s-.09.21-.36.34v1.11l.68-.28v-.73a16.39,16.39,0,0,0,0-1.94c1.22.15,1.46.23,1.46.4s-.06.21-.37.36v1.47l.61-.26c.39-.71.42-.73.51-.73s.19,0,.61.27.45.29.45.37,0,.11-.2.31A7.69,7.69,0,0,1,36.44,24a1.11,1.11,0,0,1-.94.66c-.18,0-.26-.06-.28-.25-.06-.44-.17-.58-.5-.66v1.13c0,.3-.23.44-.66.44s-.44-.08-.44-.34,0-1.07,0-2.87l-.68.27Zm1.72-3.54v1.93l.5-.06c.14,0,.26-.16.29-.39a16.26,16.26,0,0,0,0-1.83Z"/><path class="cls-1" d="M39.26,19.22a8.92,8.92,0,0,0-1,.08l-.1-.37a9.28,9.28,0,0,0,1.14.07H41c.62-.75.64-.77.74-.77s.13,0,.58.46.35.35.35.42,0,.11-.12.11ZM42,24.37c0,.42.06.95.06,1.38s-.31.52-.78.52-.54-.06-.54-.42v-.21h-1v.63c0,.34-.18.52-.78.52-.4,0-.48-.05-.48-.43,0-.17.06-.8.06-1.89a15.53,15.53,0,0,0,0-1.7c1,.25,1.29.36,1.39.49h.7c.51-.63.54-.65.66-.65s.18,0,.63.41.45.42.45.52,0,.15-.33.4Zm-2.13-6.59a8.5,8.5,0,0,0-1.18.08l-.1-.37a11.14,11.14,0,0,0,1.28.07h.55c.6-.71.62-.73.72-.73s.12,0,.59.46c.27.27.3.32.3.38a.11.11,0,0,1-.12.11Zm0,2.84a8.38,8.38,0,0,0-1.17.08l-.1-.38a9.39,9.39,0,0,0,1.27.08h.61c.57-.69.59-.71.69-.71s.12,0,.56.44c.27.26.31.32.31.38a.11.11,0,0,1-.12.11Zm-1.27,1.12a9.39,9.39,0,0,0,1.27.08h.61c.57-.69.59-.71.69-.71s.12,0,.56.44c.27.26.31.31.31.38A.11.11,0,0,1,42,22H39.91a8.38,8.38,0,0,0-1.17.08Zm2.09,3.68V23.48h-.86a.52.52,0,0,1-.13.12v1.82Zm4.9-3.57c.5-.55.54-.58.65-.58s.18,0,.7.43.5.44.5.56,0,.15-.42.34a7.8,7.8,0,0,1-1.27,2.08,8.67,8.67,0,0,0,2.76,1c.06,0,0,.07,0,.1a2.27,2.27,0,0,0-1.1,1.06c-.07.13-.15.17-.23.17a.8.8,0,0,1-.32-.07,5.78,5.78,0,0,1-2-1.38,7.6,7.6,0,0,1-4,1.42c-.07,0-.1-.11,0-.12a6.69,6.69,0,0,0,3.45-2.09,6.38,6.38,0,0,1-.75-2.71c-.3,0-.61,0-1,.08l-.11-.37a13.72,13.72,0,0,0,1.43.07Zm-1.28-3.57a3.1,3.1,0,0,1-2.25,3.3c-.06,0-.12,0-.06-.08.8-.66,1.07-1.37,1.07-3A14.06,14.06,0,0,0,43,17a5.49,5.49,0,0,1,1.45.48h.69c.49-.57.53-.6.63-.6s.16,0,.62.38.45.39.45.5-.06.16-.32.34v1.43c0,.2,0,.25.4.25s.42-.1.63-.38a7.78,7.78,0,0,0,.57-1c0-.05.11,0,.1,0a10.33,10.33,0,0,0-.11,1.14.55.55,0,0,0,.12.34.7.7,0,0,1,.19.43c0,.5-.35.78-1.67.78s-1.53-.2-1.53-1.07c0-.15,0-.36,0-1.36v-.95H44.5a.7.7,0,0,1-.15.12Zm-.65,3.79A4.39,4.39,0,0,0,44.87,24a5.81,5.81,0,0,0,.87-1.91Z"/><path class="cls-1" d="M3.49,9c0,1.6,0,1.82.19,2.16s.56.34,1.22.4c.11,0,.14.05.14.19s0,.19-.16.19c-.75,0-1.63,0-2.4,0s-1.5,0-2.22,0c-.12,0-.15,0-.15-.17s0-.19.13-.21c.64-.06.94-.06,1.12-.4A5.9,5.9,0,0,0,1.55,9V3.17c0-1.54,0-1.75-.19-2.1S.8.75.14.69C0,.67,0,.66,0,.48S0,.26.14.26c1.41,0,3,.06,4.29.06S7.2.3,8.61.26c.07.81.18,1.87.29,2.73,0,.1,0,.15-.16.18s-.22,0-.26-.11A4.54,4.54,0,0,0,7.4,1.34,4.11,4.11,0,0,0,4.91.83c-.56,0-1.07,0-1.26.4a5.49,5.49,0,0,0-.16,1.94V5.55c.26,0,.62,0,.9,0a4.25,4.25,0,0,0,2.08-.35,1.85,1.85,0,0,0,.59-1.06c0-.13.05-.17.22-.17s.21,0,.21.19c0,.56,0,1.1,0,1.66s0,1.28,0,1.86c0,.13,0,.18-.19.18s-.21-.07-.24-.18a2.27,2.27,0,0,0-.61-1.19,4.54,4.54,0,0,0-2.06-.38c-.28,0-.64,0-.9,0Z"/><path class="cls-1" d="M15.27,7.52c-.53,0-1.22-.06-1.83-.06s-1.31,0-2,.06L10.85,9.2a2.46,2.46,0,0,0-.18,1.8c.15.33.67.44,1.25.51.1,0,.15,0,.15.21s-.05.2-.18.2c-.59,0-1.41,0-2,0s-1.15,0-1.68,0c-.15,0-.18,0-.18-.2s0-.21.18-.21a1.68,1.68,0,0,0,.94-.5,5.31,5.31,0,0,0,1-1.87L12.05,4c.75-2,.9-2.51,1.15-3.36L14.47,0c.11,0,.17,0,.2.14C15,1.15,15.28,2,16,4.05l1.81,5.22a6.79,6.79,0,0,0,.8,1.82c.27.34.43.37,1,.42.18,0,.21,0,.21.21s0,.2-.21.2l-2.27,0-2.26,0c-.11,0-.13,0-.13-.2s0-.21.13-.21c.61,0,1-.1,1.11-.42a2.94,2.94,0,0,0-.29-1.68ZM14.08,4.08C13.71,3,13.59,2.56,13.41,2c-.22.63-.35,1-.72,2.07l-1,2.83c.52,0,1.16,0,1.77,0s1.14,0,1.6,0Z"/><path class="cls-1" d="M30.13,3.2c0,.13,0,.19-.16.23s-.19,0-.25-.13a6.56,6.56,0,0,0-1.44-2A3.17,3.17,0,0,0,26.23.54c-2.32,0-4.12,2.18-4.12,5.51,0,3,1.81,5.19,4.2,5.19A4.3,4.3,0,0,0,30.24,9c.05-.08.12-.11.32,0s.18.16.12.28A5,5,0,0,1,26,12.18a5.85,5.85,0,0,1-6.07-6.1A5.9,5.9,0,0,1,26,0a8.08,8.08,0,0,1,2,.26,4.14,4.14,0,0,0,1.79.17C29.92,1.26,30,2.37,30.13,3.2Z"/><path class="cls-1" d="M34.93,9c0,1.6,0,1.82.16,2.14s.59.34,1.25.4c.11,0,.14.05.14.21s0,.19-.16.19c-.78,0-1.61,0-2.35,0s-1.54,0-2.24,0c-.1,0-.13,0-.13-.19s0-.19.11-.21c.61-.06,1-.06,1.16-.4A5.88,5.88,0,0,0,33,9V3.17c0-1.54,0-1.73-.16-2.08S32.3.75,31.63.69c-.08,0-.11,0-.11-.23s0-.2.13-.2c.77,0,1.62.06,2.32.06s1.57,0,2.29-.06c.11,0,.14,0,.14.22s0,.19-.14.21c-.61.06-1,.08-1.15.4a5.48,5.48,0,0,0-.18,2.08Z"/><path class="cls-1" d="M41.28,9a5,5,0,0,0,.21,1.94c.27.43.85.46,1.54.46a4.12,4.12,0,0,0,2.73-.82A5.74,5.74,0,0,0,47,9c.07-.11.1-.14.27-.09s.18.13.16.22a19.94,19.94,0,0,1-.83,2.83c-1.42,0-2.9,0-4.22,0s-2.93,0-4.36,0c-.11,0-.14,0-.14-.19s0-.19.14-.21c.61-.06.92-.08,1.11-.41A5.2,5.2,0,0,0,39.35,9V3.17c0-1.54,0-1.75-.2-2.1S38.64.75,38,.69c-.13,0-.16,0-.16-.21s0-.22.16-.22c.69,0,1.54.06,2.27.06s1.59,0,2.28-.06c.12,0,.17,0,.17.22s0,.19-.14.21c-.61.06-.95.06-1.12.38a5.82,5.82,0,0,0-.18,2.1Z"/><path class="cls-1" d="M51.6,9c0,1.6,0,1.82.16,2.14s.59.34,1.25.4c.11,0,.14.05.14.21s0,.19-.16.19c-.78,0-1.61,0-2.35,0s-1.54,0-2.24,0c-.1,0-.13,0-.13-.19s0-.19.11-.21c.61-.06,1-.06,1.16-.4A5.88,5.88,0,0,0,49.71,9V3.17c0-1.54,0-1.73-.16-2.08S49,.75,48.3.69c-.08,0-.11,0-.11-.23s0-.2.13-.2c.77,0,1.62.06,2.32.06s1.57,0,2.29-.06c.11,0,.14,0,.14.22s0,.19-.14.21c-.61.06-1,.08-1.15.4a5.7,5.7,0,0,0-.18,2.08Z"/><path class="cls-1" d="M58.75,3.17c0-1.47,0-1.73-.17-2s-.51-.29-.91-.29a3.07,3.07,0,0,0-1.91.56A5,5,0,0,0,54.61,3.1c0,.09-.07.13-.26.1s-.17-.08-.17-.18c.12-.81.24-1.95.3-2.76,1.83,0,3.52.06,5.27.06S63.2.3,65,.26c.07.81.18,2,.29,2.76,0,.1,0,.15-.17.18s-.24,0-.28-.1a4.39,4.39,0,0,0-1.12-1.71A3,3,0,0,0,61.81.83c-.4,0-.72,0-.94.32a4.58,4.58,0,0,0-.21,2V9c0,1.6,0,1.78.14,2.13s.63.33,1.24.4c.11,0,.14.05.14.21s0,.2-.16.2c-.69,0-1.59,0-2.31,0s-1.58,0-2.2,0c-.12,0-.15,0-.15-.19s0-.21.15-.22c.56-.07.92-.08,1.1-.4A6.18,6.18,0,0,0,58.75,9Z"/><path class="cls-1" d="M69.92,7.28c0-.22,0-.48,0-.69-.24-.4-.42-.67-.66-1.07L67.73,2.93a11.84,11.84,0,0,0-1.2-1.83,1.34,1.34,0,0,0-1-.41c-.11,0-.15,0-.15-.21s0-.22.15-.22c.75,0,1.49.06,2.22.06S69.25.29,70,.26c.1,0,.13,0,.13.2s0,.21-.11.23c-.6.06-.93.09-1,.4s.18.69.5,1.26l1.44,2.56.48.84A7.65,7.65,0,0,0,71.88,5L73.2,2.48c.36-.67.45-.94.32-1.3s-.51-.43-1-.49c-.11,0-.14,0-.14-.21s0-.22.18-.22c.6,0,1.31.06,2,.06s1.13,0,1.76-.06c.13,0,.14,0,.14.2s0,.21-.16.23a2.25,2.25,0,0,0-1.12.49,5.81,5.81,0,0,0-1.26,1.65L72.34,5.35c-.21.36-.35.57-.53.86,0,.22,0,.85,0,1.09V9c0,1.6,0,1.82.15,2.13s.58.35,1.28.41c.11,0,.13.05.13.21s0,.19-.13.19c-.82,0-1.63,0-2.37,0s-1.5,0-2.22,0c-.15,0-.16,0-.16-.19s0-.19.14-.21c.62-.06,1-.08,1.15-.41A6.73,6.73,0,0,0,69.92,9Z"/></g></g></svg>