<svg xmlns="http://www.w3.org/2000/svg" viewBox="0 0 37.7 26.59"><defs><style>.cls-1{fill:#7b7b7c;}</style></defs><title>アセット 5</title><g id="レイヤー_2" data-name="レイヤー 2"><g id="レイヤー_1-2" data-name="レイヤー 1"><path class="cls-1" d="M7.14,26.15s-.08,0-.08-.08,0,0,.05-.06a12.18,12.18,0,0,0,4.77-6.24.25.25,0,0,0,0-.08c0-.06,0-.09-.13-.09l-.65.06a24.55,24.55,0,0,0-2.94.53,2,2,0,0,0-.57.2.85.85,0,0,1-.32.12c-.21,0-.37-.12-.75-.53s-.41-.54-.41-.72a.93.93,0,0,1,.1-.34c0-.07,0-.07,0-.07l.07,0a1.23,1.23,0,0,0,.73.34A5.78,5.78,0,0,0,8,19.15c1.08-.13,2.23-.27,3.48-.44a1.12,1.12,0,0,0,.59-.17.5.5,0,0,1,.28-.11c.14,0,.29.05.8.48s.63.56.63.73-.06.19-.2.33a.9.9,0,0,0-.32.38c-1.54,3.16-3.12,4.78-6,5.8Z"/><path class="cls-1" d="M17.33,22.86c0-.27,0-.36-.09-.44s-.38,0-.55.06a2.7,2.7,0,0,0-.41.05l-.23,0c-.14,0-.3-.1-.56-.36s-.25-.26-.25-.38a2.64,2.64,0,0,1,0-.29c0-.06,0-.08.06-.08a.16.16,0,0,1,.09.05,1.18,1.18,0,0,0,.64.21c.23,0,.65,0,1.24-.09a11.34,11.34,0,0,0,1.32-.2,1.17,1.17,0,0,0,.53-.17.62.62,0,0,1,.27-.09,1.38,1.38,0,0,1,.54.15c.38.15.53.27.53.54s-.11.34-.41.35l-.43,0c-.47,0-.95.07-1.45.11.19.15.26.26.27.34a.69.69,0,0,1-.06.27c0,.53-.06,1-.08,1.42l1.23-.06a1.24,1.24,0,0,0,.56-.1,1.06,1.06,0,0,1,.32-.11,1.28,1.28,0,0,1,.68.27c.37.22.46.33.46.59s-.15.34-.43.34a3.58,3.58,0,0,1-.55-.06,7.84,7.84,0,0,0-1.42-.1,20.06,20.06,0,0,0-2.38.12,6.12,6.12,0,0,0-1.26.23,1.5,1.5,0,0,0-.22.11.43.43,0,0,1-.18.06c-.14,0-.33-.14-.6-.38a.93.93,0,0,1-.35-.54,1.53,1.53,0,0,1,0-.3s0-.06.06-.06l.06,0a1.21,1.21,0,0,0,.62.21,7.32,7.32,0,0,0,.76,0l1.57-.15C17.32,23.76,17.33,23.3,17.33,22.86Z"/><path class="cls-1" d="M27.55,21.24a1.09,1.09,0,0,0-.15.33,8.68,8.68,0,0,1-1,2.61,6.57,6.57,0,0,1-2.87,2.4h-.06s-.08,0-.08-.05a.07.07,0,0,1,0-.07,7.32,7.32,0,0,0,2.11-3A8.28,8.28,0,0,0,26.06,21c0-.22-.1-.35-.52-.57-.06,0-.07-.05-.07-.07s0,0,.06-.06c.34-.22.47-.27.57-.27a2,2,0,0,1,.82.32,2.88,2.88,0,0,1,.6.41,7.35,7.35,0,0,0,1.19-1.49.35.35,0,0,0,.07-.16c0-.06-.05-.08-.13-.08a29.91,29.91,0,0,0-4.18.57,1.84,1.84,0,0,0-.57.19.69.69,0,0,1-.3.11c-.17,0-.35-.1-.73-.48a1.08,1.08,0,0,1-.37-.64,2.54,2.54,0,0,1,0-.41c0-.06,0-.09,0-.09s.06,0,.1.06a1.45,1.45,0,0,0,.82.3c.22,0,.34,0,.59,0,1.7-.18,2.92-.29,4.49-.47A1.45,1.45,0,0,0,29,18a.41.41,0,0,1,.3-.11c.12,0,.31.1.85.57s.71.68.71.93a.37.37,0,0,1-.32.4,4.28,4.28,0,0,0-1,.34c-.61.31-1.15.55-1.85.85A.47.47,0,0,1,27.55,21.24Z"/><path class="cls-1" d="M3.49,9c0,1.6,0,1.83.19,2.16s.56.34,1.22.4c.11,0,.14.05.14.2s0,.19-.16.19c-.75,0-1.63-.05-2.4-.05s-1.5,0-2.22.05c-.12,0-.15,0-.15-.18s0-.19.13-.21c.64-.06.94-.06,1.12-.4A5.87,5.87,0,0,0,1.55,9V3.15c0-1.53,0-1.74-.19-2.09S.8.74.14.67C0,.66,0,.64,0,.46S0,.24.14.24c1.41,0,3,.06,4.29.06S7.2.29,8.61.24c.07.82.18,1.87.29,2.74,0,.09,0,.14-.16.17s-.22,0-.26-.11A4.42,4.42,0,0,0,7.4,1.33,4.11,4.11,0,0,0,4.91.82c-.56,0-1.07,0-1.26.4a5.43,5.43,0,0,0-.16,1.93V5.54h.9A4.14,4.14,0,0,0,6.47,5.2a1.82,1.82,0,0,0,.59-1c0-.13.05-.18.22-.18s.21,0,.21.19c0,.56,0,1.11,0,1.67s0,1.28,0,1.85c0,.13,0,.18-.19.18s-.21-.07-.24-.18A2.21,2.21,0,0,0,6.45,6.5a4.5,4.5,0,0,0-2.06-.39c-.28,0-.64,0-.9,0Z"/><path class="cls-1" d="M15.27,7.51c-.53,0-1.22-.07-1.83-.07s-1.31,0-2,.07l-.61,1.68A2.43,2.43,0,0,0,10.67,11c.15.34.67.45,1.25.51.1,0,.15,0,.15.21s-.05.21-.18.21c-.59,0-1.41,0-2,0s-1.15,0-1.68,0c-.15,0-.18,0-.18-.21s0-.21.18-.21A1.67,1.67,0,0,0,9.15,11a5.38,5.38,0,0,0,1-1.88l1.92-5.18c.75-2,.9-2.52,1.15-3.36L14.47,0c.11,0,.17,0,.2.14C15,1.14,15.28,1.94,16,4l1.81,5.22a6.74,6.74,0,0,0,.8,1.83c.27.33.43.36,1,.41.18,0,.21,0,.21.21s0,.21-.21.21c-.69,0-1.58,0-2.27,0s-1.57,0-2.26,0c-.11,0-.13,0-.13-.21s0-.21.13-.21c.61,0,1-.09,1.11-.41a2.94,2.94,0,0,0-.29-1.68ZM14.08,4.07C13.71,3,13.59,2.54,13.41,2c-.22.62-.35,1-.72,2.06l-1,2.84c.52,0,1.16,0,1.77,0s1.14,0,1.6,0Z"/><path class="cls-1" d="M23.75,9c0,1.6,0,1.83.16,2.15s.59.33,1.24.4c.12,0,.15.05.15.21s0,.19-.16.19c-.79,0-1.62-.05-2.35-.05s-1.54,0-2.25.05c-.09,0-.12,0-.12-.19s0-.2.11-.21c.61-.07,1-.07,1.15-.4A5.9,5.9,0,0,0,21.86,9V3.15c0-1.53,0-1.73-.16-2.08s-.58-.33-1.25-.4c-.08,0-.11,0-.11-.22s0-.21.12-.21c.77,0,1.62.06,2.33.06s1.56,0,2.28-.06c.12,0,.15,0,.15.22s0,.2-.15.21c-.6.07-1,.08-1.15.4a5.76,5.76,0,0,0-.17,2.08Z"/><path class="cls-1" d="M30,9c0,1.6,0,1.82.18,2.13s.56.35,1.23.41c.11,0,.13,0,.13.23s0,.19-.16.19c-.74,0-1.55-.07-2.29-.07s-1.52,0-2.21.07c-.13,0-.16-.05-.16-.19s0-.21.16-.23c.59-.06.94-.08,1.1-.41A5.47,5.47,0,0,0,28.18,9V3.15c0-1.53,0-1.73-.16-2.08s-.64-.33-1.3-.4c-.11,0-.14-.05-.14-.22s0-.21.14-.21c.75,0,1.58,0,2.29,0S30.64.22,31.65.22c3.17,0,4.37,1.32,4.37,3,0,1.2-.82,2.38-2.67,2.86.69,1.25,1.45,2.6,2.3,4a3.65,3.65,0,0,0,1,1.2,2.11,2.11,0,0,0,1,.24c.1,0,.13,0,.13.21s0,.21-.13.21c-.67,0-1.18-.07-1.69-.07s-.92,0-1.48,0a8.65,8.65,0,0,0-.57-1.25C33,9.17,32.32,7.83,31.52,6.39H31c-.32,0-.59,0-1,0Zm0-3.12a9.76,9.76,0,0,0,1,.06c2.16,0,3-1.14,3-2.58C34,1.7,33.17.77,31.33.77c-.42,0-.93,0-1.15.3A5.46,5.46,0,0,0,30,3.15Z"/></g></g></svg>