<svg xmlns="http://www.w3.org/2000/svg" viewBox="0 0 44.93 26.58"><defs><style>.cls-1{fill:#7b7b7c;}</style></defs><title>アセット 6</title><g id="レイヤー_2" data-name="レイヤー 2"><g id="レイヤー_1-2" data-name="レイヤー 1"><path class="cls-1" d="M10.47,26.24a.07.07,0,0,1-.08-.08s0,0,0-.06a12.18,12.18,0,0,0,4.77-6.24.28.28,0,0,0,0-.08c0-.07,0-.09-.13-.09l-.65.06a22.29,22.29,0,0,0-2.93.53,2,2,0,0,0-.58.19.71.71,0,0,1-.32.12c-.21,0-.37-.12-.74-.52s-.42-.54-.42-.72a.93.93,0,0,1,.1-.34c0-.08,0-.08,0-.08s0,0,.07,0a1.23,1.23,0,0,0,.73.34,6,6,0,0,0,.9-.07c1.07-.13,2.22-.27,3.47-.44a1.18,1.18,0,0,0,.6-.18.53.53,0,0,1,.27-.1c.14,0,.29.05.8.48s.63.56.63.73-.05.19-.2.33a.87.87,0,0,0-.31.38c-1.54,3.16-3.13,4.77-6,5.8Zm8-8.54a1.09,1.09,0,1,1-1.09-1.09A1.1,1.1,0,0,1,18.51,17.7Zm-1.81,0a.73.73,0,1,0,1.45,0,.73.73,0,1,0-1.45,0Z"/><path class="cls-1" d="M25.72,20.21c.53.38.67.54.67.7a.37.37,0,0,1-.19.34,1.33,1.33,0,0,0-.35.47c-1.34,2.52-2.88,4.06-5.16,4.85h-.07a.05.05,0,0,1-.06-.06s0,0,.05-.07a11.19,11.19,0,0,0,3.93-5.18.43.43,0,0,0,.06-.15c0-.06,0-.1-.12-.1a33.21,33.21,0,0,0-3.54.56,1.25,1.25,0,0,0-.41.16.49.49,0,0,1-.28.09c-.12,0-.31-.08-.65-.4s-.43-.47-.43-.59a1.07,1.07,0,0,1,.07-.41s0,0,0,0l.06,0a1,1,0,0,0,.71.25,4.82,4.82,0,0,0,.67-.07l3.4-.42a1.07,1.07,0,0,0,.63-.2.45.45,0,0,1,.27-.12C25.16,19.85,25.31,19.91,25.72,20.21ZM21.12,19a3.13,3.13,0,0,1-.68-.61.75.75,0,0,1-.13-.41s0-.07,0-.07l.09,0a2.27,2.27,0,0,0,.89.16A7.36,7.36,0,0,0,22.48,18a3.63,3.63,0,0,0,1-.27.78.78,0,0,1,.45-.12,1.81,1.81,0,0,1,.64.15c.39.17.52.36.52.6s-.11.37-.48.45c-.95.14-1.61.25-2.36.35-.34,0-.53.06-.64.06A.7.7,0,0,1,21.12,19Z"/><path class="cls-1" d="M29.55,21c-.37,0-.55-.18-.78-.55a3.59,3.59,0,0,0-1.36-1.49.05.05,0,0,1,0-.05.08.08,0,0,1,.07-.07l.37,0c1.52,0,2.44.6,2.44,1.39A.71.71,0,0,1,29.55,21Zm-1,4.33a5.53,5.53,0,0,1-.74-.71.94.94,0,0,1-.23-.45c0-.1,0-.3,0-.44s0-.09.07-.09.05,0,.12.07a1.16,1.16,0,0,0,.71.25,1.57,1.57,0,0,0,.62-.18,24.06,24.06,0,0,0,6.17-4.46.12.12,0,0,1,.09-.05.09.09,0,0,1,.08.08.06.06,0,0,1,0,0A20,20,0,0,1,29.67,25l-.43.31a.52.52,0,0,1-.3.11A.48.48,0,0,1,28.58,25.31Z"/><path class="cls-1" d="M3.47,9c0,1.6,0,1.84.15,2.13s.61.35,1.29.41c.12,0,.13,0,.13.21s0,.21-.14.21c-.75,0-1.6-.05-2.34-.05s-1.62,0-2.29.05c-.09,0-.13,0-.13-.21s0-.21.15-.21c.61-.05.93-.06,1.12-.41A6.38,6.38,0,0,0,1.58,9V3.15c0-1.53,0-1.73-.16-2.08S.77.74.14.67C0,.66,0,.64,0,.45S0,.24.14.24c.72,0,1.64,0,2.39,0S4.13.22,5.15.22c3.37,0,4.5,1.27,4.5,3.09s-1.05,3.35-5,3.35a9.73,9.73,0,0,1-1.19-.07ZM3.47,6a4.8,4.8,0,0,0,1,.1c2.3,0,3.1-1.2,3.1-2.71,0-1.73-1-2.62-2.77-2.62-.36,0-.94,0-1.15.33a5,5,0,0,0-.21,2.05Z"/><path class="cls-1" d="M14.47,9a5,5,0,0,0,.2,1.94c.28.43.85.46,1.54.46A4.18,4.18,0,0,0,19,10.55,6.25,6.25,0,0,0,20.2,9c.06-.11.09-.15.27-.1s.17.13.16.23a24,24,0,0,1-.83,2.83c-1.43,0-2.9-.05-4.23-.05s-2.93,0-4.35.05c-.12,0-.15,0-.15-.19s0-.2.15-.21c.61-.07.91-.08,1.1-.42A5.17,5.17,0,0,0,12.53,9V3.15c0-1.53,0-1.74-.19-2.09S11.83.74,11.18.67c-.12,0-.16,0-.16-.21s0-.22.16-.22c.69,0,1.54.06,2.28.06S15,.26,15.73.24c.13,0,.18,0,.18.22s-.05.2-.15.21c-.61.07-.94.07-1.12.39a5.8,5.8,0,0,0-.17,2.09Z"/><path class="cls-1" d="M27.79,7.51c-.52,0-1.21-.07-1.82-.07s-1.31,0-2,.07l-.61,1.68A2.38,2.38,0,0,0,23.2,11c.14.34.67.45,1.25.51.09,0,.14,0,.14.21s-.05.21-.17.21c-.59,0-1.41,0-2,0s-1.16,0-1.68,0c-.15,0-.18,0-.18-.21s0-.21.18-.21a1.67,1.67,0,0,0,.94-.49,5.56,5.56,0,0,0,1-1.88l1.92-5.18c.75-2,.89-2.52,1.15-3.36L27,0c.12,0,.18,0,.21.14.32,1,.61,1.8,1.33,3.89l1.81,5.22a6.43,6.43,0,0,0,.8,1.83c.27.33.43.36,1,.41.18,0,.21,0,.21.21s0,.21-.21.21c-.69,0-1.58,0-2.27,0s-1.57,0-2.26,0c-.11,0-.13,0-.13-.21s0-.21.13-.21c.61,0,1-.09,1.1-.41s0-.8-.28-1.68ZM26.61,4.07c-.37-1.06-.5-1.53-.67-2.1-.23.62-.35,1-.72,2.06l-1,2.84c.53,0,1.17,0,1.78,0s1.14,0,1.6,0Z"/><path class="cls-1" d="M35.07,2l.08,7a4.32,4.32,0,0,0,.34,2,1.71,1.71,0,0,0,1.2.5c.13,0,.14.05.14.21s0,.19-.16.19c-.6,0-1.21-.05-1.87-.05s-1.34,0-1.92.05c-.13,0-.14,0-.14-.18s0-.19.12-.21A1.46,1.46,0,0,0,34,11a4,4,0,0,0,.4-2l.08-5.83a3.91,3.91,0,0,0-.26-1.95A1.87,1.87,0,0,0,32.85.7c-.11,0-.15,0-.15-.24s0-.22.15-.22c.57,0,1.2,0,1.68,0s1.17,0,1.95,0a22,22,0,0,0,1.23,2L41.38,7.7c.56.85.9,1.34,1.31,2.06V7.94l0-4.79a4.05,4.05,0,0,0-.38-2c-.2-.33-.71-.43-1.14-.48C41,.69,41,.67,41,.48s0-.24.14-.24C41.6.27,42.32.3,43,.3s1.41,0,1.84-.06c.11,0,.14,0,.14.22s0,.21-.14.23a1.3,1.3,0,0,0-1,.49,4.09,4.09,0,0,0-.39,2L43.27,9c0,1.11,0,1.78,0,2.66-1,.54-1.09.56-1.17.56A.16.16,0,0,1,42,12.1c-.51-.82-.8-1.28-1.81-2.8L35.3,2Z"/></g></g></svg>