<svg xmlns="http://www.w3.org/2000/svg" viewBox="0 0 38.95 9.19"><defs><style>.cls-1{fill:#fff;stroke:#fff;stroke-miterlimit:10;stroke-width:0.25px;}</style></defs><title>アセット 8</title><g id="レイヤー_2" data-name="レイヤー 2"><g id="レイヤー_1-2" data-name="レイヤー 1"><path class="cls-1" d="M3.82,5.15H.38V4.91H4.25V2.06H.69V1.83H4.25V.23L5,.34c.29.11.22.21-.2.32V1.83H7.49L8,1.32l.62.47q.24.19,0,.27H4.75V4.91h3l.59-.58.74.55q.24.19,0,.27H5A8.31,8.31,0,0,0,9.05,8a1.89,1.89,0,0,0-.74.67A10,10,0,0,1,4.75,5.19V8.74c-.33.32-.5.33-.5,0V5.5A11.42,11.42,0,0,1,.3,8.78c-.16.05-.21,0-.16-.12A12.36,12.36,0,0,0,3.82,5.15ZM1.51,2.53c-.05-.1,0-.13.12-.08C2.51,3.05,3,3.63,3,4.17c0,.29-.11.43-.32.43s-.26-.1-.31-.31A2.92,2.92,0,0,0,1.51,2.53Zm5.2,0,.74.35c.16.16,0,.26-.43.32L5.93,4.64c-.13.08-.19.05-.16-.08Z"/><path class="cls-1" d="M12.76,5.19l.59.35h1.37v-4H11.63v3.2a6.12,6.12,0,0,1-1.45,4Q10,8.9,10,8.66a7,7,0,0,0,1.09-3.78V1l.63.31h3V.15l.66.12c.21.13.16.22-.16.27v.78h2.62l.51-.51.62.47c.16.13.16.22,0,.28H15.22v2h2.23L18,3l.62.47q.24.2,0,.27H15.22V5.54H17.1l.23-.31.55.39c.16.13.1.22-.16.27V8.63c-.34.31-.5.32-.5,0V8.2H13.27v.62c-.34.31-.51.33-.51,0ZM17.22,8V5.77H13.27V8Z"/><path class="cls-1" d="M27.25,1.44a.94.94,0,0,0-.58.15L24.91,2.77a.86.86,0,0,1,.31.58.41.41,0,0,1-.11.28h2.77l.31-.36L29,3.9q.24.2,0,.27a.93.93,0,0,0-.58.16L26.86,5.5c-.05,0-.09,0-.11-.08L28,3.86H25V7.92a.91.91,0,0,1-.27.71,1.08,1.08,0,0,1-.47.23c-.16,0-.24,0-.24-.2a.27.27,0,0,0-.19-.27l-.71-.16q-.2-.08,0-.15h1a.31.31,0,0,0,.35-.35V3.86h-4.3V3.63h4.65a.86.86,0,0,1-.31-.43A3.75,3.75,0,0,0,23.19,2c-.1-.1-.08-.14.08-.11a4.25,4.25,0,0,1,1.48.7l1.37-1.37H21.2V1h5l.39-.39.7.54C27.41,1.3,27.41,1.39,27.25,1.44Z"/><path class="cls-1" d="M29.87,8.47a7.47,7.47,0,0,0,1-3l.7.23c.18.14.1.23-.23.28A6.86,6.86,0,0,1,30,8.55C29.92,8.63,29.87,8.6,29.87,8.47ZM34.32,5c0,.21-.07.32-.23.32s-.18-.07-.23-.2-.12-.32-.2-.51l-1.13.16V8.78c-.34.31-.51.33-.51,0V4.76L30.65,5c-.08.29-.17.35-.27.2L30,4.56l1.6-.08,1.6-2.92.59.35q.39.35-.27.27l-1.72,2.3,1.83-.11a3.37,3.37,0,0,0-.47-.78q-.07-.19.12-.12C34,4,34.32,4.51,34.32,5ZM31.39,3.47c-.1,0-.18-.08-.23-.24a2.35,2.35,0,0,0-.9-1.36c-.08-.08-.05-.12.08-.12a3.55,3.55,0,0,1,.78.43l1-1.95.7.43c.13.21,0,.27-.39.19L31.28,2.3a1.2,1.2,0,0,1,.39.78C31.67,3.34,31.58,3.47,31.39,3.47Zm3,3.79c0,.23-.09.35-.27.35s-.17-.08-.2-.23a4.32,4.32,0,0,0-.86-1.8c0-.1,0-.14.08-.12A2.39,2.39,0,0,1,34.4,7.26Zm1.06-7,.7.31c.21.18.12.26-.27.23a9,9,0,0,1-.78,1.53H38L38.19,2l.55.4c.15.13.1.22-.16.27V5.7c0,1.45-.3,2.38-.9,2.77s-.89.32-.89,0c0-.13-.1-.24-.28-.31l-.66-.32c-.08-.1-.05-.15.08-.15l.74.19a2.11,2.11,0,0,0,.47,0,.63.63,0,0,0,.54-.27,4.08,4.08,0,0,0,.39-2V2.53H35a6.45,6.45,0,0,1-.9,1.21c-.1.08-.16.06-.16-.08A11.07,11.07,0,0,0,35.46.23Zm1.09,5.23c0,.21-.08.31-.23.31A.29.29,0,0,1,36,5.58,3.32,3.32,0,0,0,34.91,4c-.08-.08,0-.12.08-.12C36,4.38,36.55,4.91,36.55,5.46Z"/></g></g></svg>