<svg xmlns="http://www.w3.org/2000/svg" viewBox="0 0 78.4 7.96"><defs><style>.cls-1{fill:#fff;}</style></defs><title>アセット 13</title><g id="レイヤー_2" data-name="レイヤー 2"><g id="レイヤー_1-2" data-name="レイヤー 1"><path class="cls-1" d="M10,4.11S9.92,4.05,10,4a9.3,9.3,0,0,0,2.62-2.49A6.62,6.62,0,0,0,13.37,0c1.22.38,1.22.38,1.22.49s-.06.12-.37.2A6.12,6.12,0,0,0,16.08,2.4a6.24,6.24,0,0,0,2.16.77s0,.1,0,.11c-.3,0-.48.25-.61.73,0,.12-.08.16-.15.16A1,1,0,0,1,17.15,4a8.49,8.49,0,0,1-1.31-.94A7.82,7.82,0,0,1,14.09.83,7.45,7.45,0,0,1,10,4.11Zm3.42,1.51H11.86a4,4,0,0,0-.54,0l-.09-.32a3.1,3.1,0,0,0,.63.07h1.57V3.79H12.21a3.06,3.06,0,0,0-.56.06l-.1-.33a2.7,2.7,0,0,0,.66.07H15c.38-.49.48-.56.54-.56s.17.07.55.39c.16.15.23.23.23.29s0,.08-.11.08H14.29V5.42h1.12c.41-.52.51-.59.57-.59s.17.07.58.42c.17.14.25.22.25.29s0,.08-.12.08h-2.4V7.47h2.14c.45-.57.56-.64.62-.64s.17.07.59.44c.19.17.26.25.26.31s0,.09-.12.09H10.84a5.43,5.43,0,0,0-.63,0l-.09-.32a3.84,3.84,0,0,0,.7.07h2.61Z"/><path class="cls-1" d="M23,2.11a19.71,19.71,0,0,0-2.55.81,1.46,1.46,0,0,0-.33.2.36.36,0,0,1-.25.1c-.18,0-.38-.11-.67-.43a1.09,1.09,0,0,1-.32-.63c0-.14,0-.27.09-.27s.06,0,.14.09c.3.31.37.35.64.34A11.76,11.76,0,0,0,21.22,2c1.12-.26,2-.5,2.66-.69a1.94,1.94,0,0,0,.48-.17.68.68,0,0,1,.34-.08,2.17,2.17,0,0,1,.8.14c.15.07.28.16.28.34a.29.29,0,0,1-.32.32c-.19,0-.38,0-.87,0a2.84,2.84,0,0,0-2,1A2.38,2.38,0,0,0,22,4.57a1.56,1.56,0,0,0,.64,1.31,2.83,2.83,0,0,0,1.4.45,1.75,1.75,0,0,1,.67.12A.52.52,0,0,1,25,6.9c0,.23-.16.42-.57.42a4.24,4.24,0,0,1-1.69-.41,2.28,2.28,0,0,1-1.29-2,3.13,3.13,0,0,1,.34-1.47A4.06,4.06,0,0,1,23,2.15Z"/><path class="cls-1" d="M30.58,2.38a3.26,3.26,0,0,1-.2.92,5.55,5.55,0,0,1-.55,1.26,6.86,6.86,0,0,1-1,1.46,1,1,0,0,1-.72.36A.88.88,0,0,1,27.47,6,2.19,2.19,0,0,1,27,4.45a2.68,2.68,0,0,1,.38-1.33A3.3,3.3,0,0,1,28.55,1.9a3.86,3.86,0,0,1,2.11-.57A3.33,3.33,0,0,1,32.83,2a2.68,2.68,0,0,1,1,2.22,2.38,2.38,0,0,1-.8,1.8,3.69,3.69,0,0,1-1.29.78,6,6,0,0,1-1.8.33c-.13,0-.19,0-.19-.08s.05-.09.17-.12A4.35,4.35,0,0,0,32.18,5.8a2.58,2.58,0,0,0,.79-2,1.93,1.93,0,0,0-.77-1.65,2.82,2.82,0,0,0-1.4-.47,3.42,3.42,0,0,0-.55,0A1.17,1.17,0,0,1,30.58,2.38Zm-2.13,0a2.69,2.69,0,0,0-.74,1.08,2.24,2.24,0,0,0-.15.83,1.68,1.68,0,0,0,.22.94.55.55,0,0,0,.38.29c.14,0,.27-.09.61-.56a10.52,10.52,0,0,0,1.17-2.14,2.07,2.07,0,0,0,.18-.74.44.44,0,0,0-.16-.4A3,3,0,0,0,28.45,2.41Z"/><path class="cls-1" d="M36.61,2.57a1,1,0,0,0-.3.12.46.46,0,0,1-.26.06c-.15,0-.31-.11-.52-.37s-.29-.41-.29-.61,0-.27.1-.27.08,0,.15.11a.79.79,0,0,0,.76.35l.64,0c.86-.08,1.73-.15,2.53-.25a.75.75,0,0,0,.39-.12A.41.41,0,0,1,40,1.44c.18,0,.31.06.57.26s.39.35.39.56a.28.28,0,0,1-.18.22.86.86,0,0,0-.38.42,9.53,9.53,0,0,1-1.66,2.33A7.68,7.68,0,0,1,35.9,7.12l-.13,0c-.08,0-.12,0-.12-.09s0-.08.14-.14a9.15,9.15,0,0,0,2.48-2.17,14.05,14.05,0,0,0,1.36-2.23.68.68,0,0,0,.11-.3s0,0-.08,0l-.37,0C38.41,2.3,37.39,2.42,36.61,2.57Z"/><path class="cls-1" d="M46.21,6.09l.49,0A.42.42,0,0,0,46.89,6a.38.38,0,0,1,.21,0,1.57,1.57,0,0,1,.64.21.39.39,0,0,1,.16.29c0,.14-.07.22-.25.22l-.31,0a6.91,6.91,0,0,0-1.18-.1c-.42,0-.86,0-1.32.05s-.72.07-1.11.12a1.34,1.34,0,0,0-.56.17.25.25,0,0,1-.2.06.81.81,0,0,1-.49-.31.74.74,0,0,1-.2-.46c0-.09,0-.17.08-.17s0,0,.08,0c.24.21.33.27.51.27l.43,0,1.38-.13c0-.61,0-1,0-1.48a.7.7,0,0,0,0-.32.4.4,0,0,0-.16-.16,7.17,7.17,0,0,1-.78.08.45.45,0,0,1-.31-.1,1,1,0,0,1-.34-.55c0-.06,0-.08.07-.08s.06,0,.13.07a1.1,1.1,0,0,0,.63.19,8,8,0,0,0,.86-.07l.86-.12a1.34,1.34,0,0,0,.44-.16.61.61,0,0,1,.22-.07,1.43,1.43,0,0,1,.6.11.28.28,0,0,1,.14.24c0,.16,0,.23-.13.25a1.23,1.23,0,0,1-.39,0c-.4,0-.83.07-1.34.13a.68.68,0,0,1,.16.09c.13.07.14.13.14.19a.57.57,0,0,1,0,.16,1.3,1.3,0,0,0,0,.21c0,.23-.06.64-.1,1.34C45.73,6.09,46,6.09,46.21,6.09Z"/><path class="cls-1" d="M54.32,1A.75.75,0,0,1,54.59.9a1,1,0,0,1,.6.34c.15.15.38.33.38.56s-.11.23-.34.25a1.15,1.15,0,0,0-.49.22,16.7,16.7,0,0,1-2,1.16,7.2,7.2,0,0,1-.54,1.82,4.87,4.87,0,0,1-2.1,2.23.61.61,0,0,1-.28.09.07.07,0,0,1-.07-.08s0-.07.14-.15A6.12,6.12,0,0,0,51.51,5a5,5,0,0,0,.41-1.9.7.7,0,0,0,0-.29c0-.08-.22-.16-.45-.19-.07,0-.11,0-.11-.08s.06-.12.16-.2a.78.78,0,0,1,.37-.08,2.36,2.36,0,0,1,.86.13.24.24,0,0,1,.16.22.68.68,0,0,1,0,.14,1.21,1.21,0,0,0-.08.35,9.63,9.63,0,0,0,1.4-1.36.18.18,0,0,0,.06-.14s-.05,0-.17,0c-.43,0-.9.06-1.37.11s-1.12.12-1.64.21a3.16,3.16,0,0,0-1,.24.6.6,0,0,1-.32.13c-.18,0-.37-.12-.59-.39s-.25-.4-.25-.58,0-.24.1-.24.07,0,.15.1c.27.24.36.3.57.3l.76-.05,3.4-.29A.89.89,0,0,0,54.32,1Z"/><path class="cls-1" d="M61.88,2.47a1.84,1.84,0,0,1,.7.22c.41.21.5.43.5.6s-.11.26-.3.28a2.19,2.19,0,0,0-.49.12,9.34,9.34,0,0,0-1.3.55l-.82.43c0,.22,0,.48,0,.66a3.62,3.62,0,0,1,0,.77.36.36,0,0,1-.33.23c-.25,0-.38-.12-.38-.42s0-.37,0-.84a5.29,5.29,0,0,0-.45.29c-.47.32-.71.59-.71,1s.37.62,1.19.62a7.85,7.85,0,0,0,1.19-.06,2.53,2.53,0,0,0,.51-.15,1.34,1.34,0,0,1,.36-.07.8.8,0,0,1,.52.15.42.42,0,0,1,.18.32.36.36,0,0,1-.15.27,3.93,3.93,0,0,1-1.7.21,4.1,4.1,0,0,1-1.88-.26,1,1,0,0,1-.6-1,1.52,1.52,0,0,1,.6-1.13,6.22,6.22,0,0,1,1-.69c0-.15,0-.28,0-.41,0-.46-.11-.75-.43-.75a1.4,1.4,0,0,0-1,.6,9.64,9.64,0,0,0-.63.9.58.58,0,0,1-.39.25.36.36,0,0,1-.27-.1.34.34,0,0,1-.1-.28.57.57,0,0,1,.14-.35l.31-.29A8.59,8.59,0,0,0,58.4,2.4l-.63.06a1,1,0,0,1-1.05-.71.48.48,0,0,1,0-.2c0-.05,0-.08.06-.08a.13.13,0,0,1,.09.08,1,1,0,0,0,.88.36,5.17,5.17,0,0,0,1-.14A3.62,3.62,0,0,0,59,1.05a.85.85,0,0,0,0-.24A.17.17,0,0,0,59,.67a.58.58,0,0,0-.21-.13L58.57.48s0,0,0,0,0-.07.06-.1a.47.47,0,0,1,.32-.1,1.92,1.92,0,0,1,.89.22A.38.38,0,0,1,60,.79a.32.32,0,0,1-.13.22.86.86,0,0,0-.23.24c0,.07-.2.27-.26.38a1.43,1.43,0,0,0,.69-.32.52.52,0,0,1,.32-.09c.33,0,.57.13.57.32a.32.32,0,0,1-.25.3A9.85,9.85,0,0,1,59,2.29c-.08.13-.18.26-.3.46a8.06,8.06,0,0,1-.46.69,1.67,1.67,0,0,1,.95-.37.84.84,0,0,1,.75.34,1.33,1.33,0,0,1,.16.74l1.48-.91c.18-.12.32-.2.32-.27a.24.24,0,0,0-.1-.17.5.5,0,0,0-.25-.13s0,0,0-.07S61.71,2.47,61.88,2.47Z"/><path class="cls-1" d="M67.32,5.74A3.31,3.31,0,0,1,64,8s-.09-.11,0-.12a3.54,3.54,0,0,0,2.29-1.65,2.37,2.37,0,0,0,.27-1.08c.94.22,1.11.29,1.11.39S67.57,5.66,67.32,5.74ZM69,6.66c0,.43,0,.45.84.45s1-.05,1.17-.22.17-.16.46-1c0,0,.11,0,.11,0,0,.52,0,.72,0,.83s0,.1.15.17a.4.4,0,0,1,.21.33c0,.19-.13.33-.4.43a6.43,6.43,0,0,1-1.76.15c-1.3,0-1.59-.14-1.59-.76,0-.12,0-.3,0-.72V5h-2v.15c0,.21-.16.31-.51.31s-.37-.08-.37-.29c0-.46,0-.92,0-2.78,0-.77,0-1.54,0-2.31a5.14,5.14,0,0,1,1,.45h3.17c.31-.34.38-.39.45-.39s.17.05.5.31c.15.13.2.19.2.26s0,.15-.24.3v.67c0,1.77,0,3,0,3.39,0,.23-.18.35-.48.35s-.41-.09-.41-.27V5H69ZM69.5.74H66.19V1.92H69.5Zm0,1.38H66.19v1.2H69.5Zm0,1.4H66.19V4.81H69.5Z"/><path class="cls-1" d="M74.5,4.29a2.77,2.77,0,0,1,1.78-.73,2.25,2.25,0,0,1,1.54.52,1.67,1.67,0,0,1,.58,1.25,2,2,0,0,1-.88,1.73,3,3,0,0,1-1.73.51,2.24,2.24,0,0,1-1.21-.26.93.93,0,0,1-.45-.81.79.79,0,0,1,.31-.62,1.15,1.15,0,0,1,.73-.21,1.46,1.46,0,0,1,1,.45,2.67,2.67,0,0,1,.45.73,1.47,1.47,0,0,0,.61-.45,1.61,1.61,0,0,0,.32-1.06,1.45,1.45,0,0,0-.43-1,1.48,1.48,0,0,0-1-.33,3,3,0,0,0-2.41,1.59c-.18.25-.3.35-.43.35A.39.39,0,0,1,73,5.8a.47.47,0,0,1-.15-.33A.51.51,0,0,1,73,5.08a36.87,36.87,0,0,0,3-3.58.34.34,0,0,0,.09-.17.07.07,0,0,0-.1-.06,6,6,0,0,0-.92.36l-.5.26a.47.47,0,0,1-.75,0,1.13,1.13,0,0,1-.34-.66c0-.13.08-.32.14-.32s.09.06.16.15.25.26.36.26a6.06,6.06,0,0,0,1.5-.35A.89.89,0,0,0,76.13.7a.31.31,0,0,1,.23-.11,1.51,1.51,0,0,1,.79.36.38.38,0,0,1,.17.31.25.25,0,0,1-.14.23,1.52,1.52,0,0,0-.34.22A11.65,11.65,0,0,0,75.64,3c-.4.47-.72.8-1.15,1.3Zm1,2A.81.81,0,0,0,75,6a.51.51,0,0,0-.4.15.41.41,0,0,0-.09.28.53.53,0,0,0,.26.44,1.64,1.64,0,0,0,.82.17,2,2,0,0,0,.38,0A1.64,1.64,0,0,0,75.52,6.26Z"/><polygon class="cls-1" points="3.47 4.2 0 0.94 0 7.46 3.47 4.2"/></g></g></svg>