<svg xmlns="http://www.w3.org/2000/svg" viewBox="0 0 132.25 26.49"><defs><style>.cls-1{fill:#666;stroke:#666;stroke-width:0.25px;}.cls-1,.cls-2{stroke-miterlimit:10;}.cls-2{fill:#999;stroke:#999;stroke-width:0.5px;}</style></defs><title>アセット 12</title><g id="レイヤー_2" data-name="レイヤー 2"><g id="レイヤー_1-2" data-name="レイヤー 1"><path class="cls-1" d="M7.18,23.63c.12.09.12.16,0,.2H3.87v2.35c-.26.23-.38.24-.38,0V23.83h-3v-.18h3V20.37H.79v-.18h5l.44-.44.55.41q.18.15,0,.21H3.87v3.28H6.19l.44-.44Zm-4.78-1c0,.25-.07.38-.21.38S2,23,2,22.8A2.86,2.86,0,0,0,1.23,21c-.06-.09,0-.12.08-.09A2.24,2.24,0,0,1,2.4,22.66Zm3.9-1.38c.16.15,0,.2-.35.14A13.42,13.42,0,0,1,4.66,23.3q-.12.06-.09-.06a13.81,13.81,0,0,0,1.12-2.4Z"/><path class="cls-1" d="M10.06,20.54h2.65l.17-.23.41.29q.18.15-.12.21V25.5c-.25.24-.38.25-.38,0V25H10v.89c-.25.23-.38.24-.38,0v-5.7Zm2.73.18H10v1.85h2.79Zm0,2H10v2.08h2.79Z"/><path class="cls-1" d="M16.85,22.51a.37.37,0,0,1-.12.29.4.4,0,0,1-.29.12.41.41,0,0,1-.3-.12.36.36,0,0,1-.11-.29.38.38,0,0,1,.11-.29.41.41,0,0,1,.3-.12.4.4,0,0,1,.29.12A.38.38,0,0,1,16.85,22.51Zm0,2.76a.38.38,0,0,1-.12.29.4.4,0,0,1-.29.12.41.41,0,0,1-.3-.12.38.38,0,0,1-.11-.29.36.36,0,0,1,.11-.29.41.41,0,0,1,.3-.12.4.4,0,0,1,.29.12A.37.37,0,0,1,16.85,25.27Z"/><path class="cls-1" d="M19.87,20.49V25a.43.43,0,0,0,.15.35.65.65,0,0,0,.41.12h.3v.17H18.58v-.17h.27a.57.57,0,0,0,.41-.12A.42.42,0,0,0,19.4,25V21.4a.28.28,0,0,0-.08-.21.29.29,0,0,0-.21-.06h-.53V21h.27a1.08,1.08,0,0,0,.55-.11.81.81,0,0,0,.36-.35Z"/><path class="cls-1" d="M23.52,25.65A1.28,1.28,0,0,1,22.43,25,3.53,3.53,0,0,1,22,23.07a3.6,3.6,0,0,1,.41-1.85,1.31,1.31,0,0,1,1.12-.71,1.21,1.21,0,0,1,1.05.68A3.47,3.47,0,0,1,25,23.07,3.47,3.47,0,0,1,24.57,25,1.24,1.24,0,0,1,23.52,25.65Zm0-4.9c-.3,0-.53.2-.71.62a4.38,4.38,0,0,0-.26,1.7,4.52,4.52,0,0,0,.26,1.73c.2.41.43.62.71.62s.52-.21.67-.62a4.58,4.58,0,0,0,.27-1.73,5,5,0,0,0-.24-1.7C24.06,21,23.83,20.75,23.52,20.75Z"/><path class="cls-1" d="M27.1,22.51a.37.37,0,0,1-.12.29.38.38,0,0,1-.29.12.41.41,0,0,1-.41-.41.38.38,0,0,1,.12-.29.37.37,0,0,1,.29-.12.41.41,0,0,1,.41.41Zm0,2.76a.41.41,0,0,1-.41.41.37.37,0,0,1-.29-.12.38.38,0,0,1-.12-.29.41.41,0,0,1,.41-.41A.38.38,0,0,1,27,25,.37.37,0,0,1,27.1,25.27Z"/><path class="cls-1" d="M29.86,25.65A1.26,1.26,0,0,1,28.78,25a3.44,3.44,0,0,1-.44-1.91,3.5,3.5,0,0,1,.41-1.85,1.29,1.29,0,0,1,1.11-.71,1.22,1.22,0,0,1,1.06.68,3.56,3.56,0,0,1,.44,1.88A3.56,3.56,0,0,1,30.92,25,1.25,1.25,0,0,1,29.86,25.65Zm0-4.9c-.29,0-.53.2-.7.62a4.18,4.18,0,0,0-.27,1.7,4.31,4.31,0,0,0,.27,1.73c.19.41.43.62.7.62s.52-.21.68-.62a4.81,4.81,0,0,0,.26-1.73,5.24,5.24,0,0,0-.23-1.7C30.41,21,30.18,20.75,29.86,20.75Z"/><path class="cls-1" d="M33.77,25.65A1.29,1.29,0,0,1,32.68,25a3.53,3.53,0,0,1-.44-1.91,3.6,3.6,0,0,1,.41-1.85,1.31,1.31,0,0,1,1.12-.71,1.23,1.23,0,0,1,1.06.68,3.56,3.56,0,0,1,.44,1.88A3.56,3.56,0,0,1,34.83,25,1.26,1.26,0,0,1,33.77,25.65Zm0-4.9c-.29,0-.53.2-.7.62a4.18,4.18,0,0,0-.27,1.7,4.31,4.31,0,0,0,.27,1.73c.19.41.43.62.7.62s.52-.21.68-.62a4.81,4.81,0,0,0,.26-1.73,5,5,0,0,0-.24-1.7C34.32,21,34.08,20.75,33.77,20.75Z"/><path class="cls-1" d="M39.17,22.36c.36.1.7.21,1,.33a3.1,3.1,0,0,0,1,.2,1.45,1.45,0,0,0,1.38-.67l.15.14a1.72,1.72,0,0,1-1.59.94,3.61,3.61,0,0,1-1.06-.17l-1-.33A4.27,4.27,0,0,0,38,22.63a2.27,2.27,0,0,0-1.47.58l-.14-.14a2.54,2.54,0,0,1,1.76-.85A4.37,4.37,0,0,1,39.17,22.36Z"/><path class="cls-1" d="M45.61,20.49V25a.42.42,0,0,0,.14.35.65.65,0,0,0,.41.12h.3v.17H44.31v-.17h.27A.57.57,0,0,0,45,25.3a.43.43,0,0,0,.15-.35V21.4a.29.29,0,0,0-.09-.21.29.29,0,0,0-.21-.06h-.53V21h.27a1.14,1.14,0,0,0,.56-.11.84.84,0,0,0,.35-.35Z"/><path class="cls-1" d="M49,23.71a1.27,1.27,0,0,1-.94-.38,1.62,1.62,0,0,1-.35-1.17A1.85,1.85,0,0,1,48.07,21a1.34,1.34,0,0,1,1.09-.47,1.31,1.31,0,0,1,1.14.59,2.9,2.9,0,0,1,.42,1.7,3.77,3.77,0,0,1-.5,2,1.46,1.46,0,0,1-1.32.82,1.28,1.28,0,0,1-.68-.18A.52.52,0,0,1,48,25a.53.53,0,0,1,.06-.23.29.29,0,0,1,.26-.12c.12,0,.2,0,.23.12a.87.87,0,0,1,.06.32.42.42,0,0,0,0,.18.33.33,0,0,0,.06.12.12.12,0,0,0,.09,0,.57.57,0,0,0,.18,0,1,1,0,0,0,.85-.59,4.91,4.91,0,0,0,.38-2,1.53,1.53,0,0,1-.44.59A1.13,1.13,0,0,1,49,23.71Zm-.79-1.58a1.63,1.63,0,0,0,.24,1,.78.78,0,0,0,.64.35,1,1,0,0,0,.77-.41,1.32,1.32,0,0,0,.32-.76,2.4,2.4,0,0,0-.24-1.15.81.81,0,0,0-.76-.41.8.8,0,0,0-.73.38A2,2,0,0,0,48.19,22.13Z"/><path class="cls-1" d="M52.83,22.51a.4.4,0,0,1-.11.29.41.41,0,0,1-.3.12.38.38,0,0,1-.29-.12.37.37,0,0,1-.12-.29.41.41,0,0,1,.41-.41.41.41,0,0,1,.3.12A.42.42,0,0,1,52.83,22.51Zm0,2.76a.42.42,0,0,1-.11.29.41.41,0,0,1-.3.12.41.41,0,0,1-.41-.41.37.37,0,0,1,.12-.29.38.38,0,0,1,.29-.12.41.41,0,0,1,.3.12A.4.4,0,0,1,52.83,25.27Z"/><path class="cls-1" d="M55.6,25.65A1.28,1.28,0,0,1,54.51,25a3.53,3.53,0,0,1-.44-1.91,3.6,3.6,0,0,1,.41-1.85,1.29,1.29,0,0,1,1.12-.71,1.21,1.21,0,0,1,1,.68,3.47,3.47,0,0,1,.44,1.88A3.47,3.47,0,0,1,56.65,25,1.24,1.24,0,0,1,55.6,25.65Zm0-4.9c-.3,0-.53.2-.71.62a4.2,4.2,0,0,0-.26,1.7,4.33,4.33,0,0,0,.26,1.73c.2.41.43.62.71.62s.51-.21.67-.62a4.6,4.6,0,0,0,.26-1.73,5,5,0,0,0-.23-1.7C56.14,21,55.91,20.75,55.6,20.75Z"/><path class="cls-1" d="M59.5,25.65A1.26,1.26,0,0,1,58.42,25,3.44,3.44,0,0,1,58,23.07a3.5,3.5,0,0,1,.41-1.85,1.29,1.29,0,0,1,1.11-.71,1.23,1.23,0,0,1,1.06.68A3.56,3.56,0,0,1,61,23.07,3.56,3.56,0,0,1,60.56,25,1.26,1.26,0,0,1,59.5,25.65Zm0-4.9c-.29,0-.53.2-.7.62a4.18,4.18,0,0,0-.27,1.7,4.31,4.31,0,0,0,.27,1.73c.19.41.43.62.7.62s.52-.21.68-.62a4.81,4.81,0,0,0,.26-1.73,5.24,5.24,0,0,0-.23-1.7C60.05,21,59.81,20.75,59.5,20.75Z"/><path class="cls-1" d="M62,26.27l-.21-.12,3-6.28L65,20Z"/><path class="cls-1" d="M69,22.28v-2.5l.59.09c.21.08.16.16-.15.23v2.18h1.88l.44-.44.56.41c.11.09.11.16,0,.2H69.4v3.29h2.2L72,25.3l.56.41q.18.15,0,.21H66.08v-.18H69V22.45h-2.5v-.17Z"/><path class="cls-1" d="M75.54,20.54h2.64l.18-.23.41.29q.17.15-.12.21V25.5c-.26.24-.38.25-.38,0V25H75.48v.89c-.26.23-.38.24-.38,0v-5.7Zm2.73.18H75.48v1.85h2.79Zm0,2H75.48v2.08h2.79Z"/><path class="cls-1" d="M82.58,22.92V26c-.25.24-.38.25-.38,0V23a6.29,6.29,0,0,1-1,.85q-.18.06-.06-.12a10.3,10.3,0,0,0,2.14-2.49h-2V21h.94V19.58l.5.08q.24.15-.12.21V21h.65l.21-.2.47.35q.06.18-.24.12c-.35.45-.71.89-1.09,1.32v.2c.79.2,1.18.43,1.18.71s0,.26-.12.26a.18.18,0,0,1-.17-.09A2.52,2.52,0,0,0,82.58,22.92Zm2.32-.35h-.41V23c-.25.23-.38.24-.38,0v-3l.44.3h2.09l.17-.24.41.3c.12.09.08.16-.11.2v2.2q-.39.36-.39,0v-.29H86.2v2.82c0,.08,0,.11.11.11h1c.18,0,.28-.09.32-.29l.18-.82s.07,0,.09,0v.91a.19.19,0,0,0,.12.2q.17.09,0,.27a.92.92,0,0,1-.53.09H86.17a.32.32,0,0,1-.36-.36V22.57h-.52v.59A3.23,3.23,0,0,1,83,26.27q-.27,0-.06-.15a3.06,3.06,0,0,0,1.93-3Zm1.82-.18V20.54H84.49v1.85Z"/><path class="cls-1" d="M90.72,22.48a.37.37,0,0,1-.12.29.38.38,0,0,1-.29.12.41.41,0,0,1-.3-.12.4.4,0,0,1-.11-.29.42.42,0,0,1,.11-.29.41.41,0,0,1,.3-.12.41.41,0,0,1,.41.41Zm0,2.76a.37.37,0,0,1-.12.29.38.38,0,0,1-.29.12.41.41,0,0,1-.3-.12A.44.44,0,0,1,90,25a.41.41,0,0,1,.3-.12.38.38,0,0,1,.29.12A.37.37,0,0,1,90.72,25.24Z"/><path class="cls-1" d="M94,23.71a1.27,1.27,0,0,1-.94-.38,1.62,1.62,0,0,1-.35-1.17A1.85,1.85,0,0,1,93,21a1.33,1.33,0,0,1,1.09-.47,1.31,1.31,0,0,1,1.14.59,2.91,2.91,0,0,1,.41,1.7,3.68,3.68,0,0,1-.5,2,1.44,1.44,0,0,1-1.32.82,1.24,1.24,0,0,1-.67-.18.52.52,0,0,1-.21-.7.32.32,0,0,1,.27-.12.24.24,0,0,1,.23.12.87.87,0,0,1,.06.32.42.42,0,0,0,0,.18.33.33,0,0,0,.06.12.12.12,0,0,0,.09,0,.51.51,0,0,0,.17,0,1,1,0,0,0,.85-.59,4.58,4.58,0,0,0,.38-2,1.35,1.35,0,0,1-.44.59A1.08,1.08,0,0,1,94,23.71Zm-.79-1.58a1.71,1.71,0,0,0,.23,1,.81.81,0,0,0,.65.35A1,1,0,0,0,94.8,23a1.25,1.25,0,0,0,.32-.76,2.4,2.4,0,0,0-.23-1.15.91.91,0,0,0-1.5,0A2.15,2.15,0,0,0,93.16,22.13Z"/><path class="cls-1" d="M97.8,22.51a.37.37,0,0,1-.12.29.38.38,0,0,1-.29.12.41.41,0,0,1-.41-.41.38.38,0,0,1,.12-.29.37.37,0,0,1,.29-.12.41.41,0,0,1,.41.41Zm0,2.76a.41.41,0,0,1-.41.41.37.37,0,0,1-.29-.12.38.38,0,0,1-.12-.29.41.41,0,0,1,.41-.41.38.38,0,0,1,.29.12A.37.37,0,0,1,97.8,25.27Z"/><path class="cls-1" d="M100.56,25.65A1.29,1.29,0,0,1,99.47,25,3.53,3.53,0,0,1,99,23.07a3.5,3.5,0,0,1,.41-1.85,1.29,1.29,0,0,1,1.11-.71,1.23,1.23,0,0,1,1.06.68,3.56,3.56,0,0,1,.44,1.88,3.56,3.56,0,0,1-.44,1.88A1.26,1.26,0,0,1,100.56,25.65Zm0-4.9c-.29,0-.53.2-.7.62a4.18,4.18,0,0,0-.27,1.7,4.31,4.31,0,0,0,.27,1.73c.19.41.43.62.7.62s.52-.21.68-.62a4.81,4.81,0,0,0,.26-1.73,5.24,5.24,0,0,0-.23-1.7C101.11,21,100.87,20.75,100.56,20.75Z"/><path class="cls-1" d="M104.47,25.65a1.29,1.29,0,0,1-1.09-.67,3.53,3.53,0,0,1-.44-1.91,3.6,3.6,0,0,1,.41-1.85,1.31,1.31,0,0,1,1.12-.71,1.21,1.21,0,0,1,1,.68,3.47,3.47,0,0,1,.44,1.88,3.47,3.47,0,0,1-.44,1.88A1.24,1.24,0,0,1,104.47,25.65Zm0-4.9c-.3,0-.53.2-.71.62a4.38,4.38,0,0,0-.26,1.7,4.52,4.52,0,0,0,.26,1.73c.2.41.43.62.71.62s.52-.21.67-.62a4.58,4.58,0,0,0,.27-1.73,5,5,0,0,0-.24-1.7C105,21,104.78,20.75,104.47,20.75Z"/><path class="cls-1" d="M109.87,22.36c.35.1.7.21,1,.33a3.05,3.05,0,0,0,1,.2,1.45,1.45,0,0,0,1.38-.67l.14.14a1.7,1.7,0,0,1-1.58.94,3.56,3.56,0,0,1-1.06-.17l-1-.33a4.2,4.2,0,0,0-1-.17,2.27,2.27,0,0,0-1.47.58l-.15-.14a2.57,2.57,0,0,1,1.76-.85A4.38,4.38,0,0,1,109.87,22.36Z"/><path class="cls-1" d="M116.89,21.81a1.34,1.34,0,0,0-.23-.83.94.94,0,0,0-.71-.26,1,1,0,0,0-.62.18.59.59,0,0,0-.23.5.48.48,0,0,0,.09.29.35.35,0,0,1,.12.23.31.31,0,0,1-.3.3.38.38,0,0,1-.29-.12.45.45,0,0,1-.09-.32,1.1,1.1,0,0,1,.44-.94,1.54,1.54,0,0,1,.94-.33,1.33,1.33,0,0,1,1,.36,1.26,1.26,0,0,1,.35.88,1.65,1.65,0,0,1-.18.7,1.94,1.94,0,0,1-.5.68q-1,1-1.32,1.32a3.73,3.73,0,0,0-.52.7h1.73A.59.59,0,0,0,117,25a1.22,1.22,0,0,0,.23-.62h.18l-.18,1.26h-2.73v-.38a4.87,4.87,0,0,1,.47-.67c.18-.22.48-.54.91-1a4.63,4.63,0,0,0,.74-.94A1.86,1.86,0,0,0,116.89,21.81Z"/><path class="cls-1" d="M120,25.65a1.28,1.28,0,0,1-1.09-.67,3.53,3.53,0,0,1-.44-1.91,3.6,3.6,0,0,1,.41-1.85,1.3,1.3,0,0,1,1.12-.71,1.21,1.21,0,0,1,1,.68,3.47,3.47,0,0,1,.44,1.88A3.47,3.47,0,0,1,121,25,1.24,1.24,0,0,1,120,25.65Zm0-4.9c-.3,0-.53.2-.71.62a4.38,4.38,0,0,0-.26,1.7,4.52,4.52,0,0,0,.26,1.73c.2.41.43.62.71.62s.51-.21.67-.62a4.58,4.58,0,0,0,.27-1.73,5,5,0,0,0-.24-1.7C120.49,21,120.26,20.75,120,20.75Z"/><path class="cls-1" d="M123.53,22.51a.37.37,0,0,1-.12.29.38.38,0,0,1-.29.12.41.41,0,0,1-.41-.41.38.38,0,0,1,.12-.29.37.37,0,0,1,.29-.12.41.41,0,0,1,.41.41Zm0,2.76a.41.41,0,0,1-.41.41.37.37,0,0,1-.29-.12.38.38,0,0,1-.12-.29.41.41,0,0,1,.41-.41.38.38,0,0,1,.29.12A.37.37,0,0,1,123.53,25.27Z"/><path class="cls-1" d="M126.29,25.65a1.26,1.26,0,0,1-1.08-.67,3.44,3.44,0,0,1-.44-1.91,3.5,3.5,0,0,1,.41-1.85,1.29,1.29,0,0,1,1.11-.71,1.22,1.22,0,0,1,1.06.68,3.56,3.56,0,0,1,.44,1.88,3.56,3.56,0,0,1-.44,1.88A1.25,1.25,0,0,1,126.29,25.65Zm0-4.9c-.29,0-.52.2-.7.62a4.2,4.2,0,0,0-.26,1.7,4.33,4.33,0,0,0,.26,1.73c.19.41.43.62.7.62s.52-.21.68-.62a4.81,4.81,0,0,0,.26-1.73,5.24,5.24,0,0,0-.23-1.7C126.84,21,126.61,20.75,126.29,20.75Z"/><path class="cls-1" d="M130.2,25.65a1.29,1.29,0,0,1-1.09-.67,3.53,3.53,0,0,1-.44-1.91,3.6,3.6,0,0,1,.41-1.85,1.31,1.31,0,0,1,1.12-.71,1.23,1.23,0,0,1,1.06.68,3.56,3.56,0,0,1,.44,1.88,3.56,3.56,0,0,1-.44,1.88A1.26,1.26,0,0,1,130.2,25.65Zm0-4.9c-.29,0-.53.2-.7.62a4.18,4.18,0,0,0-.27,1.7,4.31,4.31,0,0,0,.27,1.73c.19.41.43.62.7.62s.52-.21.68-.62a4.81,4.81,0,0,0,.26-1.73,5.24,5.24,0,0,0-.23-1.7C130.75,21,130.51,20.75,130.2,20.75Z"/><path class="cls-2" d="M9.59,8A11.54,11.54,0,0,1,9.42,10a10.07,10.07,0,0,1-.85,2.62,7.15,7.15,0,0,1-1.29,1.78,3.82,3.82,0,0,1-1.16.78,3.39,3.39,0,0,1-1.25.24,3.47,3.47,0,0,1-2.12-.75A6,6,0,0,1,1,12.23,10.11,10.11,0,0,1,.25,8.17,13.49,13.49,0,0,1,.7,4.67a7.24,7.24,0,0,1,1.2-2.6A5.2,5.2,0,0,1,3.37.74,3.25,3.25,0,0,1,5,.33a3.6,3.6,0,0,1,2.35,1,6.41,6.41,0,0,1,1.82,3A11.86,11.86,0,0,1,9.59,8Zm-1.7-.37A24.5,24.5,0,0,0,7.68,3.8a4.15,4.15,0,0,0-1-2.3A2.41,2.41,0,0,0,5,.84a2.53,2.53,0,0,0-1.52.53A2.69,2.69,0,0,0,2.46,3,23.65,23.65,0,0,0,2,8.46a12.5,12.5,0,0,0,.71,5.07A2.31,2.31,0,0,0,4.87,15a2.54,2.54,0,0,0,1.7-.61,3.88,3.88,0,0,0,1-2.27,19.33,19.33,0,0,0,.3-3.72Z"/><path class="cls-2" d="M21.39,8A11.54,11.54,0,0,1,21.22,10a9.71,9.71,0,0,1-.85,2.62,6.68,6.68,0,0,1-1.29,1.78,3.7,3.7,0,0,1-1.16.78,3.34,3.34,0,0,1-1.24.24,3.5,3.5,0,0,1-2.13-.75,6,6,0,0,1-1.75-2.47,10.11,10.11,0,0,1-.75-4.06,13.49,13.49,0,0,1,.46-3.5,7.24,7.24,0,0,1,1.19-2.6A5.37,5.37,0,0,1,15.18.74,3.19,3.19,0,0,1,16.77.33a3.62,3.62,0,0,1,2.35,1,6.49,6.49,0,0,1,1.82,3A12.2,12.2,0,0,1,21.39,8Zm-1.7-.37a24.91,24.91,0,0,0-.2-3.79,4.15,4.15,0,0,0-1-2.3A2.39,2.39,0,0,0,16.77.84a2.55,2.55,0,0,0-1.52.53,2.69,2.69,0,0,0-1,1.63,23.65,23.65,0,0,0-.46,5.46,12.46,12.46,0,0,0,.72,5.07A2.29,2.29,0,0,0,16.67,15a2.5,2.5,0,0,0,1.7-.61,3.82,3.82,0,0,0,1-2.27,19.33,19.33,0,0,0,.3-3.72Z"/><path class="cls-2" d="M24,10.1h1l1.52,0,1.11,0h.57a5.71,5.71,0,0,1,1.19.09l0,.89q-.71.06-1.14.06l-.8,0-.66,0h-.48l-.48,0A10.11,10.11,0,0,1,23.93,11l0-.33A3.05,3.05,0,0,1,24,10.1Z"/><path class="cls-2" d="M39.45,15.09H34.26a1.16,1.16,0,0,1,0-.17.38.38,0,0,1,.08-.27,1.25,1.25,0,0,1,.5-.15,4.76,4.76,0,0,0,1.06-.33A1.07,1.07,0,0,0,36,13.7V13c0-.08,0-.46,0-1.14,0-.26,0-1.37,0-3.33l0-2.67,0-1.55c0-.23,0-.94,0-2.14A17,17,0,0,1,33.26,4a.32.32,0,0,1-.19-.1.26.26,0,0,1-.1-.19.25.25,0,0,1,.08-.18,4.76,4.76,0,0,1,.76-.49,9.36,9.36,0,0,0,.78-.61c.73-.61,1.27-1.09,1.61-1.44s.55-.54.62-.59h.35c.2,0,.32,0,.37.1a1.74,1.74,0,0,1,.07.7l-.08,10.1v1c0,.24,0,.48,0,.73s0,.42,0,.54a1,1,0,0,0,.1.53,1.33,1.33,0,0,0,.42.2l.77.16a2.7,2.7,0,0,1,.55.17.42.42,0,0,1,.11.31Z"/><path class="cls-2" d="M52.92,15.09C51.79,15,50.27,15,48.37,15l-2.46.07-1.1,0-.87,0-.4-.06a3.46,3.46,0,0,1,.52-.87c.63-.77,1.55-1.77,2.75-3a20.89,20.89,0,0,0,3.35-4A5.74,5.74,0,0,0,51,4.44,2.8,2.8,0,0,0,48.14,1.6a2.93,2.93,0,0,0-1.38.34,3.07,3.07,0,0,0-1.08.84A7.22,7.22,0,0,0,45,4.1a4.94,4.94,0,0,1-.28.59.21.21,0,0,1-.16.07.26.26,0,0,1-.18-.09.41.41,0,0,1-.08-.25,4.63,4.63,0,0,1,.51-1.63A4.05,4.05,0,0,1,46.32,1,4.22,4.22,0,0,1,48.65.4a4,4,0,0,1,2.89,1.13,3.61,3.61,0,0,1,1.17,2.69,4.75,4.75,0,0,1-.8,2.51,23.09,23.09,0,0,1-3.65,3.9c-.62.58-1.07,1-1.33,1.27s-.8.86-1.6,1.77c1.16.05,2.21.07,3.15.07l.67,0,.78,0,1.57,0a.83.83,0,0,0,.54-.25,4.86,4.86,0,0,0,.73-1.41h.44a.43.43,0,0,1,.06.17l0,.09a8.1,8.1,0,0,0-.16,1.2C53.06,13.87,53,14.39,52.92,15.09Z"/><path class="cls-2" d="M56.77,3.69l-.37-.21A5.45,5.45,0,0,1,58.1,1,3.83,3.83,0,0,1,60.4.33a3.25,3.25,0,0,1,2,.55,2.29,2.29,0,0,1,1.1,1.83,3,3,0,0,1-.56,1.67,8.35,8.35,0,0,1-2,1.88h.27a3.53,3.53,0,0,1,1.71.45A3.07,3.07,0,0,1,64.2,8.09a4.43,4.43,0,0,1,.48,2,5,5,0,0,1-1.6,3.75A5.62,5.62,0,0,1,59,15.43a5.48,5.48,0,0,1-2.77-.55.81.81,0,0,1-.49-.71.56.56,0,0,1,.2-.43.66.66,0,0,1,.49-.19,1.62,1.62,0,0,1,.91.4,3.78,3.78,0,0,0,2.18,1A3.33,3.33,0,0,0,62,13.73a4.25,4.25,0,0,0,1.08-3,3.93,3.93,0,0,0-.73-2.46,2.24,2.24,0,0,0-1.85-.95,2.67,2.67,0,0,0-1.74.79l-.28-.45c.38-.33.72-.6,1-.83a9,9,0,0,0,2.07-2,2.29,2.29,0,0,0,.48-1.24,2,2,0,0,0-.63-1.51,2.31,2.31,0,0,0-1.67-.62C58.63,1.5,57.63,2.23,56.77,3.69Z"/><path class="cls-2" d="M74.25.33h.52c0,.24,0,.38,0,.42l0,1.67-.06,1.49,0,1.67V6.89l0,1.79c0,.28,0,.71,0,1.27h1l.77,0,.63,0c0,.24,0,.41,0,.53s0,.28,0,.52l-.75,0h-1l-.67,0c0,1.07,0,2.49,0,4.27a.38.38,0,0,1-.15.09l-.7,0-.7,0q0-1.33,0-1.92t0-.93c0-.51,0-.8,0-.88s0-.35,0-.63c-.32,0-.56.05-.74.05h-.3L70.88,11l-.72.08L69,11l-.63,0L67.93,11l-.54.12-.1-.08a3.51,3.51,0,0,1,0-.37,3.15,3.15,0,0,1,0-.37c.21-.28.6-.85,1.16-1.7l2.21-3.21c.55-.81,1-1.45,1.38-1.93s.73-1,1.09-1.54S73.87.82,74.25.33Zm-1,9.63V2.84q-.93,1.23-2.58,3.7c-1.26,1.88-2,3-2.24,3.41l.75,0,3.1.06Z"/><path class="cls-2" d="M79.37,10.1h1l1.52,0,1.11,0h.57a5.71,5.71,0,0,1,1.19.09l0,.89c-.46,0-.84.06-1.13.06l-.8,0-.66,0h-.48l-.48,0a10.11,10.11,0,0,1-2-.13l0-.33A3.05,3.05,0,0,1,79.37,10.1Z"/><path class="cls-2" d="M95.21,2c-.84.07-1.52.1-2,.1L92,2.09l-.42,0a10.28,10.28,0,0,0-1.48.05.23.23,0,0,0,0,.12c0,.12-.12,1.46-.3,4a5,5,0,0,1,1-.37,6.16,6.16,0,0,1,1.26-.1,3.35,3.35,0,0,1,.77.06,8.39,8.39,0,0,1,1.54.64,3.92,3.92,0,0,1,1.07.93A5.16,5.16,0,0,1,96.08,9a4.53,4.53,0,0,1,.25,1.52,5.22,5.22,0,0,1-.24,1.61,4.63,4.63,0,0,1-.61,1.24,5.33,5.33,0,0,1-1.07,1,5.43,5.43,0,0,1-1.69.82,5.86,5.86,0,0,1-1.29.29l-1.65-.14A4.38,4.38,0,0,1,88.59,15a1.77,1.77,0,0,1-.67-.5.61.61,0,0,1-.11-.38c0-.12.09-.25.26-.4a1,1,0,0,1,.63-.21.82.82,0,0,1,.37.1l.9.58a3.77,3.77,0,0,0,.75.51,1.88,1.88,0,0,0,.34.08l.72.09a3.11,3.11,0,0,0,.85-.21,3,3,0,0,0,1.11-.69,4.57,4.57,0,0,0,.88-1.25A3.86,3.86,0,0,0,95,11,3.74,3.74,0,0,0,94,8.3a3.32,3.32,0,0,0-2.48-1.07,3.27,3.27,0,0,0-1.19.22,1.52,1.52,0,0,0-.74.48L89.37,8a.65.65,0,0,1-.2.06L89,8a1.52,1.52,0,0,1,0-.31c0-.06,0-.16,0-.31a7.15,7.15,0,0,0,.09-1.15,5.73,5.73,0,0,1,.12-1.07l0-.54a8,8,0,0,0,.08-.8,12.66,12.66,0,0,1,.22-3,.27.27,0,0,1,.27-.18l.26,0,.07,0,1.44,0q1,.06,1.44.06A7.83,7.83,0,0,0,94.69.58a.89.89,0,0,1,.49-.29l.25,0,0,.14-.09.47-.06.76A1.48,1.48,0,0,1,95.21,2Z"/><path class="cls-2" d="M107.33.28a1.2,1.2,0,0,1,.15.37.36.36,0,0,1-.21.17,6.19,6.19,0,0,0-1.41.66,12,12,0,0,0-1.31,1,6,6,0,0,0-1.17,1.27A10.45,10.45,0,0,0,102,6a14.21,14.21,0,0,0-.72,2.57,10.48,10.48,0,0,0-.13,1.59l0,.42a5.66,5.66,0,0,0,.85,2.9,2.48,2.48,0,0,0,2.13,1.44,2.15,2.15,0,0,0,1.25-.41,2.64,2.64,0,0,0,.92-1.38,7.07,7.07,0,0,0,.34-2.35A4.49,4.49,0,0,0,105.93,8a2.16,2.16,0,0,0-1.73-.9,1.53,1.53,0,0,0-.54.09l-.09,0c-.1,0-.2-.1-.3-.32a2.46,2.46,0,0,1,.71-.32,3.05,3.05,0,0,1,.54-.13l1,.17.33.16a2.72,2.72,0,0,1,.82.4,4.32,4.32,0,0,1,.93,1,6.74,6.74,0,0,1,.54,1.34s.07.37.16,1l-.06,1.13a6.36,6.36,0,0,1-.45,1.43,5.49,5.49,0,0,1-1.06,1.36,3,3,0,0,1-1,.61,5,5,0,0,1-1.82.33A4,4,0,0,1,100.83,14a6.34,6.34,0,0,1-1.27-4.25,9.08,9.08,0,0,1,1.82-5.48A12.73,12.73,0,0,1,103,2.55a11.42,11.42,0,0,1,1.92-1.39A8.52,8.52,0,0,1,107.33.28Z"/><path class="cls-2" d="M111.47.79q1.4-.06,3.75-.06c.72,0,1.54,0,2.46,0l1.09,0h1.36a.24.24,0,0,1,.09.17,2.28,2.28,0,0,1-.26.65c-.08.16-.45,1-1.1,2.49-.31.74-.7,1.71-1.16,2.91l-1.43,4c-.34.92-.56,1.56-.66,1.93l-.26,1a2.55,2.55,0,0,0-.15.68,1.3,1.3,0,0,0,.19.53c-.09.12-.29.18-.61.18a.58.58,0,0,1-.4-.18,9.55,9.55,0,0,1,.43-1.77c.09-.26.25-.78.47-1.56s.43-1.46.64-2.06l1.29-3.51q.56-1.5,1.08-2.76c.12-.28.21-.47.27-.59a1.49,1.49,0,0,0,.24-.69h-.27l-1.5,0-.47,0c-.28,0-.48,0-.62,0h-2.28l-.75,0a1.25,1.25,0,0,0-.82.15,1.38,1.38,0,0,0-.19.85,1,1,0,0,1-.09.33l-.18,0a.82.82,0,0,1-.33-.09c0-.19,0-.33,0-.42l0-.34,0-.62a8.83,8.83,0,0,1,0-1.1A.79.79,0,0,1,111.47.79Z"/><path class="cls-2" d="M126.41,7.87a8.61,8.61,0,0,1-1.49-.94,4,4,0,0,1-1-1.26,3.56,3.56,0,0,1-.38-1.57,3.54,3.54,0,0,1,1.12-2.55A3.66,3.66,0,0,1,127.44.41a4.11,4.11,0,0,1,2.89,1,3,3,0,0,1,1.07,2.34,3.14,3.14,0,0,1-.32,1.41,3.45,3.45,0,0,1-.94,1.14,7.57,7.57,0,0,1-1.44.87,18.34,18.34,0,0,1,1.85,1.07,3.92,3.92,0,0,1,1,1.26A3.6,3.6,0,0,1,132,11.2a4.05,4.05,0,0,1-1.23,3,4.23,4.23,0,0,1-3.13,1.23,4.47,4.47,0,0,1-3.13-1.07,3.49,3.49,0,0,1-1.16-2.65,4.26,4.26,0,0,1,.31-1.63,3.19,3.19,0,0,1,1-1.25A9,9,0,0,1,126.41,7.87Zm.56.25a5,5,0,0,0-1.15.76A3.36,3.36,0,0,0,125,10a4.67,4.67,0,0,0-.28,1.81,3.1,3.1,0,0,0,.53,1.91,2.79,2.79,0,0,0,2.31,1.14,2.84,2.84,0,0,0,3-3,3,3,0,0,0-.84-2.24A8.2,8.2,0,0,0,127,8.12Zm1.22-1.24a3.62,3.62,0,0,0,1.33-1.07,3.76,3.76,0,0,0,.61-2.09,3.21,3.21,0,0,0-.36-1.56,2.17,2.17,0,0,0-1-.93A3,3,0,0,0,127.49,1a2.39,2.39,0,0,0-1.84.77,2.65,2.65,0,0,0-.72,1.89,2.66,2.66,0,0,0,.19,1.09,2.51,2.51,0,0,0,.6.81,11.52,11.52,0,0,0,1.27.9,5.31,5.31,0,0,0,.71.28Z"/></g></g></svg>