<svg xmlns="http://www.w3.org/2000/svg" viewBox="0 0 35.64 26.67"><defs><style>.cls-1{fill:#7b7b7c;}</style></defs><title>アセット 2</title><g id="レイヤー_2" data-name="レイヤー 2"><g id="レイヤー_1-2" data-name="レイヤー 1"><path class="cls-1" d="M11.09,23.23c0,1.11,0,1.74,0,2.61,0,.44-.23.67-.51.67s-.52-.15-.74-.59a1.57,1.57,0,0,1-.19-.77.72.72,0,0,1,.07-.28,1,1,0,0,0,.1-.44c.05-.54.07-2,.07-3.3s0-2.13,0-2.61-.13-.52-.52-.74c-.07,0-.09-.05-.09-.09s0,0,.09-.07a1.7,1.7,0,0,1,.69-.24,1.66,1.66,0,0,1,.77.38c.41.29.51.42.51.56a.5.5,0,0,1-.11.28c-.07.1-.14.19-.15.9,0,.43,0,.86,0,1.28,1.93,0,3,.66,3,1.44a.7.7,0,0,1-.71.73,1,1,0,0,1-.74-.49,3.7,3.7,0,0,0-1.51-1.35C11.07,21.81,11.07,22.17,11.09,23.23Z"/><path class="cls-1" d="M16.2,22.9c-.31,0-.48-.2-.56-.62A2.1,2.1,0,0,0,15,21a.13.13,0,0,1,0-.07s0-.07.1-.07a2.44,2.44,0,0,1,1.32.52,1,1,0,0,1,.44.88A.63.63,0,0,1,16.2,22.9Zm5.25-1.35a1.25,1.25,0,0,0-.27.37,9.64,9.64,0,0,1-4.39,4.73l-.07,0a.08.08,0,0,1-.09-.07.11.11,0,0,1,0-.09,13.37,13.37,0,0,0,3.36-5,1.23,1.23,0,0,0,.11-.51c0-.13-.09-.29-.35-.52,0,0-.05,0-.05-.06s0-.06.08-.08a1.15,1.15,0,0,1,.45-.15,2.14,2.14,0,0,1,.83.41c.38.28.5.4.5.59A.45.45,0,0,1,21.45,21.55Zm-3.27.75a.55.55,0,0,1-.56-.56,2.37,2.37,0,0,0-.53-1.37.07.07,0,0,1,0-.06s0-.06.11-.06a2.19,2.19,0,0,1,1.08.4,1.13,1.13,0,0,1,.56,1A.64.64,0,0,1,18.18,22.3Z"/><path class="cls-1" d="M23.73,26.25c-.05,0-.08,0-.08-.07a.09.09,0,0,1,0-.07,12.12,12.12,0,0,0,4.78-6.24.2.2,0,0,0,0-.07c0-.07-.05-.09-.13-.09l-.65.05a26.73,26.73,0,0,0-2.94.53,2.14,2.14,0,0,0-.57.2.71.71,0,0,1-.32.12c-.21,0-.38-.12-.75-.53s-.42-.54-.42-.71a.88.88,0,0,1,.1-.34c0-.08,0-.08.06-.08s0,0,.06,0a1.19,1.19,0,0,0,.74.34,7.51,7.51,0,0,0,.89-.06L28,18.82a1.2,1.2,0,0,0,.59-.18.58.58,0,0,1,.28-.11c.14,0,.28.06.8.49s.63.56.63.72-.06.2-.2.33a.92.92,0,0,0-.32.39c-1.54,3.15-3.13,4.77-6,5.79Zm8-8.53a1.09,1.09,0,0,1-2.18,0,1.09,1.09,0,0,1,2.18,0Zm-1.82,0a.73.73,0,1,0,.73-.73A.75.75,0,0,0,30,17.72Z"/><path class="cls-1" d="M4.58,3.17c0-1.47,0-1.73-.18-2S3.89.83,3.49.83a3.07,3.07,0,0,0-1.91.56A5,5,0,0,0,.43,3.1c0,.09-.06.13-.25.1S0,3.12,0,3C.13,2.21.24,1.07.3.26,2.13.3,3.83.32,5.57.32S9,.3,10.87.26c.06.81.17,2,.29,2.76,0,.1,0,.15-.18.18s-.24,0-.27-.1A4.51,4.51,0,0,0,9.59,1.39a3,3,0,0,0-2-.56c-.4,0-.71,0-.94.32a4.73,4.73,0,0,0-.21,2V9c0,1.6,0,1.78.15,2.13s.62.33,1.23.4c.11,0,.14.05.14.21s0,.2-.16.2c-.69,0-1.58,0-2.3,0s-1.59,0-2.21,0c-.11,0-.14,0-.14-.19s0-.21.14-.22c.56-.07.93-.08,1.1-.4A5.86,5.86,0,0,0,4.58,9Z"/><path class="cls-1" d="M24.56,6.07a6,6,0,0,1-6.21,6.13,6,6,0,0,1-6.19-6.1A5.94,5.94,0,0,1,18.35,0,5.9,5.9,0,0,1,24.56,6.07Zm-10.18,0c0,3.37,1.59,5.57,4,5.57s4-2.2,4-5.53S20.71.54,18.35.54,14.38,2.75,14.38,6.07Z"/><path class="cls-1" d="M29.46,9c0,1.6,0,1.84.14,2.13s.61.35,1.3.42c.11,0,.13.05.13.21s0,.2-.15.2c-.75,0-1.6,0-2.34,0s-1.61,0-2.28,0c-.1,0-.13,0-.13-.2s.05-.21.14-.21c.61,0,.93-.07,1.12-.42A6,6,0,0,0,27.57,9V3.17c0-1.54,0-1.73-.16-2.08s-.66-.34-1.28-.4C26,.67,26,.66,26,.46s0-.2.15-.2c.72,0,1.63,0,2.38,0s1.6-.06,2.63-.06c3.36,0,4.5,1.26,4.5,3.09s-1.06,3.34-5,3.34a9.42,9.42,0,0,1-1.18-.06Zm0-2.94a5.45,5.45,0,0,0,1,.09c2.31,0,3.11-1.2,3.11-2.7A2.44,2.44,0,0,0,30.82.78c-.37,0-.95,0-1.15.34a4.87,4.87,0,0,0-.21,2.05Z"/></g></g></svg>