<?xml version="1.0" encoding="utf-8"?>
<!-- Generator: Adobe Illustrator 21.1.0, SVG Export Plug-In . SVG Version: 6.00 Build 0)  -->
<svg version="1.1" id="Logo__x2014__FIXED" xmlns="http://www.w3.org/2000/svg" xmlns:xlink="http://www.w3.org/1999/xlink" x="0px"
	 y="0px" viewBox="0 0 400 400" style="enable-background:new 0 0 400 400;" xml:space="preserve">
<style type="text/css">
	.st0{fill:#5E5E5E;}
</style>
<path class="st0" d="M335,184c-9-1.9-17.6-1.2-25.3,1.3c-3.5-37.9-35.4-67.6-74.2-67.6c-15.1,0-29,4.5-40.8,12.2v141.4
	c0,5.6,4.6,10.2,10.2,10.2h119.9c30.2,0,54-27.1,48.5-58.3C369.7,203.8,354.3,188,335,184z"/>
<path class="st0" d="M178.7,129.7c-0.9,0-4.1,0-5,0c-2.7,0-5,24.5-5,75.9c0,51.4,2.2,75.9,5,75.9c0.9,0,4.1,0,5,0
	c2.7,0,5-24.5,5-75.9C183.6,154.2,181.4,129.7,178.7,129.7z"/>
<path class="st0" d="M153.8,155c-0.9,0-4.1,0-5,0c-2.7,0-5,20.4-5,63.2c0,42.8,2.2,63.2,5,63.2c0.9,0,4.1,0,5,0c2.7,0,5-20.4,5-63.2
	C158.7,175.4,156.5,155,153.8,155z"/>
<path class="st0" d="M128.9,147.1c-0.9,0-4.1,0-5,0c-2.7,0-5,21.7-5,67.2c0,45.5,2.2,67.2,5,67.2c0.9,0,4.1,0,5,0
	c2.7,0,5-21.7,5-67.2C133.9,168.8,131.6,147.1,128.9,147.1z"/>
<path class="st0" d="M104,163.7c-0.9,0-4.1,0-5,0c-2.7,0-5,19-5,58.9c0,39.9,2.2,58.9,5,58.9c0.9,0,4.1,0,5,0c2.7,0,5-19,5-58.9
	C109,182.8,106.7,163.7,104,163.7z"/>
<path class="st0" d="M79.1,197.1c-0.9,0-4.1,0-5,0c-2.7,0-5,13.6-5,42.2c0,28.6,2.2,42.2,5,42.2c0.9,0,4.1,0,5,0
	c2.7,0,5-13.6,5-42.2C84.1,210.7,81.9,197.1,79.1,197.1z"/>
<path class="st0" d="M54.2,190.2c-0.9,0-4.1,0-5,0c-2.7,0-5,14.7-5,45.6c0,30.9,2.2,45.6,5,45.6c0.9,0,4.1,0,5,0
	c2.7,0,5-14.7,5-45.6C59.2,205,57,190.2,54.2,190.2z"/>
<path class="st0" d="M29.3,205.1c-0.9,0-4.1,0-5,0c-2.7,0-5,10-5,30.9c0,20.9,2.2,30.9,5,30.9c0.9,0,4.1,0,5,0c2.7,0,5-10,5-30.9
	C34.3,215,32.1,205.1,29.3,205.1z"/>
</svg>
