<?xml version="1.0" encoding="utf-8"?>
<!-- Generator: Adobe Illustrator 22.1.0, SVG Export Plug-In . SVG Version: 6.00 Build 0)  -->
<svg version="1.1" id="レイヤー_1" xmlns="http://www.w3.org/2000/svg" xmlns:xlink="http://www.w3.org/1999/xlink" x="0px"
	 y="0px" width="15.8px" height="45.1px" viewBox="0 0 15.8 45.1" style="enable-background:new 0 0 15.8 45.1;"
	 xml:space="preserve">
<style type="text/css">
	.st0{fill:#B79433;}
</style>
<title>アセット 1</title>
<g id="レイヤー_2_1_">
	<g id="レイヤー_1-2">
		<path class="st0" d="M11.4,38.6c0.2,0.6,0.1,1.3-0.1,1.9c-0.1,0.3,0.1,0.1,0.1,0.1c1.8-1.9-0.5-4.2-0.6-4.2c0,0.7-0.1,1.4-0.4,2
			c-0.5,1.2,0.2,2.5,0.4,2.2C11.5,40.1,11.4,38.6,11.4,38.6z M9.4,33.7C9.2,34.4,9,35,8.6,35.5c-0.7,1-0.2,2.3,0.1,2.1
			c0.6-0.4,0.7-1.8,0.7-1.8c0,0.6-0.1,1.2-0.4,1.8c-0.2,0.3,0.1,0.1,0.1,0.1C11.2,36.2,9.5,33.8,9.4,33.7z M7.4,34.8
			c2-1.4,0.4-3.8,0.3-3.9c-0.1,0.6-0.4,1.2-0.7,1.7c-0.7,1-0.2,2.2,0,2.1C7.5,34.3,7.6,33,7.6,33c0,0.6-0.1,1.2-0.4,1.7
			C7,35,7.3,34.8,7.4,34.8L7.4,34.8z M5.8,31.2c2.2-0.9,1.1-3.6,1-3.6c-0.2,0.6-0.6,1.1-1,1.5c-0.8,0.8-0.7,2.1-0.4,2
			c0.6-0.2,1.1-1.5,1.1-1.5c-0.1,0.6-0.4,1.1-0.7,1.5C5.5,31.2,5.8,31.2,5.8,31.2z M4.8,27.8C4.5,28,4.9,28,4.9,28
			c2.2-0.8,1.3-3.5,1.2-3.6c-0.3,0.5-0.6,1-1.1,1.4c-0.9,0.7-0.8,2-0.5,2c0.6-0.2,1.1-1.5,1.1-1.5C5.5,26.9,5.2,27.4,4.8,27.8
			L4.8,27.8z M3.9,24.7C3.6,24.8,4,24.8,4,24.8c2.2-0.6,1.5-3.3,1.5-3.4c-0.3,0.5-0.7,0.9-1.2,1.3c-0.9,0.6-0.9,1.9-0.6,1.9
			c0.6-0.2,1.2-1.3,1.2-1.3C4.6,23.8,4.3,24.3,3.9,24.7L3.9,24.7z M3.4,20.8c-0.3,0.1,0,0.1,0,0.1c2.2-0.2,2-2.9,2-3
			C5,18.4,4.5,18.7,4,19c-1,0.5-1.2,1.7-0.9,1.7c0.6-0.1,1.4-1.1,1.4-1.1C4.2,20.1,3.8,20.5,3.4,20.8L3.4,20.8z M3.5,17.6
			c-0.3,0.1,0,0.2,0,0.2c2.2-0.2,2-2.9,1.9-3c-0.4,0.4-0.8,0.8-1.3,1c-1,0.4-1.2,1.7-0.9,1.7c0.6-0.1,1.4-1.1,1.4-1.1
			C4.3,16.9,3.9,17.3,3.5,17.6L3.5,17.6z M3.2,14.3c0.6,0,1.5-0.9,1.5-0.9c-0.3,0.4-0.7,0.8-1.2,1c-0.3,0.1,0,0.1,0,0.1
			C5.6,14.7,5.7,12,5.7,12c-0.4,0.4-0.9,0.6-1.4,0.8C3.2,13.1,2.9,14.3,3.2,14.3L3.2,14.3z M4.2,10.7c-0.3,0.1,0,0.2,0,0.2
			c2.1,0.5,2.7-2.1,2.7-2.2c-0.5,0.3-1,0.5-1.6,0.6c-1,0.1-1.6,1.2-1.3,1.3c0.6,0.1,1.6-0.6,1.6-0.6C5.2,10.3,4.7,10.5,4.2,10.7z
			 M5.4,7.3c0.5,0.1,1.4-0.5,1.4-0.5C6.5,7.1,6,7.4,5.6,7.5c-0.2,0,0,0.1,0,0.1C7.4,8,7.9,5.8,7.9,5.7C7.5,6,7,6.1,6.6,6.2
			C5.7,6.3,5.2,7.3,5.4,7.3z M6.8,4.8c-0.3,0,0,0.1,0,0.1C8.8,5.4,9.4,3.1,9.4,3C8.9,3.2,8.4,3.4,7.9,3.5c-1,0.1-1.5,1.1-1.3,1.1
			c0.5,0.1,1.5-0.5,1.5-0.5C7.8,4.4,7.3,4.7,6.8,4.8z M10.5,0C10.5,0,8.2-0.2,8,1.7c0,0,0,0.3,0.1,0c0.2-0.4,0.6-0.7,1-0.9
			c0,0-0.9,0.6-0.9,1.2c0,0.2,1,0.1,1.4-0.8C9.9,0.7,10.2,0.3,10.5,0z M8,39c-0.7,0.2-1.3,0.2-2,0.1c0,0.1,1.9,2.7,4,1.2
			c0,0,0.3-0.3-0.1-0.2c-0.6,0.1-1.3,0-1.9-0.2c0,0,1.5,0.3,2.1-0.1C10.4,39.5,9.2,38.6,8,39z M7.8,37.2c0,0,0.2-0.3-0.1-0.2
			c-0.6,0.1-1.2,0-1.8-0.2c0,0,1.4,0.3,2,0c0.3-0.2-0.8-1.1-2-0.8c-0.6,0.1-1.3,0.1-1.9,0C4,36.1,5.7,38.6,7.8,37.2L7.8,37.2z
			 M5.8,34c0,0,0.3-0.2,0-0.2c-0.6,0-1.2-0.2-1.7-0.5c0,0,1.3,0.5,1.9,0.3c0.3-0.1-0.6-1.2-1.8-1.1c-0.6,0-1.3,0-1.8-0.2
			C2.4,32.4,3.6,35,5.8,34z M4.4,30.4c0,0,0.3-0.1,0-0.2c-0.6-0.1-1.1-0.3-1.6-0.7c0,0,1.2,0.7,1.8,0.5c0.3-0.1-0.4-1.2-1.6-1.3
			c-0.6,0-1.2-0.2-1.7-0.5C1.3,28.3,2.1,31.1,4.4,30.4z M3.3,27c0,0,0.3-0.1,0-0.2c-0.6-0.1-1.1-0.4-1.5-0.8c0,0,1.1,0.8,1.7,0.6
			c0.3-0.1-0.3-1.3-1.5-1.4c-0.6-0.1-1.2-0.3-1.7-0.6C0.4,24.7,1,27.5,3.3,27z M2.7,23.5c0,0,0.3-0.1,0-0.2c-0.5-0.2-1-0.5-1.4-0.9
			c0,0,1,0.8,1.7,0.7c0.3,0-0.3-1.2-1.4-1.4C1,21.6,0.5,21.4,0,21C0,21.1,0.5,23.9,2.7,23.5L2.7,23.5z M2.4,19.9c0,0,0.3-0.1,0-0.2
			c-0.5-0.2-1-0.6-1.3-1c0,0,0.9,0.9,1.5,0.8c0.3,0-0.1-1.2-1.2-1.5C1,17.8,0.5,17.6,0,17.2C0,17.3,0.2,20,2.4,19.9L2.4,19.9z
			 M2.4,16.5c0,0,0.3,0,0.1-0.1c-0.4-0.4-0.8-0.8-1-1.4c0,0,0.6,1.1,1.2,1.2C3,16.3,3,15,2.1,14.5c-0.5-0.3-0.9-0.7-1.2-1.2
			C0.8,13.3,0.2,16,2.4,16.5L2.4,16.5z M2.8,12.8c0,0,0.3,0,0.1-0.1c-0.4-0.4-0.6-0.9-0.8-1.4c0,0,0.5,1.1,1,1.4
			c0.3,0.1,0.4-1.1-0.5-1.8C2.3,10.5,2,10,1.7,9.5C1.6,9.6,0.7,12.1,2.8,12.8L2.8,12.8z M3.7,9.6c0,0,0.3,0.1,0.1-0.1
			C3.5,9,3.3,8.5,3.2,7.9c0,0,0.3,1.2,0.8,1.5c0.2,0.1,0.5-1.1-0.2-1.8C3.5,7.2,3.3,6.7,3.1,6.1C3,6.2,1.7,8.5,3.7,9.6L3.7,9.6z
			 M5,6.3c0,0,0.2,0.1,0.1-0.1C4.8,5.9,4.7,5.4,4.6,5c0,0,0.3,1,0.7,1.3c0.2,0.1,0.4-0.9-0.2-1.6C4.9,4.3,4.6,3.9,4.4,3.5
			C4.4,3.4,3.4,5.5,5,6.3z M6.6,3.4C6.6,3.4,6.8,3.5,6.6,3.4c-0.1-0.5-0.2-1-0.1-1.5c0,0,0.1,1.1,0.5,1.5c0.2,0.2,0.7-0.9,0.1-1.7
			C6.8,1.2,6.7,0.7,6.6,0.2C6.5,0.2,5,2.1,6.6,3.4z M15.4,43.9c-1.7-0.8-3.1-1.9-4.4-3.3c1.1,2.6,4.8,4.5,4.8,4.5L15.4,43.9z"/>
	</g>
</g>
</svg>
