<?xml version="1.0" encoding="utf-8"?>
<!-- Generator: Adobe Illustrator 23.0.0, SVG Export Plug-In . SVG Version: 6.00 Build 0)  -->
<svg version="1.1" id="レイヤー_1" xmlns="http://www.w3.org/2000/svg" xmlns:xlink="http://www.w3.org/1999/xlink" x="0px"
	 y="0px" width="100px" height="100px" viewBox="0 0 100 100" style="enable-background:new 0 0 100 100;" xml:space="preserve">
<style type="text/css">
	.st0{fill:#315B77;}
	.st1{enable-background:new    ;}
	.st2{fill:#FFFFFF;}
</style>
<g>
	<path d="M85.6,10H14.4C12,10,10,12,10,14.4v71.2c0,2.4,2,4.4,4.4,4.4h38.3V59.1H42.3V47h10.4V38c0-10.3,6.3-16,15.5-16
		c3.1,0,6.2,0.1,9.3,0.5v10.8h-6.4c-5,0-6,2.4-6,5.9V47h12l-1.6,12.1H65.2V90h20.4c2.4,0,4.4-2,4.4-4.4V14.4C90,12,88,10,85.6,10z"
		/>
</g>
</svg>
