<?xml version="1.0" encoding="utf-8"?>
<!-- Generator: Adobe Illustrator 23.0.0, SVG Export Plug-In . SVG Version: 6.00 Build 0)  -->
<svg version="1.1" id="レイヤー_1" xmlns="http://www.w3.org/2000/svg" xmlns:xlink="http://www.w3.org/1999/xlink" x="0px"
	 y="0px" width="100px" height="100px" viewBox="0 0 100 100" style="enable-background:new 0 0 100 100;" xml:space="preserve">
<style type="text/css">
	.st0{fill:#315B77;}
	.st1{enable-background:new    ;}
	.st2{fill:#FFFFFF;}
</style>
<g>
	<path d="M50,15.6c11.2,0,12.5,0,17,0.2c4.1,0.2,6.3,0.9,7.8,1.4c2,0.8,3.4,1.7,4.8,3.1c1.5,1.5,2.4,2.9,3.1,4.8
		c0.6,1.5,1.3,3.7,1.4,7.8c0.2,4.4,0.2,5.8,0.2,17s0,12.5-0.2,17c-0.2,4.1-0.9,6.3-1.4,7.8c-0.8,2-1.7,3.4-3.1,4.8
		c-1.5,1.5-2.9,2.4-4.8,3.1c-1.5,0.6-3.7,1.3-7.8,1.4c-4.4,0.2-5.8,0.2-17,0.2s-12.5,0-17-0.2c-4.1-0.2-6.3-0.9-7.8-1.4
		c-2-0.8-3.4-1.7-4.8-3.1c-1.5-1.5-2.4-2.9-3.1-4.8c-0.6-1.5-1.3-3.7-1.4-7.8c-0.2-4.4-0.2-5.8-0.2-17s0-12.5,0.2-17
		c0.2-4.1,0.9-6.3,1.4-7.8c0.8-2,1.7-3.4,3.1-4.8c1.5-1.5,2.9-2.4,4.8-3.1c1.5-0.6,3.7-1.3,7.8-1.4C37.5,15.6,38.8,15.6,50,15.6
		 M50,8C38.6,8,37.2,8,32.7,8.3c-4.5,0.2-7.5,0.9-10.2,2c-2.8,1.1-5.1,2.5-7.4,4.8c-2.3,2.3-3.8,4.7-4.8,7.4c-1,2.7-1.7,5.7-2,10.2
		C8,37.2,8,38.6,8,50c0,11.4,0,12.8,0.3,17.3c0.2,4.5,0.9,7.5,2,10.2c1.1,2.8,2.5,5.1,4.8,7.4c2.3,2.3,4.7,3.8,7.4,4.8
		c2.7,1,5.7,1.7,10.2,2C37.2,92,38.6,92,50,92s12.8,0,17.3-0.3c4.5-0.2,7.5-0.9,10.2-2c2.8-1.1,5.1-2.5,7.4-4.8
		c2.3-2.3,3.8-4.7,4.8-7.4c1-2.7,1.7-5.7,2-10.2C92,62.8,92,61.4,92,50s0-12.8-0.3-17.3c-0.2-4.5-0.9-7.5-2-10.2
		c-1.1-2.8-2.5-5.1-4.8-7.4c-2.3-2.3-4.7-3.8-7.4-4.8c-2.7-1-5.7-1.7-10.2-2C62.8,8,61.4,8,50,8L50,8z"/>
	<path d="M50,28.4c-11.9,0-21.6,9.7-21.6,21.6S38.1,71.6,50,71.6S71.6,61.9,71.6,50S61.9,28.4,50,28.4z M50,64c-7.7,0-14-6.3-14-14
		c0-7.7,6.3-14,14-14c7.7,0,14,6.3,14,14C64,57.7,57.7,64,50,64z"/>
	<circle cx="72.4" cy="27.6" r="5"/>
</g>
</svg>
