<?xml version="1.0" encoding="utf-8"?>
<!-- Generator: Adobe Illustrator 23.0.0, SVG Export Plug-In . SVG Version: 6.00 Build 0)  -->
<svg version="1.1" id="レイヤー_1" xmlns="http://www.w3.org/2000/svg" xmlns:xlink="http://www.w3.org/1999/xlink" x="0px"
	 y="0px" width="100px" height="100px" viewBox="0 0 100 100" style="enable-background:new 0 0 100 100;" xml:space="preserve">
<style type="text/css">
	.st0{fill:#315B77;}
	.st1{enable-background:new    ;}
	.st2{fill:#FFFFFF;}
</style>
<g>
	<path d="M35.6,86C68,86,85.8,59.1,85.8,35.8c0-0.8,0-1.5,0-2.3c3.4-2.5,6.4-5.6,8.8-9.2c-3.2,1.4-6.6,2.3-10.2,2.8
		c3.6-2.2,6.4-5.6,7.8-9.8c-3.4,2-7.2,3.5-11.2,4.3c-3.2-3.4-7.8-5.6-12.9-5.6c-9.7,0-17.7,7.9-17.7,17.7c0,1.4,0.2,2.7,0.4,4
		C36.2,37,23.2,29.9,14.5,19.3c-1.5,2.6-2.4,5.6-2.4,8.9c0,6.1,3.1,11.5,7.8,14.7c-2.9-0.1-5.6-0.9-8-2.2c0,0.1,0,0.1,0,0.2
		c0,8.5,6.1,15.7,14.1,17.3c-1.5,0.4-3,0.6-4.6,0.6c-1.1,0-2.2-0.1-3.3-0.3c2.2,7,8.8,12.1,16.5,12.3c-6.1,4.7-13.7,7.6-21.9,7.6
		c-1.4,0-2.8-0.1-4.2-0.2C16.3,83,25.6,86,35.6,86"/>
</g>
</svg>
