<svg xmlns="http://www.w3.org/2000/svg" viewBox="0 0 400 50"><defs><style>.cls-1{isolation:isolate;}.cls-2{fill:#fff;}.cls-3{fill:none;}</style></defs><title>offisial-website</title><g id="レイヤー_2" data-name="レイヤー 2"><g id="レイヤー_1-2" data-name="レイヤー 1"><g class="cls-1"><path class="cls-2" d="M10,28.24c0-7.77,5.18-14.5,11.73-14.5,5.32,0,8.49,3.81,8.49,9.89,0,7.77-5.14,14.5-11.73,14.5C13.2,38.13,10,34.32,10,28.24Zm16.26-4.32c0-4.17-1.58-6.84-4.75-6.84C17.34,17.08,14,22.48,14,28c0,4.17,1.55,6.84,4.72,6.84C22.88,34.79,26.26,29.39,26.26,23.92Z"/><path class="cls-2" d="M45.76,23.09H39.4L36.48,37.7H32.63l2.95-14.61h-2.3l.58-2.88,2.3-.18.36-1.69c.75-3.59,2.77-6.11,6.37-6.11a8.37,8.37,0,0,1,3.63.86l-1.29,2.77a4.38,4.38,0,0,0-2-.54c-1.51,0-2.49.9-2.88,2.92L40,20h6.4l.4-2.05c.72-3.59,2.7-6.11,6.22-6.11a7.86,7.86,0,0,1,3.49.86L55.23,15.5A3.85,3.85,0,0,0,53.39,15c-1.44,0-2.34.9-2.73,2.92L50.23,20h3.34L53,23.09H49.61L46.7,37.7H42.85Z"/><path class="cls-2" d="M56.7,20h3.85L57,37.7H53.14Zm.58-5.14a2.59,2.59,0,0,1,2.59-2.52,2.06,2.06,0,0,1,2.23,2,2.52,2.52,0,0,1-2.59,2.51A2.06,2.06,0,0,1,57.28,14.89Z"/><path class="cls-2" d="M62.57,30.94c0-6.34,4.64-11.34,10.15-11.34a5.92,5.92,0,0,1,4.64,2.16L75.2,24.1a3.31,3.31,0,0,0-2.74-1.37c-3.16,0-5.93,3.67-5.93,8.06,0,2.67,1.18,4.21,3.56,4.21a5.32,5.32,0,0,0,3.35-1.37l1.65,2.45a9.4,9.4,0,0,1-5.79,2.05C65.41,38.13,62.57,35.51,62.57,30.94Z"/><path class="cls-2" d="M81.53,20h3.85L81.86,37.7H78Zm.58-5.14a2.58,2.58,0,0,1,2.59-2.52,2.06,2.06,0,0,1,2.23,2,2.52,2.52,0,0,1-2.59,2.51A2.06,2.06,0,0,1,82.11,14.89Z"/><path class="cls-2" d="M87.47,31.69c0-6.76,4.6-12.09,9.5-12.09A4.58,4.58,0,0,1,101,22.09h.07l.76-2.06H105L101.43,37.7H98.26l.18-2.45h-.11a8.52,8.52,0,0,1-5.82,2.88C89.41,38.13,87.47,35.83,87.47,31.69ZM98.73,32l1.44-7a3.47,3.47,0,0,0-3-2.16c-3,0-5.72,3.85-5.72,8.38,0,2.59,1,3.82,2.63,3.82S97.29,34.1,98.73,32Z"/><path class="cls-2" d="M107.22,35.25a7.9,7.9,0,0,1,.25-1.87l4.21-21.08h3.85l-4.24,21.26a2.76,2.76,0,0,0-.08.69c0,.54.26.75.62.75a1.55,1.55,0,0,0,.64-.11l-.07,2.88a5.68,5.68,0,0,1-2.19.36C108.16,38.13,107.22,37.05,107.22,35.25Z"/><path class="cls-2" d="M126.08,14.17h4l-.54,12.09c-.18,2.52-.32,5.07-.53,7.63h.14c1-2.56,2.19-5.15,3.2-7.63l5.36-12.09H141l.21,12.09c0,2.48,0,5.07-.1,7.63h.14c.9-2.56,1.91-5.15,2.81-7.63l4.53-12.09h3.74L142.92,37.7H138L138,24.89c0-1.62.11-3.67.22-5.5H138c-.65,1.83-1.44,3.67-2.19,5.5L130.32,37.7H125.5Z"/><path class="cls-2" d="M151.05,30.65c0-6.59,5-11,9.64-11,4.1,0,5.61,2.85,5.61,6.52a10.72,10.72,0,0,1-.72,3.67H154.79c-.43,3.81,1.69,5.39,4.35,5.39a6.55,6.55,0,0,0,3.6-1.4l1.44,2.48a10.57,10.57,0,0,1-6,1.87C153.93,38.13,151.05,35.4,151.05,30.65Zm11.87-3.31a6.32,6.32,0,0,0,.18-1.48c0-1.72-.72-3.27-2.88-3.27s-4.24,1.76-5.11,4.75Z"/><path class="cls-2" d="M172.24,35.65h-.07l-.76,2.05h-3.2l5.11-25.4h3.85l-1.26,6.26-.86,3.38h.07a9.25,9.25,0,0,1,5.54-2.34c3.13,0,5,2.27,5,6.44,0,6.77-4.61,12.09-9.47,12.09A4.44,4.44,0,0,1,172.24,35.65Zm9.5-9.1c0-2.56-1-3.78-2.66-3.78a6.09,6.09,0,0,0-4.5,2.55l-1.51,7.49A3.29,3.29,0,0,0,176,35C179,35,181.74,31.12,181.74,26.55Z"/><path class="cls-2" d="M186.81,34.75l2.31-1.87a5.3,5.3,0,0,0,4.17,2.37c1.66,0,3.09-1,3.09-2.3,0-1.11-.93-1.69-3.31-3.06-2-1.15-3.63-2.66-3.63-4.78,0-3.2,2.84-5.51,6.33-5.51a7.55,7.55,0,0,1,5.62,2.56l-2.2,2a4.68,4.68,0,0,0-3.45-1.65,2.41,2.41,0,0,0-2.67,2.23c0,1.26,1.55,1.9,3,2.77,2.52,1.4,3.92,2.66,3.92,5,0,3.42-3,5.65-7,5.65A7.74,7.74,0,0,1,186.81,34.75Z"/><path class="cls-2" d="M206.24,20h3.85L206.57,37.7h-3.89Zm.58-5.14a2.59,2.59,0,0,1,2.59-2.52,2.06,2.06,0,0,1,2.23,2,2.52,2.52,0,0,1-2.59,2.51A2.06,2.06,0,0,1,206.82,14.89Z"/><path class="cls-2" d="M213.3,33.81a13.45,13.45,0,0,1,.21-2.08l1.8-8.64h-2.48l.57-2.88,2.7-.18,1.4-4.74h3.24L219.81,20h4.24l-.61,3.06h-4.32l-1.79,8.78a6.71,6.71,0,0,0-.11,1.26c0,1.3.57,1.94,2.05,1.94a3.67,3.67,0,0,0,1.65-.46l.72,2.73a9.5,9.5,0,0,1-3.74.79C214.59,38.13,213.3,36.26,213.3,33.81Z"/><path class="cls-2" d="M224.13,30.65c0-6.59,5-11,9.64-11,4.1,0,5.61,2.85,5.61,6.52a11,11,0,0,1-.72,3.67H227.87c-.43,3.81,1.69,5.39,4.35,5.39a6.55,6.55,0,0,0,3.6-1.4l1.44,2.48a10.58,10.58,0,0,1-6,1.87C227,38.13,224.13,35.4,224.13,30.65ZM236,27.34a6.32,6.32,0,0,0,.18-1.48c0-1.72-.72-3.27-2.88-3.27s-4.25,1.76-5.11,4.75Z"/></g><rect class="cls-3" width="400" height="50"/></g></g></svg>