<svg xmlns="http://www.w3.org/2000/svg" viewBox="0 0 400 100"><defs><style>.cls-1{isolation:isolate;}.cls-2{fill:#fff;}.cls-3{fill:none;}</style></defs><title>tanaka</title><g id="レイヤー_2" data-name="レイヤー 2"><g id="レイヤー_1-2" data-name="レイヤー 1"><g class="cls-1"><path class="cls-2" d="M61.7,12,60,19l-12.47-.6H40L33.87,64.1,31.35,88h-9l3.47-23.16L31,18.39H23.67L10.6,19l-.6-.84,1.68-7H61.22Z"/><path class="cls-2" d="M103.33,88H94.69l-.36-6.36-1.92-9.24-13.55-.12-12.12.12L62.3,81.25,59.78,88H51.39L81,28.23h9.71ZM84.85,36.74h-.47L70.1,65.41H90.85Z"/><path class="cls-2" d="M167.39,70.21,165.47,88h-8.88L131.76,41.54h-.48L127.8,68.17,125.52,88H118l2.52-17.64,5-42.1h8.76l24.95,46.42h.6l5.64-46.06,7.79-.6Z"/><path class="cls-2" d="M231.45,88h-8.64l-.36-6.36-1.92-9.24L207,72.25l-12.11.12-4.44,8.88L187.9,88h-8.4l29.63-59.74h9.72ZM213,36.74h-.48L198.22,65.41H219Z"/><path class="cls-2" d="M256.76,69.25,254.6,88h-8.52l2.76-18,4.8-41.74h8.51Zm11.51-12.83a282.11,282.11,0,0,0,22.55,29.75l-.48,1a51.86,51.86,0,0,1-8.15,1.68l-1-.6q-12.12-16-22-31.43l.12-.72,22.92-22.55,4.44-5.28h9.35Z"/><path class="cls-2" d="M347,88h-8.64L338,81.61l-1.92-9.24-13.56-.12-12.11.12-4.44,8.88L303.42,88H295l29.63-59.74h9.72ZM328.49,36.74H328L313.74,65.41h20.75Z"/></g><rect class="cls-3" width="400" height="100"/></g></g></svg>