<svg xmlns="http://www.w3.org/2000/svg" viewBox="0 0 400 100"><defs><style>.cls-1{isolation:isolate;}.cls-2{fill:#fff;}.cls-3{fill:none;}</style></defs><title>wataru</title><g id="レイヤー_2" data-name="レイヤー 2"><g id="レイヤー_1-2" data-name="レイヤー 1"><g class="cls-1"><path class="cls-2" d="M72.62,88H63.38L54.75,42.62h-.84L33.27,88H23.8L10,11.19h9l.24,7.08L29.91,77.89h.84l21.6-47.38L48.51,11.19h9.35l.72,7.92L69.26,77.89h.84l27.23-59L100,11.19h8.52Z"/><path class="cls-2" d="M152.63,88H144l-.35-6.36-1.92-9.24-13.56-.12L116,72.37l-4.43,8.88L109.09,88h-8.4l29.63-59.74H140ZM134.16,36.74h-.48L119.4,65.41h20.76Z"/><path class="cls-2" d="M204.22,29.07l-1.44,7.07-10.68-.72h-5.88l-4.56,33.83-2,18.72h-8.27l2.52-18,4.19-34.55H172L161,36.14l-.48-.83L162,28.23h41.86Z"/><path class="cls-2" d="M249.32,88h-8.64l-.36-6.36-1.92-9.24-13.55-.12-12.12.12-4.44,8.88L205.77,88h-8.39L227,28.23h9.71ZM230.85,36.74h-.48L216.09,65.41h20.75Z"/><path class="cls-2" d="M303.9,55.52A25.51,25.51,0,0,1,293,63.74q5.64,10.91,13,22.19L305.58,87a35.66,35.66,0,0,1-7.92,1.8L296.34,88l-1.08-2.16Q288.32,71.89,285.79,66H274.87l-.48,3.23-2,18.72H264l2.64-18,4.92-41.74,18.72-.12q8.14,0,12.83,4.08t4.68,11.15A20,20,0,0,1,303.9,55.52Zm-28.07,3.42,10.92.36q12.11-3.36,12.11-14.88,0-4.56-2.7-6.9C294.36,36,291.62,35.11,288,35l-8.88.11Z"/><path class="cls-2" d="M366.4,58.7l-1.08,8.51q-1.2,10.2-7.74,15.84T340,88.69q-10,0-15.36-4.44t-5.39-12.72a27.75,27.75,0,0,1,.36-4.32l1.32-9.11,3.48-29.87h8.51l-5.28,37.54c-.16,1.61-.24,2.76-.24,3.48q0,6,3.36,9.06t10,3.06q15,0,17-15.6L362,28.23h8.52Z"/></g><rect class="cls-3" width="400" height="100"/></g></g></svg>