<svg xmlns="http://www.w3.org/2000/svg" viewBox="0 0 400 100"><defs><style>.cls-1{isolation:isolate;}.cls-2{fill:#fff;}.cls-3{fill:none;}</style></defs><title>田中航</title><g id="レイヤー_2" data-name="レイヤー 2"><g id="レイヤー_1-2" data-name="レイヤー 1"><g class="cls-1"><path class="cls-2" d="M10,30.26H51.38V72.79H47.93V69.64H13.35v3.15H10Zm18.64,3.3H13.35V48.05H28.64ZM13.35,51.4V66.29H28.64V51.4Zm34.58-3.35V33.56H32V48.05ZM32,66.29H47.93V51.4H32Z"/><path class="cls-2" d="M102,35.86h18.69V59.39h-3.45V56.45H102V73.09H98.5V56.45h-15v3.19H80.11V35.86H98.5V26.71l4.5.3c0,.35-.35.6-1,.7ZM83.46,53.1h15V39.16h-15Zm18.54,0h15.24V39.16H102Z"/><path class="cls-2" d="M168.47,48.35a21,21,0,0,1,0,2.55l-3,.25V69.54c0,3.45-1.9,3.6-7.59,3.6a10.08,10.08,0,0,0-.95-2.8c1.14,0,2.19,0,3,0,2.5,0,2.65,0,2.65-.9V51.4c-3.2.3-6.34.55-9,.75,0,6.35-.5,15.29-4.2,21.14a8.75,8.75,0,0,0-2.4-1.6c3.4-5.45,3.75-13.19,3.75-19.34l-1.85.15a.76.76,0,0,1-.75.65L147,49.7l3.65-.2V33.71h4.25a68.29,68.29,0,0,0,2-7l4.09,1.1c-.1.35-.45.5-1,.5a53.8,53.8,0,0,1-2.09,5.4h7.54V48.55ZM153.53,36.51V49.3c2.8-.15,5.89-.35,9-.55V36.51Zm3.95,2.25a22.67,22.67,0,0,1,3.14,7c-1.4.6-1.89.8-2.39,1a25.11,25.11,0,0,0-2.95-7.09Zm2.29,14.79c-.05.3-.3.55-.9.6V65.54h-2.29V53.35Zm27.44,13.64c0,2.15,0,2.45,1.15,2.45,2.45,0,2.8,0,3-1.55.1-.75.15-2.5.2-4.8a7.56,7.56,0,0,0,2.5,1.35c-.15,6.7-.85,7.85-4.1,7.85h-2.35c-3.65,0-3.65-2.1-3.65-5.65v-20h-9v8.3c0,5.64-.85,13.09-5.8,18a11.34,11.34,0,0,0-2.65-2c4.7-4.65,5.25-11,5.25-16.19V43.85h15.49Zm6.45-32.08v3H167.27v-3h11.19v-8.2l4.25.3c-.05.3-.3.55-1,.65v7.25Z"/></g><rect class="cls-3" width="400" height="100"/></g></g></svg>