<?xml version="1.0" encoding="utf-8"?>
<!-- Generator: Adobe Illustrator 24.0.1, SVG Export Plug-In . SVG Version: 6.00 Build 0)  -->
<svg version="1.1" id="レイヤー_1" xmlns="http://www.w3.org/2000/svg" xmlns:xlink="http://www.w3.org/1999/xlink" x="0px"
	 y="0px" width="145px" height="56px" viewBox="0 0 145 56" style="enable-background:new 0 0 145 56;" xml:space="preserve">
<style type="text/css">
	.st0{fill:#B3BFB8;}
</style>
<g>
	<path class="st0" d="M29.5,38.2H18.8L16.6,46h-3.1l9.8-33.6h1.6L34.8,46h-3.1L29.5,38.2z M19.6,35.3h9l-4.4-15.5l-0.1-1.2L24,19.8
		L19.6,35.3z"/>
	<path class="st0" d="M58.4,42.2c-0.4,0.9-0.9,1.6-1.5,2.2s-1.4,1.1-2.2,1.5s-1.8,0.6-2.7,0.6H50c-1,0-1.9-0.2-2.7-0.6
		S45.7,45,45,44.4s-1.1-1.4-1.5-2.2s-0.6-1.8-0.6-2.7v-27h2.9V24c0.7-0.8,1.4-1.4,2.4-1.8s1.9-0.7,3-0.7h0.7c1,0,1.9,0.2,2.7,0.6
		s1.6,0.9,2.2,1.5s1.1,1.4,1.5,2.2s0.6,1.8,0.6,2.7v10.8C59,40.4,58.8,41.3,58.4,42.2z M56.1,28.4c0-0.6-0.1-1.1-0.3-1.6
		s-0.5-0.9-0.9-1.3s-0.8-0.7-1.3-0.9s-1.1-0.3-1.6-0.3H50c-0.6,0-1.1,0.1-1.6,0.3s-0.9,0.5-1.3,0.9s-0.7,0.8-0.9,1.3
		s-0.3,1.1-0.3,1.6v11.2c0,0.6,0.1,1.1,0.3,1.6s0.5,0.9,0.9,1.3s0.8,0.7,1.3,0.9s1.1,0.3,1.6,0.3h1.9c0.6,0,1.1-0.1,1.6-0.3
		s0.9-0.5,1.3-0.9s0.7-0.8,0.9-1.3s0.3-1.1,0.3-1.6V28.4z"/>
	<path class="st0" d="M85,42.2c-0.4,0.9-0.9,1.6-1.5,2.2s-1.4,1.1-2.2,1.5s-1.8,0.6-2.7,0.6h-1.9c-1,0-1.9-0.2-2.7-0.6
		s-1.6-0.9-2.2-1.5s-1.1-1.4-1.5-2.2s-0.6-1.8-0.6-2.7V28.6c0-1,0.2-1.9,0.6-2.7s0.9-1.6,1.5-2.2s1.4-1.1,2.2-1.5s1.8-0.6,2.7-0.6
		h1.9c1,0,1.9,0.2,2.7,0.6s1.6,0.9,2.2,1.5s1.1,1.4,1.5,2.2s0.6,1.8,0.6,2.7v10.8C85.6,40.4,85.4,41.3,85,42.2z M82.7,28.4
		c0-0.6-0.1-1.1-0.3-1.6s-0.5-0.9-0.9-1.3s-0.8-0.7-1.3-0.9s-1.1-0.3-1.6-0.3h-1.9c-0.6,0-1.1,0.1-1.6,0.3s-0.9,0.5-1.3,0.9
		s-0.7,0.8-0.9,1.3s-0.3,1.1-0.3,1.6v11.2c0,0.6,0.1,1.1,0.3,1.6s0.5,0.9,0.9,1.3s0.8,0.7,1.3,0.9s1.1,0.3,1.6,0.3h1.9
		c0.6,0,1.1-0.1,1.6-0.3s0.9-0.5,1.3-0.9s0.7-0.8,0.9-1.3s0.3-1.1,0.3-1.6V28.4z"/>
	<path class="st0" d="M111.2,46l-1.6-2.4c-0.7,0.9-1.5,1.6-2.5,2.1s-2.1,0.8-3.2,0.8h-0.7c-1,0-1.9-0.2-2.7-0.6s-1.6-0.9-2.2-1.5
		s-1.1-1.4-1.5-2.2s-0.6-1.8-0.6-2.7V22H99v17.6c0,0.6,0.1,1.1,0.3,1.6s0.5,0.9,0.9,1.3s0.8,0.7,1.3,0.9s1.1,0.3,1.6,0.3h1.9
		c0.6,0,1.1-0.1,1.6-0.3s0.9-0.5,1.3-0.9s0.7-0.8,0.9-1.3s0.3-1.1,0.3-1.6V22h2.9v24H111.2z"/>
	<path class="st0" d="M131.5,46c-0.9,0-1.7-0.2-2.5-0.5s-1.4-0.8-2-1.4s-1-1.2-1.4-2s-0.5-1.6-0.5-2.5V24.7h-4.3V22h4.3v-5.8
		l2.9-0.5V22h6.1v2.7H128v15.1c0,0.5,0.1,0.9,0.3,1.3s0.4,0.8,0.7,1.1s0.7,0.6,1.1,0.7s0.9,0.3,1.4,0.3h2.6V46H131.5z"/>
</g>
</svg>
