<?xml version="1.0" encoding="utf-8"?>
<!-- Generator: Adobe Illustrator 24.0.1, SVG Export Plug-In . SVG Version: 6.00 Build 0)  -->
<svg version="1.1" id="レイヤー_1" xmlns="http://www.w3.org/2000/svg" xmlns:xlink="http://www.w3.org/1999/xlink" x="0px"
	 y="0px" width="200px" height="56px" viewBox="0 0 200 56" style="enable-background:new 0 0 200 56;" xml:space="preserve">
<style type="text/css">
	.st0{fill:#B3BFB8;}
</style>
<g>
	<path class="st0" d="M34.6,41.4c-0.4,1-1,1.9-1.8,2.6s-1.6,1.3-2.6,1.8s-2.1,0.6-3.2,0.6h-2.4c-1.1,0-2.2-0.2-3.2-0.6
		s-1.9-1-2.6-1.8s-1.3-1.6-1.8-2.6s-0.6-2.1-0.6-3.2v-18c0-1.1,0.2-2.2,0.6-3.2s1-1.9,1.8-2.6s1.6-1.3,2.6-1.8s2.1-0.6,3.2-0.6H27
		c1.1,0,2.2,0.2,3.2,0.6s1.9,1,2.6,1.8s1.3,1.6,1.8,2.6s0.6,2.1,0.6,3.2v1.4l-3,0.5v-1.8c0-0.8-0.1-1.4-0.4-2.1s-0.7-1.2-1.1-1.7
		c-0.5-0.5-1.1-0.9-1.7-1.1s-1.3-0.4-2.1-0.4h-2.1c-0.8,0-1.4,0.1-2.1,0.4s-1.2,0.7-1.7,1.1c-0.5,0.5-0.9,1.1-1.2,1.7
		s-0.4,1.3-0.4,2.1v18c0,0.8,0.1,1.4,0.4,2.1s0.7,1.2,1.2,1.7s1.1,0.9,1.7,1.2s1.3,0.4,2.1,0.4h2.1c0.8,0,1.4-0.1,2.1-0.4
		s1.2-0.7,1.7-1.2s0.9-1.1,1.1-1.7s0.4-1.3,0.4-2.1v-1.8l3,0.5v1.3C35.3,39.4,35.1,40.4,34.6,41.4z"/>
	<path class="st0" d="M61.3,42.2c-0.4,0.9-0.9,1.6-1.5,2.2s-1.4,1.1-2.2,1.5s-1.8,0.6-2.7,0.6h-1.9c-1,0-1.9-0.2-2.7-0.6
		s-1.6-0.9-2.2-1.5s-1.1-1.4-1.5-2.2s-0.6-1.8-0.6-2.7V28.6c0-1,0.2-1.9,0.6-2.7s0.9-1.6,1.5-2.2s1.4-1.1,2.2-1.5s1.8-0.6,2.7-0.6
		h1.9c1,0,1.9,0.2,2.7,0.6s1.6,0.9,2.2,1.5s1.1,1.4,1.5,2.2s0.6,1.8,0.6,2.7v10.8C61.9,40.4,61.7,41.3,61.3,42.2z M59,28.4
		c0-0.6-0.1-1.1-0.3-1.6s-0.5-0.9-0.9-1.3s-0.8-0.7-1.3-0.9s-1.1-0.3-1.6-0.3h-1.9c-0.6,0-1.1,0.1-1.6,0.3s-0.9,0.5-1.3,0.9
		s-0.7,0.8-0.9,1.3s-0.3,1.1-0.3,1.6v11.2c0,0.6,0.1,1.1,0.3,1.6s0.5,0.9,0.9,1.3s0.8,0.7,1.3,0.9s1.1,0.3,1.6,0.3h1.9
		c0.6,0,1.1-0.1,1.6-0.3s0.9-0.5,1.3-0.9s0.7-0.8,0.9-1.3s0.3-1.1,0.3-1.6V28.4z"/>
	<path class="st0" d="M85.6,46V28.4c0-0.6-0.1-1.1-0.3-1.6s-0.5-0.9-0.9-1.3s-0.8-0.7-1.3-0.9s-1.1-0.3-1.6-0.3h-1.9
		c-0.6,0-1.1,0.1-1.6,0.3s-0.9,0.5-1.3,0.9s-0.7,0.8-0.9,1.3s-0.3,1.1-0.3,1.6V46h-2.9V22h1l1.6,2.4c0.7-0.9,1.5-1.6,2.5-2.1
		s2.1-0.8,3.2-0.8h0.7c1,0,1.9,0.2,2.7,0.6s1.6,0.9,2.2,1.5s1.1,1.4,1.5,2.2s0.6,1.8,0.6,2.7V46H85.6z"/>
	<path class="st0" d="M107.8,46c-0.9,0-1.7-0.2-2.5-0.5s-1.4-0.8-2-1.4s-1-1.2-1.4-2s-0.5-1.6-0.5-2.5V24.7h-4.3V22h4.3v-5.8
		l2.9-0.5V22h6.1v2.7h-6.1v15.1c0,0.5,0.1,0.9,0.3,1.3s0.4,0.8,0.7,1.1s0.7,0.6,1.1,0.7s0.9,0.3,1.4,0.3h2.6V46H107.8z"/>
	<path class="st0" d="M135.6,46l-1.6-2.4c-0.7,0.9-1.5,1.6-2.5,2.1s-2.1,0.8-3.2,0.8h-0.7c-1,0-1.9-0.2-2.7-0.6s-1.6-0.9-2.2-1.5
		s-1.1-1.4-1.5-2.2s-0.6-1.8-0.6-2.7v-0.2c0-1,0.2-1.9,0.6-2.7s0.9-1.6,1.5-2.2s1.4-1.1,2.2-1.5s1.8-0.6,2.7-0.6h6.1v-3.7
		c0-0.6-0.1-1.1-0.3-1.6s-0.5-0.9-0.9-1.3s-0.8-0.7-1.3-0.9s-1.1-0.3-1.6-0.3h-1.7c-0.6,0-1.1,0.1-1.6,0.3s-0.9,0.5-1.3,0.9
		s-0.7,0.8-0.9,1.3s-0.3,1.1-0.3,1.6v0.9l-2.9-0.5v-0.2c0-1,0.2-1.9,0.6-2.7s0.9-1.6,1.5-2.2s1.4-1.1,2.2-1.5s1.8-0.6,2.7-0.6h1.7
		c1,0,1.9,0.2,2.7,0.6s1.6,0.9,2.2,1.5s1.1,1.4,1.5,2.2s0.6,1.8,0.6,2.7V46H135.6z M133.6,34.4h-6.1c-0.6,0-1.1,0.1-1.6,0.3
		s-0.9,0.5-1.3,0.9s-0.7,0.8-0.9,1.3s-0.3,1.1-0.3,1.6v1c0,0.6,0.1,1.1,0.3,1.6s0.5,0.9,0.9,1.3s0.8,0.7,1.3,0.9s1.1,0.3,1.6,0.3
		h1.9c0.6,0,1.1-0.1,1.6-0.3s0.9-0.5,1.3-0.9s0.7-0.8,0.9-1.3s0.3-1.1,0.3-1.6V34.4z"/>
	<path class="st0" d="M162.6,42.2c-0.4,0.9-0.9,1.6-1.5,2.2s-1.4,1.1-2.2,1.5s-1.8,0.6-2.7,0.6h-1.9c-1,0-1.9-0.2-2.7-0.6
		s-1.6-0.9-2.2-1.5s-1.1-1.4-1.5-2.2s-0.6-1.8-0.6-2.7V28.6c0-1,0.2-1.9,0.6-2.7s0.9-1.6,1.5-2.2s1.4-1.1,2.2-1.5s1.8-0.6,2.7-0.6
		h1.9c1,0,1.9,0.2,2.7,0.6s1.6,0.9,2.2,1.5s1.1,1.4,1.5,2.2s0.6,1.8,0.6,2.7v1l-2.9,0.5v-1.6c0-0.6-0.1-1.1-0.3-1.6
		s-0.5-0.9-0.9-1.3s-0.8-0.7-1.3-0.9s-1.1-0.3-1.6-0.3h-1.9c-0.6,0-1.1,0.1-1.6,0.3s-0.9,0.5-1.3,0.9s-0.7,0.8-0.9,1.3
		s-0.3,1.1-0.3,1.6v11.2c0,0.6,0.1,1.1,0.3,1.6s0.5,0.9,0.9,1.3s0.8,0.7,1.3,0.9s1.1,0.3,1.6,0.3h1.9c0.6,0,1.1-0.1,1.6-0.3
		s0.9-0.5,1.3-0.9s0.7-0.8,0.9-1.3s0.3-1.1,0.3-1.6V38l2.9,0.5v1C163.1,40.4,162.9,41.3,162.6,42.2z"/>
	<path class="st0" d="M182.4,46c-0.9,0-1.7-0.2-2.5-0.5s-1.4-0.8-2-1.4s-1-1.2-1.4-2s-0.5-1.6-0.5-2.5V24.7h-4.3V22h4.3v-5.8
		l2.9-0.5V22h6.1v2.7H179v15.1c0,0.5,0.1,0.9,0.3,1.3s0.4,0.8,0.7,1.1s0.7,0.6,1.1,0.7s0.9,0.3,1.4,0.3h2.6V46H182.4z"/>
</g>
</svg>
