<?xml version="1.0" encoding="utf-8"?>
<!-- Generator: Adobe Illustrator 24.0.1, SVG Export Plug-In . SVG Version: 6.00 Build 0)  -->
<svg version="1.1" id="レイヤー_1" xmlns="http://www.w3.org/2000/svg" xmlns:xlink="http://www.w3.org/1999/xlink" x="0px"
	 y="0px" width="296px" height="56px" viewBox="0 0 296 56" style="enable-background:new 0 0 296 56;" xml:space="preserve">
<style type="text/css">
	.st0{fill:#B3BFB8;}
</style>
<g>
	<path class="st0" d="M35.1,41c-0.4,1-1,1.9-1.8,2.6s-1.6,1.3-2.6,1.8S28.6,46,27.5,46H16.8V12.4h10.6c1.1,0,2.2,0.2,3.2,0.6
		s1.9,1,2.6,1.8s1.3,1.6,1.8,2.6s0.6,2.1,0.6,3.2v17.1C35.8,38.9,35.5,40,35.1,41z M32.7,20.7c0-0.8-0.1-1.4-0.4-2.1
		s-0.7-1.2-1.2-1.7s-1.1-0.9-1.7-1.2s-1.3-0.4-2.1-0.4h-7.5v27.8h7.5c0.8,0,1.4-0.1,2.1-0.4s1.2-0.7,1.7-1.1s0.9-1.1,1.2-1.7
		s0.4-1.3,0.4-2.1V20.7z"/>
	<path class="st0" d="M46.6,16.2v-3.8h3.4v3.8H46.6z M46.8,46V22h2.9v24H46.8z"/>
	<path class="st0" d="M77.7,39.9c0,1-0.2,1.9-0.6,2.7s-0.9,1.5-1.6,2.1s-1.4,1-2.3,1.3s-1.8,0.5-2.8,0.5h-1.9c-1,0-1.9-0.2-2.8-0.6
		s-1.7-0.9-2.3-1.5s-1.2-1.4-1.6-2.2s-0.6-1.8-0.6-2.7v-1l2.9-0.5v1.6c0,0.6,0.1,1.1,0.4,1.6s0.6,0.9,1,1.3s0.9,0.7,1.4,0.9
		s1.1,0.3,1.7,0.3h1.9c0.6,0,1.1-0.1,1.7-0.3s1-0.4,1.4-0.7s0.7-0.7,1-1.2s0.4-1,0.4-1.5c0-0.9-0.2-1.6-0.6-2.1s-0.9-1-1.5-1.4
		s-1.3-0.7-2.1-0.9s-1.6-0.5-2.4-0.7s-1.6-0.5-2.4-0.8s-1.5-0.7-2.1-1.2s-1.1-1.1-1.5-1.9s-0.6-1.7-0.6-2.9c0-1,0.2-1.9,0.6-2.7
		s0.9-1.5,1.5-2.1s1.4-1,2.2-1.3s1.8-0.5,2.7-0.5h1.7c1,0,1.9,0.2,2.7,0.6s1.6,0.9,2.2,1.5s1.1,1.4,1.5,2.2s0.6,1.8,0.6,2.7v0.1
		l-2.9,0.5v-0.7c0-0.6-0.1-1.1-0.3-1.6s-0.5-0.9-0.9-1.3s-0.8-0.7-1.3-0.9s-1.1-0.3-1.6-0.3h-1.7c-0.6,0-1.1,0.1-1.6,0.3
		s-0.9,0.4-1.3,0.7s-0.7,0.7-0.9,1.2s-0.3,1-0.3,1.5c0,0.8,0.2,1.5,0.6,2s0.9,1,1.5,1.3s1.3,0.7,2.1,0.9s1.6,0.5,2.4,0.8
		s1.6,0.6,2.4,0.9s1.5,0.8,2.1,1.3s1.1,1.2,1.5,1.9S77.7,38.8,77.7,39.9z"/>
	<path class="st0" d="M103.5,42.2c-0.4,0.9-0.9,1.6-1.5,2.2s-1.4,1.1-2.2,1.5S98,46.5,97,46.5h-1.9c-1,0-1.9-0.2-2.7-0.6
		s-1.6-0.9-2.2-1.5S89,43,88.6,42.2S88,40.4,88,39.4V28.6c0-1,0.2-1.9,0.6-2.7s0.9-1.6,1.5-2.2s1.4-1.1,2.2-1.5s1.8-0.6,2.7-0.6H97
		c1,0,1.9,0.2,2.7,0.6s1.6,0.9,2.2,1.5s1.1,1.4,1.5,2.2s0.6,1.8,0.6,2.7v1l-2.9,0.5v-1.6c0-0.6-0.1-1.1-0.3-1.6s-0.5-0.9-0.9-1.3
		s-0.8-0.7-1.3-0.9s-1.1-0.3-1.6-0.3h-1.9c-0.6,0-1.1,0.1-1.6,0.3s-0.9,0.5-1.3,0.9s-0.7,0.8-0.9,1.3s-0.3,1.1-0.3,1.6v11.2
		c0,0.6,0.1,1.1,0.3,1.6s0.5,0.9,0.9,1.3s0.8,0.7,1.3,0.9s1.1,0.3,1.6,0.3H97c0.6,0,1.1-0.1,1.6-0.3s0.9-0.5,1.3-0.9
		s0.7-0.8,0.9-1.3s0.3-1.1,0.3-1.6V38l2.9,0.5v1C104.1,40.4,103.9,41.3,103.5,42.2z"/>
	<path class="st0" d="M130.1,42.2c-0.4,0.9-0.9,1.6-1.5,2.2s-1.4,1.1-2.2,1.5s-1.8,0.6-2.7,0.6h-1.9c-1,0-1.9-0.2-2.7-0.6
		s-1.6-0.9-2.2-1.5s-1.1-1.4-1.5-2.2s-0.6-1.8-0.6-2.7V28.6c0-1,0.2-1.9,0.6-2.7s0.9-1.6,1.5-2.2s1.4-1.1,2.2-1.5s1.8-0.6,2.7-0.6
		h1.9c1,0,1.9,0.2,2.7,0.6s1.6,0.9,2.2,1.5s1.1,1.4,1.5,2.2s0.6,1.8,0.6,2.7v10.8C130.7,40.4,130.5,41.3,130.1,42.2z M127.8,28.4
		c0-0.6-0.1-1.1-0.3-1.6s-0.5-0.9-0.9-1.3s-0.8-0.7-1.3-0.9s-1.1-0.3-1.6-0.3h-1.9c-0.6,0-1.1,0.1-1.6,0.3s-0.9,0.5-1.3,0.9
		s-0.7,0.8-0.9,1.3s-0.3,1.1-0.3,1.6v11.2c0,0.6,0.1,1.1,0.3,1.6s0.5,0.9,0.9,1.3s0.8,0.7,1.3,0.9s1.1,0.3,1.6,0.3h1.9
		c0.6,0,1.1-0.1,1.6-0.3s0.9-0.5,1.3-0.9s0.7-0.8,0.9-1.3s0.3-1.1,0.3-1.6V28.4z"/>
	<path class="st0" d="M156.9,51.7c-0.4,0.8-0.9,1.5-1.5,2.1s-1.4,1-2.2,1.3s-1.8,0.5-2.7,0.5h-1.2c-1,0-1.9-0.2-2.7-0.5
		s-1.6-0.8-2.2-1.3s-1.1-1.3-1.5-2.1s-0.6-1.7-0.6-2.7v-0.1c0-0.9,0.2-1.8,0.5-2.6s0.8-1.5,1.4-2c-0.8-0.5-1.3-1.1-1.8-1.8
		s-0.7-1.6-0.7-2.6c0-0.8,0.2-1.6,0.5-2.4s0.9-1.3,1.5-1.8c-0.8-0.7-1.3-1.4-1.8-2.4s-0.7-1.9-0.7-3v-1.8c0-1,0.2-1.9,0.6-2.7
		s0.9-1.6,1.5-2.2s1.4-1.1,2.2-1.5s1.8-0.6,2.7-0.6h1.2c1.2,0,2.3,0.3,3.2,0.8s1.8,1.2,2.5,2.1l1.6-2.4h1v8.4c0,1-0.2,1.9-0.6,2.7
		s-0.9,1.6-1.5,2.2s-1.4,1.1-2.2,1.5s-1.8,0.6-2.7,0.6h-4.2c-0.3,0-0.6,0.1-0.9,0.2s-0.6,0.3-0.8,0.5s-0.4,0.5-0.5,0.8
		s-0.2,0.6-0.2,0.9s0.1,0.6,0.2,0.9s0.3,0.6,0.5,0.8s0.5,0.4,0.8,0.5s0.6,0.2,0.9,0.2h3.9c1,0,1.9,0.2,2.7,0.5s1.6,0.8,2.2,1.3
		s1.1,1.3,1.5,2.1s0.6,1.7,0.6,2.7V49C157.5,50,157.3,50.9,156.9,51.7z M154.9,28.4c0-0.6-0.1-1.1-0.3-1.6s-0.5-0.9-0.9-1.3
		s-0.8-0.7-1.3-0.9s-1.1-0.3-1.6-0.3h-2.4c-0.6,0-1.1,0.1-1.6,0.3s-0.9,0.5-1.3,0.9s-0.7,0.8-0.9,1.3s-0.3,1.1-0.3,1.6v2.1
		c0,0.6,0.1,1.1,0.3,1.6s0.5,0.9,0.9,1.3s0.8,0.7,1.3,0.9s1.1,0.3,1.6,0.3h2.4c0.6,0,1.1-0.1,1.6-0.3s1-0.5,1.3-0.9s0.7-0.8,0.9-1.3
		s0.3-1.1,0.3-1.6V28.4z M154.8,48.8c0-0.6-0.1-1.1-0.3-1.6s-0.5-0.8-0.9-1.2s-0.8-0.6-1.3-0.7s-1.1-0.3-1.6-0.3h-1.5
		c-0.6,0-1.1,0.1-1.6,0.3s-0.9,0.4-1.3,0.7s-0.7,0.7-0.9,1.2s-0.3,1-0.3,1.6v0.4c0,0.6,0.1,1.1,0.3,1.5s0.5,0.8,0.9,1.2
		s0.8,0.6,1.3,0.7s1.1,0.3,1.6,0.3h1.5c0.6,0,1.1-0.1,1.6-0.3s0.9-0.4,1.3-0.7s0.7-0.7,0.9-1.2s0.3-1,0.3-1.5V48.8z"/>
	<path class="st0" d="M174.9,24.7c-0.6,0-1.1,0.1-1.6,0.3s-0.9,0.5-1.3,0.9s-0.7,0.8-0.9,1.3s-0.3,1.1-0.3,1.6V46h-2.9V22h1l1.6,2.4
		c0.7-0.9,1.5-1.6,2.5-2.1s2.1-0.8,3.2-0.8h1.7v3.2H174.9z"/>
	<path class="st0" d="M201.5,46l-1.6-2.4c-0.7,0.9-1.5,1.6-2.5,2.1s-2.1,0.8-3.2,0.8h-0.7c-1,0-1.9-0.2-2.7-0.6s-1.6-0.9-2.2-1.5
		s-1.1-1.4-1.5-2.2s-0.6-1.8-0.6-2.7v-0.2c0-1,0.2-1.9,0.6-2.7s0.9-1.6,1.5-2.2s1.4-1.1,2.2-1.5s1.8-0.6,2.7-0.6h6.1v-3.7
		c0-0.6-0.1-1.1-0.3-1.6s-0.5-0.9-0.9-1.3s-0.8-0.7-1.3-0.9s-1.1-0.3-1.6-0.3h-1.7c-0.6,0-1.1,0.1-1.6,0.3s-0.9,0.5-1.3,0.9
		s-0.7,0.8-0.9,1.3s-0.3,1.1-0.3,1.6v0.9l-2.9-0.5v-0.2c0-1,0.2-1.9,0.6-2.7s0.9-1.6,1.5-2.2s1.4-1.1,2.2-1.5s1.8-0.6,2.7-0.6h1.7
		c1,0,1.9,0.2,2.7,0.6s1.6,0.9,2.2,1.5s1.1,1.4,1.5,2.2s0.6,1.8,0.6,2.7V46H201.5z M199.6,34.4h-6.1c-0.6,0-1.1,0.1-1.6,0.3
		s-0.9,0.5-1.3,0.9s-0.7,0.8-0.9,1.3s-0.3,1.1-0.3,1.6v1c0,0.6,0.1,1.1,0.3,1.6s0.5,0.9,0.9,1.3s0.8,0.7,1.3,0.9s1.1,0.3,1.6,0.3
		h1.9c0.6,0,1.1-0.1,1.6-0.3s0.9-0.5,1.3-0.9s0.7-0.8,0.9-1.3s0.3-1.1,0.3-1.6V34.4z"/>
	<path class="st0" d="M228.5,42.2c-0.4,0.9-0.9,1.6-1.5,2.2s-1.4,1.1-2.2,1.5s-1.8,0.6-2.7,0.6h-0.7c-1.1,0-2.1-0.2-3-0.7
		s-1.7-1-2.4-1.8v11.6H213V22h1l1.6,2.4c0.7-0.9,1.5-1.6,2.5-2.1s2.1-0.8,3.2-0.8h0.7c1,0,1.9,0.2,2.7,0.6s1.6,0.9,2.2,1.5
		s1.1,1.4,1.5,2.2s0.6,1.8,0.6,2.7v10.8C229,40.4,228.8,41.3,228.5,42.2z M226.2,28.4c0-0.6-0.1-1.1-0.3-1.6s-0.5-0.9-0.9-1.3
		s-0.8-0.7-1.3-0.9s-1.1-0.3-1.6-0.3h-1.9c-0.6,0-1.1,0.1-1.6,0.3s-0.9,0.5-1.3,0.9s-0.7,0.8-0.9,1.3s-0.3,1.1-0.3,1.6v11.2
		c0,0.6,0.1,1.1,0.3,1.6s0.5,0.9,0.9,1.3s0.8,0.7,1.3,0.9s1.1,0.3,1.6,0.3h1.9c0.6,0,1.1-0.1,1.6-0.3s0.9-0.5,1.3-0.9
		s0.7-0.8,0.9-1.3s0.3-1.1,0.3-1.6V28.4z"/>
	<path class="st0" d="M252.7,46V28.4c0-0.6-0.1-1.1-0.3-1.6s-0.5-0.9-0.9-1.3s-0.8-0.7-1.3-0.9s-1.1-0.3-1.6-0.3h-1.9
		c-0.6,0-1.1,0.1-1.6,0.3s-0.9,0.5-1.3,0.9s-0.7,0.8-0.9,1.3s-0.3,1.1-0.3,1.6V46h-2.9V12.4h2.9V24c0.7-0.8,1.4-1.4,2.4-1.8
		s1.9-0.7,3-0.7h0.7c1,0,1.9,0.2,2.7,0.6s1.6,0.9,2.2,1.5s1.1,1.4,1.5,2.2s0.6,1.8,0.6,2.7V46H252.7z"/>
	<path class="st0" d="M270.1,55.6h-2.8l4.3-11.7L263.8,22h2.9l6.3,18.2l0.1,1.2l0.1-1.2l6.2-18.2h2.9L270.1,55.6z"/>
</g>
</svg>
