<?xml version="1.0" encoding="utf-8"?>
<!-- Generator: Adobe Illustrator 24.0.1, SVG Export Plug-In . SVG Version: 6.00 Build 0)  -->
<svg version="1.1" id="レイヤー_1" xmlns="http://www.w3.org/2000/svg" xmlns:xlink="http://www.w3.org/1999/xlink" x="0px"
	 y="0px" width="169px" height="56px" viewBox="0 0 169 56" style="enable-background:new 0 0 169 56;" xml:space="preserve">
<style type="text/css">
	.st0{fill:#B3BFB8;}
</style>
<g>
	<path class="st0" d="M35.1,28c-0.4,1-1,1.9-1.8,2.6s-1.6,1.3-2.6,1.8s-2.1,0.6-3.2,0.6h-7.6V46h-3V12.4h10.6c1.1,0,2.2,0.2,3.2,0.6
		s1.9,1,2.6,1.8s1.3,1.6,1.8,2.6s0.6,2.1,0.6,3.2v4.2C35.8,26,35.5,27,35.1,28z M32.7,20.7c0-0.8-0.1-1.4-0.4-2.1s-0.7-1.2-1.2-1.7
		s-1.1-0.9-1.7-1.2s-1.3-0.4-2.1-0.4h-7.5v14.9h7.5c0.8,0,1.4-0.1,2.1-0.4s1.2-0.7,1.7-1.1s0.9-1.1,1.2-1.7s0.4-1.3,0.4-2.1V20.7z"
		/>
	<path class="st0" d="M52.4,24.7c-0.6,0-1.1,0.1-1.6,0.3s-0.9,0.5-1.3,0.9s-0.7,0.8-0.9,1.3s-0.3,1.1-0.3,1.6V46h-2.9V22h1l1.6,2.4
		c0.7-0.9,1.5-1.6,2.5-2.1s2.1-0.8,3.2-0.8h1.7v3.2H52.4z"/>
	<path class="st0" d="M79.4,42.2c-0.4,0.9-0.9,1.6-1.5,2.2s-1.4,1.1-2.2,1.5s-1.8,0.6-2.7,0.6H71c-1,0-1.9-0.2-2.7-0.6
		S66.6,45,66,44.4s-1.1-1.4-1.5-2.2s-0.6-1.8-0.6-2.7V28.6c0-1,0.2-1.9,0.6-2.7s0.9-1.6,1.5-2.2s1.4-1.1,2.2-1.5s1.8-0.6,2.7-0.6
		h1.9c1,0,1.9,0.2,2.7,0.6s1.6,0.9,2.2,1.5s1.1,1.4,1.5,2.2s0.6,1.8,0.6,2.7v10.8C80,40.4,79.8,41.3,79.4,42.2z M77.1,28.4
		c0-0.6-0.1-1.1-0.3-1.6s-0.5-0.9-0.9-1.3s-0.8-0.7-1.3-0.9s-1.1-0.3-1.6-0.3H71c-0.6,0-1.1,0.1-1.6,0.3s-0.9,0.5-1.3,0.9
		s-0.7,0.8-0.9,1.3s-0.3,1.1-0.3,1.6v11.2c0,0.6,0.1,1.1,0.3,1.6s0.5,0.9,0.9,1.3s0.8,0.7,1.3,0.9s1.1,0.3,1.6,0.3h1.9
		c0.6,0,1.1-0.1,1.6-0.3s0.9-0.5,1.3-0.9s0.7-0.8,0.9-1.3s0.3-1.1,0.3-1.6V28.4z"/>
	<path class="st0" d="M98.8,15.1c-0.5,0-0.9,0.1-1.3,0.3s-0.8,0.4-1.1,0.7c-0.3,0.3-0.6,0.7-0.7,1.1s-0.3,0.9-0.3,1.4V22h5.6v2.7
		h-5.6V46h-2.9V24.7h-4.3V22h4.3v-3.3c0-0.9,0.2-1.7,0.5-2.5c0.3-0.8,0.8-1.4,1.4-2s1.2-1,2-1.4s1.6-0.5,2.5-0.5h2.6v2.7H98.8z"/>
	<path class="st0" d="M109.8,16.2v-3.8h3.4v3.8H109.8z M110.1,46V22h2.9v24H110.1z"/>
	<path class="st0" d="M125.5,46V12.4h2.9V46H125.5z"/>
	<path class="st0" d="M155.3,42.2c-0.4,0.9-0.9,1.6-1.5,2.2s-1.4,1.1-2.2,1.5s-1.8,0.6-2.7,0.6h-1.9c-1,0-1.9-0.2-2.7-0.6
		s-1.6-0.9-2.2-1.5s-1.1-1.4-1.5-2.2s-0.6-1.8-0.6-2.7V28.6c0-1,0.2-1.9,0.6-2.7s0.9-1.6,1.5-2.2s1.4-1.1,2.2-1.5s1.8-0.6,2.7-0.6
		h1.9c1,0,1.9,0.2,2.7,0.6s1.6,0.9,2.2,1.5s1.1,1.4,1.5,2.2s0.6,1.8,0.6,2.7v5.6h-13.1v5.3c0,0.6,0.1,1.1,0.3,1.6s0.5,0.9,0.9,1.3
		s0.8,0.7,1.3,0.9s1.1,0.3,1.6,0.3h1.9c0.6,0,1.1-0.1,1.6-0.3s0.9-0.5,1.3-0.9s0.7-0.8,0.9-1.3s0.3-1.1,0.3-1.6V38l2.9,0.5v1
		C155.9,40.4,155.7,41.3,155.3,42.2z M153,28.4c0-0.6-0.1-1.1-0.3-1.6s-0.5-0.9-0.9-1.3s-0.8-0.7-1.3-0.9s-1.1-0.3-1.6-0.3h-1.9
		c-0.6,0-1.1,0.1-1.6,0.3s-0.9,0.5-1.3,0.9s-0.7,0.8-0.9,1.3s-0.3,1.1-0.3,1.6V32H153V28.4z"/>
</g>
</svg>
