<?xml version="1.0" encoding="utf-8"?>
<!-- Generator: Adobe Illustrator 24.0.1, SVG Export Plug-In . SVG Version: 6.00 Build 0)  -->
<svg version="1.1" id="レイヤー_1" xmlns="http://www.w3.org/2000/svg" xmlns:xlink="http://www.w3.org/1999/xlink" x="0px"
	 y="0px" width="222px" height="56px" viewBox="0 0 222 56" style="enable-background:new 0 0 222 56;" xml:space="preserve">
<style type="text/css">
	.st0{fill:#B3BFB8;}
</style>
<g>
	<path class="st0" d="M35.3,38.2c0,1.1-0.2,2.2-0.7,3.2s-1.1,1.9-1.9,2.6s-1.7,1.3-2.7,1.8s-2.1,0.6-3.2,0.6h-2.4
		c-1.1,0-2.2-0.2-3.2-0.6s-1.9-1-2.7-1.8s-1.4-1.6-1.9-2.6s-0.7-2.1-0.7-3.2v-1.3l3-0.5v1.8c0,0.8,0.2,1.4,0.5,2.1s0.7,1.2,1.2,1.7
		s1.1,0.9,1.8,1.2s1.4,0.4,2.1,0.4h2.1c0.8,0,1.5-0.1,2.1-0.4s1.3-0.7,1.8-1.2s0.9-1.1,1.2-1.7s0.5-1.3,0.5-2.1v-1
		c0-1.2-0.2-2.1-0.7-2.9s-1.1-1.4-1.8-2s-1.6-1-2.5-1.4s-1.9-0.8-2.9-1.1s-2-0.8-2.9-1.2s-1.8-1-2.5-1.7s-1.4-1.5-1.8-2.5
		s-0.7-2.2-0.7-3.6v-0.6c0-1.1,0.2-2.2,0.6-3.2s1-1.9,1.8-2.6s1.6-1.3,2.6-1.8s2.1-0.6,3.2-0.6h2.2c1.1,0,2.2,0.2,3.2,0.6
		s1.9,1,2.6,1.8S34,16,34.4,17S35,19,35,20.2V21l-3,0.5v-1.4c0-0.8-0.1-1.4-0.4-2.1s-0.7-1.2-1.1-1.7c-0.5-0.5-1.1-0.9-1.7-1.1
		s-1.3-0.4-2.1-0.4h-1.9c-0.8,0-1.4,0.1-2.1,0.4s-1.2,0.7-1.7,1.1c-0.5,0.5-0.9,1.1-1.2,1.7s-0.4,1.3-0.4,2.1v0.6
		c0,1.1,0.2,2,0.7,2.7s1.1,1.4,1.8,1.9s1.6,1,2.5,1.4s1.9,0.8,2.9,1.2s2,0.8,2.9,1.3s1.8,1.1,2.5,1.8s1.4,1.5,1.8,2.5
		s0.7,2.2,0.7,3.7V38.2z"/>
	<path class="st0" d="M61.1,42.2c-0.4,0.9-0.9,1.6-1.5,2.2s-1.4,1.1-2.2,1.5s-1.8,0.6-2.7,0.6h-1.9c-1,0-1.9-0.2-2.7-0.6
		s-1.6-0.9-2.2-1.5s-1.1-1.4-1.5-2.2s-0.6-1.8-0.6-2.7V28.6c0-1,0.2-1.9,0.6-2.7s0.9-1.6,1.5-2.2s1.4-1.1,2.2-1.5s1.8-0.6,2.7-0.6
		h1.9c1,0,1.9,0.2,2.7,0.6s1.6,0.9,2.2,1.5s1.1,1.4,1.5,2.2s0.6,1.8,0.6,2.7v1L58.7,30v-1.6c0-0.6-0.1-1.1-0.3-1.6s-0.5-0.9-0.9-1.3
		s-0.8-0.7-1.3-0.9s-1.1-0.3-1.6-0.3h-1.9c-0.6,0-1.1,0.1-1.6,0.3s-0.9,0.5-1.3,0.9s-0.7,0.8-0.9,1.3s-0.3,1.1-0.3,1.6v11.2
		c0,0.6,0.1,1.1,0.3,1.6s0.5,0.9,0.9,1.3s0.8,0.7,1.3,0.9s1.1,0.3,1.6,0.3h1.9c0.6,0,1.1-0.1,1.6-0.3s0.9-0.5,1.3-0.9
		s0.7-0.8,0.9-1.3s0.3-1.1,0.3-1.6V38l2.9,0.5v1C61.6,40.4,61.4,41.3,61.1,42.2z"/>
	<path class="st0" d="M85.3,46V28.4c0-0.6-0.1-1.1-0.3-1.6s-0.5-0.9-0.9-1.3s-0.8-0.7-1.3-0.9s-1.1-0.3-1.6-0.3h-1.9
		c-0.6,0-1.1,0.1-1.6,0.3s-0.9,0.5-1.3,0.9s-0.7,0.8-0.9,1.3s-0.3,1.1-0.3,1.6V46h-2.9V12.4h2.9V24c0.7-0.8,1.4-1.4,2.4-1.8
		s1.9-0.7,3-0.7h0.7c1,0,1.9,0.2,2.7,0.6s1.6,0.9,2.2,1.5s1.1,1.4,1.5,2.2s0.6,1.8,0.6,2.7V46H85.3z"/>
	<path class="st0" d="M114.3,42.2c-0.4,0.9-0.9,1.6-1.5,2.2s-1.4,1.1-2.2,1.5s-1.8,0.6-2.7,0.6h-1.9c-1,0-1.9-0.2-2.7-0.6
		s-1.6-0.9-2.2-1.5s-1.1-1.4-1.5-2.2s-0.6-1.8-0.6-2.7V28.6c0-1,0.2-1.9,0.6-2.7s0.9-1.6,1.5-2.2s1.4-1.1,2.2-1.5s1.8-0.6,2.7-0.6
		h1.9c1,0,1.9,0.2,2.7,0.6s1.6,0.9,2.2,1.5s1.1,1.4,1.5,2.2s0.6,1.8,0.6,2.7v5.6h-13.1v5.3c0,0.6,0.1,1.1,0.3,1.6s0.5,0.9,0.9,1.3
		s0.8,0.7,1.3,0.9s1.1,0.3,1.6,0.3h1.9c0.6,0,1.1-0.1,1.6-0.3s0.9-0.5,1.3-0.9s0.7-0.8,0.9-1.3s0.3-1.1,0.3-1.6V38l2.9,0.5v1
		C114.8,40.4,114.6,41.3,114.3,42.2z M111.9,28.4c0-0.6-0.1-1.1-0.3-1.6s-0.5-0.9-0.9-1.3s-0.8-0.7-1.3-0.9s-1.1-0.3-1.6-0.3h-1.9
		c-0.6,0-1.1,0.1-1.6,0.3s-0.9,0.5-1.3,0.9s-0.7,0.8-0.9,1.3s-0.3,1.1-0.3,1.6V32h10.3V28.4z"/>
	<path class="st0" d="M140.5,46l-1.6-2.4c-0.7,0.9-1.5,1.6-2.5,2.1s-2.1,0.8-3.2,0.8h-0.7c-1,0-1.9-0.2-2.7-0.6s-1.6-0.9-2.2-1.5
		s-1.1-1.4-1.5-2.2s-0.6-1.8-0.6-2.7V28.6c0-1,0.2-1.9,0.6-2.7s0.9-1.6,1.5-2.2s1.4-1.1,2.2-1.5s1.8-0.6,2.7-0.6h0.7
		c1.1,0,2.1,0.2,3,0.7s1.7,1,2.4,1.8V12.4h2.9V46H140.5z M138.5,28.4c0-0.6-0.1-1.1-0.3-1.6s-0.5-0.9-0.9-1.3s-0.8-0.7-1.3-0.9
		s-1.1-0.3-1.6-0.3h-1.9c-0.6,0-1.1,0.1-1.6,0.3s-0.9,0.5-1.3,0.9s-0.7,0.8-0.9,1.3s-0.3,1.1-0.3,1.6v11.2c0,0.6,0.1,1.1,0.3,1.6
		s0.5,0.9,0.9,1.3s0.8,0.7,1.3,0.9s1.1,0.3,1.6,0.3h1.9c0.6,0,1.1-0.1,1.6-0.3s0.9-0.5,1.3-0.9s0.7-0.8,0.9-1.3s0.3-1.1,0.3-1.6
		V28.4z"/>
	<path class="st0" d="M167.1,46l-1.6-2.4c-0.7,0.9-1.5,1.6-2.5,2.1s-2.1,0.8-3.2,0.8H159c-1,0-1.9-0.2-2.7-0.6s-1.6-0.9-2.2-1.5
		s-1.1-1.4-1.5-2.2s-0.6-1.8-0.6-2.7V22h2.9v17.6c0,0.6,0.1,1.1,0.3,1.6s0.5,0.9,0.9,1.3s0.8,0.7,1.3,0.9s1.1,0.3,1.6,0.3h1.9
		c0.6,0,1.1-0.1,1.6-0.3s0.9-0.5,1.3-0.9s0.7-0.8,0.9-1.3s0.3-1.1,0.3-1.6V22h2.9v24H167.1z"/>
	<path class="st0" d="M179.5,46V12.4h2.9V46H179.5z"/>
	<path class="st0" d="M209.4,42.2c-0.4,0.9-0.9,1.6-1.5,2.2s-1.4,1.1-2.2,1.5s-1.8,0.6-2.7,0.6H201c-1,0-1.9-0.2-2.7-0.6
		s-1.6-0.9-2.2-1.5s-1.1-1.4-1.5-2.2s-0.6-1.8-0.6-2.7V28.6c0-1,0.2-1.9,0.6-2.7s0.9-1.6,1.5-2.2s1.4-1.1,2.2-1.5s1.8-0.6,2.7-0.6
		h1.9c1,0,1.9,0.2,2.7,0.6s1.6,0.9,2.2,1.5s1.1,1.4,1.5,2.2s0.6,1.8,0.6,2.7v5.6h-13.1v5.3c0,0.6,0.1,1.1,0.3,1.6s0.5,0.9,0.9,1.3
		s0.8,0.7,1.3,0.9s1.1,0.3,1.6,0.3h1.9c0.6,0,1.1-0.1,1.6-0.3s0.9-0.5,1.3-0.9s0.7-0.8,0.9-1.3s0.3-1.1,0.3-1.6V38l2.9,0.5v1
		C210,40.4,209.8,41.3,209.4,42.2z M207.1,28.4c0-0.6-0.1-1.1-0.3-1.6s-0.5-0.9-0.9-1.3s-0.8-0.7-1.3-0.9s-1.1-0.3-1.6-0.3H201
		c-0.6,0-1.1,0.1-1.6,0.3s-0.9,0.5-1.3,0.9s-0.7,0.8-0.9,1.3s-0.3,1.1-0.3,1.6V32h10.3V28.4z"/>
</g>
</svg>
