<?xml version="1.0" encoding="utf-8"?>
<!-- Generator: Adobe Illustrator 24.0.1, SVG Export Plug-In . SVG Version: 6.00 Build 0)  -->
<svg version="1.1" id="レイヤー_1" xmlns="http://www.w3.org/2000/svg" xmlns:xlink="http://www.w3.org/1999/xlink" x="0px"
	 y="0px" width="164px" height="56px" viewBox="0 0 164 56" style="enable-background:new 0 0 164 56;" xml:space="preserve">
<style type="text/css">
	.st0{fill:#B3BFB8;}
</style>
<g>
	<path class="st0" d="M24,38.6l0.1,1.2l0.1-1.2l7.5-26.2h3.1L24.9,46h-1.6l-9.8-33.6h3.1L24,38.6z"/>
	<path class="st0" d="M43.7,16.2v-3.8H47v3.8H43.7z M43.9,46V22h2.9v24H43.9z"/>
	<path class="st0" d="M73.4,46l-1.6-2.4c-0.7,0.9-1.5,1.6-2.5,2.1s-2.1,0.8-3.2,0.8h-0.7c-1,0-1.9-0.2-2.7-0.6S61,45,60.4,44.4
		s-1.1-1.4-1.5-2.2s-0.6-1.8-0.6-2.7V28.6c0-1,0.2-1.9,0.6-2.7s0.9-1.6,1.5-2.2s1.4-1.1,2.2-1.5s1.8-0.6,2.7-0.6h0.7
		c1.1,0,2.1,0.2,3,0.7s1.7,1,2.4,1.8V12.4h2.9V46H73.4z M71.5,28.4c0-0.6-0.1-1.1-0.3-1.6s-0.5-0.9-0.9-1.3s-0.8-0.7-1.3-0.9
		s-1.1-0.3-1.6-0.3h-1.9c-0.6,0-1.1,0.1-1.6,0.3s-0.9,0.5-1.3,0.9s-0.7,0.8-0.9,1.3s-0.3,1.1-0.3,1.6v11.2c0,0.6,0.1,1.1,0.3,1.6
		s0.5,0.9,0.9,1.3s0.8,0.7,1.3,0.9s1.1,0.3,1.6,0.3h1.9c0.6,0,1.1-0.1,1.6-0.3s0.9-0.5,1.3-0.9s0.7-0.8,0.9-1.3s0.3-1.1,0.3-1.6
		V28.4z"/>
	<path class="st0" d="M100.4,42.2c-0.4,0.9-0.9,1.6-1.5,2.2s-1.4,1.1-2.2,1.5s-1.8,0.6-2.7,0.6H92c-1,0-1.9-0.2-2.7-0.6
		S87.6,45,87,44.4s-1.1-1.4-1.5-2.2s-0.6-1.8-0.6-2.7V28.6c0-1,0.2-1.9,0.6-2.7s0.9-1.6,1.5-2.2s1.4-1.1,2.2-1.5s1.8-0.6,2.7-0.6
		h1.9c1,0,1.9,0.2,2.7,0.6s1.6,0.9,2.2,1.5s1.1,1.4,1.5,2.2s0.6,1.8,0.6,2.7v5.6H87.8v5.3c0,0.6,0.1,1.1,0.3,1.6s0.5,0.9,0.9,1.3
		s0.8,0.7,1.3,0.9s1.1,0.3,1.6,0.3h1.9c0.6,0,1.1-0.1,1.6-0.3s0.9-0.5,1.3-0.9s0.7-0.8,0.9-1.3s0.3-1.1,0.3-1.6V38l2.9,0.5v1
		C100.9,40.4,100.8,41.3,100.4,42.2z M98.1,28.4c0-0.6-0.1-1.1-0.3-1.6s-0.5-0.9-0.9-1.3s-0.8-0.7-1.3-0.9s-1.1-0.3-1.6-0.3H92
		c-0.6,0-1.1,0.1-1.6,0.3s-0.9,0.5-1.3,0.9s-0.7,0.8-0.9,1.3s-0.3,1.1-0.3,1.6V32h10.3V28.4z"/>
	<path class="st0" d="M127,42.2c-0.4,0.9-0.9,1.6-1.5,2.2s-1.4,1.1-2.2,1.5s-1.8,0.6-2.7,0.6h-1.9c-1,0-1.9-0.2-2.7-0.6
		s-1.6-0.9-2.2-1.5s-1.1-1.4-1.5-2.2s-0.6-1.8-0.6-2.7V28.6c0-1,0.2-1.9,0.6-2.7s0.9-1.6,1.5-2.2s1.4-1.1,2.2-1.5s1.8-0.6,2.7-0.6
		h1.9c1,0,1.9,0.2,2.7,0.6s1.6,0.9,2.2,1.5s1.1,1.4,1.5,2.2s0.6,1.8,0.6,2.7v10.8C127.5,40.4,127.4,41.3,127,42.2z M124.7,28.4
		c0-0.6-0.1-1.1-0.3-1.6s-0.5-0.9-0.9-1.3s-0.8-0.7-1.3-0.9s-1.1-0.3-1.6-0.3h-1.9c-0.6,0-1.1,0.1-1.6,0.3s-0.9,0.5-1.3,0.9
		s-0.7,0.8-0.9,1.3s-0.3,1.1-0.3,1.6v11.2c0,0.6,0.1,1.1,0.3,1.6s0.5,0.9,0.9,1.3s0.8,0.7,1.3,0.9s1.1,0.3,1.6,0.3h1.9
		c0.6,0,1.1-0.1,1.6-0.3s0.9-0.5,1.3-0.9s0.7-0.8,0.9-1.3s0.3-1.1,0.3-1.6V28.4z"/>
	<path class="st0" d="M154.6,39.9c0,1-0.2,1.9-0.6,2.7s-0.9,1.5-1.6,2.1s-1.4,1-2.3,1.3s-1.8,0.5-2.8,0.5h-1.9c-1,0-1.9-0.2-2.8-0.6
		s-1.7-0.9-2.3-1.5s-1.2-1.4-1.6-2.2s-0.6-1.8-0.6-2.7v-1L141,38v1.6c0,0.6,0.1,1.1,0.4,1.6s0.6,0.9,1,1.3s0.9,0.7,1.4,0.9
		s1.1,0.3,1.7,0.3h1.9c0.6,0,1.1-0.1,1.7-0.3s1-0.4,1.4-0.7s0.7-0.7,1-1.2s0.4-1,0.4-1.5c0-0.9-0.2-1.6-0.6-2.1s-0.9-1-1.5-1.4
		s-1.3-0.7-2.1-0.9s-1.6-0.5-2.4-0.7s-1.6-0.5-2.4-0.8s-1.5-0.7-2.1-1.2s-1.1-1.1-1.5-1.9s-0.6-1.7-0.6-2.9c0-1,0.2-1.9,0.6-2.7
		s0.9-1.5,1.5-2.1s1.4-1,2.2-1.3s1.8-0.5,2.7-0.5h1.7c1,0,1.9,0.2,2.7,0.6s1.6,0.9,2.2,1.5s1.1,1.4,1.5,2.2s0.6,1.8,0.6,2.7v0.1
		l-2.9,0.5v-0.7c0-0.6-0.1-1.1-0.3-1.6s-0.5-0.9-0.9-1.3s-0.8-0.7-1.3-0.9s-1.1-0.3-1.6-0.3h-1.7c-0.6,0-1.1,0.1-1.6,0.3
		s-0.9,0.4-1.3,0.7s-0.7,0.7-0.9,1.2s-0.3,1-0.3,1.5c0,0.8,0.2,1.5,0.6,2s0.9,1,1.5,1.3s1.3,0.7,2.1,0.9s1.6,0.5,2.4,0.8
		s1.6,0.6,2.4,0.9s1.5,0.8,2.1,1.3s1.1,1.2,1.5,1.9S154.6,38.8,154.6,39.9z"/>
</g>
</svg>
