<?xml version="1.0" encoding="utf-8"?>
<!-- Generator: Adobe Illustrator 24.0.1, SVG Export Plug-In . SVG Version: 6.00 Build 0)  -->
<svg version="1.1" id="レイヤー_1" xmlns="http://www.w3.org/2000/svg" xmlns:xlink="http://www.w3.org/1999/xlink" x="0px"
	 y="0px" width="221.4px" height="146px" viewBox="0 0 221.4 146" style="enable-background:new 0 0 221.4 146;"
	 xml:space="preserve">
<path d="M125.7,82.6c-5.4,0.9-9.8,5.8-9.8,10.9v15.6c0,3.1-0.9,8.6-7,10.2c2.7-0.4,6-0.2,7.7,1c1.9,1.3,3.9,1.8,7.6,2
	c6.1,0.2,11.3-3.9,11.3-11V90.2C135.4,85.1,131.1,81.7,125.7,82.6 M129.9,112.3c0,2.2-1.9,4.3-4.2,4.7c-2.3,0.4-4.2-1.1-4.2-3.3
	V92.6c0-2.2,1.9-4.3,4.2-4.6c2.3-0.4,4.2,1.1,4.2,3.2V112.3z M73.7,121.4c-0.4,0-0.8-0.1-1.2-0.2C72.8,121.3,73.3,121.4,73.7,121.4
	 M90.2,122c0,2.6-7,0.6-7-3.7c0-4,2.6-6.4,5.3-8.8c2.8-2.4,4.4-6,4.4-9.8v0v-2.3c0-2.2-1.9-3.6-4.2-3.2c-2.3,0.4-4.2,2.5-4.2,4.6
	v2.3c0,0.7-0.1,1.5-0.3,2.5l0,0c-0.7,1.5-1.9,2.7-3.3,3.5c-3.5,2.1-6.4,6-6.4,10c-1.2-0.6-2.7-0.5-3.9,0.2c-1.3,0.7-1.2,2.6,0.1,3.4
	c0.5,0.3,1.1,0.5,1.7,0.6c-7.1-0.9-18.4-0.7-24.2,3.2c-0.2-6.9,19.4-10.2,23.5-12.3c4.6-2.3,7.3-7.1,7.3-12.3v0
	c0-5.1,4.4-10,9.8-10.9c5.4-0.9,9.8,2.5,9.8,7.6v2.3c0,0,0.2,8.3-2.9,10.2C89,113.3,90.2,116.5,90.2,122 M58.5,133.5
	c-1.7,5.2-8.6,8.5-15.1,8.8c-10.9,0.5-26.9-0.6-31.1-9c-13.4-26.9,41.5-20.6,41.5-28.9V87.9l5.6-0.9v14c0,4.4-2.2,6.3-5.4,7.1
	c-16.2,4.2-37.2,8.7-30,23.9c4.3,9.2,27.6,11.8,29.4,3.1c-0.1-5-7.5,2.7-14,2.3c-15.4-1-14.7-13-14-11.2c2.6,6.5,11.1,5.7,9.3,3.1
	c-1.2-2.9-2.5-6.3-1.2-9.7c3.1-7.9,21.1-5.2,29.9-7.8c0.8-0.2,1.5-0.6,2.2-1.1c1-0.8,1.4-1.7,1.7-2.7c0.5-1.4,0.5-2.6,0.5-3.7V85.5
	l5.6-0.9v15.2v3.5c0,5.4-3.6,8.1-6,8.6c-15,3-39.1,6.6-27.8,17.5c3.5,4.5,10-1.9,17.3,0.2C59,130.1,58.5,132.6,58.5,133.5
	 M165.3,93.8c-4.9,3-5.6,7.7-5.6,13.6v3.3l-5.6,0.9v-9.3c0-5.4,1.2-11.4,6.8-11.4c15.7,0,5.8-8.6-1-9.4
	c-10.3-1.2-14.1,7.3-14.1,15.3v22.1l-5.6,0.9v-33c0-9.2,7.6-16,18.7-9.1c10.3,6.4,18.3-5,1.7-7.5v-0.1
	C183.8,72.1,173.1,89,165.3,93.8 M109.9,102.4c0,8.9-2.8,19.6-14.8,19.3c0,0,1.2-4.7,4.5-5.6c4.5-1.1,4.6-9.3,4.7-11V87.8l5.6-0.9
	V102.4z M9.9,53.6V98L4.3,99V54.6c0-5.1,4.4-10,9.8-10.9c2.7-0.5,5.2,0.2,7,1.6c1.8-2,4.2-3.5,7-4c5.4-0.9,9.8,2.5,9.8,7.6v44.4
	l-5.6,0.9V49.9c0-2.2-1.9-3.6-4.2-3.2c-2.3,0.4-4.1,2.4-4.2,4.5c0,0,0,0.1,0,0.1v44.4l0,0l-5.6,0.9l0,0V52.2c0,0,0-0.1,0-0.1
	C18.2,50,16.3,48.6,14,49C11.7,49.4,9.9,51.5,9.9,53.6 M52.7,83.9c5.4-0.9,9.8-5.9,9.8-11V51.8c0-5.1-4.4-8.5-9.8-7.6
	C47.4,45,43,50,43,55.1v21.1C43,81.3,47.4,84.8,52.7,83.9 M48.6,54.1c0-2.2,1.9-4.3,4.2-4.6c2.3-0.4,4.2,1.1,4.2,3.2v21.1
	c0,2.2-1.9,4.3-4.2,4.7c-2.3,0.4-4.2-1.1-4.2-3.3V54.1z M125.7,31.8c-5.4,0.9-9.8,5.8-9.8,10.9v21.1c0,5.2,4.4,8.6,9.8,7.7
	c5.4-0.9,9.8-5.9,9.8-11V39.5C135.4,34.3,131.1,30.9,125.7,31.8 M129.9,61.5c0,2.2-1.9,4.3-4.2,4.7c-2.3,0.4-4.2-1.1-4.2-3.3V41.8
	c0-2.2,1.9-4.3,4.2-4.6c2.3-0.4,4.2,1.1,4.2,3.2V61.5z M153.3,66.9c4.6,0.2,9.2-4.1,13.7-7c1.9-1.2,3.3-3.1,3.6-5.3c0,0,0,0,0,0
	c0.7-4.4,1.4-7.9,3.6-9.4c4.8-3.1,5.2-7.7,2.3-11.1c-1.6-1.9-1.8,2.2-5.4-0.3c-2.2-1.5-5.2-1.3-6.7-1.4c-2,0.1-4.2,0.3-6.3,0.8
	c-4.2,1-7,4.7-7,9.1v10.1c0,3.1-0.2,4.1,0,5.5C151.5,60.7,147.2,65.9,153.3,66.9 M156.7,56.9c0.1-0.8,0-1.3,0-3.3v-7.2
	c0-1.7,0.1-3.5,0.7-4.5c0.9-5,5.3-5.7,9.6-4.7c5,0.9,4,6.8,1.2,8.7c-3.8,2.5-3.2,7.1-3.1,9.6c0.1,1.1-0.8,2.4-2.4,2.9
	c-2.3,0.7-7.5,5.8-8.2,4.4C153.4,60.6,156.6,59.4,156.7,56.9 M73.3,80.4l-5.6,0.9V50.9c0-5.1,4.4-10,9.8-10.9
	c5.4-0.9,9.8,2.5,9.8,7.6V78L81.7,79V48.5c0-2.2-1.9-3.6-4.2-3.2c-2.3,0.4-4.2,2.5-4.2,4.6V80.4z M140.2,69.1V22.5l5.6-0.9v39.3
	c0,3.3-0.6,8.2,0.2,10.6c-0.8,0-2.6-1.8-3.4-2.1C141.6,68.9,140.2,69.1,140.2,69.1 M181,66.6c-1.1-1.3-2.3-2.1-3.5-2.7
	c-1.2-0.6-2.7-1.2-4.1-1.6c-2.8-0.8-5.1-0.7-5.1-0.7c0.2-0.3,2.1-0.3,4.1-0.3c2,0.1,3.2-0.4,3.1-1.6c-0.3-5.2,2.7-4.5,4.9-11.6
	c2.1-6.9,5-14.6-2-21c0-0.9,0.9-5,1.9-4c-0.4,1.7,6.9,2.6,7.1,7.2c0.3,1.1,0.5,2.2,0.7,3.4c0.3,2.4,0.1,4.8-0.2,6.8
	c-0.2,1.7-0.6,3.4-1.3,5.3C184.5,52.7,180.1,58.7,181,66.6 M170.6,18.5c0.8-1.3,2.6-1.3,4.2-0.3c1.8,1,2.7,2.8,1.8,4.5
	C174,26.1,169.7,21.6,170.6,18.5 M109.8,81.1c0.4,1.7-0.7,3.3-2.4,3.5c-1.6,0.3-3.3-0.8-3.6-2.5c-0.4-1.7,0.7-3.3,2.4-3.5
	C107.9,78.4,109.5,79.5,109.8,81.1 M101.6,54.6c5.4-0.9,9.8-5.8,9.8-11s-4.4-8.6-9.8-7.7c-5.4,0.9-9.8,5.8-9.8,11
	S96.2,55.5,101.6,54.6 M101.6,41.2c2.3-0.4,4.2,1.1,4.2,3.3c0,2.2-1.9,4.3-4.2,4.7c-2.3,0.4-4.2-1.1-4.2-3.3
	C97.4,43.7,99.3,41.6,101.6,41.2 M101.6,76c5.4-0.9,9.8-5.8,9.8-11s-4.4-8.6-9.8-7.7c-5.4,0.9-9.8,5.8-9.8,11S96.2,76.9,101.6,76
	 M101.6,62.6c2.3-0.4,4.2,1.1,4.2,3.3c0,2.2-1.9,4.3-4.2,4.7c-2.3,0.4-4.2-1.1-4.2-3.3C97.4,65.2,99.3,63,101.6,62.6 M103.9,31.4
	c-0.4-1.7,0.7-3.3,2.4-3.5c1.6-0.3,3.3,0.8,3.6,2.5c0.4,1.7-0.7,3.3-2.4,3.5C105.8,34.2,104.2,33.1,103.9,31.4 M216.5,13.6
	c-3.2-10.7-14.5-11.3-20.8-6c-0.1,0.1-0.1,0.1-0.2,0.2l-0.1,0c-2.6,2.2-9.4,8.1-6.7,21.4c0,0-0.9-10.4,3.4-15.5
	c1.3-1.5,3.4-1.6,4.8-0.1c1.4,1.5,3.3,2.4,5,1.8c1.8-0.7,1.1-2.2,1.1-4c3,1.9,5.8,4.5,3,11.5c-3.9,9.7-9.7,4.5-14.3,9.6
	c0.3,2.4,0.8,4-0.9,4.9c0.1,2.3-0.5,3.3-1.2,4.8c-3.1,6.8-5.3,15.5-3.6,23.6c0.3,1.3,0.8,2.5,1.4,3.6c1.9,1.9,3.9,3.5,5.5,3.3
	c1.1,0,2.3-0.4,3.4-1.2c0.7-0.4,1.3-1.3,1.7-2.2c0.5-1.3,0.6-2.8,0.3-4.2c-1.9-9.6-1.1-20.5,6.9-25.7
	C209.4,36.8,220.2,26.2,216.5,13.6 M206.6,35.4c-0.8,0.9-1.7,1.6-2.6,2.2c-0.5,0.6-1.1,1.1-1.8,1.6c-2.7,1.8-5.2,4.1-7.2,7v0
	c-3.5,5.6-0.5,12.2-1.3,18.7c-0.1,1.2-0.9,2.3-1.9,2.5c-0.5,0.1-1.2-0.2-1.8-1.1c-6.6-10.8,0.7-24.3,8.8-28.9
	c6.1-3.5,7.5-7.5,8.3-10.9C207.3,27.1,210.2,30.9,206.6,35.4"/>
</svg>
