<?xml version="1.0" encoding="utf-8"?>
<!-- Generator: Adobe Illustrator 22.1.0, SVG Export Plug-In . SVG Version: 6.00 Build 0)  -->
<svg version="1.1" id="レイヤー_1" xmlns="http://www.w3.org/2000/svg" xmlns:xlink="http://www.w3.org/1999/xlink" x="0px"
	 y="0px" width="15.8px" height="45.1px" viewBox="0 0 15.8 45.1" style="enable-background:new 0 0 15.8 45.1;"
	 xml:space="preserve">
<style type="text/css">
	.st0{fill:#B79433;}
</style>
<title>アセット 2</title>
<g id="レイヤー_2_1_">
	<g id="レイヤー_1-2">
		<path class="st0" d="M4.8,40.6c0.2,0.2,1-1,0.4-2.2c-0.3-0.6-0.4-1.3-0.4-2c-0.1,0-2.4,2.3-0.6,4.2c0,0,0.3,0.2,0.2-0.1
			c-0.2-0.6-0.2-1.3-0.1-1.9C4.4,38.5,4.3,40.1,4.8,40.6z M6.7,37.6c0,0,0.3,0.2,0.1-0.1c-0.3-0.5-0.4-1.1-0.4-1.7
			c0,0,0.2,1.4,0.7,1.8c0.3,0.2,0.8-1.2,0.1-2.1c-0.3-0.5-0.6-1.1-0.7-1.8C6.4,33.8,4.6,36.2,6.7,37.6L6.7,37.6z M8.6,34.6
			c-0.3-0.5-0.4-1.1-0.4-1.6c0,0,0.2,1.3,0.7,1.7c0.2,0.2,0.7-1.1,0-2.1c-0.3-0.5-0.6-1.1-0.7-1.7c-0.1,0-1.7,2.5,0.3,3.9
			C8.5,34.8,8.8,35,8.6,34.6L8.6,34.6z M10.1,31c-0.4-0.4-0.6-1-0.8-1.5c0,0,0.5,1.3,1.1,1.5c0.3,0.1,0.4-1.2-0.4-2
			c-0.4-0.4-0.8-0.9-1-1.5c-0.1,0.1-1.2,2.7,1,3.6C10,31.2,10.4,31.2,10.1,31z M10.2,26.3c0,0,0.5,1.2,1.1,1.5
			c0.3,0.1,0.4-1.2-0.5-2c-0.5-0.4-0.8-0.9-1.1-1.4c-0.1,0.1-1,2.8,1.2,3.6c0,0,0.3,0.1,0.1-0.1C10.7,27.4,10.4,26.9,10.2,26.3
			L10.2,26.3z M11,23.3c0,0,0.6,1.2,1.2,1.3c0.3,0.1,0.3-1.2-0.6-1.9c-0.5-0.3-0.9-0.8-1.2-1.3c-0.1,0.1-0.8,2.8,1.5,3.4
			c0,0,0.3,0,0.1-0.1C11.5,24.3,11.2,23.8,11,23.3L11,23.3z M11.4,19.6c0,0,0.8,1,1.4,1.1c0.3,0,0.1-1.2-0.9-1.7
			c-0.5-0.3-1-0.6-1.4-1.1c-0.1,0.1-0.3,2.8,1.9,3c0,0,0.3,0,0-0.1C12,20.5,11.6,20.1,11.4,19.6L11.4,19.6z M11.2,16.4
			c0,0,0.8,1,1.4,1.1c0.3,0,0.1-1.2-0.9-1.7c-0.5-0.2-1-0.6-1.4-1c-0.1,0.1-0.3,2.8,2,3c0,0,0.3,0,0-0.2
			C11.9,17.4,11.5,16.9,11.2,16.4L11.2,16.4z M11.6,12.8c-0.5-0.2-1-0.5-1.4-0.8c-0.1,0.1,0.1,2.7,2.2,2.6c0,0,0.3,0,0-0.1
			c-0.5-0.2-0.9-0.6-1.2-1c0,0,0.9,0.9,1.5,0.9C12.9,14.3,12.6,13.1,11.6,12.8L11.6,12.8z M10.3,9.9c0,0,1,0.7,1.6,0.6
			c0.3-0.1-0.3-1.2-1.3-1.3C10,9.1,9.5,8.9,9,8.6c0,0.1,0.5,2.7,2.7,2.2c0,0,0.3-0.1,0-0.2C11.1,10.5,10.7,10.3,10.3,9.9L10.3,9.9z
			 M9.3,6.2C8.8,6.1,8.3,6,7.9,5.7c0,0.1,0.5,2.3,2.3,1.9c0,0,0.2-0.1,0-0.1C9.8,7.4,9.4,7.1,9,6.8c0,0,0.9,0.6,1.4,0.5
			C10.7,7.3,10.2,6.3,9.3,6.2L9.3,6.2z M7.7,4.1c0,0,1,0.6,1.5,0.5c0.2-0.1-0.3-1-1.3-1.1C7.4,3.4,6.9,3.2,6.5,3
			c0,0.1,0.6,2.4,2.5,1.9c0,0,0.3-0.1,0-0.1C8.5,4.7,8.1,4.4,7.7,4.1z M6.2,1.2c0.4,0.8,1.4,1,1.4,0.8c0-0.5-0.9-1.2-0.9-1.2
			c0.4,0.2,0.8,0.5,1,0.9c0.1,0.2,0.1,0,0.1,0C7.6-0.2,5.3,0,5.3,0C5.7,0.3,5.9,0.7,6.2,1.2z M5.7,39.7C6.4,40,7.1,40,7.8,39.9
			c-0.6,0.2-1.3,0.3-1.9,0.2c-0.3-0.1-0.1,0.2-0.1,0.2c2.2,1.5,4-1,4-1.2c-0.7,0.1-1.3,0.1-2-0.1C6.6,38.6,5.5,39.5,5.7,39.7z
			 M11.9,36c-0.6,0.1-1.3,0.1-1.9-0.1c-1.2-0.3-2.2,0.6-2,0.8c0.6,0.4,2,0,2,0C9.4,37,8.8,37.1,8.2,37c-0.3-0.1-0.1,0.2-0.1,0.2
			C10.1,38.6,11.9,36.1,11.9,36z M13.5,32.3c-0.6,0.2-1.2,0.3-1.9,0.2c-1.2-0.1-2,0.9-1.8,1.1c0.6,0.3,1.9-0.3,1.9-0.3
			c-0.5,0.3-1.1,0.5-1.7,0.5C9.7,33.8,10,34,10,34C12.2,35,13.5,32.4,13.5,32.3L13.5,32.3z M14.5,28.2c-0.5,0.3-1.1,0.4-1.7,0.5
			c-1.1,0-1.9,1.2-1.6,1.3c0.6,0.2,1.8-0.5,1.8-0.5c-0.4,0.4-1,0.6-1.6,0.7c-0.3,0,0,0.2,0,0.2C13.7,31.1,14.6,28.3,14.5,28.2
			L14.5,28.2z M15.4,24.6c-0.5,0.3-1.1,0.5-1.7,0.6c-1.1,0.1-1.8,1.3-1.5,1.4C12.9,26.7,14,26,14,26c-0.4,0.4-0.9,0.7-1.5,0.8
			c-0.3,0,0,0.2,0,0.2C14.8,27.5,15.5,24.7,15.4,24.6L15.4,24.6z M15.8,21.1c-0.5,0.3-1.1,0.5-1.6,0.7c-1.1,0.2-1.6,1.4-1.4,1.4
			c0.6,0.1,1.7-0.7,1.7-0.7c-0.4,0.4-0.9,0.7-1.4,0.9c-0.3,0.1,0,0.2,0,0.2C15.4,23.9,15.9,21.1,15.8,21.1L15.8,21.1z M15.8,17.2
			c-0.5,0.4-1,0.6-1.5,0.8c-1.1,0.3-1.5,1.5-1.2,1.5c0.6,0,1.6-0.8,1.6-0.8c-0.3,0.4-0.8,0.8-1.3,1c-0.3,0.1,0,0.2,0,0.2
			C15.6,20,15.9,17.3,15.8,17.2L15.8,17.2z M15,13.3c-0.3,0.5-0.7,0.9-1.2,1.2c-0.9,0.6-1,1.8-0.7,1.8c0.6-0.1,1.2-1.2,1.2-1.2
			c-0.2,0.5-0.5,1-0.9,1.3c-0.2,0.2,0.1,0.1,0.1,0.1C15.6,16,15,13.3,15,13.3z M14.2,9.5c-0.2,0.5-0.6,0.9-1,1.3
			c-0.8,0.7-0.7,1.9-0.5,1.8c0.6-0.2,1.1-1.4,1.1-1.4c-0.1,0.5-0.4,1-0.8,1.4c-0.2,0.2,0.1,0.1,0.1,0.1C15.1,12.1,14.2,9.6,14.2,9.5
			L14.2,9.5z M12.8,6.1c-0.2,0.5-0.4,1-0.8,1.5c-0.7,0.8-0.4,2-0.2,1.9c0.5-0.3,0.8-1.5,0.8-1.5c0,0.5-0.2,1.1-0.5,1.5
			c-0.2,0.2,0.1,0.1,0.1,0.1C14.1,8.5,12.8,6.2,12.8,6.1z M11.4,3.4c-0.2,0.4-0.4,0.9-0.7,1.2c-0.6,0.7-0.4,1.7-0.2,1.6
			C10.9,6,11.2,5,11.2,5c0,0.5-0.2,0.9-0.5,1.3c-0.2,0.2,0.1,0.1,0.1,0.1C12.5,5.5,11.4,3.4,11.4,3.4z M9.2,0.2
			C9.2,0.7,9,1.2,8.8,1.7C8.2,2.5,8.7,3.5,8.9,3.4C9.3,3,9.4,1.9,9.4,1.9c0,0.5,0,1-0.2,1.4C9,3.5,9.3,3.4,9.3,3.4
			C10.8,2.1,9.3,0.2,9.2,0.2z M0,45.1c0,0,3.7-1.9,4.8-4.5c-1.2,1.4-2.7,2.5-4.4,3.3L0,45.1z"/>
	</g>
</g>
</svg>
