<?xml version="1.0" encoding="utf-8"?>
<!-- Generator: Adobe Illustrator 22.1.0, SVG Export Plug-In . SVG Version: 6.00 Build 0)  -->
<svg version="1.1" id="レイヤー_1" xmlns="http://www.w3.org/2000/svg" xmlns:xlink="http://www.w3.org/1999/xlink" x="0px"
	 y="0px" width="100px" height="97.4px" viewBox="0 0 100 97.4" style="enable-background:new 0 0 100 97.4;" xml:space="preserve">
<style type="text/css">
	.st0{fill:#F8F3E9;}
</style>
<title>アセット 3</title>
<g id="レイヤー_2_1_">
	<g id="レイヤー_1-2">
		<path class="st0" d="M30.9,82.5c3.5-4.4-1.7-8.7-2-8.7c0.1,1.4,0,2.8-0.4,4.2c-0.9,2.5,1,5.2,1.5,4.6c0.9-1.2,0.4-4.4,0.4-4.4
			c0.4,1.3,0.5,2.7,0.2,4C30.3,83,30.9,82.5,30.9,82.5z M25.6,78.8c3.4-4.3-1.8-8.5-2-8.5c0.1,1.4,0,2.8-0.4,4.2
			c-0.9,2.5,1,5,1.4,4.4c0.9-1.2,0.4-4.2,0.4-4.2c0.4,1.3,0.5,2.7,0.2,4C25,79.3,25.6,78.8,25.6,78.8z M19.5,74.3
			c4.4-3.1,0.7-8.4,0.5-8.5c-0.3,1.3-0.8,2.6-1.6,3.8c-1.5,2.1-0.5,4.9,0.1,4.5c1.2-0.9,1.6-3.9,1.6-3.9c0.1,1.3-0.2,2.6-0.9,3.8
			C18.8,74.7,19.5,74.3,19.5,74.3z M14.9,69c4.8-2.4,1.8-8.2,1.7-8.3c-0.5,1.3-1.2,2.5-2.1,3.5C12.8,66,13.4,69,14,68.7
			c1.3-0.7,2.1-3.6,2.1-3.6c-0.1,1.3-0.6,2.6-1.4,3.6C14.2,69.2,14.9,69,14.9,69z M11.2,63c4.9-1.8,2.8-7.7,2.6-7.8
			c-0.6,1.2-1.4,2.2-2.4,3.1c-1.9,1.6-1.7,4.5-1.1,4.3c1.3-0.5,2.5-3.2,2.5-3.2c-0.3,1.2-0.9,2.4-1.8,3.3C10.5,63.1,11.2,63,11.2,63
			z M8.7,56c-0.6,0.3,0.1,0.3,0.1,0.3c5-0.9,3.9-7,3.8-7.1c-0.8,1-1.7,1.9-2.9,2.6c-2.1,1.2-2.4,4.1-1.8,4c1.4-0.3,2.9-2.7,2.9-2.7
			C10.5,54.2,9.7,55.2,8.7,56z M7.8,49.1c-0.6,0.3,0.1,0.3,0.1,0.3c5-0.6,4.2-6.7,4.1-6.8c-0.8,1-1.8,1.8-2.9,2.4
			c-2.2,1.1-2.5,3.9-1.9,3.8c1.4-0.2,3-2.5,3-2.5C9.7,47.4,8.8,48.4,7.8,49.1L7.8,49.1z M6.6,41.4c1.3,0,3.3-2,3.3-2
			c-0.7,1-1.6,1.8-2.7,2.3c-0.6,0.2,0,0.3,0,0.3c4.9,0.2,5.2-5.8,5.1-6c-0.9,0.8-2,1.5-3.2,1.9C6.8,38.7,6,41.4,6.6,41.4z M8.6,34.7
			c4.7,1.5,6.6-4.1,6.5-4.3c-1.1,0.5-2.4,0.9-3.6,0.9c-2.4,0-3.9,2.4-3.3,2.6c1.3,0.4,3.7-1,3.7-1c-0.9,0.8-2.1,1.3-3.3,1.5
			C8,34.4,8.6,34.7,8.6,34.7L8.6,34.7z M10.8,27.2c1.2,0.6,3.7-0.4,3.7-0.4c-1,0.6-2.2,0.9-3.3,0.9C10.5,27.7,11,28,11,28
			c4.3,2.2,6.9-3,6.9-3.2c-1.2,0.3-2.4,0.5-3.6,0.4C12,24.9,10.2,26.9,10.8,27.2L10.8,27.2z M14.5,21.1c1.1,0.6,3.7-0.2,3.7-0.2
			c-1,0.5-2.2,0.8-3.4,0.7c-0.6-0.1-0.1,0.3-0.1,0.3c4.1,2.4,7.1-2.6,7-2.8c-1.2,0.3-2.4,0.4-3.6,0.2C15.9,18.8,13.9,20.8,14.5,21.1
			L14.5,21.1z M26.4,15.5c-1.2,0-2.4-0.3-3.4-0.8c-2-1-4.3,0.3-3.9,0.7c0.9,0.9,3.5,0.8,3.5,0.8c-1.1,0.2-2.3,0.2-3.4-0.2
			c-0.6-0.3-0.2,0.3-0.2,0.3C22.3,19.6,26.3,15.6,26.4,15.5L26.4,15.5z M32,11.6c-1.2-0.1-2.3-0.4-3.3-0.9c-1.9-1.1-4.2,0.1-3.8,0.6
			c0.8,0.9,3.4,0.9,3.4,0.9c-1.1,0.2-2.2,0.1-3.3-0.3c-0.5-0.3-0.2,0.2-0.2,0.2C27.8,15.4,31.9,11.8,32,11.6L32,11.6z M37.5,9
			c-1.1-0.2-2.2-0.6-3.1-1.2c-1.7-1.2-4-0.3-3.7,0.1c0.7,1,3.2,1.3,3.2,1.3c-1.1,0.1-2.1-0.2-3.1-0.7c-0.5-0.3-0.2,0.2-0.2,0.2
			C33.2,12.2,37.5,9.1,37.5,9z M34.5,5.4c1.1,0.3,3.2-0.8,3.2-0.8C36.9,5.3,36,5.7,35,5.8c-0.6,0,0,0.3,0,0.3c4,1.3,5.6-3.5,5.6-3.7
			c-1,0.5-2,0.7-3.1,0.8C35.3,3.2,34,5.3,34.5,5.4L34.5,5.4z M27.5,82.2c0,0,0.4-0.7-0.3-0.3c-1.3,0.6-2.6,0.8-4,0.6
			c0,0,3.2-0.1,4.2-1.3c0.5-0.6-2.5-1.9-4.8-0.5c-1.3,0.7-2.6,1.2-4.1,1.3C18.6,82.2,23.9,86.5,27.5,82.2z M21.6,77.7
			c-1.3,0.4-2.7,0.4-4,0c0,0,3,0.3,4.2-0.7c0.5-0.5-2-2.2-4.5-1.1c-1.3,0.5-2.7,0.8-4.1,0.7c0,0.2,4.6,5.1,8.6,1.4
			C21.8,78,22.3,77.4,21.6,77.7z M16,73.2c0,0,0.6-0.5-0.1-0.4c-1.3,0.1-2.6-0.2-3.8-0.8c0,0,2.9,0.9,4.2,0.2c0.6-0.3-1.6-2.5-4.1-2
			c-1.4,0.2-2.7,0.1-4.1-0.2C8.1,70.3,11.4,75.9,16,73.2z M11.3,67.2c0,0,0.6-0.4-0.1-0.4c-1.3-0.1-2.5-0.6-3.6-1.4
			c0,0,2.7,1.4,4.1,0.9c0.6-0.2-1.1-2.7-3.7-2.6c-1.4,0-2.7-0.3-4-0.8C3.9,63.1,6.2,69.1,11.3,67.2L11.3,67.2z M8.3,60.2
			c0,0,0.7-0.3,0-0.4C7,59.5,5.9,59,4.9,58.1c0,0,2.5,1.6,3.9,1.2c0.6-0.2-0.8-2.7-3.3-2.9c-1.3-0.1-2.6-0.5-3.8-1.2
			C1.6,55.5,3.3,61.5,8.3,60.2L8.3,60.2z M6,52.5c0,0,0.7-0.2,0-0.4c-1.2-0.4-2.3-1.1-3.1-2c0,0,2.3,1.8,3.7,1.6
			c0.6-0.1-0.6-2.7-3-3.1C2.3,48.3,1.1,47.8,0,47C-0.1,47.2,0.9,53.3,6,52.5z M5,45.8c0,0,0.7,0,0.1-0.3c-1-0.8-1.7-1.8-2.1-3
			c0,0,1.4,2.5,2.7,2.8c0.6,0.2,0.5-2.7-1.6-4c-1.1-0.7-2-1.6-2.7-2.7C1.3,38.8,0,44.7,5,45.8L5,45.8z M5.9,37.1
			c0,0,0.7,0.1,0.2-0.3c-0.8-0.9-1.4-2-1.7-3.1c0,0,1.1,2.6,2.4,3c0.6,0.2,0.8-2.6-1-4c-1-0.8-1.7-1.9-2.3-3
			C3.1,29.8,1.2,35.4,5.9,37.1L5.9,37.1z M7.9,30.1c0,0,0.6,0.3,0.2-0.2c-0.6-1.1-0.9-2.3-0.8-3.5c0,0,0.4,2.8,1.5,3.6
			c0.5,0.4,1.5-2.3,0.1-4.2c-0.7-1-1.2-2.2-1.5-3.4C7.1,22.4,3.7,27.3,7.9,30.1L7.9,30.1z M11,23.7c0,0,0.6,0.4,0.3-0.2
			c-0.4-1.1-0.6-2.3-0.4-3.4c0,0,0,2.7,1,3.6c0.4,0.4,1.7-2,0.6-4c-0.6-1.1-0.9-2.3-1-3.5C11.2,16.2,7.4,20.5,11,23.7z M15.4,18.1
			c-0.2-1.2-0.1-2.3,0.4-3.4c0,0-0.6,2.7,0.2,3.7c0.4,0.5,2.1-1.6,1.4-3.8c-0.3-1.2-0.4-2.4-0.2-3.6c-0.2,0-4.9,3.4-2.1,7.3
			C15.1,18.3,15.5,18.7,15.4,18.1L15.4,18.1z M21.3,12.6c-0.1-1.1,0-2.3,0.5-3.3c0,0-0.6,2.6,0.1,3.6c0.3,0.5,2.1-1.5,1.5-3.7
			c-0.3-1.2-0.3-2.4-0.1-3.5c-0.2,0-4.8,3.2-2.2,7C21,12.7,21.4,13.2,21.3,12.6L21.3,12.6z M27.1,8.9c-0.1-1.1,0.1-2.2,0.6-3.2
			c0,0-0.7,2.5-0.1,3.5c0.3,0.5,2.1-1.4,1.6-3.5c-0.2-1.1-0.2-2.3,0-3.5c-0.2,0-4.9,2.9-2.5,6.8C26.8,9,27.2,9.5,27.1,8.9L27.1,8.9z
			 M31.7,5.9c0.1-1,0.5-2,1.1-2.9c0,0-1.1,2.2-0.7,3.3c0.2,0.5,2.2-0.9,2.2-3c0-1.1,0.2-2.3,0.7-3.3c-0.2,0-5.1,1.9-3.6,6
			C31.3,6,31.6,6.5,31.7,5.9L31.7,5.9z M37.7,85C37.7,85,37.7,85,37.7,85c0.7-1.6-0.7-4.7-0.7-4.7c0.8,1.2,1.3,2.6,1.5,4
			c0,0.8,0.4,0.1,0.4,0.1c2.3-5.5-4.4-8.3-4.7-8.2s1,1.6,0.8,4.5c-0.1,1.6,0.7,3.2,2,4.2c-0.9-0.2-1.7-0.3-2.3-0.4
			c0.2-0.6-2.9-1.5-5.1,0.2s-4.2,1.7-4.1,1.9s6.2,4.1,9.4-0.9c0,0,0.3-0.8-0.3-0.3c-1.3,0.7-2.7,1.1-4.2,1.1c0,0,3.1-0.6,4.1-1.8
			c18.7,5.4,19,12.7,19,12.7c0.1-1.7,1.4-3,3.1-3.1C51.5,88.9,43.1,86.3,37.7,85L37.7,85z"/>
		<path class="st0" d="M70.1,82.7c0.4,0.6,2.4-2,1.5-4.6c-0.4-1.4-0.6-2.8-0.5-4.3c-0.2,0-5.5,4.3-2,8.7c0,0,0.6,0.5,0.3-0.2
			c-0.3-1.3-0.2-2.7,0.2-4C69.6,78.3,69.1,81.4,70.1,82.7z M75.4,78.9c0.4,0.6,2.3-1.9,1.4-4.4c-0.4-1.3-0.6-2.8-0.4-4.2
			c-0.2,0-5.4,4.2-2,8.5c0,0,0.6,0.5,0.3-0.2c-0.3-1.3-0.2-2.7,0.2-4C75,74.7,74.5,77.7,75.4,78.9z M81.5,74.2
			c0.6,0.4,1.6-2.4,0.1-4.5c-0.8-1.1-1.3-2.4-1.6-3.8c-0.2,0.1-3.9,5.4,0.5,8.5c0,0,0.7,0.3,0.3-0.3c-0.6-1.2-0.9-2.5-0.9-3.8
			C79.9,70.3,80.3,73.3,81.5,74.2z M86,68.7c0.6,0.3,1.2-2.6-0.5-4.5c-0.9-1-1.6-2.2-2.1-3.5c-0.2,0.1-3.1,5.9,1.7,8.3
			c0,0,0.7,0.2,0.2-0.3c-0.8-1.1-1.2-2.3-1.4-3.6C83.9,65.1,84.7,68,86,68.7z M89.6,62.6c0.6,0.2,0.9-2.7-1.1-4.3
			c-1-0.9-1.8-1.9-2.4-3.1c-0.2,0.1-2.3,6,2.6,7.8c0,0,0.7,0.1,0.2-0.3c-0.9-0.9-1.5-2.1-1.8-3.3C87.2,59.4,88.3,62.1,89.6,62.6
			L89.6,62.6z M92,55.8c0.6,0.1,0.4-2.8-1.7-4c-1.1-0.7-2.1-1.6-2.8-2.6c-0.2,0.2-1.2,6.2,3.8,7.1c0,0,0.7,0,0.1-0.3
			c-1-0.7-1.8-1.7-2.2-2.9C89.1,53.1,90.6,55.5,92,55.8z M92.8,48.9c0.6,0.1,0.3-2.7-1.9-3.8c-1.1-0.6-2.1-1.5-2.9-2.5
			c-0.1,0.2-0.9,6.2,4.1,6.8c0,0,0.7,0,0.1-0.3c-1-0.7-1.8-1.6-2.4-2.8C89.8,46.3,91.4,48.7,92.8,48.9L92.8,48.9z M90.9,38.1
			c-1.2-0.4-2.3-1.1-3.2-1.9c-0.1,0.2,0.1,6.2,5.1,6c0,0,0.7-0.1,0-0.3c-1.1-0.5-2-1.3-2.7-2.3c0,0,2,2,3.3,2
			C94,41.4,93.2,38.8,90.9,38.1z M91.9,34c0.6-0.2-0.9-2.5-3.3-2.6c-1.3-0.1-2.5-0.4-3.6-0.9c-0.1,0.2,1.8,5.9,6.5,4.3
			c0,0,0.6-0.3,0-0.3c-1.2-0.2-2.4-0.7-3.3-1.5C88.1,33,90.6,34.4,91.9,34z M82.1,24.9c0,0.2,2.6,5.4,6.9,3.2c0,0,0.5-0.4-0.1-0.3
			c-1.2,0-2.3-0.3-3.3-0.9c0,0,2.6,1,3.7,0.4c0.6-0.3-1.3-2.3-3.6-2C84.5,25.4,83.3,25.3,82.1,24.9L82.1,24.9z M78.3,19.1
			c0,0.2,2.9,5.2,7,2.9c0,0,0.5-0.4-0.1-0.3c-1.2,0.1-2.3-0.2-3.4-0.7c0,0,2.6,0.8,3.7,0.2c0.5-0.3-1.4-2.2-3.6-1.8
			C80.7,19.5,79.4,19.4,78.3,19.1L78.3,19.1z M77.1,14.7c-1.1,0.5-2.3,0.8-3.4,0.8c0,0.2,4.1,4.1,7.3,0.8c0,0,0.4-0.5-0.2-0.3
			c-1.1,0.4-2.2,0.4-3.3,0.2c0,0,2.6,0.1,3.5-0.8C81.4,15,79.1,13.7,77.1,14.7z M71.4,10.7c-1,0.5-2.2,0.8-3.3,0.9
			c0,0.2,4.2,3.9,7.2,0.5c0,0,0.3-0.5-0.2-0.2c-1,0.4-2.2,0.5-3.3,0.3c0,0,2.6,0,3.4-0.9C75.7,10.8,73.4,9.6,71.4,10.7L71.4,10.7z
			 M65.6,7.8c-0.9,0.6-2,1-3.1,1.2c0.1,0.2,4.4,3.2,6.9-0.3c0,0,0.3-0.5-0.2-0.2c-1,0.5-2,0.7-3.1,0.7c0,0,2.5-0.3,3.2-1.2
			C69.7,7.4,67.3,6.5,65.6,7.8z M65.1,6.1c0,0,0.5-0.3,0-0.3c-1-0.1-2-0.6-2.8-1.2c0,0,2.1,1.2,3.2,0.8c0.5-0.2-0.8-2.2-2.8-2.2
			c-1.1-0.1-2.1-0.3-3.1-0.8C59.5,2.6,61.1,7.5,65.1,6.1z M70.5,84.7c-2.2-1.7-5.3-0.9-5.1-0.3c-0.7,0.1-1.5,0.3-2.3,0.4
			c1.3-1,2.1-2.5,2-4.2c-0.1-2.9,1-4.4,0.8-4.5S59,79,61.2,84.5c0,0,0.4,0.7,0.4-0.1c0.1-1.4,0.6-2.8,1.5-4c0,0-1.4,3.1-0.8,4.6
			c0,0,0,0.1,0.1,0.1c-5.5,1.2-13.9,3.9-18.9,9.3c1.7,0.1,3,1.4,3.1,3.1c0,0,0.3-7.3,19-12.7c1.1,1.2,4.1,1.8,4.1,1.8
			c-1.5,0-2.9-0.4-4.2-1.1c-0.7-0.5-0.3,0.3-0.3,0.3c3.2,5,9.3,1.2,9.4,0.9S72.8,86.5,70.5,84.7z M77.3,80.7c-2.3-1.4-5.3,0-4.8,0.5
			c1,1.2,4.2,1.3,4.2,1.3c-1.4,0.2-2.7,0-4-0.6c-0.7-0.4-0.3,0.3-0.3,0.3c3.6,4.3,8.8,0,8.9-0.2C79.9,81.9,78.6,81.4,77.3,80.7z
			 M82.6,76c-2.4-1-5,0.7-4.5,1.1c1.1,1,4.2,0.7,4.2,0.7c-1.3,0.4-2.7,0.4-4,0c-0.7-0.3-0.2,0.3-0.2,0.3c4,3.7,8.6-1.2,8.6-1.4
			C85.3,76.8,83.9,76.5,82.6,76z M87.8,70.4c-2.5-0.5-4.7,1.7-4.1,2c1.3,0.7,4.2-0.2,4.2-0.2c-1.2,0.6-2.5,0.9-3.8,0.8
			c-0.7-0.1-0.1,0.4-0.1,0.4c4.6,2.7,7.9-2.9,7.9-3.1C90.5,70.5,89.2,70.6,87.8,70.4L87.8,70.4z M92,63.8c-2.6-0.1-4.3,2.4-3.7,2.6
			c1.4,0.5,4.1-0.9,4.1-0.9c-1.1,0.8-2.3,1.3-3.6,1.4c-0.7,0-0.1,0.4-0.1,0.4c5,1.9,7.3-4.2,7.3-4.4C94.7,63.5,93.4,63.7,92,63.8z
			 M94.6,56.5c-2.5,0.2-4,2.7-3.3,2.9c1.4,0.4,3.9-1.2,3.9-1.2c-0.9,0.8-2.1,1.4-3.3,1.7c-0.7,0.1,0,0.4,0,0.4
			c5,1.4,6.7-4.7,6.6-4.9C97.2,56,95.9,56.4,94.6,56.5L94.6,56.5z M93.5,51.8c1.4,0.2,3.7-1.6,3.7-1.6c-0.8,0.9-1.9,1.6-3.1,2
			c-0.7,0.1,0,0.4,0,0.4c5,0.8,6-5.3,5.9-5.5c-1.1,0.7-2.3,1.3-3.6,1.5C94,49.1,92.8,51.7,93.5,51.8L93.5,51.8z M94.3,45.3
			c1.3-0.3,2.8-2.8,2.8-2.8c-0.4,1.2-1.2,2.2-2.1,3c-0.6,0.4,0.1,0.3,0.1,0.3c4.9-1.1,3.7-7,3.5-7.2c-0.7,1.1-1.6,2-2.7,2.7
			C93.8,42.6,93.7,45.5,94.3,45.3L94.3,45.3z M93.4,36.7c1.3-0.5,2.4-3,2.4-3c-0.3,1.2-0.9,2.2-1.7,3.1c-0.5,0.4,0.2,0.3,0.2,0.3
			c4.7-1.6,2.7-7.3,2.6-7.4c-0.6,1.1-1.4,2.1-2.3,2.9C92.6,34.2,92.8,37,93.4,36.7L93.4,36.7z M91.4,30c1.1-0.8,1.5-3.5,1.5-3.5
			c0,1.2-0.3,2.4-0.8,3.5c-0.4,0.5,0.2,0.3,0.2,0.3c4.1-2.8,0.7-7.7,0.5-7.8c-0.3,1.2-0.8,2.4-1.5,3.5C89.9,27.7,90.8,30.4,91.4,30
			L91.4,30z M88.2,23.7c1-0.9,1-3.6,1-3.6c0.2,1.2,0.1,2.3-0.4,3.4c-0.3,0.6,0.3,0.2,0.3,0.2c3.6-3.2-0.3-7.5-0.5-7.6
			c-0.1,1.2-0.4,2.4-1,3.5C86.5,21.7,87.7,24.1,88.2,23.7z M84.1,18.5c0.8-1.1,0.2-3.7,0.2-3.7c0.4,1.1,0.6,2.3,0.4,3.4
			c-0.2,0.6,0.3,0.2,0.3,0.2c2.8-3.9-1.9-7.3-2.1-7.3c0.2,1.2,0.1,2.5-0.2,3.6C82,16.9,83.7,19,84.1,18.5z M78.2,12.9
			c0.7-1,0.1-3.6,0.1-3.6c0.4,1,0.6,2.2,0.4,3.3c-0.2,0.6,0.3,0.1,0.3,0.1c2.6-3.8-2-7-2.2-7C77.1,7,77,8.1,76.8,9.3
			C76.2,11.4,77.9,13.4,78.2,12.9z M72.4,9.2c0.6-1.1-0.1-3.6-0.1-3.6c0.5,1,0.7,2.1,0.6,3.2C72.8,9.5,73.2,9,73.2,9
			c2.4-3.9-2.3-6.8-2.5-6.8c0.2,1.1,0.2,2.3,0,3.5C70.3,7.8,72.1,9.7,72.4,9.2z M68,6.3C68.4,5.2,67.3,3,67.3,3
			c0.6,0.9,1,1.9,1.1,2.9c0,0.6,0.3,0.1,0.3,0.1c1.6-4.1-3.4-6-3.6-6c0.4,1,0.6,2.1,0.7,3.3C65.8,5.4,67.8,6.8,68,6.3z"/>
	</g>
</g>
</svg>
