<svg xmlns="http://www.w3.org/2000/svg" viewBox="0 0 100 100"><defs><style>.cls-1{fill:#fff;}.cls-2{fill:none;}</style></defs><title>facebook</title><g id="レイヤー_2" data-name="レイヤー 2"><g id="レイヤー_1-2" data-name="レイヤー 1"><path class="cls-1" d="M85.58,10H14.38A4.42,4.42,0,0,0,10,14.42v71.2A4.42,4.42,0,0,0,14.42,90H52.74V59.06H42.34V47h10.4v-8.9c0-10.33,6.31-16,15.52-16a83,83,0,0,1,9.32.48V33.36h-6.4c-5,0-6,2.4-6,5.88V47h12L75.6,59.06H65.2V90H85.58A4.42,4.42,0,0,0,90,85.58V14.38A4.42,4.42,0,0,0,85.58,10Z"/><rect class="cls-2" width="100" height="100"/></g></g></svg>