<?xml version="1.0" encoding="utf-8"?>
<!-- Generator: Adobe Illustrator 24.0.0, SVG Export Plug-In . SVG Version: 6.00 Build 0)  -->
<svg version="1.1" id="レイヤー_1" xmlns="http://www.w3.org/2000/svg" xmlns:xlink="http://www.w3.org/1999/xlink" x="0px"
	 y="0px" width="168px" height="100px" viewBox="0 0 168 100" style="enable-background:new 0 0 168 100;" xml:space="preserve">
<style type="text/css">
	.st0{fill:#4B473F;}
</style>
<g>
	<path class="st0" d="M16.07,67.84c-0.27,0.36-0.63,0.78-1.09,1.25c-0.46,0.47-0.86,0.98-1.19,1.54c-0.29,0.41-0.59,0.89-0.9,1.43
		c-0.31,0.54-0.63,1.11-0.96,1.7c-0.33,0.59-0.65,1.19-0.96,1.81c-0.31,0.62-0.63,1.21-0.94,1.79c-0.1,0.17-0.17,0.36-0.22,0.56
		c-0.05,0.2-0.1,0.4-0.15,0.6c-0.29,1.16-0.34,2.2-0.16,3.13c0.18,0.93,0.55,1.71,1.1,2.35c0.55,0.64,1.28,1.1,2.19,1.39
		c0.91,0.29,1.96,0.37,3.17,0.25c2.63-0.27,5.13-0.89,7.49-1.88c2.36-0.99,4.65-2.2,6.84-3.62c1.45-0.94,2.85-1.95,4.2-3.04
		c1.35-1.09,2.7-2.18,4.05-3.29c3.06-2.53,5.31-5.66,6.73-9.37c0.31-0.84,0.55-1.73,0.71-2.64c0.16-0.92,0.27-1.83,0.34-2.75
		c0.12-1.28-0.15-2.32-0.8-3.11S44,54.5,42.89,54.02c-1.64-0.7-3.26-1-4.87-0.89c-1.61,0.11-3.2,0.45-4.8,1.03
		c-0.58,0.22-1.15,0.43-1.72,0.63c-0.57,0.21-1.15,0.37-1.76,0.49c-0.27,0.05-0.58,0.04-0.94-0.02c-0.36-0.06-0.62-0.19-0.76-0.38
		c-0.12-0.19-0.14-0.47-0.07-0.83c0.07-0.36,0.18-0.66,0.33-0.9c0.58-0.84,1.17-1.67,1.77-2.46c0.6-0.8,1.22-1.59,1.85-2.39
		c1.28-1.59,2.44-3.25,3.47-4.96s1.86-3.56,2.46-5.54c0.22-0.72,0.39-1.46,0.52-2.21c0.13-0.75,0.07-1.51-0.2-2.28
		c-0.36-1.16-0.9-1.91-1.61-2.26c-0.71-0.35-1.57-0.2-2.59,0.45c-0.77,0.48-1.5,1.06-2.17,1.72c-0.68,0.66-1.26,1.38-1.74,2.15
		c-2.12,3.45-3.92,7.02-5.39,10.7c-1.47,3.68-2.46,7.55-2.97,11.6c-0.05,0.51-0.06,1.02-0.04,1.54c0.02,0.52,0.07,1.04,0.14,1.56
		c0.07,0.52,0.15,1.04,0.22,1.56c0.07,0.52,0.13,1.03,0.18,1.54c0.02,0.07,0.04,0.22,0.05,0.43c0.01,0.22,0.03,0.36,0.05,0.43
		c0.02,0.12,0.02,0.28,0,0.49c-0.02,0.21-0.07,0.41-0.14,0.62c-0.07,0.21-0.18,0.39-0.31,0.54c-0.13,0.16-0.31,0.25-0.52,0.27
		c-0.41,0.05-0.75-0.09-1.03-0.42c-0.28-0.33-0.46-0.77-0.56-1.32c-0.48-3.09-0.95-6.16-1.41-9.21c-0.46-3.05-0.94-6.12-1.45-9.21
		c-0.12-0.63-0.3-1.24-0.54-1.83c-0.24-0.59-0.46-1.19-0.65-1.79c-0.07-0.19-0.15-0.39-0.22-0.6c-0.07-0.2-0.1-0.38-0.07-0.52
		c0.05-0.55,0.16-0.99,0.34-1.3c0.18-0.31,0.39-0.53,0.63-0.65c0.39-0.17,0.74-0.07,1.07,0.29s0.55,0.74,0.67,1.12
		c0.1,0.27,0.15,0.54,0.15,0.83s0.02,0.57,0.07,0.83c0.31,1.95,0.63,3.92,0.94,5.9s0.64,4.09,0.98,6.33
		c0.63-1.81,1.19-3.49,1.7-5.03c0.51-1.54,1.04-3.08,1.59-4.6c0.84-2.27,1.77-4.47,2.77-6.61c1-2.14,2.26-4.14,3.78-6.03
		c0.51-0.63,1.06-1.21,1.66-1.76s1.24-1.02,1.92-1.43c0.58-0.36,1.18-0.57,1.79-0.63c0.62-0.06,1.19,0,1.74,0.18
		c0.54,0.18,1.03,0.49,1.47,0.92c0.43,0.43,0.76,0.98,0.98,1.63c0.24,0.7,0.39,1.44,0.43,2.23c0.05,0.78,0.01,1.54-0.11,2.26
		c-0.17,1.06-0.43,2.08-0.8,3.06c-0.36,0.98-0.78,1.93-1.27,2.86c-0.48,0.93-1.02,1.83-1.61,2.7c-0.59,0.87-1.19,1.74-1.79,2.61
		c-0.6,0.85-1.22,1.68-1.85,2.5c-0.63,0.82-1.25,1.64-1.88,2.46c-0.12,0.12-0.23,0.24-0.33,0.36c-0.1,0.12-0.15,0.21-0.15,0.27
		c0,0.06,0.05,0.08,0.16,0.07c0.11-0.01,0.3-0.08,0.56-0.2c0.31-0.07,0.63-0.14,0.94-0.2c0.31-0.06,0.63-0.14,0.94-0.24
		c1.16-0.39,2.32-0.69,3.49-0.9c1.17-0.22,2.38-0.27,3.64-0.15c1.64,0.15,3.05,0.51,4.22,1.09c1.17,0.58,2.09,1.34,2.77,2.28
		c0.68,0.94,1.08,2.06,1.21,3.35c0.13,1.29-0.02,2.73-0.45,4.33c-0.63,2.2-1.52,4.23-2.68,6.12c-1.16,1.88-2.56,3.61-4.2,5.18
		c-1.38,1.3-2.8,2.56-4.27,3.76c-1.47,1.21-3,2.33-4.58,3.37c-1.58,1.04-3.22,1.98-4.92,2.82s-3.47,1.57-5.3,2.17
		c-1.11,0.34-2.24,0.63-3.38,0.87c-1.15,0.24-2.3,0.39-3.46,0.43c-1.38,0.05-2.58-0.13-3.6-0.54c-1.03-0.41-1.85-1.03-2.46-1.85
		c-0.62-0.82-0.98-1.83-1.1-3.02c-0.12-1.19,0.04-2.54,0.47-4.04c0.55-1.93,1.41-3.69,2.57-5.27s2.48-3.05,3.98-4.4
		c0.29-0.24,0.57-0.39,0.85-0.45C16,67.58,16.12,67.65,16.07,67.84z"/>
	<path class="st0" d="M55.3,58.25c0.17,0.15,0.25,0.37,0.24,0.69c-0.01,0.31-0.08,0.66-0.2,1.05c-0.12,0.39-0.26,0.79-0.42,1.21
		c-0.16,0.42-0.27,0.8-0.34,1.14c-0.1,0.43-0.16,0.96-0.18,1.57c-0.02,0.62-0.01,1.2,0.05,1.76c0.06,0.56,0.16,1.02,0.29,1.39
		c0.13,0.37,0.31,0.55,0.52,0.52c0.39,0.02,0.79-0.05,1.21-0.22c0.42-0.17,0.77-0.46,1.03-0.87c0.1-0.14,0.17-0.25,0.24-0.31
		c0.06-0.06,0.12-0.13,0.18-0.22c0.06-0.08,0.13-0.19,0.2-0.31c0.07-0.12,0.17-0.31,0.29-0.58c0.31-0.41,0.54-0.55,0.69-0.43
		c0.15,0.12,0.15,0.37,0,0.76c-0.12,0.27-0.26,0.58-0.42,0.96c-0.16,0.37-0.46,0.89-0.92,1.54c-0.15,0.19-0.37,0.43-0.67,0.72
		s-0.55,0.49-0.74,0.62c-0.7,0.48-1.37,0.64-2.01,0.47c-0.64-0.17-1.04-0.66-1.21-1.48c-0.19-0.82-0.29-1.65-0.29-2.5
		s-0.01-1.69-0.04-2.53c-0.02-0.55,0-1.11,0.07-1.67c0.07-0.55,0.08-1.11,0.04-1.67c-0.02-0.46-0.01-0.85,0.05-1.18
		c0.06-0.33,0.18-0.57,0.36-0.74c0.18-0.17,0.43-0.24,0.74-0.2C54.39,57.8,54.8,57.96,55.3,58.25z M55.3,54.12
		c0.19,0.14,0.34,0.39,0.43,0.72c0.1,0.34,0.06,0.6-0.11,0.8c-0.19,0.22-0.42,0.42-0.67,0.6c-0.25,0.18-0.51,0.32-0.78,0.42
		c-0.05,0-0.11-0.04-0.2-0.11c-0.08-0.07-0.18-0.16-0.27-0.27c-0.1-0.11-0.18-0.23-0.24-0.36c-0.06-0.13-0.09-0.24-0.09-0.31
		c0.05-0.31,0.15-0.62,0.31-0.9c0.16-0.29,0.3-0.59,0.42-0.9c0.27-0.15,0.49-0.16,0.69-0.04C54.99,53.88,55.16,54,55.3,54.12z"/>
	<path class="st0" d="M65.47,62.63c0.46-0.17,0.84-0.35,1.14-0.54c0.3-0.19,0.56-0.37,0.78-0.52c0.22-0.16,0.4-0.27,0.56-0.34
		c0.16-0.07,0.3-0.08,0.42-0.04c0.1,0.05,0.1,0.22,0.02,0.52c-0.08,0.3-0.27,0.62-0.56,0.96c-0.27,0.34-0.56,0.61-0.87,0.81
		s-0.7,0.44-1.16,0.71c-0.29,0.17-0.52,0.32-0.71,0.45c-0.18,0.13-0.34,0.28-0.49,0.43c-0.14,0.16-0.28,0.33-0.42,0.52
		c-0.13,0.19-0.28,0.43-0.45,0.72c-0.34,0.58-0.72,1-1.16,1.27c-0.43,0.27-0.88,0.39-1.32,0.38c-0.45-0.01-0.89-0.16-1.32-0.45
		c-0.43-0.29-0.83-0.72-1.19-1.3c-0.34-0.53-0.58-1.13-0.74-1.81c-0.16-0.68-0.22-1.37-0.2-2.08c0.02-0.71,0.14-1.41,0.34-2.08
		c0.21-0.68,0.5-1.27,0.89-1.77c0.07-0.1,0.15-0.19,0.24-0.27c0.08-0.08,0.15-0.19,0.2-0.31c0.7-1.01,1.47-1.53,2.32-1.56
		c0.84-0.02,1.58,0.47,2.21,1.48c0.22,0.34,0.38,0.8,0.49,1.38c0.11,0.58,0.2,1.14,0.29,1.68c0.08,0.54,0.17,1,0.27,1.36
		C65.14,62.59,65.28,62.73,65.47,62.63z M59.97,62.3c-0.15,0.75-0.15,1.42-0.02,2.01c0.13,0.59,0.56,1.02,1.28,1.28
		c0.15,0.05,0.4-0.02,0.78-0.22c0.37-0.19,0.62-0.46,0.74-0.8c-0.34-0.02-0.66-0.19-0.96-0.49c-0.3-0.3-0.58-0.61-0.83-0.92
		s-0.46-0.57-0.63-0.78C60.17,62.19,60.05,62.16,59.97,62.3z M63.01,62.45c0.02-0.27,0.03-0.56,0.02-0.89
		c-0.01-0.33-0.05-0.65-0.13-0.98c-0.07-0.33-0.19-0.63-0.36-0.92c-0.17-0.29-0.41-0.53-0.72-0.72c-0.22,0.29-0.34,0.62-0.36,1
		c-0.02,0.37,0.03,0.74,0.16,1.09c0.13,0.35,0.33,0.66,0.58,0.92C62.45,62.21,62.72,62.38,63.01,62.45z"/>
	<path class="st0" d="M77.13,71.17c0.46-0.51,0.78-0.85,0.96-1.03c0.18-0.18,0.32-0.32,0.42-0.42c0.1-0.1,0.22-0.21,0.36-0.34
		c0.14-0.13,0.41-0.38,0.79-0.74c0.24-0.24,0.57-0.54,1-0.89c0.42-0.35,0.86-0.71,1.32-1.07c0.46-0.36,0.92-0.71,1.38-1.03
		c0.46-0.33,0.84-0.58,1.14-0.76c0.3-0.18,0.5-0.27,0.6-0.25s0.02,0.16-0.22,0.45c-0.1,0.12-0.18,0.24-0.25,0.36
		c-0.07,0.12-0.16,0.24-0.25,0.36c-0.63,0.65-1.12,1.16-1.48,1.54c-0.36,0.37-0.71,0.72-1.03,1.03c-0.33,0.31-0.68,0.65-1.07,1.01
		c-0.39,0.36-0.89,0.86-1.52,1.48c-0.89,0.87-1.56,1.82-1.99,2.86c-0.43,1.04-0.68,2.17-0.72,3.4c-0.07,1.76-0.34,3.47-0.8,5.12
		c-0.46,1.65-1.09,3.28-1.89,4.87c-0.22,0.41-0.46,0.8-0.72,1.18c-0.27,0.37-0.52,0.74-0.76,1.1c-0.31,0.34-0.56,0.46-0.72,0.38
		c-0.17-0.08-0.29-0.27-0.36-0.56c-0.07-0.29-0.12-0.62-0.15-0.98c-0.02-0.36-0.05-0.64-0.07-0.83c-0.22-2.03-0.08-3.96,0.42-5.79
		c0.49-1.83,1.2-3.62,2.12-5.36c0.58-1.09,0.97-2.15,1.16-3.2c0.2-1.05,0.23-2.15,0.11-3.31c-0.14-1.38-0.29-2.74-0.42-4.11
		c-0.13-1.36-0.37-2.78-0.71-4.25c-0.31,0.41-0.62,0.84-0.9,1.29c-0.29,0.45-0.63,0.85-1.01,1.21c-0.39,0.39-0.8,0.76-1.25,1.12
		c-0.45,0.36-0.91,0.63-1.39,0.8c-0.34,0.12-0.65,0.15-0.94,0.09c-0.29-0.06-0.53-0.19-0.72-0.38c-0.19-0.19-0.33-0.44-0.4-0.74
		c-0.07-0.3-0.07-0.63,0-1c0.07-0.39,0.19-0.77,0.34-1.16c0.16-0.39,0.37-0.72,0.63-1.01c0.8-0.96,1.61-1.91,2.44-2.84
		c0.83-0.93,1.67-1.85,2.52-2.77c0.43-0.48,0.95-0.84,1.54-1.09c0.59-0.24,1.2-0.23,1.8,0.04c0.44,0.19,0.7,0.51,0.8,0.94
		c0.1,0.43-0.02,0.87-0.36,1.3c-0.12,0.14-0.29,0.21-0.49,0.2c-0.21-0.01-0.42-0.06-0.64-0.14c-0.22-0.08-0.43-0.17-0.64-0.27
		c-0.21-0.1-0.37-0.13-0.49-0.11c-0.34,0.05-0.65,0.19-0.93,0.43c-0.28,0.24-0.66,0.63-1.14,1.16c-0.41,0.46-0.82,0.91-1.23,1.36
		c-0.41,0.45-0.78,0.91-1.12,1.39c-0.22,0.31-0.4,0.66-0.54,1.05c-0.15,0.39-0.34,0.82-0.58,1.3c-0.02,0.22,0.06,0.28,0.25,0.18
		c0.19-0.1,0.42-0.25,0.69-0.47c0.27-0.22,0.53-0.46,0.8-0.72c0.27-0.27,0.46-0.48,0.58-0.65c0.34-0.46,0.66-0.92,0.98-1.39
		c0.31-0.47,0.66-0.91,1.05-1.32c0.22-0.22,0.5-0.4,0.84-0.56c0.34-0.16,0.67-0.24,0.98-0.24c0.12,0,0.27,0.19,0.44,0.56
		c0.17,0.37,0.27,0.71,0.29,1c0.2,1.57,0.35,3.13,0.47,4.69c0.12,1.56,0.26,3.12,0.4,4.69c0.03,0.19,0.06,0.42,0.11,0.67
		S77.03,70.64,77.13,71.17z M74.45,78.56c-0.54,0.92-0.97,1.86-1.29,2.82c-0.32,0.96-0.43,2.03-0.33,3.19
		c0.35-0.53,0.61-0.97,0.8-1.3c0.19-0.34,0.33-0.7,0.44-1.09c0.11-0.39,0.19-0.85,0.24-1.39C74.35,80.24,74.4,79.5,74.45,78.56z"/>
	<path class="st0" d="M89.83,57.67c-0.77,1.25-1.32,2.55-1.63,3.87c-0.31,1.33-0.6,2.65-0.87,3.98c-0.12,0.6-0.25,1.19-0.4,1.76
		c-0.14,0.57-0.32,1.07-0.53,1.5c-0.21,0.43-0.42,0.78-0.65,1.05c-0.23,0.27-0.48,0.4-0.74,0.4c-0.51-0.12-0.86-0.36-1.07-0.71
		c-0.21-0.35-0.3-0.77-0.27-1.25c0.02-0.89,0.05-1.78,0.09-2.66c0.04-0.88,0.09-1.76,0.16-2.62c0.07-0.92,0.16-1.84,0.27-2.77
		c0.11-0.93,0.2-1.85,0.27-2.77c0.05-0.34,0.12-0.63,0.22-0.87c0.1-0.24,0.3-0.45,0.62-0.62c0.55-0.19,1.01-0.19,1.36,0.02
		c0.35,0.21,0.51,0.49,0.49,0.85c0,0.27-0.05,0.56-0.16,0.89c-0.11,0.33-0.23,0.66-0.36,1.01c-0.13,0.35-0.26,0.69-0.38,1.03
		c-0.12,0.34-0.19,0.64-0.22,0.9c-0.05,0.46-0.09,0.92-0.13,1.38c-0.04,0.46-0.01,0.93,0.09,1.41c0.22-0.6,0.46-1.25,0.72-1.95
		c0.27-0.7,0.52-1.39,0.76-2.06c0.24-0.67,0.46-1.3,0.65-1.86c0.19-0.57,0.33-1.02,0.4-1.36c0.07-0.19,0.13-0.39,0.16-0.58
		c0.04-0.19,0.1-0.37,0.2-0.54c0.22-0.48,0.51-0.77,0.89-0.85c0.37-0.08,0.69,0.1,0.96,0.56c0.34,0.56,0.71,0.95,1.1,1.19
		c0.4,0.24,0.81,0.37,1.25,0.4c0.43,0.02,0.87-0.02,1.32-0.15c0.45-0.12,0.91-0.27,1.39-0.43c0.19-0.07,0.45-0.17,0.76-0.29
		c0.31-0.12,0.6-0.23,0.87-0.33c0.27-0.1,0.48-0.16,0.65-0.18c0.17-0.02,0.22,0.04,0.14,0.18c-1.13,1.3-2.44,2.17-3.91,2.59
		C92.85,58.22,91.35,58.18,89.83,57.67z"/>
	<path class="st0" d="M106.05,59.99c-1.01-0.14-1.94-0.03-2.77,0.34c-0.83,0.37-1.51,0.89-2.03,1.54c-0.52,0.65-0.84,1.4-0.96,2.24
		c-0.12,0.84,0.04,1.68,0.47,2.5c0.27,0.19,0.53,0.17,0.78-0.07c0.25-0.24,0.51-0.6,0.76-1.07c0.25-0.47,0.5-1,0.74-1.57
		s0.48-1.12,0.71-1.61s0.45-0.89,0.67-1.19c0.22-0.3,0.43-0.4,0.65-0.31c0.17,0.07,0.32,0.22,0.45,0.43s0.25,0.46,0.34,0.74
		c0.1,0.28,0.19,0.56,0.27,0.83c0.08,0.28,0.16,0.52,0.24,0.74c0.24,0.77,0.51,1.37,0.8,1.79c0.29,0.42,0.57,0.72,0.85,0.89
		c0.28,0.17,0.54,0.24,0.78,0.22c0.24-0.02,0.45-0.07,0.62-0.14c0.12-0.07,0.26-0.18,0.43-0.33c0.17-0.14,0.34-0.3,0.51-0.47
		c0.17-0.17,0.33-0.31,0.47-0.43c0.14-0.12,0.27-0.18,0.36-0.18c0.22,0,0.28,0.18,0.2,0.54c-0.08,0.36-0.25,0.76-0.49,1.19
		c-0.24,0.43-0.54,0.83-0.9,1.19c-0.36,0.36-0.71,0.54-1.05,0.54c-0.36,0-0.7-0.06-1.01-0.18c-0.31-0.12-0.62-0.31-0.92-0.56
		s-0.63-0.57-0.98-0.96c-0.35-0.39-0.74-0.83-1.18-1.34c-0.36,0.36-0.64,0.75-0.83,1.16c-0.19,0.41-0.5,0.77-0.9,1.09
		c-0.53,0.53-1.11,0.91-1.74,1.14c-0.63,0.23-1.27,0.16-1.92-0.2c-0.63-0.34-0.98-0.81-1.05-1.43c-0.07-0.62-0.07-1.22,0-1.83
		c0.12-1.11,0.4-2.16,0.83-3.15c0.43-0.99,1.06-1.87,1.88-2.64c0.39-0.34,0.89-0.7,1.52-1.09c0.63-0.39,1.21-0.63,1.74-0.72
		c0.26-0.02,0.58,0.04,0.94,0.2c0.36,0.16,0.66,0.36,0.91,0.62s0.37,0.52,0.38,0.81C106.62,59.55,106.44,59.79,106.05,59.99z"/>
	<path class="st0" d="M112.85,87.86c-0.41-0.07-0.75-0.21-1.01-0.4c-0.27-0.19-0.49-0.42-0.67-0.69c-0.18-0.27-0.33-0.54-0.45-0.83
		s-0.25-0.57-0.4-0.83c-0.75-1.5-1.28-3.03-1.59-4.6c-0.31-1.57-0.45-3.16-0.4-4.78c0.07-1.81,0.32-3.57,0.73-5.27
		c0.42-1.7,1.2-3.3,2.34-4.8c0.24-0.34,0.41-0.66,0.51-0.96c0.1-0.3,0.15-0.58,0.15-0.85c0-0.27-0.03-0.52-0.09-0.78
		c-0.06-0.25-0.1-0.51-0.13-0.78c-0.02-0.29-0.11-0.57-0.27-0.85s-0.33-0.54-0.51-0.8c-0.18-0.25-0.36-0.49-0.52-0.72
		c-0.17-0.23-0.28-0.44-0.33-0.63c-0.12-0.39-0.04-0.8,0.25-1.25c0.29-0.45,0.67-0.73,1.16-0.85c0.24-0.05,0.46-0.02,0.66,0.07
		c0.2,0.1,0.38,0.24,0.55,0.42c0.17,0.18,0.3,0.38,0.39,0.6c0.09,0.22,0.17,0.41,0.21,0.58c0.12,0.63,0.15,1.23,0.09,1.79
		c-0.06,0.57-0.03,1.27,0.09,2.12c0.27-0.12,0.53-0.22,0.78-0.29c0.25-0.07,0.49-0.17,0.71-0.29c0.53-0.29,1.06-0.59,1.57-0.9
		c0.52-0.31,1.06-0.58,1.61-0.8c0.7-0.29,1.33-0.49,1.9-0.62c0.57-0.12,1.11-0.15,1.63-0.07c0.52,0.07,1.04,0.24,1.56,0.49
		c0.52,0.25,1.08,0.6,1.68,1.03c0.24-0.07,0.55-0.14,0.94-0.22c0.39-0.07,0.81-0.14,1.27-0.2c0.46-0.06,0.92-0.1,1.38-0.13
		c0.46-0.02,0.89-0.01,1.3,0.04c0.24,0.07,0.22,0.19-0.05,0.34c-0.28,0.16-0.6,0.36-0.96,0.6c-0.27,0.14-0.49,0.27-0.67,0.38
		c-0.18,0.11-0.42,0.22-0.71,0.34c-0.43,0.19-0.8,0.36-1.1,0.51c-0.3,0.15-0.57,0.31-0.8,0.51c-0.23,0.19-0.43,0.43-0.6,0.72
		c-0.17,0.29-0.31,0.68-0.43,1.16c-0.22,0.87-0.53,1.67-0.94,2.41c-0.41,0.74-0.89,1.42-1.45,2.04c-0.56,0.63-1.16,1.21-1.81,1.74
		c-0.65,0.53-1.34,1.04-2.06,1.52c-0.22,0.14-0.51,0.23-0.89,0.27c-0.38,0.04-0.65-0.01-0.81-0.13c-0.19-0.14-0.33-0.4-0.4-0.76
		c-0.07-0.36-0.08-0.67-0.04-0.94c0.19-1.3,0.65-2.46,1.36-3.47c0.71-1.01,1.54-1.94,2.48-2.79c0.48-0.43,0.97-0.86,1.47-1.27
		c0.49-0.41,1-0.83,1.5-1.27c-0.36-0.58-0.78-0.93-1.27-1.05c-0.48-0.12-0.99-0.08-1.52,0.11c-1.35,0.48-2.61,1.03-3.76,1.63
		c-0.96,0.48-1.66,1.09-2.1,1.83c-0.43,0.74-0.64,1.67-0.62,2.81c0.05,2.8,0.04,5.59-0.02,8.36c-0.06,2.77-0.11,5.56-0.16,8.36
		c0,0.22-0.01,0.52-0.04,0.9c-0.02,0.39-0.06,0.76-0.11,1.12c-0.05,0.36-0.12,0.65-0.22,0.87C113.12,87.89,113,87.95,112.85,87.86z
		 M111.88,82.86c0.05-2.39,0.08-4.78,0.11-7.17c0.02-2.39,0.06-4.86,0.11-7.42c-0.58,1.09-1.03,2.26-1.34,3.53
		c-0.31,1.27-0.48,2.55-0.51,3.85c-0.02,1.3,0.1,2.58,0.36,3.82C110.88,80.72,111.3,81.85,111.88,82.86z M118.72,70.38
		c1.11-0.68,1.94-1.39,2.5-2.14c0.55-0.75,0.96-1.67,1.23-2.75c-0.63,0.43-1.13,0.82-1.52,1.16c-0.39,0.34-0.71,0.68-0.98,1.01
		c-0.27,0.34-0.49,0.72-0.67,1.14S118.91,69.75,118.72,70.38z"/>
	<path class="st0" d="M128.93,74.32c-0.1-0.41-0.17-0.83-0.2-1.27c-0.04-0.43-0.06-0.86-0.06-1.27c0-1.74,0.01-3.47,0.04-5.19
		c0.02-1.73,0.06-3.46,0.11-5.19c0.17-4.05,0.58-8.05,1.22-12c0.64-3.95,1.47-7.88,2.51-11.82c0.22-0.84,0.48-1.69,0.78-2.53
		c0.3-0.84,0.62-1.68,0.96-2.5c0.12-0.27,0.3-0.53,0.54-0.8s0.48-0.4,0.72-0.4c0.24-0.02,0.51,0.08,0.8,0.31
		c0.29,0.23,0.49,0.46,0.62,0.71c0.22,0.48,0.4,0.98,0.54,1.48c0.14,0.51,0.25,1.01,0.33,1.52c0.24,2.17,0.17,4.3-0.2,6.39
		c-0.37,2.09-0.9,4.16-1.57,6.21c-0.53,1.57-1.17,3.06-1.92,4.47c-0.75,1.41-1.54,2.81-2.39,4.18c-0.34,0.56-0.63,1.17-0.87,1.85
		c-0.24,0.68-0.39,1.34-0.43,1.99c-0.12,1.45-0.17,2.9-0.16,4.34c0.01,1.45,0.02,2.9,0.02,4.34c0,0.07-0.01,0.21-0.02,0.4
		c-0.01,0.19-0.02,0.38-0.02,0.56s0.02,0.31,0.05,0.38c0.04,0.07,0.1,0.04,0.2-0.11c0.39-0.8,0.75-1.68,1.09-2.66
		c0.34-0.98,0.68-1.9,1.01-2.77s0.69-1.62,1.05-2.26c0.36-0.64,0.78-1.03,1.27-1.18c0.05-0.02,0.19-0.03,0.43-0.02
		s0.49,0.15,0.76,0.42c0.29,0.29,0.51,0.68,0.65,1.16c0.15,0.48,0.27,0.96,0.38,1.43c0.11,0.47,0.21,0.91,0.31,1.3
		c0.1,0.4,0.24,0.67,0.43,0.81c0.36,0.17,0.69,0.22,1,0.14c0.3-0.07,0.58-0.2,0.83-0.4c0.25-0.19,0.49-0.43,0.72-0.71
		c0.23-0.28,0.46-0.54,0.71-0.78c0.36-0.24,0.49-0.21,0.4,0.11c-0.1,0.31-0.32,0.72-0.67,1.23c-0.35,0.51-0.77,1-1.27,1.48
		c-0.5,0.48-0.97,0.76-1.43,0.83c-0.51,0.05-0.94-0.11-1.3-0.47c-0.36-0.36-0.67-0.76-0.92-1.19c-0.25-0.43-0.46-0.81-0.63-1.12
		c-0.17-0.31-0.31-0.4-0.43-0.25c-0.53,0.68-0.95,1.41-1.25,2.21c-0.3,0.8-0.6,1.59-0.89,2.39c-0.29,0.8-0.63,1.57-1.03,2.32
		c-0.4,0.75-0.94,1.41-1.61,1.99c-0.3,0.34-0.56,0.46-0.78,0.38S128.98,74.54,128.93,74.32z M135.8,34.4
		c-0.58,0.56-1.15,1.52-1.7,2.9c-0.56,1.38-1.06,2.98-1.5,4.81c-0.45,1.83-0.81,3.79-1.08,5.86c-0.28,2.08-0.42,4.08-0.42,6.01
		c0.68-0.82,1.31-1.78,1.9-2.88c0.59-1.1,1.11-2.26,1.56-3.47c0.45-1.22,0.82-2.46,1.12-3.71c0.3-1.25,0.52-2.47,0.65-3.66
		c0.13-1.18,0.16-2.28,0.07-3.29C136.31,35.95,136.12,35.1,135.8,34.4z"/>
	<path class="st0" d="M145.58,66.36c0.41-0.72,0.81-1.47,1.21-2.24c0.4-0.77,0.73-1.54,1-2.3c0.26-0.76,0.43-1.51,0.51-2.24
		c0.07-0.74-0.01-1.45-0.25-2.15c-0.07-0.14-0.11-0.34-0.11-0.6s0.04-0.51,0.13-0.76c0.08-0.25,0.23-0.47,0.45-0.65
		c0.22-0.18,0.53-0.28,0.94-0.31c0.29,0,0.53,0.08,0.71,0.24c0.18,0.16,0.34,0.34,0.47,0.56s0.24,0.45,0.31,0.71
		c0.07,0.25,0.13,0.48,0.18,0.67c0.46,2.2,0.9,4.38,1.32,6.55s0.86,4.39,1.32,6.66c0.46-0.53,0.88-1.01,1.27-1.45
		c0.39-0.43,0.77-0.86,1.14-1.28c0.37-0.42,0.76-0.86,1.16-1.32c0.4-0.46,0.86-0.98,1.39-1.56c0.24-0.19,0.39-0.22,0.43-0.07
		c0.05,0.15,0.04,0.35-0.02,0.62c-0.06,0.27-0.15,0.54-0.27,0.83c-0.12,0.29-0.23,0.49-0.33,0.62c-0.27,0.34-0.48,0.62-0.63,0.83
		c-0.16,0.22-0.31,0.42-0.45,0.62c-0.15,0.19-0.3,0.4-0.45,0.62s-0.37,0.49-0.63,0.83c-1.93,2.46-2.87,5.31-2.82,8.54
		c0,0.72-0.01,1.45-0.04,2.17c-0.02,0.72-0.07,1.45-0.15,2.17c-0.05,0.46-0.14,0.91-0.27,1.36c-0.13,0.45-0.26,0.89-0.38,1.32
		c-0.17,0.48-0.35,0.7-0.54,0.65s-0.38-0.22-0.56-0.51c-0.18-0.29-0.34-0.64-0.47-1.05c-0.13-0.41-0.2-0.72-0.2-0.94
		c-0.02-0.77-0.05-1.54-0.07-2.32c-0.02-0.77,0.05-1.52,0.22-2.24c0.63-2.73,0.84-5.42,0.65-8.07c-0.19-2.65-0.63-5.31-1.3-7.96
		c-0.07-0.34-0.15-0.66-0.24-0.96c-0.08-0.3-0.17-0.61-0.27-0.92c-0.05-0.17-0.09-0.29-0.13-0.36c-0.04-0.07-0.07-0.11-0.11-0.11
		s-0.08,0.08-0.13,0.25l-0.98,2.93c-0.22,0.6-0.42,1.21-0.62,1.83c-0.19,0.62-0.45,1.2-0.76,1.76c-0.43,0.8-0.98,1.23-1.65,1.3
		c-0.66,0.07-1.32-0.2-1.97-0.83c-0.34-0.34-0.63-0.72-0.89-1.14c-0.25-0.42-0.46-0.85-0.63-1.29c-0.27-0.84-0.51-1.69-0.72-2.55
		c-0.22-0.86-0.42-1.72-0.62-2.59c-0.14-0.8-0.26-1.52-0.34-2.17c-0.08-0.65-0.15-1.38-0.2-2.17c-0.02-0.22-0.03-0.49-0.02-0.83
		c0.01-0.34,0.2-0.65,0.56-0.94c0.22-0.17,0.45-0.27,0.69-0.29s0.47-0.01,0.69,0.05c0.22,0.06,0.41,0.16,0.58,0.29
		c0.17,0.13,0.29,0.28,0.36,0.45c0.1,0.19,0.13,0.43,0.09,0.72s-0.09,0.6-0.16,0.92s-0.14,0.66-0.22,1.01
		c-0.07,0.35-0.1,0.68-0.07,1c0.05,0.7,0.13,1.43,0.25,2.19c0.12,0.76,0.25,1.6,0.4,2.52c0.05,0.34,0.16,0.73,0.34,1.18
		c0.18,0.45,0.38,0.85,0.6,1.21c0.22,0.36,0.44,0.65,0.67,0.87C145.17,66.43,145.38,66.48,145.58,66.36z"/>
</g>
</svg>
