<?xml version="1.0" encoding="utf-8"?>
<!-- Generator: Adobe Illustrator 24.0.0, SVG Export Plug-In . SVG Version: 6.00 Build 0)  -->
<svg version="1.1" id="レイヤー_1" xmlns="http://www.w3.org/2000/svg" xmlns:xlink="http://www.w3.org/1999/xlink" x="0px"
	 y="0px" width="132px" height="100px" viewBox="0 0 132 100" style="enable-background:new 0 0 132 100;" xml:space="preserve">
<style type="text/css">
	.st0{fill:#4B473F;}
</style>
<g>
	<path class="st0" d="M68.7,23.54c-0.1,0.17-0.19,0.32-0.27,0.45c-0.08,0.13-0.16,0.27-0.24,0.42c-0.07,0.14-0.14,0.31-0.22,0.51
		c-0.07,0.19-0.14,0.43-0.22,0.72c-0.31,1.18-0.65,2.34-1,3.47c-0.35,1.13-0.67,2.3-0.96,3.51c-0.65,2.56-1.32,5.1-1.99,7.62
		c-0.68,2.52-1.3,5.06-1.88,7.62c-0.75,3.31-1.46,6.59-2.14,9.84c-0.68,3.26-1.34,6.54-1.99,9.85c-0.29,1.47-0.56,2.94-0.8,4.4
		c-0.24,1.46-0.45,2.94-0.62,4.43c-0.24,2.2-0.44,4.37-0.6,6.52c-0.16,2.15-0.31,4.32-0.45,6.52c-0.05,0.63-0.02,1.27,0.07,1.92
		c0.1,0.65,0.19,1.29,0.29,1.92c0.05,0.41,0.03,0.78-0.05,1.1c-0.08,0.33-0.37,0.5-0.85,0.52c-0.24,0.02-0.52-0.07-0.83-0.29
		c-0.31-0.22-0.5-0.43-0.54-0.65c-0.24-0.94-0.46-1.89-0.65-2.84c-0.19-0.95-0.3-1.91-0.33-2.88c-0.05-3.06-0.19-6.12-0.42-9.18
		c-0.23-3.05-0.5-6.1-0.81-9.14c-0.31-3.04-0.65-6.07-1.01-9.1c-0.36-3.03-0.72-6.06-1.09-9.1c-0.24-2.03-0.48-4.06-0.71-6.1
		c-0.23-2.04-0.49-4.07-0.78-6.1c-0.29-2.03-0.63-4.04-1.01-6.04c-0.39-2-0.87-3.98-1.45-5.94c-0.41-1.38-0.87-2.71-1.38-4.02
		c-0.51-1.3-1.05-2.61-1.63-3.91c-0.75-1.62-1.73-2.62-2.95-3.02c-1.22-0.4-2.64-0.22-4.25,0.52c-1.71,0.77-3.23,1.77-4.56,3
		c-1.33,1.23-2.58,2.53-3.76,3.91c-3.35,3.93-6.18,8.1-8.49,12.51c-2.3,4.4-3.98,9.16-5.01,14.28c-0.27,1.3-0.39,2.62-0.38,3.95
		c0.01,1.33,0.16,2.65,0.45,3.98c0.29,1.3,0.84,2.32,1.65,3.04c0.81,0.72,1.86,1.19,3.17,1.41c1.01,0.17,2.01,0.24,3,0.22
		c0.99-0.02,1.98-0.2,2.97-0.54c0.58-0.19,1.17-0.46,1.77-0.8c0.6-0.34,1.2-0.69,1.79-1.05c0.59-0.36,1.18-0.71,1.77-1.03
		c0.59-0.33,1.18-0.6,1.76-0.81c0.15-0.05,0.36-0.1,0.63-0.16c0.28-0.06,0.54-0.1,0.8-0.13c0.25-0.02,0.47-0.01,0.65,0.04
		c0.18,0.05,0.27,0.16,0.27,0.33c0.05,0.36-0.1,0.77-0.43,1.23c-0.34,0.24-0.66,0.51-0.98,0.8s-0.66,0.51-1.05,0.65
		c-1.3,0.48-2.6,0.95-3.89,1.39c-1.29,0.45-2.59,0.88-3.89,1.29c-0.34,0.12-0.69,0.19-1.05,0.2c-0.36,0.01-0.72,0.03-1.09,0.05
		c-3.5,0.07-6.01-0.69-7.55-2.28c-1.53-1.59-2.24-4.13-2.12-7.6c0.05-1.52,0.21-3.02,0.49-4.49c0.28-1.47,0.63-2.92,1.05-4.34
		c0.42-1.42,0.91-2.82,1.47-4.2c0.55-1.38,1.15-2.75,1.77-4.13c1.74-3.74,3.76-7.23,6.08-10.46c2.32-3.23,5.01-6.23,8.07-8.98
		c0.89-0.8,1.83-1.5,2.81-2.1c0.98-0.6,2.07-1.04,3.28-1.3c1.42-0.29,2.67-0.23,3.75,0.18c1.07,0.41,1.92,1.29,2.55,2.64
		c0.7,1.5,1.34,3.01,1.94,4.54c0.59,1.53,1.13,3.09,1.61,4.69c1.25,4.25,2.21,8.54,2.86,12.89c0.65,4.34,1.24,8.7,1.77,13.07
		c0.53,4.44,1,8.86,1.41,13.25c0.41,4.39,0.7,8.83,0.87,13.32c0.05,1.23,0.12,2.47,0.22,3.71c0.1,1.24,0.19,2.52,0.29,3.82
		c0.29-2.1,0.57-4.16,0.83-6.17c0.27-2.02,0.58-4.02,0.94-6.03c0.55-3.16,1.13-6.3,1.72-9.41s1.21-6.25,1.86-9.41
		c0.63-2.99,1.28-5.95,1.95-8.89c0.68-2.93,1.39-5.87,2.14-8.81c0.48-1.88,1.02-3.74,1.61-5.57c0.59-1.83,1.18-3.68,1.76-5.54
		c0.12-0.34,0.26-0.71,0.42-1.1c0.16-0.4,0.32-0.77,0.49-1.1c0.05-0.17,0.13-0.39,0.24-0.65s0.22-0.54,0.33-0.81
		c0.11-0.28,0.22-0.54,0.33-0.8c0.11-0.25,0.19-0.48,0.24-0.67c0.07-0.15,0.12-0.19,0.15-0.15c0.02,0.05,0.04,0.15,0.04,0.31
		c0,0.16,0,0.35,0,0.58C68.7,23.06,68.7,23.3,68.7,23.54z"/>
	<path class="st0" d="M69.93,58.25c0.17,0.15,0.25,0.37,0.24,0.69c-0.01,0.31-0.08,0.66-0.2,1.05c-0.12,0.39-0.26,0.79-0.42,1.21
		c-0.16,0.42-0.27,0.8-0.34,1.14c-0.1,0.43-0.16,0.96-0.18,1.57c-0.02,0.62-0.01,1.2,0.05,1.76c0.06,0.56,0.16,1.02,0.29,1.39
		c0.13,0.37,0.31,0.55,0.52,0.52c0.39,0.02,0.79-0.05,1.21-0.22c0.42-0.17,0.77-0.46,1.03-0.87c0.1-0.14,0.17-0.25,0.24-0.31
		c0.06-0.06,0.12-0.13,0.18-0.22c0.06-0.08,0.13-0.19,0.2-0.31c0.07-0.12,0.17-0.31,0.29-0.58c0.31-0.41,0.54-0.55,0.69-0.43
		c0.15,0.12,0.15,0.37,0,0.76c-0.12,0.27-0.26,0.58-0.42,0.96c-0.16,0.37-0.46,0.89-0.92,1.54c-0.15,0.19-0.37,0.43-0.67,0.72
		s-0.55,0.49-0.74,0.62c-0.7,0.48-1.37,0.64-2.01,0.47c-0.64-0.17-1.04-0.66-1.21-1.48c-0.19-0.82-0.29-1.65-0.29-2.5
		s-0.01-1.69-0.04-2.53c-0.02-0.55,0-1.11,0.07-1.67c0.07-0.55,0.08-1.11,0.04-1.67c-0.02-0.46-0.01-0.85,0.05-1.18
		c0.06-0.33,0.18-0.57,0.36-0.74c0.18-0.17,0.43-0.24,0.74-0.2C69.01,57.8,69.42,57.96,69.93,58.25z M69.93,54.12
		c0.19,0.14,0.34,0.39,0.43,0.72c0.1,0.34,0.06,0.6-0.11,0.8c-0.19,0.22-0.42,0.42-0.67,0.6c-0.25,0.18-0.51,0.32-0.78,0.42
		c-0.05,0-0.11-0.04-0.2-0.11c-0.08-0.07-0.18-0.16-0.27-0.27c-0.1-0.11-0.18-0.23-0.24-0.36c-0.06-0.13-0.09-0.24-0.09-0.31
		c0.05-0.31,0.15-0.62,0.31-0.9c0.16-0.29,0.3-0.59,0.42-0.9c0.27-0.15,0.49-0.16,0.69-0.04C69.61,53.88,69.78,54,69.93,54.12z"/>
	<path class="st0" d="M86.11,73.2c0.34,1.23,0.79,2.38,1.36,3.46c0.57,1.07,1.39,1.98,2.48,2.73c-0.29,0.43-0.6,0.65-0.92,0.65
		c-0.33,0-0.6-0.11-0.81-0.33c-0.48-0.48-0.97-0.98-1.47-1.48c-0.5-0.51-0.84-1.06-1.03-1.67c-0.6-1.91-1.14-3.83-1.61-5.77
		s-0.95-3.89-1.43-5.85c-0.12-0.48-0.21-0.97-0.25-1.47c-0.05-0.49-0.12-1.02-0.22-1.57c-0.63,0.85-1.22,1.65-1.79,2.43
		c-0.57,0.77-1.17,1.51-1.79,2.21c-0.31,0.36-0.66,0.69-1.05,0.98s-0.78,0.56-1.19,0.8c-0.53,0.27-1.07,0.39-1.61,0.38
		c-0.54-0.01-1.06-0.24-1.54-0.67c-0.48-0.41-0.75-0.89-0.8-1.43c-0.05-0.54,0.06-1.1,0.33-1.68c0.77-1.67,1.67-3.24,2.68-4.72
		c1.01-1.48,2.28-2.76,3.8-3.82c1.04-0.72,1.72-1.52,2.04-2.39c0.33-0.87,0.43-1.91,0.31-3.11c-0.27-2.48-0.33-4.95-0.2-7.38
		c0.13-2.44,0.48-4.87,1.03-7.31c0.05-0.19,0.08-0.4,0.11-0.63c0.02-0.23,0.08-0.45,0.16-0.65c0.08-0.21,0.22-0.39,0.42-0.56
		c0.19-0.17,0.49-0.3,0.91-0.4c0.34-0.07,0.63,0.11,0.89,0.56c0.25,0.45,0.46,1.08,0.62,1.9c0.16,0.82,0.26,1.78,0.33,2.88
		c0.06,1.1,0.07,2.27,0.04,3.51s-0.13,2.5-0.29,3.78c-0.16,1.28-0.37,2.51-0.63,3.69c-0.05,0.53-0.13,1.19-0.25,1.99
		c-0.12,0.8-0.23,1.46-0.33,1.99c-0.07,0.48-0.15,0.98-0.24,1.5c-0.08,0.52-0.16,1.01-0.22,1.48c-0.06,0.47-0.1,0.89-0.13,1.25
		c-0.02,0.36-0.02,0.63,0,0.8c0.17,1.4,0.31,2.75,0.42,4.04c0.11,1.29,0.28,2.64,0.53,4.04c0.19,1.01,0.4,2,0.63,2.97
		C85.59,71.27,85.84,72.23,86.11,73.2z M81.22,60.53c0.34-0.53,0.55-1.15,0.65-1.86c0.1-0.71-0.02-1.45-0.36-2.23
		c-1.74,0.92-3.15,2.07-4.23,3.46c-1.09,1.39-1.97,2.95-2.64,4.69c-0.1,0.27-0.12,0.61-0.07,1.03c0.05,0.42,0.17,0.73,0.36,0.92
		c0.36,0.36,0.73,0.44,1.1,0.23c0.37-0.2,0.69-0.45,0.96-0.74c0.75-0.89,1.49-1.79,2.23-2.68C79.95,62.46,80.62,61.52,81.22,60.53z
		 M83.54,53.15c0.1-0.39,0.19-0.76,0.27-1.12c0.08-0.36,0.19-0.72,0.31-1.09c0.1-0.41,0.19-0.9,0.29-1.48s0.17-1.15,0.24-1.72
		c0.06-0.57,0.11-1.1,0.16-1.59c0.05-0.49,0.07-0.86,0.07-1.1c0.02-0.6,0.05-1.2,0.07-1.79c0.02-0.59,0.01-1.19-0.04-1.79
		c-0.02-0.27-0.05-0.6-0.09-1.01c-0.04-0.41-0.09-0.8-0.16-1.16c-0.07-0.36-0.15-0.65-0.24-0.87c-0.08-0.22-0.19-0.27-0.31-0.14
		c-0.48,1.23-0.81,2.46-0.98,3.69c-0.17,1.23-0.24,2.47-0.22,3.71c0.02,1.24,0.1,2.49,0.24,3.73
		C83.29,50.64,83.42,51.89,83.54,53.15z"/>
	<path class="st0" d="M94.97,66.9c-0.51,0.27-0.97,0.51-1.39,0.72c-0.42,0.22-0.85,0.4-1.29,0.54c-0.43,0.15-0.89,0.25-1.36,0.31
		c-0.47,0.06-1.01,0.04-1.61-0.05c-0.68-0.12-1.21-0.45-1.59-0.98c-0.39-0.53-0.51-1.16-0.36-1.88c0.17-0.72,0.39-1.45,0.65-2.17
		c0.27-0.72,0.6-1.4,1.01-2.03c0.41-0.63,0.88-1.22,1.41-1.77c0.53-0.55,1.06-1.11,1.59-1.67c0.51-0.55,1.12-0.89,1.85-1
		c0.72-0.11,1.34,0.03,1.85,0.42c0.24,0.19,0.43,0.43,0.58,0.72s0.23,0.61,0.25,0.96c0.02,0.35-0.02,0.69-0.14,1.03
		C96.3,60.4,96.1,60.71,95.81,61c-0.56,0.56-1.17,1.05-1.85,1.48c-0.68,0.43-1.35,0.87-2.03,1.3c-0.22,0.14-0.47,0.25-0.76,0.33
		c-0.29,0.07-0.57,0.14-0.83,0.22c-0.36,0.12-0.65,0.29-0.85,0.51c-0.21,0.22-0.24,0.51-0.09,0.87c0.12,0.27,0.31,0.52,0.56,0.78
		c0.25,0.25,0.5,0.39,0.74,0.42c0.46,0.05,0.92,0.02,1.39-0.09c0.47-0.11,0.95-0.21,1.43-0.31c0.17-0.02,0.29-0.05,0.38-0.07
		c0.08-0.02,0.16-0.05,0.24-0.09s0.14-0.07,0.22-0.11c0.07-0.04,0.19-0.08,0.36-0.13c0.43-0.05,0.66,0.01,0.67,0.18
		C95.4,66.45,95.26,66.66,94.97,66.9z M90.41,62.67c0.72-0.22,1.38-0.54,1.96-0.98c0.58-0.43,1-0.84,1.25-1.21
		c0.25-0.37,0.29-0.65,0.13-0.81c-0.17-0.17-0.65-0.1-1.45,0.22c-0.48,0.43-0.88,0.9-1.19,1.39C90.79,61.77,90.56,62.23,90.41,62.67
		z"/>
	<path class="st0" d="M106.12,62.63c0.46-0.17,0.84-0.35,1.14-0.54c0.3-0.19,0.56-0.37,0.78-0.52c0.22-0.16,0.4-0.27,0.56-0.34
		c0.16-0.07,0.3-0.08,0.42-0.04c0.1,0.05,0.1,0.22,0.02,0.52c-0.08,0.3-0.27,0.62-0.56,0.96c-0.27,0.34-0.56,0.61-0.87,0.81
		s-0.7,0.44-1.16,0.71c-0.29,0.17-0.52,0.32-0.71,0.45c-0.18,0.13-0.34,0.28-0.49,0.43c-0.14,0.16-0.28,0.33-0.42,0.52
		c-0.13,0.19-0.28,0.43-0.45,0.72c-0.34,0.58-0.72,1-1.16,1.27c-0.43,0.27-0.88,0.39-1.32,0.38c-0.45-0.01-0.89-0.16-1.32-0.45
		s-0.83-0.72-1.19-1.3c-0.34-0.53-0.59-1.13-0.74-1.81c-0.16-0.68-0.22-1.37-0.2-2.08c0.02-0.71,0.14-1.41,0.34-2.08
		c0.21-0.68,0.5-1.27,0.89-1.77c0.07-0.1,0.15-0.19,0.24-0.27c0.08-0.08,0.15-0.19,0.2-0.31c0.7-1.01,1.47-1.53,2.32-1.56
		c0.84-0.02,1.58,0.47,2.21,1.48c0.22,0.34,0.38,0.8,0.49,1.38c0.11,0.58,0.21,1.14,0.29,1.68c0.08,0.54,0.17,1,0.27,1.36
		C105.78,62.59,105.93,62.73,106.12,62.63z M100.62,62.3c-0.14,0.75-0.15,1.42-0.02,2.01s0.56,1.02,1.29,1.28
		c0.14,0.05,0.4-0.02,0.78-0.22c0.37-0.19,0.62-0.46,0.74-0.8c-0.34-0.02-0.66-0.19-0.96-0.49c-0.3-0.3-0.58-0.61-0.83-0.92
		c-0.25-0.31-0.46-0.57-0.63-0.78C100.81,62.19,100.69,62.16,100.62,62.3z M103.66,62.45c0.02-0.27,0.03-0.56,0.02-0.89
		c-0.01-0.33-0.05-0.65-0.13-0.98c-0.07-0.33-0.19-0.63-0.36-0.92s-0.41-0.53-0.72-0.72c-0.22,0.29-0.34,0.62-0.36,1
		c-0.02,0.37,0.03,0.74,0.16,1.09c0.13,0.35,0.33,0.66,0.58,0.92C103.1,62.21,103.37,62.38,103.66,62.45z"/>
	<path class="st0" d="M113.11,69.43c0.77-0.84,1.51-1.62,2.21-2.32c0.7-0.7,1.39-1.38,2.08-2.03c0.69-0.65,1.38-1.29,2.06-1.92
		c0.69-0.63,1.41-1.28,2.15-1.95c0.07-0.07,0.11-0.05,0.13,0.05s-0.04,0.29-0.14,0.54s-0.3,0.59-0.58,1.01
		c-0.28,0.42-0.67,0.91-1.18,1.47c-0.55,0.63-1,1.15-1.34,1.56c-0.34,0.41-0.65,0.79-0.94,1.14c-0.29,0.35-0.6,0.72-0.94,1.12
		c-0.34,0.4-0.8,0.9-1.38,1.5c-1.23,1.38-1.85,2.98-1.85,4.81c-0.02,0.72-0.08,1.5-0.16,2.32c-0.08,0.82-0.17,1.47-0.27,1.95
		c-0.05,0.19-0.11,0.42-0.18,0.67s-0.18,0.49-0.31,0.71c-0.13,0.22-0.28,0.4-0.45,0.54c-0.17,0.15-0.36,0.19-0.58,0.15
		c-0.92-0.27-1.57-0.66-1.96-1.18c-0.39-0.52-0.58-1.16-0.58-1.94c0-0.43,0.05-0.84,0.14-1.21s0.23-0.72,0.4-1.05
		s0.35-0.65,0.54-0.96c0.19-0.31,0.36-0.63,0.51-0.94c0.36-0.72,0.57-1.42,0.62-2.1c0.05-0.68-0.08-1.36-0.4-2.06
		c-0.55-1.33-1.12-2.6-1.68-3.82c-0.57-1.22-1.15-2.43-1.76-3.64c-0.41-0.77-0.64-1.54-0.69-2.3c-0.05-0.76,0.07-1.45,0.36-2.08
		c0.29-0.63,0.73-1.17,1.32-1.63c0.59-0.46,1.32-0.78,2.19-0.98c0.24-0.05,0.62-0.05,1.14-0.02s0.97,0.15,1.36,0.34
		c0.43,0.24,0.74,0.54,0.91,0.89c0.17,0.35,0.24,0.7,0.22,1.05c-0.02,0.35-0.11,0.67-0.27,0.96s-0.36,0.49-0.6,0.62
		c-0.58,0.14-1.02,0.19-1.32,0.13c-0.3-0.06-0.55-0.16-0.74-0.29c-0.19-0.13-0.37-0.26-0.52-0.38c-0.16-0.12-0.36-0.17-0.6-0.15
		c-0.19,0-0.4,0.05-0.62,0.16s-0.39,0.27-0.52,0.49c-0.13,0.22-0.21,0.49-0.22,0.81s0.09,0.71,0.31,1.14
		c0.34,0.77,0.72,1.52,1.16,2.24c0.43,0.72,0.83,1.47,1.19,2.24c0.31,0.65,0.6,1.33,0.87,2.03
		C112.47,67.85,112.77,68.61,113.11,69.43z"/>
</g>
</svg>
