<?xml version="1.0" encoding="utf-8"?>
<!-- Generator: Adobe Illustrator 24.0.0, SVG Export Plug-In . SVG Version: 6.00 Build 0)  -->
<svg version="1.1" id="レイヤー_1" xmlns="http://www.w3.org/2000/svg" xmlns:xlink="http://www.w3.org/1999/xlink" x="0px"
	 y="0px" width="136px" height="100px" viewBox="0 0 136 100" style="enable-background:new 0 0 136 100;" xml:space="preserve">
<style type="text/css">
	.st0{fill:#4B473F;}
</style>
<g>
	<path class="st0" d="M46.36,17.17c1.28,0.1,2.48,0.37,3.62,0.81c1.13,0.45,2.24,0.98,3.33,1.61c4.71,2.78,8.5,6.17,11.38,10.19
		c2.88,4.02,4.83,8.73,5.85,14.13c0.77,4.17,1.26,8.34,1.47,12.49c0.2,4.15,0.03,8.34-0.52,12.56c-0.27,2.2-0.59,4.36-0.96,6.48
		s-0.98,4.21-1.83,6.26c-0.65,1.59-1.41,3.11-2.28,4.54c-0.87,1.44-1.97,2.73-3.29,3.89c-3.28,2.89-6.87,3.35-10.75,1.38
		c-2.12-1.11-3.87-2.53-5.25-4.25c-1.38-1.73-2.51-3.67-3.4-5.85c-0.63-1.47-1.2-2.98-1.72-4.52c-0.52-1.54-1.09-3.15-1.72-4.81
		c-0.48,1.16-0.95,2.27-1.39,3.33c-0.45,1.06-0.88,2.14-1.29,3.22c-0.31,0.77-0.62,1.56-0.9,2.35c-0.29,0.8-0.58,1.59-0.87,2.39
		c-0.05,0.17-0.11,0.36-0.2,0.56c-0.08,0.2-0.18,0.4-0.27,0.6c-0.31,0.53-0.61,0.85-0.89,0.96c-0.28,0.11-0.55,0.14-0.81,0.09
		c-0.27-0.05-0.56-0.25-0.89-0.6s-0.51-0.69-0.56-1.03c-0.34-1.93-0.6-3.85-0.78-5.76c-0.18-1.91-0.22-3.85-0.13-5.83
		c0.12-2.34,0.36-4.66,0.71-6.95c0.35-2.29,0.75-4.57,1.21-6.84c0.46-2.27,0.95-4.53,1.47-6.79c0.52-2.26,1-4.53,1.43-6.82
		c0.29-1.59,0.48-3.19,0.56-4.8c0.08-1.6,0.15-3.21,0.2-4.83c0.02-0.65-0.04-1.32-0.2-2.01c-0.16-0.69-0.36-1.35-0.6-1.97
		c-0.36-0.99-0.83-1.91-1.41-2.75s-1.29-1.5-2.14-1.97c-0.84-0.47-1.83-0.69-2.95-0.65c-1.12,0.04-2.4,0.44-3.82,1.21
		c-1.57,0.84-3.02,1.78-4.36,2.8s-2.55,2.16-3.64,3.4s-2.04,2.6-2.86,4.07c-0.82,1.47-1.47,3.08-1.95,4.81
		c-0.63,2.2-0.82,4.34-0.58,6.44c0.24,2.1,1.01,4.13,2.32,6.08c0.46,0.58,0.92,1.01,1.39,1.3c0.47,0.29,0.92,0.51,1.36,0.65
		c0.43,0.15,0.83,0.28,1.19,0.4c0.36,0.12,0.66,0.3,0.9,0.54c0.19,0.19,0.3,0.42,0.31,0.67s-0.19,0.56-0.6,0.92
		c-0.48,0.14-0.91,0.21-1.28,0.2c-0.37-0.01-0.71-0.07-1-0.18c-0.29-0.11-0.55-0.25-0.78-0.44c-0.23-0.18-0.44-0.38-0.63-0.6
		c-1.74-1.91-3.05-3.98-3.93-6.23s-1.13-4.67-0.74-7.28c0.31-2.34,0.91-4.48,1.79-6.41c0.88-1.93,1.98-3.69,3.31-5.29
		c1.33-1.59,2.84-3.03,4.54-4.31s3.55-2.42,5.56-3.44c2.24-1.13,4.29-1.34,6.14-0.62c1.85,0.72,3.4,2.18,4.65,4.38
		c0.55,0.96,0.97,1.94,1.25,2.93c0.28,0.99,0.46,1.99,0.54,3c0.08,1.01,0.09,2.03,0.02,3.06s-0.18,2.04-0.33,3.06
		c-0.39,2.34-0.83,4.67-1.32,6.99c-0.49,2.32-1.01,4.64-1.54,6.98c-0.63,2.78-1.16,5.55-1.61,8.33c-0.45,2.77-0.77,5.59-0.96,8.43
		c-0.12,1.81-0.07,3.61,0.16,5.41c0.23,1.8,0.58,3.61,1.07,5.45c0.05,0.12,0.11,0.12,0.18,0c0.07-0.12,0.15-0.29,0.23-0.51
		c0.08-0.22,0.17-0.45,0.25-0.71s0.15-0.45,0.2-0.6c0.39-1.01,0.74-1.98,1.07-2.9s0.65-1.82,0.98-2.7c0.33-0.88,0.66-1.78,1-2.7
		c0.34-0.92,0.7-1.88,1.09-2.9c0.14-0.48,0.19-0.95,0.14-1.39c-0.05-0.45-0.07-0.88-0.07-1.29s0.08-0.79,0.24-1.14
		c0.16-0.35,0.49-0.67,1-0.96c0.55-0.24,0.94-0.29,1.16-0.14s0.36,0.43,0.42,0.87c0.06,0.43,0.07,1,0.02,1.7
		c-0.05,0.7-0.06,1.46-0.04,2.28c0.07,2.75,0.61,5.36,1.61,7.82c1,2.46,2.23,4.84,3.67,7.13c0.89,1.38,1.95,2.53,3.17,3.47
		c1.22,0.94,2.62,1.65,4.22,2.13c1.33,0.39,2.59,0.47,3.8,0.25c1.21-0.22,2.35-0.78,3.44-1.7c1.38-1.13,2.5-2.41,3.38-3.82
		c0.88-1.41,1.6-2.94,2.15-4.58c0.87-2.56,1.56-5.13,2.06-7.71c0.51-2.58,0.81-5.22,0.9-7.93c0.05-1.96,0.08-3.92,0.09-5.88
		c0.01-1.97-0.04-3.92-0.14-5.86c-0.11-1.94-0.3-3.88-0.58-5.81c-0.28-1.93-0.67-3.86-1.18-5.79c-1.47-5.5-3.92-10.14-7.35-13.92
		c-3.43-3.78-7.69-6.82-12.78-9.14c-0.36-0.17-0.73-0.3-1.1-0.4c-0.37-0.1-0.75-0.21-1.14-0.33c-0.8-0.19-1.29-0.33-1.48-0.4
		c-0.19-0.07-0.22-0.11-0.07-0.13c0.15-0.01,0.39-0.01,0.74,0.02C45.79,17.16,46.1,17.17,46.36,17.17z"/>
	<path class="st0" d="M85.06,62.63c0.46-0.17,0.84-0.35,1.14-0.54c0.3-0.19,0.56-0.37,0.78-0.52c0.22-0.16,0.4-0.27,0.56-0.34
		c0.16-0.07,0.3-0.08,0.42-0.04c0.1,0.05,0.1,0.22,0.02,0.53s-0.27,0.62-0.56,0.96c-0.27,0.34-0.56,0.61-0.87,0.81
		s-0.7,0.44-1.16,0.71c-0.29,0.17-0.52,0.32-0.71,0.45c-0.18,0.13-0.34,0.28-0.49,0.43c-0.14,0.16-0.28,0.33-0.42,0.53
		c-0.13,0.19-0.28,0.43-0.45,0.72c-0.34,0.58-0.72,1-1.16,1.27c-0.43,0.27-0.88,0.39-1.32,0.38c-0.45-0.01-0.89-0.16-1.32-0.45
		c-0.43-0.29-0.83-0.72-1.19-1.3c-0.34-0.53-0.59-1.13-0.74-1.81c-0.16-0.67-0.22-1.37-0.2-2.08c0.02-0.71,0.14-1.41,0.34-2.08
		c0.21-0.67,0.5-1.27,0.89-1.77c0.07-0.1,0.15-0.19,0.24-0.27c0.08-0.08,0.15-0.19,0.2-0.31c0.7-1.01,1.47-1.53,2.32-1.56
		s1.58,0.47,2.21,1.48c0.22,0.34,0.38,0.8,0.49,1.38c0.11,0.58,0.21,1.14,0.29,1.68c0.08,0.54,0.17,0.99,0.27,1.36
		C84.72,62.59,84.86,62.73,85.06,62.63z M79.56,62.3c-0.14,0.75-0.15,1.42-0.02,2.01c0.13,0.59,0.56,1.02,1.29,1.29
		c0.14,0.05,0.4-0.02,0.78-0.22s0.62-0.46,0.74-0.8c-0.34-0.02-0.66-0.19-0.96-0.49c-0.3-0.3-0.58-0.61-0.83-0.92
		c-0.25-0.31-0.46-0.57-0.63-0.78C79.75,62.19,79.63,62.16,79.56,62.3z M82.6,62.45c0.02-0.27,0.03-0.56,0.02-0.89
		c-0.01-0.33-0.05-0.65-0.13-0.98c-0.07-0.33-0.19-0.63-0.36-0.92c-0.17-0.29-0.41-0.53-0.72-0.72c-0.22,0.29-0.34,0.62-0.36,1
		c-0.02,0.37,0.03,0.74,0.16,1.09s0.33,0.66,0.58,0.92C82.04,62.21,82.31,62.38,82.6,62.45z"/>
	<path class="st0" d="M92.8,57.67c-0.77,1.25-1.32,2.55-1.63,3.87s-0.6,2.66-0.87,3.98c-0.12,0.6-0.25,1.19-0.4,1.76
		s-0.32,1.07-0.53,1.5c-0.21,0.43-0.42,0.78-0.65,1.05c-0.23,0.27-0.48,0.4-0.74,0.4c-0.51-0.12-0.86-0.36-1.07-0.71
		s-0.3-0.77-0.27-1.25c0.02-0.89,0.05-1.78,0.09-2.66c0.04-0.88,0.09-1.75,0.16-2.62c0.07-0.92,0.16-1.84,0.27-2.77
		c0.11-0.93,0.2-1.85,0.27-2.77c0.05-0.34,0.12-0.63,0.22-0.87c0.1-0.24,0.3-0.45,0.62-0.62c0.55-0.19,1.01-0.19,1.36,0.02
		c0.35,0.21,0.51,0.49,0.49,0.85c0,0.27-0.05,0.56-0.16,0.89c-0.11,0.33-0.23,0.66-0.36,1.01c-0.13,0.35-0.26,0.69-0.38,1.03
		c-0.12,0.34-0.19,0.64-0.22,0.91c-0.05,0.46-0.09,0.92-0.13,1.38c-0.04,0.46-0.01,0.93,0.09,1.41c0.22-0.6,0.46-1.25,0.72-1.96
		c0.27-0.7,0.52-1.39,0.76-2.06c0.24-0.67,0.46-1.3,0.65-1.86c0.19-0.57,0.33-1.02,0.4-1.36c0.07-0.19,0.13-0.38,0.16-0.58
		s0.1-0.38,0.2-0.54c0.22-0.48,0.51-0.77,0.89-0.85c0.37-0.08,0.69,0.1,0.96,0.56c0.34,0.56,0.71,0.95,1.1,1.19
		c0.4,0.24,0.81,0.38,1.25,0.4c0.43,0.02,0.87-0.02,1.32-0.14c0.45-0.12,0.91-0.27,1.39-0.43c0.19-0.07,0.45-0.17,0.76-0.29
		c0.31-0.12,0.6-0.23,0.87-0.33s0.48-0.16,0.65-0.18c0.17-0.02,0.22,0.04,0.14,0.18c-1.13,1.3-2.44,2.17-3.91,2.59
		C95.82,58.22,94.32,58.18,92.8,57.67z"/>
	<path class="st0" d="M104.13,62.16c0,0.15,0.09,0.17,0.27,0.07s0.4-0.24,0.65-0.42c0.25-0.18,0.52-0.37,0.8-0.56
		c0.28-0.19,0.52-0.33,0.74-0.4c0.15-0.05,0.3-0.11,0.45-0.18c0.16-0.07,0.31-0.13,0.47-0.16c0.16-0.04,0.3-0.03,0.43,0.02
		c0.13,0.05,0.24,0.17,0.31,0.36c0.1,0.27,0.08,0.52-0.05,0.78c-0.13,0.25-0.26,0.48-0.38,0.67c-0.19,0.34-0.43,0.66-0.71,0.98
		c-0.28,0.31-0.6,0.69-0.96,1.12c0.36,0.29,0.79,0.54,1.28,0.74c0.5,0.21,0.95,0.39,1.38,0.54c0.42,0.16,0.77,0.28,1.03,0.38
		s0.37,0.17,0.33,0.22c-0.39,0.51-0.79,0.81-1.19,0.9c-0.41,0.1-0.83,0.1-1.25,0.02c-0.42-0.08-0.86-0.2-1.32-0.34
		c-0.46-0.14-0.92-0.2-1.38-0.18c-0.17,0.53-0.33,1.07-0.49,1.63c-0.16,0.56-0.32,1.11-0.49,1.67c-0.1,0.27-0.19,0.54-0.27,0.81
		c-0.08,0.28-0.21,0.53-0.38,0.74c-0.1,0.12-0.25,0.23-0.45,0.33c-0.21,0.1-0.39,0.12-0.56,0.07c-0.14-0.05-0.29-0.16-0.43-0.34
		s-0.22-0.34-0.22-0.49c-0.05-0.36-0.04-0.72,0.02-1.09s0.09-0.72,0.09-1.09c0.02-0.63,0.05-1.33,0.07-2.12
		c0.02-0.78,0.05-1.59,0.07-2.42c0.02-0.83,0.05-1.67,0.07-2.52c0.02-0.84,0.05-1.64,0.07-2.39c-0.07-0.02-0.15,0-0.24,0.07
		c-0.08,0.07-0.18,0.16-0.27,0.27c-0.1,0.11-0.19,0.22-0.27,0.34c-0.08,0.12-0.15,0.22-0.2,0.29c-0.22,0.34-0.51,0.68-0.87,1.03
		c-0.36,0.35-0.6,0.53-0.72,0.53c-0.14-0.05-0.17-0.19-0.07-0.42c0.1-0.23,0.19-0.43,0.29-0.6c0.15-0.34,0.31-0.64,0.51-0.92
		c0.19-0.28,0.41-0.58,0.65-0.92c0.6-0.84,1.04-1.94,1.32-3.28c0.28-1.34,0.49-2.72,0.63-4.14c0.36-3.16,0.81-6.27,1.34-9.34
		c0.53-3.06,1.3-6.1,2.32-9.12c0.17-0.48,0.37-0.96,0.62-1.45c0.24-0.48,0.5-0.94,0.76-1.38c0.53-0.84,1.12-1.4,1.75-1.67
		c0.64-0.26,1.35-0.29,2.12-0.07c0.67,0.19,1.16,0.57,1.47,1.14c0.3,0.57,0.46,1.36,0.49,2.37c0.05,2.8-0.31,5.48-1.07,8.04
		c-0.76,2.56-1.76,5.06-2.99,7.49c-0.77,1.52-1.57,3.02-2.41,4.49c-0.83,1.47-1.68,2.93-2.55,4.38c-0.48,0.84-0.78,1.71-0.89,2.59
		S103.84,61.1,104.13,62.16z M104.75,53.33c1.23-1.93,2.39-3.87,3.47-5.83s1.94-4.03,2.57-6.23c0.41-1.4,0.72-2.81,0.94-4.24
		c0.22-1.42,0.42-2.86,0.62-4.31c0.07-0.41,0.06-0.84-0.04-1.29c-0.1-0.45-0.42-0.75-0.98-0.92c-0.6-0.17-1.08-0.09-1.43,0.24
		c-0.35,0.33-0.63,0.71-0.85,1.14c-0.34,0.7-0.65,1.4-0.94,2.1c-0.29,0.7-0.53,1.42-0.72,2.17c-0.8,2.8-1.44,5.62-1.92,8.45
		S104.75,50.36,104.75,53.33z"/>
	<path class="st0" d="M117.05,69.43c0.77-0.84,1.51-1.62,2.21-2.32c0.7-0.7,1.39-1.38,2.08-2.03c0.69-0.65,1.38-1.29,2.06-1.92
		c0.69-0.63,1.41-1.28,2.15-1.95c0.07-0.07,0.11-0.05,0.13,0.05s-0.04,0.29-0.14,0.54s-0.3,0.59-0.58,1.01
		c-0.28,0.42-0.67,0.91-1.18,1.47c-0.55,0.63-1,1.15-1.34,1.56s-0.65,0.79-0.94,1.14c-0.29,0.35-0.6,0.72-0.94,1.12
		c-0.34,0.4-0.8,0.9-1.38,1.5c-1.23,1.38-1.85,2.98-1.85,4.81c-0.02,0.72-0.08,1.5-0.16,2.32s-0.17,1.47-0.27,1.95
		c-0.05,0.19-0.11,0.42-0.18,0.67s-0.18,0.49-0.31,0.71c-0.13,0.22-0.28,0.4-0.45,0.54c-0.17,0.14-0.36,0.19-0.58,0.14
		c-0.92-0.27-1.57-0.66-1.96-1.18c-0.39-0.52-0.58-1.17-0.58-1.94c0-0.43,0.05-0.84,0.14-1.21c0.1-0.37,0.23-0.72,0.4-1.05
		s0.35-0.65,0.54-0.96s0.36-0.63,0.51-0.94c0.36-0.72,0.57-1.42,0.62-2.1c0.05-0.67-0.08-1.36-0.4-2.06
		c-0.55-1.33-1.12-2.6-1.68-3.82c-0.57-1.22-1.15-2.43-1.76-3.64c-0.41-0.77-0.64-1.54-0.69-2.3c-0.05-0.76,0.07-1.45,0.36-2.08
		c0.29-0.63,0.73-1.17,1.32-1.63c0.59-0.46,1.32-0.78,2.19-0.98c0.24-0.05,0.62-0.05,1.14-0.02c0.52,0.04,0.97,0.15,1.36,0.34
		c0.43,0.24,0.74,0.54,0.91,0.89c0.17,0.35,0.24,0.7,0.22,1.05s-0.11,0.67-0.27,0.96s-0.36,0.49-0.6,0.62
		c-0.58,0.14-1.02,0.19-1.32,0.13s-0.55-0.16-0.74-0.29c-0.19-0.13-0.37-0.26-0.52-0.38c-0.16-0.12-0.36-0.17-0.6-0.14
		c-0.19,0-0.4,0.05-0.62,0.16c-0.22,0.11-0.39,0.27-0.52,0.49c-0.13,0.22-0.21,0.49-0.22,0.81s0.09,0.71,0.31,1.14
		c0.34,0.77,0.72,1.52,1.16,2.24c0.43,0.72,0.83,1.47,1.19,2.24c0.31,0.65,0.6,1.33,0.87,2.03
		C116.41,67.85,116.71,68.61,117.05,69.43z"/>
</g>
</svg>
