<?xml version="1.0" encoding="utf-8"?>
<!-- Generator: Adobe Illustrator 20.1.0, SVG Export Plug-In . SVG Version: 6.00 Build 0)  -->
<svg version="1.1" id="Logo__x2014__FIXED" xmlns="http://www.w3.org/2000/svg" xmlns:xlink="http://www.w3.org/1999/xlink" x="0px"
	 y="0px" viewBox="0 0 400 400" style="enable-background:new 0 0 400 400;" xml:space="preserve">
<style type="text/css">
	.st0{fill:#FFFFFF;}
	.st1{fill:none;}
</style>
<g>
	<path class="st0" d="M144.3,322c113.3,0,175.3-93.9,175.3-175.3c0-2.7-0.1-5.3-0.2-8c12-8.7,22.5-19.5,30.7-31.9
		c-11,4.9-22.9,8.2-35.4,9.7c12.7-7.6,22.5-19.7,27.1-34.1c-11.9,7.1-25.1,12.2-39.1,15c-11.2-12-27.3-19.5-45-19.5
		c-34,0-61.6,27.6-61.6,61.6c0,4.8,0.5,9.5,1.6,14c-51.2-2.6-96.6-27.1-127-64.4c-5.3,9.1-8.3,19.7-8.3,31
		c0,21.4,10.9,40.2,27.4,51.3c-10.1-0.3-19.6-3.1-27.9-7.7c0,0.3,0,0.5,0,0.8c0,29.8,21.2,54.8,49.4,60.4
		c-5.2,1.4-10.6,2.2-16.2,2.2c-4,0-7.8-0.4-11.6-1.1c7.8,24.5,30.6,42.3,57.6,42.8c-21.1,16.5-47.7,26.4-76.5,26.4
		c-5,0-9.9-0.3-14.7-0.9C77.1,311.8,109.5,322,144.3,322"/>
	<rect x="-40.2" y="-40.2" class="st1" width="480.5" height="480.5"/>
</g>
</svg>
