<?xml version="1.0" encoding="utf-8"?>
<!-- Generator: Adobe Illustrator 23.1.1, SVG Export Plug-In . SVG Version: 6.00 Build 0)  -->
<svg version="1.1" id="レイヤー_1" xmlns="http://www.w3.org/2000/svg" xmlns:xlink="http://www.w3.org/1999/xlink" x="0px"
	 y="0px" width="400px" height="146px" viewBox="0 0 400 146" style="enable-background:new 0 0 400 146;" xml:space="preserve">
<style type="text/css">
	.st0{fill:#4B473F;}
</style>
<g>
	<path class="st0" d="M20.2,100.3c-0.5,0.7-1.2,1.5-2.1,2.4c-0.9,0.9-1.6,1.9-2.3,2.9c-0.6,0.8-1.1,1.7-1.7,2.7
		c-0.6,1-1.2,2.1-1.8,3.3c-0.6,1.1-1.2,2.3-1.8,3.5c-0.6,1.2-1.2,2.3-1.8,3.4c-0.2,0.3-0.3,0.7-0.4,1.1c-0.1,0.4-0.2,0.8-0.3,1.1
		c-0.6,2.2-0.7,4.2-0.3,6c0.3,1.8,1,3.3,2.1,4.5c1.1,1.2,2.5,2.1,4.2,2.7c1.7,0.6,3.8,0.7,6.1,0.5c5-0.5,9.8-1.7,14.3-3.6
		c4.5-1.9,8.9-4.2,13.1-6.9c2.8-1.8,5.4-3.7,8-5.8c2.6-2.1,5.2-4.2,7.8-6.3c5.9-4.8,10.2-10.8,12.9-17.9c0.6-1.6,1-3.3,1.4-5.1
		c0.3-1.8,0.5-3.5,0.7-5.3c0.2-2.4-0.3-4.4-1.5-6s-2.9-2.7-5.1-3.7c-3.1-1.3-6.2-1.9-9.3-1.7c-3.1,0.2-6.1,0.9-9.2,2
		c-1.1,0.4-2.2,0.8-3.3,1.2c-1.1,0.4-2.2,0.7-3.4,0.9c-0.5,0.1-1.1,0.1-1.8,0c-0.7-0.1-1.2-0.4-1.5-0.7c-0.2-0.4-0.3-0.9-0.1-1.6
		c0.1-0.7,0.3-1.3,0.6-1.7c1.1-1.6,2.2-3.2,3.4-4.7c1.2-1.5,2.3-3,3.5-4.6c2.4-3,4.7-6.2,6.6-9.5c2-3.3,3.6-6.8,4.7-10.6
		c0.4-1.4,0.8-2.8,1-4.2c0.3-1.4,0.1-2.9-0.4-4.4c-0.7-2.2-1.7-3.7-3.1-4.3c-1.4-0.7-3-0.4-5,0.9c-1.5,0.9-2.9,2-4.2,3.3
		c-1.3,1.3-2.4,2.6-3.3,4.1c-4.1,6.6-7.5,13.4-10.3,20.5c-2.8,7-4.7,14.4-5.7,22.2c-0.1,1-0.1,2-0.1,2.9c0,1,0.1,2,0.3,3
		c0.1,1,0.3,2,0.4,3s0.3,2,0.3,2.9c0,0.1,0.1,0.4,0.1,0.8c0,0.4,0.1,0.7,0.1,0.8c0,0.2,0,0.5,0,0.9c0,0.4-0.1,0.8-0.3,1.2
		c-0.1,0.4-0.3,0.7-0.6,1c-0.3,0.3-0.6,0.5-1,0.5c-0.8,0.1-1.4-0.2-2-0.8c-0.5-0.6-0.9-1.5-1.1-2.5c-0.9-5.9-1.8-11.8-2.7-17.6
		c-0.9-5.8-1.8-11.7-2.8-17.6c-0.2-1.2-0.6-2.4-1-3.5c-0.5-1.1-0.9-2.3-1.2-3.4c-0.1-0.4-0.3-0.8-0.4-1.1c-0.1-0.4-0.2-0.7-0.1-1
		c0.1-1.1,0.3-1.9,0.7-2.5c0.3-0.6,0.8-1,1.2-1.2c0.7-0.3,1.4-0.1,2,0.6c0.6,0.7,1,1.4,1.3,2.1c0.2,0.5,0.3,1,0.3,1.6s0,1.1,0.1,1.6
		c0.6,3.7,1.2,7.5,1.8,11.3c0.6,3.8,1.2,7.8,1.9,12.1c1.2-3.5,2.3-6.7,3.3-9.6c1-3,2-5.9,3-8.8c1.6-4.3,3.4-8.6,5.3-12.6
		c1.9-4.1,4.3-7.9,7.2-11.5c1-1.2,2-2.3,3.2-3.4c1.2-1,2.4-2,3.7-2.7c1.1-0.7,2.3-1.1,3.4-1.2c1.2-0.1,2.3,0,3.3,0.3
		c1,0.3,2,0.9,2.8,1.8c0.8,0.8,1.5,1.9,1.9,3.1c0.5,1.3,0.7,2.8,0.8,4.3c0.1,1.5,0,2.9-0.2,4.3c-0.3,2-0.8,4-1.5,5.9
		c-0.7,1.9-1.5,3.7-2.4,5.5c-0.9,1.8-2,3.5-3.1,5.2c-1.1,1.7-2.3,3.3-3.4,5c-1.2,1.6-2.3,3.2-3.5,4.8c-1.2,1.6-2.4,3.1-3.6,4.7
		c-0.2,0.2-0.4,0.5-0.6,0.7c-0.2,0.2-0.3,0.4-0.3,0.5c0,0.1,0.1,0.2,0.3,0.1c0.2,0,0.6-0.1,1.1-0.4c0.6-0.1,1.2-0.3,1.8-0.4
		c0.6-0.1,1.2-0.3,1.8-0.5c2.2-0.7,4.4-1.3,6.7-1.7c2.2-0.4,4.6-0.5,7-0.3c3.1,0.3,5.8,1,8.1,2.1c2.2,1.1,4,2.6,5.3,4.4
		c1.3,1.8,2.1,3.9,2.3,6.4c0.3,2.5,0,5.2-0.9,8.3c-1.2,4.2-2.9,8.1-5.1,11.7c-2.2,3.6-4.9,6.9-8,9.9c-2.6,2.5-5.4,4.9-8.2,7.2
		c-2.8,2.3-5.7,4.5-8.8,6.4c-3,2-6.2,3.8-9.4,5.4c-3.3,1.6-6.6,3-10.1,4.2c-2.1,0.6-4.3,1.2-6.5,1.7c-2.2,0.5-4.4,0.7-6.6,0.8
		c-2.6,0.1-4.9-0.3-6.9-1c-2-0.8-3.5-2-4.7-3.5c-1.2-1.6-1.9-3.5-2.1-5.8s0.1-4.9,0.9-7.7c1.1-3.7,2.7-7.1,4.9-10.1
		c2.2-3,4.8-5.8,7.6-8.4c0.6-0.5,1.1-0.8,1.6-0.9C20,99.8,20.3,99.9,20.2,100.3z"/>
	<path class="st0" d="M103.6,92.9c-0.5,1.1-1,2.1-1.4,3c-0.4,0.9-0.8,1.7-1.4,2.5c-0.6,0.8-1.2,1.4-1.9,1.8s-1.4,0.6-2.1,0.6
		c-0.7,0-1.4-0.2-2.1-0.7c-0.7-0.4-1.3-1.1-1.8-1.9c-0.8-1.3-1.3-2.8-1.5-4.3c-0.2-2.1-0.4-4.1-0.6-6.2c-0.1-2.1-0.3-4.1-0.5-6.2
		c0-0.3,0-0.7,0-1.1c0-0.4,0-0.8,0.1-1.1c0.1-0.4,0.2-0.7,0.5-1c0.2-0.3,0.5-0.5,0.9-0.7c0.5-0.2,1-0.2,1.4-0.2
		c0.4,0.1,0.8,0.2,1.1,0.5c0.3,0.3,0.6,0.6,0.7,0.9c0.2,0.3,0.3,0.7,0.3,0.9c0.1,0.9,0.1,2.1-0.2,3.4c-0.3,1.3-0.4,3-0.5,4.9
		c0,0.9,0,1.7,0,2.4c0,0.7,0.1,1.4,0.2,2c0.1,0.6,0.4,1.3,0.7,2c0.3,0.7,0.8,1.5,1.4,2.3c0.3,0.4,0.6,0.2,1-0.5
		c0.4-0.7,0.8-1.7,1.1-2.9c0.3-1.2,0.6-2.5,0.9-3.9c0.3-1.4,0.4-2.6,0.4-3.6c0-0.3,0.1-0.7,0.1-1.2c0-0.5,0-0.9-0.1-1.3
		c-0.1-1.1-0.1-1.8,0.1-2.1c0.2-0.3,0.7-0.6,1.6-0.7c0.9-0.1,1.6,0,1.9,0.5c0.4,0.5,0.6,1.1,0.8,1.9c0.2,0.9,0.4,1.8,0.6,2.7
		c0.2,0.9,0.4,1.8,0.7,2.7c0.3,0.8,0.5,1.5,0.7,2c0.2,0.6,0.5,1.1,0.8,1.4c0.3,0.4,0.7,0.6,1.2,0.7c0.5,0.1,1.1,0,1.9-0.2
		c0.7-0.2,1.2-0.4,1.6-0.6c0.4-0.2,0.9-0.4,1.5-0.7c0.4-0.2,0.8-0.5,1.4-0.8c0.5-0.3,1-0.6,1.5-0.9c0.5-0.2,0.9-0.4,1.2-0.4
		c0.3,0,0.5,0.1,0.5,0.4c-0.5,0.8-1.1,1.6-1.7,2.2c-0.6,0.6-1.3,1.2-1.9,1.6c-0.6,0.4-1.2,0.8-1.7,1.1c-0.5,0.3-0.9,0.5-1.2,0.7
		c-1.6,0.7-3,0.9-4.3,0.5C106.2,95.2,104.9,94.3,103.6,92.9z"/>
	<path class="st0" d="M126.6,88c-0.3,0.7-0.5,1.4-0.8,2.1c-0.3,0.7-0.6,1.3-0.9,1.9c-0.6,0.9-1.1,1.8-1.7,2.7
		c-0.6,0.9-1.3,1.7-2,2.5c-0.6,0.6-1.4,0.9-2.2,0.7c-0.8-0.2-1.3-0.7-1.5-1.7c-0.2-1.2-0.3-2.5-0.3-4.2c0-1.6-0.1-3-0.2-4.2
		c-0.1-1.2-0.4-2.2-0.7-3c-0.3-0.8-0.5-1.8-0.6-3c0-0.3,0.1-0.6,0.6-1c0.4-0.4,0.8-0.6,1-0.7c0.9-0.2,1.6-0.1,2.2,0.1
		c0.6,0.3,0.9,0.6,1,1c0,0.6,0.1,1.5,0,2.5c0,1,0,2,0,2.9c0,1,0.1,1.8,0.2,2.6c0.1,0.8,0.4,1.3,0.7,1.5c0.1,0,0.3-0.3,0.5-0.8
		c0.2-0.5,0.5-1.1,0.7-1.8c0.3-0.7,0.5-1.5,0.8-2.2c0.3-0.8,0.5-1.4,0.7-1.9c0.3-0.8,0.8-1.5,1.3-2.1c0.5-0.6,1.2-0.8,2-0.6
		c0.6,0.2,1.2,0.6,1.7,1.2s0.9,1.3,1.2,1.9c0.5,1.4,0.8,2.8,1,4.2c0.2,1.4,0.5,2.9,0.8,4.4c0.2,2.2,0.6,4,1.2,5.4
		c0.6,1.5,1.2,3,1.9,4.6c-0.4,0.6-1,0.7-1.9,0.3c-0.9-0.3-1.6-0.9-2.3-1.8c-0.5-0.8-0.9-1.5-1.1-2.1c-0.3-0.6-0.5-1.3-0.7-2.2
		c-0.4-1.6-0.7-3.1-0.9-4.7c-0.3-1.5-0.5-3.1-0.8-4.7c0-0.3-0.1-0.5-0.3-0.6C127,87.4,126.7,87.5,126.6,88z"/>
	<path class="st0" d="M151.5,111.9c-0.6,1.2-1.2,2.4-1.8,3.5c-0.6,1.1-1.3,2.3-2,3.4c-0.5,0.8-1.1,1.5-1.7,2.2
		c-0.6,0.7-1.3,1.3-2,1.9c-1.1,0.7-2.1,1-3.1,0.8c-1-0.2-1.8-0.9-2.4-2.1c-0.4-0.8-0.7-1.7-0.9-2.6c-0.2-0.9-0.4-1.8-0.5-2.7
		c-0.6-4.9-0.8-9.8-0.4-14.6c0.4-4.8,1-9.7,1.8-14.5c0.6-3.8,1.3-7.6,2.1-11.4c0.7-3.8,1.5-7.6,2.1-11.4c0-0.2,0.1-0.4,0.2-0.7
		c0.1-0.3,0.2-0.5,0.2-0.8c0.1-0.3,0.1-0.5,0-0.6c0-0.2-0.2-0.2-0.3-0.2c-1.8,0.1-3.2,0.3-4.4,0.6c-1.2,0.3-2.2,0.7-3,1.1
		c-0.8,0.4-1.5,0.8-2.1,1.2c-0.6,0.4-1.1,0.8-1.7,1.1c-0.6,0.3-1.2,0.5-1.8,0.6c-0.7,0.1-1.5,0-2.5-0.2c0,0-0.2-0.1-0.5-0.2
		c-0.3-0.2-0.5-0.4-0.7-0.6c-0.2-0.2-0.4-0.5-0.6-0.7c-0.1-0.3-0.1-0.5,0.1-0.7c0.4-0.5,0.8-0.8,1.2-1c0.4-0.2,0.9-0.3,1.4-0.5
		c2-0.6,4-1.3,5.9-1.9c2-0.6,4-1.2,6-1.8c1.4-0.4,2.4-0.9,3.1-1.7c0.7-0.8,1.2-1.8,1.6-3.2c0.9-4,1.9-8,3-11.9
		c1.1-3.9,2.1-7.9,3.3-11.8c0.3-1.2,0.7-2.4,1.2-3.5c0.5-1.1,1-2.2,1.6-3.3c0.4-0.8,1-1.4,1.6-1.9c0.7-0.5,1.5-0.5,2.5-0.2
		c0.9,0.4,1.5,0.9,1.6,1.7c0.1,0.7,0.2,1.5,0.1,2.3c-0.1,0.8-0.2,1.5-0.3,2.3c-0.1,0.7-0.3,1.5-0.6,2.2c-1.1,4-2.2,7.9-3.4,11.8
		c-1.1,3.9-2.3,7.8-3.4,11.8c-0.1,0.4-0.2,0.7-0.3,1c-0.1,0.3,0.1,0.3,0.6,0.2c2-0.4,4-0.9,6-1.6c2-0.7,4-1.4,5.9-2
		c2-0.7,3.9-1.3,6-1.9c2-0.6,4.1-1,6.1-1.1c0.9-0.1,1.4-0.1,1.4,0c0,0.1-0.2,0.3-0.8,0.6c-0.6,0.3-1.3,0.7-2.3,1.1
		c-1,0.4-2,0.9-3.1,1.3c-1.1,0.4-2.1,0.8-3.1,1.2c-1,0.4-1.8,0.7-2.4,0.9c-2.1,0.8-4.2,1.5-6.3,2.3c-2.1,0.7-4.2,1.5-6.3,2.3
		c-1.1,0.4-2,0.9-2.7,1.6c-0.7,0.7-1.5,1.5-2.2,2.4c-1.3,1.6-2.3,3.2-3,5c-0.7,1.7-1.3,3.5-1.7,5.3c-0.4,1.8-0.8,3.6-1,5.5
		c-0.3,1.9-0.5,3.7-0.9,5.6c-0.6,3.6-1,7.2-1.3,10.8c-0.3,3.6-0.6,7.2-0.8,10.9c-0.1,2.4-0.1,4.9,0.1,7.3c0.2,2.4,0.6,4.9,1.3,7.4
		c0.2,0.4,0.5,0.6,0.9,0.4c0.4-0.1,0.8-0.4,1.3-0.9c0.5-0.4,0.9-0.9,1.3-1.5c0.4-0.6,0.7-1.1,1-1.4c1.6-2.7,3.2-5.4,4.8-8.2
		c1.6-2.7,3.2-5.4,4.8-8.2c0.5-0.8,1-1.7,1.6-2.5s1.1-1.6,1.6-2.4c0.6-0.8,0.9-1,0.9-0.8c0,0.3-0.2,0.9-0.5,1.9
		c-0.4,1-0.9,2.2-1.5,3.7c-0.6,1.5-1.3,3-2,4.5c-0.7,1.5-1.4,3-2.1,4.5C152.5,109.8,152,111,151.5,111.9z M148.2,51.7
		c0.7-1.2,1.5-2.7,2.1-4.4c0.7-1.7,1.3-3.4,1.9-5.1c0.6-1.7,1.1-3.4,1.5-5.1c0.4-1.6,0.8-3.1,1-4.3c0.2-1.2,0.3-2.1,0.2-2.6
		c-0.1-0.6-0.3-0.6-0.8-0.2c-1,3.6-2,7.3-3,10.9C150.2,44.5,149.2,48.1,148.2,51.7z"/>
	<path class="st0" d="M171.3,85.3c-1.9-0.3-3.7-0.1-5.3,0.7c-1.6,0.7-2.9,1.7-3.9,2.9c-1,1.2-1.6,2.7-1.8,4.3
		c-0.2,1.6,0.1,3.2,0.9,4.8c0.5,0.4,1,0.3,1.5-0.1c0.5-0.5,1-1.1,1.5-2s1-1.9,1.4-3c0.5-1.1,0.9-2.1,1.4-3.1
		c0.4-0.9,0.9-1.7,1.3-2.3c0.4-0.6,0.8-0.8,1.2-0.6c0.3,0.1,0.6,0.4,0.9,0.8c0.3,0.4,0.5,0.9,0.7,1.4c0.2,0.5,0.4,1.1,0.5,1.6
		c0.2,0.5,0.3,1,0.5,1.4c0.5,1.5,1,2.6,1.5,3.4c0.6,0.8,1.1,1.4,1.6,1.7c0.5,0.3,1,0.5,1.5,0.4c0.5,0,0.9-0.1,1.2-0.3
		c0.2-0.1,0.5-0.3,0.8-0.6c0.3-0.3,0.6-0.6,1-0.9c0.3-0.3,0.6-0.6,0.9-0.8c0.3-0.2,0.5-0.3,0.7-0.3c0.4,0,0.5,0.3,0.4,1
		c-0.2,0.7-0.5,1.5-0.9,2.3c-0.5,0.8-1,1.6-1.7,2.3c-0.7,0.7-1.4,1-2,1c-0.7,0-1.3-0.1-1.9-0.3c-0.6-0.2-1.2-0.6-1.8-1.1
		c-0.6-0.5-1.2-1.1-1.9-1.8c-0.7-0.7-1.4-1.6-2.3-2.6c-0.7,0.7-1.2,1.4-1.6,2.2c-0.4,0.8-0.9,1.5-1.7,2.1c-1,1-2.1,1.7-3.3,2.2
		c-1.2,0.4-2.4,0.3-3.7-0.4c-1.2-0.6-1.9-1.6-2-2.7c-0.1-1.2-0.1-2.3,0-3.5c0.2-2.1,0.8-4.1,1.6-6c0.8-1.9,2-3.6,3.6-5.1
		c0.7-0.6,1.7-1.3,2.9-2.1c1.2-0.7,2.3-1.2,3.3-1.4c0.5,0,1.1,0.1,1.8,0.4c0.7,0.3,1.3,0.7,1.7,1.2c0.5,0.5,0.7,1,0.7,1.6
		C172.4,84.4,172.1,84.9,171.3,85.3z"/>
	<path class="st0" d="M290.6,37.7c-0.3,5.7-1,11.3-2.2,16.8c-1.2,5.5-2.4,11-3.7,16.5c-1.9,8-4.1,15.9-6.5,23.7
		c-2.4,7.7-5.4,15.4-8.9,23c-1.5,3.3-3.3,6.5-5.4,9.4c-2.1,2.9-4.5,5.6-7.2,8.1c-2.3,2.1-4.7,3.8-7.2,4.9c-2.5,1.1-5,1.8-7.6,2
		c-2.5,0.2-5,0.1-7.5-0.5c-2.5-0.6-4.8-1.5-7-2.7c-2.2-1.3-4.2-2.9-6-4.7c-1.8-1.9-3.4-4-4.6-6.4c-1.5-3-2.7-6-3.5-9.1
		c-0.8-3.1-1.4-6.3-1.7-9.6c-0.1-0.7-0.2-1.4-0.5-2.2c-0.2-0.8-0.6-1.4-1.1-1.9c-2.4-2.5-4.4-5.1-5.8-7.8c-1.4-2.7-2.4-5.5-3-8.5
		s-0.8-5.9-0.6-9c0.2-3.1,0.6-6.3,1.3-9.6c2.1-9.8,5.6-18.8,10.6-26.9c4.9-8.2,11-15.5,18.4-22.1c4.8-4.3,9.9-7.8,15.4-10.4
		c5.5-2.6,11.6-4,18.3-4.2c3.4-0.1,6.5,0.4,9.5,1.5c2.9,1.1,5.5,2.6,7.7,4.6c2.2,2,4,4.4,5.4,7.1c1.4,2.7,2.3,5.7,2.7,8.9
		c0.2,1.5,0.4,3.1,0.4,4.6C290.5,34.6,290.5,36.1,290.6,37.7z M215.1,108.7c0.2,4,0.9,7.8,1.9,11.3c1,3.5,2.7,6.7,4.9,9.6
		c1.8,2.4,3.9,4.3,6.3,5.9c2.4,1.6,5,2.6,7.8,3.2c2.7,0.5,5.6,0.5,8.5-0.2c2.9-0.7,5.7-2.1,8.5-4.3c2.8-2.2,5.2-4.7,7.2-7.3
		c2-2.7,3.8-5.5,5.4-8.6c3.3-6.2,6-12.6,8.1-19.2c2.1-6.6,4.2-13.3,6.1-20c1.1-4,2.1-7.9,3.1-11.9c0.9-3.9,1.8-8,2.6-12
		c1-4.6,1.7-9.2,2.1-13.9c0.5-4.6,0.3-9.3-0.5-14.1c-0.5-2.7-1.3-5.1-2.6-7.4c-1.2-2.2-2.8-4.2-4.7-5.8c-1.9-1.6-4-2.9-6.4-3.8
		c-2.4-0.9-4.9-1.4-7.6-1.5c-4.6-0.1-8.9,0.6-13,2c-4.1,1.4-8,3.4-11.8,5.9c-9.6,6.5-17.4,14.2-23.4,23.1c-6,8.9-10.2,19-12.5,30.4
		c-0.6,3.1-1.1,6.3-1.2,9.4c-0.2,3.1,0.1,6.3,0.9,9.5c0.6,2.2,1.4,4.4,2.3,6.4c0.9,2.1,2.3,4,4.1,5.8c0.1,0.2,0.3,0.3,0.3,0.2
		c0.1-0.1,0.1-0.3,0.2-0.5c0-0.3,0-0.5,0-0.8s0-0.5,0-0.6c0.1-4.7,0.7-9.3,1.6-13.8c0.9-4.5,2.1-8.9,3.7-13.4c0.6-1.8,1.3-3.8,2-5.7
		c0.7-2,1.5-3.9,2.3-5.8c0.8-1.9,1.8-3.7,2.8-5.5c1-1.8,2.2-3.4,3.6-4.9c0.7-0.8,1.6-1.7,2.5-2.6c0.9-0.9,1.9-1.7,2.9-2.2
		c0.4-0.2,0.9-0.4,1.6-0.6c0.6-0.2,1.3-0.3,2-0.3c0.7,0,1.3,0.2,1.9,0.5c0.6,0.3,1.1,0.8,1.5,1.6c0.3,0.9,0.4,1.7,0.1,2.2
		c-0.2,0.6-0.7,1-1.3,1.4c-0.6,0.4-1.4,0.7-2.3,1c-0.9,0.3-1.9,0.7-2.9,1.2c-1,0.5-2,1.1-3.1,1.9c-1,0.8-2,1.8-2.9,3
		c-4.2,6.7-7.3,13.6-9.4,20.9c-2.1,7.2-3.2,14.8-3.6,22.7c0,0.7,0,1.4,0,1.9c0.1,0.5,0.2,1,0.5,1.4c0.2,0.4,0.6,0.8,1.1,1.2
		c0.5,0.4,1.2,0.8,2,1.2c2.4,1.2,4.8,2,7.2,2.6c2.4,0.6,5,0.9,7.6,1c0.4,0,0.9,0,1.6,0c0.6,0,1.3,0.1,2,0.1c0.7,0,1.3,0.1,2,0.2
		c0.6,0.1,1.2,0.1,1.6,0.2c0.4,0.2,0.3,0.4-0.1,0.6c-0.4,0.2-1.1,0.4-2,0.6c-3.9,0.7-7.8,0.7-11.5-0.1
		C222.8,111.4,219,110.2,215.1,108.7z"/>
	<path class="st0" d="M308.4,111.9c-0.6,1.2-1.2,2.4-1.8,3.5c-0.6,1.1-1.3,2.3-2,3.4c-0.5,0.8-1.1,1.5-1.7,2.2
		c-0.6,0.7-1.3,1.3-2,1.9c-1.1,0.7-2.1,1-3.1,0.8c-1-0.2-1.8-0.9-2.4-2.1c-0.4-0.8-0.7-1.7-0.9-2.6s-0.4-1.8-0.5-2.7
		c-0.6-4.9-0.8-9.8-0.4-14.6c0.4-4.8,1-9.7,1.8-14.5c0.6-3.8,1.3-7.6,2.1-11.4c0.7-3.8,1.5-7.6,2.1-11.4c0-0.2,0.1-0.4,0.2-0.7
		c0.1-0.3,0.2-0.5,0.2-0.8c0.1-0.3,0.1-0.5,0-0.6c0-0.2-0.2-0.2-0.3-0.2c-1.8,0.1-3.2,0.3-4.4,0.6c-1.2,0.3-2.2,0.7-3,1.1
		c-0.8,0.4-1.5,0.8-2.1,1.2c-0.6,0.4-1.1,0.8-1.7,1.1c-0.6,0.3-1.2,0.5-1.8,0.6c-0.7,0.1-1.5,0-2.5-0.2c0,0-0.2-0.1-0.5-0.2
		c-0.3-0.2-0.5-0.4-0.7-0.6c-0.2-0.2-0.4-0.5-0.6-0.7c-0.1-0.3-0.1-0.5,0.1-0.7c0.4-0.5,0.8-0.8,1.2-1c0.4-0.2,0.9-0.3,1.4-0.5
		c2-0.6,4-1.3,5.9-1.9c2-0.6,4-1.2,6-1.8c1.4-0.4,2.4-0.9,3.1-1.7c0.7-0.8,1.2-1.8,1.6-3.2c0.9-4,1.9-8,3-11.9
		c1.1-3.9,2.1-7.9,3.3-11.8c0.3-1.2,0.7-2.4,1.2-3.5c0.5-1.1,1-2.2,1.6-3.3c0.4-0.8,1-1.4,1.6-1.9c0.7-0.5,1.5-0.5,2.5-0.2
		c0.9,0.4,1.5,0.9,1.6,1.7c0.1,0.7,0.2,1.5,0.1,2.3c-0.1,0.8-0.2,1.5-0.3,2.3c-0.1,0.7-0.3,1.5-0.6,2.2c-1.1,4-2.2,7.9-3.4,11.8
		c-1.1,3.9-2.3,7.8-3.4,11.8c-0.1,0.4-0.2,0.7-0.3,1c-0.1,0.3,0.1,0.3,0.6,0.2c2-0.4,4-0.9,6-1.6c2-0.7,4-1.4,5.9-2
		c2-0.7,3.9-1.3,6-1.9c2-0.6,4.1-1,6.1-1.1c0.9-0.1,1.4-0.1,1.4,0c0,0.1-0.2,0.3-0.8,0.6c-0.6,0.3-1.3,0.7-2.3,1.1
		c-1,0.4-2,0.9-3.1,1.3c-1.1,0.4-2.1,0.8-3.1,1.2c-1,0.4-1.8,0.7-2.4,0.9c-2.1,0.8-4.2,1.5-6.3,2.3c-2.1,0.7-4.2,1.5-6.3,2.3
		c-1.1,0.4-2,0.9-2.7,1.6c-0.7,0.7-1.5,1.5-2.2,2.4c-1.3,1.6-2.3,3.2-3,5c-0.7,1.7-1.3,3.5-1.7,5.3c-0.4,1.8-0.8,3.6-1,5.5
		c-0.3,1.9-0.5,3.7-0.9,5.6c-0.6,3.6-1,7.2-1.3,10.8c-0.3,3.6-0.6,7.2-0.8,10.9c-0.1,2.4-0.1,4.9,0.1,7.3s0.6,4.9,1.3,7.4
		c0.2,0.4,0.5,0.6,0.9,0.4c0.4-0.1,0.8-0.4,1.3-0.9c0.5-0.4,0.9-0.9,1.3-1.5c0.4-0.6,0.7-1.1,1-1.4c1.6-2.7,3.2-5.4,4.8-8.2
		c1.6-2.7,3.2-5.4,4.8-8.2c0.5-0.8,1-1.7,1.6-2.5c0.6-0.8,1.1-1.6,1.6-2.4c0.6-0.8,0.9-1,0.9-0.8c0,0.3-0.2,0.9-0.5,1.9
		c-0.4,1-0.9,2.2-1.5,3.7c-0.6,1.5-1.3,3-2,4.5c-0.7,1.5-1.4,3-2.1,4.5C309.4,109.8,308.9,111,308.4,111.9z M305.1,51.7
		c0.7-1.2,1.5-2.7,2.1-4.4c0.7-1.7,1.3-3.4,1.9-5.1c0.6-1.7,1.1-3.4,1.5-5.1c0.4-1.6,0.8-3.1,1-4.3c0.2-1.2,0.3-2.1,0.2-2.6
		c-0.1-0.6-0.3-0.6-0.8-0.2c-1,3.6-2,7.3-3,10.9C307.1,44.5,306.1,48.1,305.1,51.7z"/>
	<path class="st0" d="M323.8,103.3c1.5-1.6,2.9-3.1,4.2-4.4c1.3-1.3,2.7-2.6,4-3.9s2.6-2.5,3.9-3.7c1.3-1.2,2.7-2.4,4.1-3.7
		c0.1-0.1,0.2-0.1,0.2,0.1c0,0.2-0.1,0.6-0.3,1c-0.2,0.5-0.6,1.1-1.1,1.9c-0.5,0.8-1.3,1.7-2.3,2.8c-1.1,1.2-1.9,2.2-2.6,3
		c-0.6,0.8-1.2,1.5-1.8,2.2c-0.6,0.7-1.2,1.4-1.8,2.1c-0.6,0.8-1.5,1.7-2.6,2.9c-2.4,2.6-3.5,5.7-3.5,9.2c0,1.4-0.2,2.9-0.3,4.4
		c-0.2,1.6-0.3,2.8-0.5,3.7c-0.1,0.4-0.2,0.8-0.3,1.3s-0.3,0.9-0.6,1.4c-0.3,0.4-0.5,0.8-0.9,1c-0.3,0.3-0.7,0.4-1.1,0.3
		c-1.8-0.5-3-1.3-3.7-2.3c-0.7-1-1.1-2.2-1.1-3.7c0-0.8,0.1-1.6,0.3-2.3c0.2-0.7,0.4-1.4,0.8-2c0.3-0.6,0.7-1.2,1-1.8
		c0.4-0.6,0.7-1.2,1-1.8c0.7-1.4,1.1-2.7,1.2-4c0.1-1.3-0.2-2.6-0.8-3.9c-1.1-2.5-2.1-5-3.2-7.3c-1.1-2.3-2.2-4.7-3.4-7
		c-0.8-1.5-1.2-2.9-1.3-4.4c-0.1-1.5,0.1-2.8,0.7-4c0.6-1.2,1.4-2.2,2.5-3.1c1.1-0.9,2.5-1.5,4.2-1.9c0.5-0.1,1.2-0.1,2.2,0
		s1.9,0.3,2.6,0.7c0.8,0.5,1.4,1,1.7,1.7c0.3,0.7,0.5,1.3,0.4,2c0,0.7-0.2,1.3-0.5,1.8c-0.3,0.6-0.7,0.9-1.1,1.2
		c-1.1,0.3-2,0.4-2.5,0.2c-0.6-0.1-1.1-0.3-1.4-0.6c-0.4-0.3-0.7-0.5-1-0.7c-0.3-0.2-0.7-0.3-1.1-0.3c-0.4,0-0.8,0.1-1.2,0.3
		c-0.4,0.2-0.8,0.5-1,0.9s-0.4,0.9-0.4,1.6c0,0.6,0.2,1.4,0.6,2.2c0.6,1.5,1.4,2.9,2.2,4.3c0.8,1.4,1.6,2.8,2.3,4.3
		c0.6,1.2,1.2,2.5,1.7,3.9C322.6,100.3,323.1,101.8,323.8,103.3z"/>
	<path class="st0" d="M350.7,92.9c-0.5,1.1-1,2.1-1.4,3s-0.8,1.7-1.4,2.5c-0.6,0.8-1.2,1.4-1.9,1.8s-1.4,0.6-2.1,0.6
		s-1.4-0.2-2.1-0.7c-0.7-0.4-1.3-1.1-1.8-1.9c-0.8-1.3-1.3-2.8-1.5-4.3c-0.2-2.1-0.4-4.1-0.6-6.2c-0.1-2.1-0.3-4.1-0.5-6.2
		c0-0.3,0-0.7,0-1.1c0-0.4,0-0.8,0.1-1.1c0.1-0.4,0.2-0.7,0.5-1c0.2-0.3,0.5-0.5,0.9-0.7c0.5-0.2,1-0.2,1.4-0.2
		c0.4,0.1,0.8,0.2,1.1,0.5c0.3,0.3,0.6,0.6,0.7,0.9c0.2,0.3,0.3,0.7,0.3,0.9c0.1,0.9,0.1,2.1-0.2,3.4c-0.3,1.3-0.4,3-0.5,4.9
		c0,0.9,0,1.7,0,2.4c0,0.7,0.1,1.4,0.2,2c0.1,0.6,0.4,1.3,0.7,2c0.3,0.7,0.8,1.5,1.4,2.3c0.3,0.4,0.6,0.2,1-0.5
		c0.4-0.7,0.8-1.7,1.1-2.9s0.6-2.5,0.9-3.9c0.3-1.4,0.4-2.6,0.4-3.6c0-0.3,0.1-0.7,0.1-1.2c0-0.5,0-0.9-0.1-1.3
		c-0.1-1.1-0.1-1.8,0.1-2.1c0.2-0.3,0.7-0.6,1.6-0.7c0.9-0.1,1.6,0,1.9,0.5c0.4,0.5,0.6,1.1,0.8,1.9c0.2,0.9,0.4,1.8,0.6,2.7
		c0.2,0.9,0.4,1.8,0.7,2.7c0.3,0.8,0.5,1.5,0.7,2c0.2,0.6,0.5,1.1,0.8,1.4c0.3,0.4,0.7,0.6,1.2,0.7c0.5,0.1,1.1,0,1.9-0.2
		c0.7-0.2,1.2-0.4,1.6-0.6c0.4-0.2,0.9-0.4,1.5-0.7c0.4-0.2,0.8-0.5,1.4-0.8c0.5-0.3,1-0.6,1.5-0.9c0.5-0.2,0.9-0.4,1.2-0.4
		s0.5,0.1,0.5,0.4c-0.5,0.8-1.1,1.6-1.7,2.2c-0.6,0.6-1.3,1.2-1.9,1.6c-0.6,0.4-1.2,0.8-1.7,1.1c-0.5,0.3-0.9,0.5-1.2,0.7
		c-1.6,0.7-3,0.9-4.3,0.5C353.3,95.2,352,94.3,350.7,92.9z"/>
	<path class="st0" d="M368.1,89.4c0,0.3,0.2,0.3,0.5,0.1c0.3-0.2,0.8-0.5,1.2-0.8c0.5-0.3,1-0.7,1.5-1.1c0.5-0.4,1-0.6,1.4-0.8
		c0.3-0.1,0.6-0.2,0.9-0.3c0.3-0.1,0.6-0.2,0.9-0.3c0.3-0.1,0.6-0.1,0.8,0c0.3,0.1,0.5,0.3,0.6,0.7c0.2,0.5,0.1,1-0.1,1.5
		c-0.3,0.5-0.5,0.9-0.7,1.3c-0.4,0.6-0.8,1.3-1.4,1.9c-0.5,0.6-1.1,1.3-1.8,2.1c0.7,0.6,1.5,1,2.5,1.4c0.9,0.4,1.8,0.7,2.6,1
		c0.8,0.3,1.5,0.5,2,0.7c0.5,0.2,0.7,0.3,0.6,0.4c-0.7,1-1.5,1.5-2.3,1.7c-0.8,0.2-1.6,0.2-2.4,0c-0.8-0.2-1.7-0.4-2.5-0.7
		c-0.9-0.3-1.8-0.4-2.6-0.3c-0.3,1-0.6,2.1-0.9,3.1c-0.3,1.1-0.6,2.1-0.9,3.2c-0.2,0.5-0.4,1-0.5,1.6c-0.2,0.5-0.4,1-0.7,1.4
		c-0.2,0.2-0.5,0.4-0.9,0.6s-0.8,0.2-1.1,0.1c-0.3-0.1-0.6-0.3-0.8-0.7s-0.4-0.7-0.4-0.9c-0.1-0.7-0.1-1.4,0-2.1
		c0.1-0.7,0.2-1.4,0.2-2.1c0-1.2,0.1-2.6,0.1-4.1c0-1.5,0.1-3,0.1-4.6c0-1.6,0.1-3.2,0.1-4.8c0-1.6,0.1-3.1,0.1-4.6
		c-0.1,0-0.3,0-0.5,0.1s-0.3,0.3-0.5,0.5c-0.2,0.2-0.4,0.4-0.5,0.7c-0.2,0.2-0.3,0.4-0.4,0.6c-0.4,0.6-1,1.3-1.7,2
		c-0.7,0.7-1.2,1-1.4,1c-0.3-0.1-0.3-0.4-0.1-0.8c0.2-0.4,0.4-0.8,0.6-1.1c0.3-0.6,0.6-1.2,1-1.8c0.4-0.5,0.8-1.1,1.2-1.8
		c1.2-1.6,2-3.7,2.5-6.3c0.5-2.6,0.9-5.2,1.2-7.9c0.7-6,1.5-12,2.6-17.9c1-5.9,2.5-11.7,4.4-17.5c0.3-0.9,0.7-1.8,1.2-2.8
		c0.5-0.9,0.9-1.8,1.5-2.6c1-1.6,2.1-2.7,3.4-3.2c1.2-0.5,2.6-0.6,4.1-0.1c1.3,0.4,2.2,1.1,2.8,2.2c0.6,1.1,0.9,2.6,0.9,4.5
		c0.1,5.4-0.6,10.5-2,15.4c-1.5,4.9-3.4,9.7-5.7,14.3c-1.5,2.9-3,5.8-4.6,8.6c-1.6,2.8-3.2,5.6-4.9,8.4c-0.9,1.6-1.5,3.3-1.7,5
		C367.4,85.5,367.6,87.4,368.1,89.4z M369.3,72.5c2.4-3.7,4.6-7.4,6.7-11.2s3.7-7.7,4.9-11.9c0.8-2.7,1.4-5.4,1.8-8.1
		c0.4-2.7,0.8-5.5,1.2-8.2c0.1-0.8,0.1-1.6-0.1-2.5c-0.2-0.9-0.8-1.4-1.9-1.8c-1.2-0.3-2.1-0.2-2.7,0.5c-0.7,0.6-1.2,1.4-1.6,2.2
		c-0.6,1.3-1.2,2.7-1.8,4c-0.6,1.3-1,2.7-1.4,4.2c-1.5,5.4-2.7,10.7-3.7,16.2C369.8,61.3,369.3,66.8,369.3,72.5z"/>
	<path class="st0" d="M387.3,81.9c0.3,0.3,0.5,0.7,0.5,1.3c0,0.6-0.2,1.3-0.4,2c-0.2,0.7-0.5,1.5-0.8,2.3c-0.3,0.8-0.5,1.5-0.7,2.2
		c-0.2,0.8-0.3,1.8-0.3,3c0,1.2,0,2.3,0.1,3.4c0.1,1.1,0.3,2,0.6,2.7c0.3,0.7,0.6,1.1,1,1c0.7,0,1.5-0.1,2.3-0.4
		c0.8-0.3,1.5-0.9,2-1.7c0.2-0.3,0.3-0.5,0.5-0.6c0.1-0.1,0.2-0.3,0.3-0.4c0.1-0.2,0.2-0.4,0.4-0.6c0.1-0.2,0.3-0.6,0.6-1.1
		c0.6-0.8,1-1.1,1.3-0.8c0.3,0.2,0.3,0.7,0,1.5c-0.2,0.5-0.5,1.1-0.8,1.8c-0.3,0.7-0.9,1.7-1.8,2.9c-0.3,0.4-0.7,0.8-1.3,1.4
		c-0.6,0.6-1.1,0.9-1.4,1.2c-1.3,0.9-2.6,1.2-3.8,0.9c-1.2-0.3-2-1.3-2.3-2.8c-0.4-1.6-0.6-3.2-0.6-4.8c0-1.6,0-3.2-0.1-4.8
		c0-1.1,0-2.1,0.1-3.2c0.1-1.1,0.2-2.1,0.1-3.2c0-0.9,0-1.6,0.1-2.3s0.3-1.1,0.7-1.4c0.3-0.3,0.8-0.5,1.4-0.4
		C385.5,81.1,386.3,81.4,387.3,81.9z M387.3,74c0.4,0.3,0.6,0.7,0.8,1.4c0.2,0.6,0.1,1.2-0.2,1.5c-0.4,0.4-0.8,0.8-1.3,1.1
		c-0.5,0.3-1,0.6-1.5,0.8c-0.1,0-0.2-0.1-0.4-0.2c-0.2-0.1-0.3-0.3-0.5-0.5c-0.2-0.2-0.3-0.4-0.5-0.7c-0.1-0.3-0.2-0.5-0.2-0.6
		c0.1-0.6,0.3-1.2,0.6-1.7c0.3-0.6,0.6-1.1,0.8-1.7c0.5-0.3,0.9-0.3,1.3-0.1C386.7,73.6,387,73.8,387.3,74z"/>
</g>
</svg>
