<?xml version="1.0" encoding="utf-8"?>
<!-- Generator: Adobe Illustrator 24.0.1, SVG Export Plug-In . SVG Version: 6.00 Build 0)  -->
<svg version="1.1" id="レイヤー_1" xmlns="http://www.w3.org/2000/svg" xmlns:xlink="http://www.w3.org/1999/xlink" x="0px"
	 y="0px" width="400px" height="261.8px" viewBox="0 0 400 261.8" style="enable-background:new 0 0 400 261.8;"
	 xml:space="preserve">
<path d="M228.6,148.1c-9.9,1.7-17.9,10.7-17.9,20.1v28.6c0,5.7-1.7,15.8-12.9,18.7c4.9-0.7,10.9-0.4,14.1,1.8
	c3.5,2.4,7.1,3.4,14,3.6c11.1,0.4,20.7-7.2,20.7-20.1v-38.7C246.5,152.7,238.5,146.4,228.6,148.1 M236.3,202.5
	c0,4.1-3.4,7.9-7.7,8.7c-4.2,0.7-7.7-2-7.7-6.1v-38.7c0-4,3.4-7.8,7.7-8.5c4.2-0.7,7.7,1.9,7.7,5.9V202.5z M133.2,219.3
	c-0.7,0-1.5-0.1-2.3-0.3C131.7,219.1,132.4,219.2,133.2,219.3 M163.6,220.4c0,4.8-12.8,1.2-12.8-6.9c0-7.3,4.7-11.7,9.8-16.1
	c5.2-4.5,8.1-11,8.1-17.9v-0.1v-4.1c0-4-3.4-6.6-7.7-5.9s-7.7,4.5-7.7,8.5v4.1c-0.1,1.3-0.2,2.8-0.6,4.6l0,0.1
	c-1.3,2.7-3.5,4.9-6.1,6.4c-6.5,3.8-11.8,11-11.8,18.3c-2.1-1.1-5-0.9-7.1,0.3c-2.3,1.3-2.2,4.9,0.2,6.2c0.9,0.5,2,0.9,3.1,1.1
	c-13.1-1.7-33.8-1.3-44.4,5.9c-0.3-12.7,35.5-18.8,43.2-22.7c8.4-4.3,13.4-13.1,13.4-22.6v0c0-9.4,8-18.4,17.9-20.1
	c9.9-1.7,17.9,4.6,17.9,14v4.1c0,0,0.3,15.2-5.3,18.8C161.4,204.3,163.6,210.3,163.6,220.4 M105.4,241.4
	c-3.2,9.5-15.8,15.5-27.8,16.1c-19.9,1-49.3-1.2-57.1-16.6c-24.7-49.3,76.1-37.8,76.1-53.1v-30.2l10.2-1.7v25.6c0,8-4.1,11.5-9.9,13
	c-29.7,7.7-68.2,15.9-55.1,43.9c7.9,16.9,50.7,21.7,53.9,5.7c-0.1-9.2-13.8,4.9-25.7,4.1c-28.3-1.9-26.9-23.8-25.6-20.6
	c4.8,11.9,20.4,10.5,17.1,5.6c-2.2-5.3-4.6-11.6-2.2-17.7c5.7-14.6,38.7-9.6,54.9-14.2c1.4-0.4,2.8-1,4-2c1.9-1.5,2.6-3.2,3.2-5
	c0.8-2.5,0.9-4.7,0.9-6.8v-34.2l10.2-1.7v27.8v6.4c0,9.9-6.6,14.9-11,15.8c-27.6,5.6-71.7,12.1-50.9,32.1c6.4,8.2,18.3-3.5,31.8,0.3
	C106.3,235.2,105.4,239.8,105.4,241.4 M301.3,168.6c-9.1,5.6-10.2,14.2-10.2,25v6.1l-10.2,1.7v-17.1c0-9.9,2.2-21,12.4-21
	c28.8,0,10.6-15.8-1.9-17.3c-18.9-2.3-25.9,13.3-25.9,28.1v40.6l-10.2,1.7v-60.6c0-17,13.9-29.3,34.3-16.7
	c19,11.8,33.6-9.2,3.1-13.8v-0.2C335.3,128.7,315.7,159.8,301.3,168.6 M199.7,184.3c0,16.4-5.1,35.9-27.1,35.5c0,0,2.1-8.7,8.3-10.2
	c8.3-2.1,8.5-17,8.5-20.3v-31.7l10.2-1.7V184.3z M16.1,94.9v81.4l-10.2,1.7V96.6c0-9.4,8-18.4,17.9-20.1c5-0.8,9.5,0.4,12.8,3
	c3.3-3.7,7.8-6.4,12.8-7.3c9.9-1.7,17.9,4.6,17.9,14v81.4L57,169.4V88c0-4-3.4-6.6-7.7-5.9c-4.2,0.7-7.6,4.4-7.7,8.3
	c0,0.1,0,0.1,0,0.2V172l0,0l-10.2,1.7l0,0V92.3c0-0.1,0-0.1,0-0.2c-0.1-3.9-3.5-6.4-7.7-5.7C19.5,87.1,16.1,90.9,16.1,94.9
	 M94.8,150.4c9.9-1.7,17.9-10.7,17.9-20.2V91.5c0-9.4-8-15.7-17.9-14c-9.9,1.7-17.9,10.7-17.9,20.1v38.7
	C76.9,145.7,84.9,152,94.8,150.4 M87.1,95.8c0-4,3.4-7.8,7.7-8.5c4.2-0.7,7.7,1.9,7.7,5.9v38.7c0,4.1-3.4,7.9-7.7,8.7
	c-4.2,0.7-7.7-2-7.7-6.1V95.8z M228.6,54.9c-9.9,1.7-17.9,10.7-17.9,20.1v38.7c0,9.5,8,15.8,17.9,14.2c9.9-1.7,17.9-10.7,17.9-20.2
	V68.9C246.5,59.5,238.5,53.2,228.6,54.9 M236.3,109.3c0,4.1-3.4,7.9-7.7,8.7c-4.2,0.7-7.7-2-7.7-6.1V73.2c0-4,3.4-7.8,7.7-8.5
	c4.2-0.7,7.7,1.9,7.7,5.9V109.3z M279.4,119.3c8.4,0.3,16.8-7.6,25.2-12.8c3.5-2.2,6-5.6,6.7-9.7c0,0,0-0.1,0-0.1
	c1.2-8.1,2.5-14.6,6.6-17.2c8.8-5.7,9.5-14.2,4.3-20.4c-3-3.5-3.3,4-9.9-0.5c-4-2.7-9.5-2.5-12.4-2.6c-3.7,0.2-7.7,0.6-11.6,1.5
	c-7.6,1.9-12.9,8.7-12.9,16.6v18.6c0,5.7-0.3,7.5,0,10C276,108,268.1,117.5,279.4,119.3 M285.6,101c0.1-1.5,0-2.4,0-6V81.6
	c0.1-3.2,0.1-6.3,1.2-8.3c1.7-9.1,9.7-10.4,17.7-8.5c9.1,1.6,7.4,12.4,2.2,15.9c-6.9,4.7-5.9,13-5.7,17.7c0.1,2-1.4,4.5-4.5,5.4
	c-4.2,1.3-13.8,10.6-15,8.1C279.6,107.7,285.4,105.4,285.6,101 M132.5,144l-10.2,1.7V89.9c0-9.4,8-18.4,17.9-20.1
	c9.9-1.7,17.9,4.6,17.9,14v55.9l-10.2,1.7V85.6c0-4-3.4-6.6-7.7-5.9c-4.2,0.7-7.7,4.5-7.7,8.5V144z M255.2,123.3V37.8l10.2-1.7v72.2
	c0,6.1-1.1,15.1,0.4,19.5c-1.4,0-4.8-3.4-6.2-3.9C257.8,122.8,255.2,123.3,255.2,123.3 M330.2,118.6c-2-2.3-4.2-3.9-6.3-5
	c-2.2-1.1-5-2.2-7.6-2.9c-5.2-1.4-9.4-1.3-9.4-1.3c0.5-0.6,3.9-0.6,7.5-0.5c3.6,0.1,5.9-0.8,5.7-2.8c-0.6-9.6,4.9-8.3,8.9-21.3
	c3.9-12.7,9.1-26.8-3.7-38.5c0-1.6,1.7-9.2,3.4-7.4c-0.8,3.2,12.6,4.7,13.1,13.2c0.6,2,1,4.1,1.2,6.3c0.5,4.3,0.3,8.8-0.4,12.5
	c-0.4,3.2-1.1,6.2-2.4,9.7C336.6,93.2,328.6,104.1,330.2,118.6 M311.1,30.4c1.4-2.4,4.9-2.4,7.7-0.6c3.4,1.9,5,5.2,3.4,8.3
	C317.4,44.4,309.3,36.1,311.1,30.4 M199.6,145.4c0.6,3.1-1.3,6-4.3,6.5c-3,0.5-6-1.5-6.6-4.6c-0.6-3.1,1.3-6,4.3-6.5
	C196,140.3,198.9,142.3,199.6,145.4 M184.4,96.7c9.9-1.7,17.9-10.7,17.9-20.2s-8-15.8-17.9-14.2c-9.9,1.7-17.9,10.7-17.9,20.2
	S174.5,98.4,184.4,96.7 M184.4,72.2c4.2-0.7,7.7,2,7.7,6.1c0,4.1-3.4,7.9-7.7,8.7c-4.2,0.7-7.7-2-7.7-6.1
	C176.7,76.8,180.2,72.9,184.4,72.2 M184.4,136c9.9-1.7,17.9-10.7,17.9-20.2s-8-15.8-17.9-14.2c-9.9,1.7-17.9,10.7-17.9,20.2
	S174.5,137.7,184.4,136 M184.4,111.4c4.2-0.7,7.7,2,7.7,6.1c0,4.1-3.4,7.9-7.7,8.7c-4.2,0.7-7.7-2-7.7-6.1
	C176.7,116,180.2,112.2,184.4,111.4 M188.6,54.1c-0.6-3.1,1.3-6,4.3-6.5c3-0.5,6,1.5,6.6,4.6c0.6,3.1-1.3,6-4.3,6.5
	C192.2,59.2,189.3,57.2,188.6,54.1 M395.3,21.5c-5.8-19.7-26.6-20.8-38.1-10.9c-0.1,0.1-0.3,0.2-0.4,0.4l-0.1,0
	c-4.7,4-17.2,14.9-12.2,39.3c0,0-1.7-19,6.3-28.4c2.4-2.8,6.3-2.9,8.8-0.2c2.5,2.7,6,4.4,9.2,3.3c3.3-1.2,2-4.1,2-7.3
	c5.4,3.4,10.6,8.3,5.4,21.1c-7.2,17.8-17.8,8.2-26.2,17.6c0.6,4.4,1.5,7.3-1.6,9.1c0.2,4.3-0.9,6.1-2.2,8.9
	c-5.7,12.5-9.7,28.4-6.6,43.3c0.5,2.4,1.4,4.6,2.7,6.5c3.6,3.4,7.1,6.4,10.1,6.1c2,0,4.1-0.7,6.2-2.2c1.4-0.7,2.4-2.3,3-4.1
	c0.9-2.4,1-5.1,0.5-7.7c-3.5-17.5-1.9-37.7,12.6-47.2C382.4,63.9,402,44.5,395.3,21.5 M377.1,61.4c-1.4,1.7-3.1,2.9-4.8,4
	c-1,1.1-2.1,2.1-3.2,2.8c-5,3.4-9.5,7.6-13.2,12.8v0c-6.3,10.3-0.9,22.4-2.3,34.2c-0.3,2.3-1.7,4.2-3.6,4.7c-0.9,0.2-2.3-0.4-3.3-2
	c-12.2-19.8,1.3-44.5,16.1-53c11.1-6.4,13.8-13.8,15.2-20C378.5,46.2,383.8,53.2,377.1,61.4"/>
</svg>
