<?xml version="1.0" encoding="utf-8"?>
<!-- Generator: Adobe Illustrator 22.1.0, SVG Export Plug-In . SVG Version: 6.00 Build 0)  -->
<svg version="1.1" xmlns="http://www.w3.org/2000/svg" xmlns:xlink="http://www.w3.org/1999/xlink" x="0px" y="0px"
	 viewBox="0 0 600 370" style="enable-background:new 0 0 600 370;" xml:space="preserve">
<style type="text/css">
	.st0{display:none;}
	.st1{display:inline;fill:none;stroke:#F4BF20;stroke-width:12.9291;stroke-miterlimit:10;}
	.st2{display:inline;fill:none;stroke:#98C746;stroke-width:12.9291;stroke-miterlimit:10;}
	.st3{display:inline;fill:none;stroke:#2F6AB2;stroke-width:12.9291;stroke-miterlimit:10;}
	.st4{display:inline;}
	.st5{fill:#CF5E9E;}
	.st6{fill:#FFFFFF;}
	.st7{display:inline;fill:none;stroke:#CF5E9E;stroke-width:12.9291;stroke-miterlimit:10;}
	.st8{fill:#2A2B2B;}
	.st9{font-family:'Honoka-Antique-Kaku';}
	.st10{font-size:64.5551px;}
	.st11{letter-spacing:4;}
	.st12{letter-spacing:3;}
	.st13{letter-spacing:5;}
	.st14{letter-spacing:2;}
	.st15{display:inline;fill:#2A2B2B;}
	.st16{display:inline;fill:#C91138;}
	.st17{fill:#2F6AB2;}
	.st18{fill:#98C746;}
	.st19{fill:#F4BF20;}
	.st20{fill:#C91138;}
</style>
<g id="olå‰" class="st0">
	<line class="st1" x1="176.2" y1="318.8" x2="176.2" y2="50.2"/>
	<line class="st2" x1="143.1" y1="252.7" x2="143.1" y2="50.2"/>
	<line class="st3" x1="110" y1="252.7" x2="110" y2="50.2"/>
	<g class="st4">
		<path class="st5" d="M77,261.3c-4.8,0-8.6-3.9-8.6-8.6V48h17.2v196h432.2v17.2H77z"/>
		<path class="st6" d="M83.4,50.2v196h432.2v12.9H77c-3.6,0-6.5-2.9-6.5-6.5V50.2H83.4 M87.7,45.9h-4.3H70.5h-4.3v4.3v202.5
			c0,5.9,4.8,10.8,10.8,10.8h438.6h4.3v-4.3v-12.9v-4.3h-4.3H87.7V50.2V45.9L87.7,45.9z"/>
	</g>
	<polyline class="st7" points="515.6,252.7 77,252.7 77,50.2 	"/>
	<text transform="matrix(1 0 0 1 201.0947 106.1865)" class="st4"><tspan x="0" y="0" class="st8 st9 st10 st11">THE</tspan><tspan x="0" y="64.6" class="st8 st9 st10 st11">UK</tspan><tspan x="99.7" y="64.6" class="st8 st9 st10 st12">U</tspan><tspan x="150.1" y="64.6" class="st8 st9 st10 st13">L</tspan><tspan x="191.3" y="64.6" class="st8 st9 st10 st11">E</tspan><tspan x="234.4" y="64.6" class="st8 st9 st10 st13">L</tspan><tspan x="275.6" y="64.6" class="st8 st9 st10 st11">E</tspan><tspan x="0" y="129.1" class="st8 st9 st10 st11">C</tspan></text>
	<text transform="matrix(1 0 0 1 295.9102 235.2969)" class="st4"><tspan x="0" y="0" class="st8 st9 st10 st14">N</tspan><tspan x="49.9" y="0" class="st8 st9 st10 st14">T</tspan><tspan x="91.9" y="0" class="st8 st9 st10 st11">E</tspan><tspan x="135.5" y="0" class="st8 st9 st10 st14">S</tspan><tspan x="176.7" y="0" class="st8 st9 st10 st11">T</tspan></text>
	<text transform="matrix(1 0 0 1 203.9385 315.8291)" class="st15 st9 st10 st11">4ALL</text>
	<ellipse class="st16" cx="270.3" cy="211.7" rx="22.4" ry="23.2"/>
</g>
<g id="ol">
	<g>
		<rect x="103.6" y="50.7" class="st17" width="12.9" height="191.7"/>
		<rect x="136.6" y="50.7" class="st18" width="12.9" height="191.7"/>
		<rect x="169.7" y="50.7" class="st19" width="12.9" height="191.7"/>
		<rect x="169.7" y="246.7" class="st19" width="12.9" height="12.9"/>
		<rect x="169.7" y="263.9" class="st19" width="12.9" height="55.4"/>
		<polygon class="st5" points="515.6,259.6 70.5,259.6 70.5,50.7 83.4,50.7 83.4,246.7 515.6,246.7 		"/>
	</g>
	<g>
		<path class="st8" d="M238.8,297.8v5.7h-6.1v12.8h-7v-12.8h-20.6v-5l19-29.8h8.6v29H238.8z M212.7,297.8h13v-12.5
			c0-0.9,0.1-4,0.4-9.1h-0.3c-1.2,2.5-2.4,5-3.8,7.3L212.7,297.8z"/>
		<path class="st8" d="M277.4,316.3l-4-13.6h-16.5l-4,13.6h-7.6l15.8-47.5h8.6l15.8,47.5H277.4z M258.6,296.9h13l-1.9-6.4
			c-0.5-1.7-2.1-7-4.5-15.8h-0.3c-1.6,6.2-3,11.4-4.3,15.8L258.6,296.9z"/>
		<path class="st8" d="M295.7,316.3v-47.5h7.5V310h20.1v6.3H295.7z"/>
		<path class="st8" d="M334.7,316.3v-47.5h7.5V310h20.1v6.3H334.7z"/>
	</g>
	<g>
		<path class="st8" d="M225.9,236.6c-6.1,0-11.2-2.2-15.2-6.6c-4-4.4-6-10.3-6-17.9c0-7.6,2-13.6,6.1-18.1c4.1-4.5,9.2-6.7,15.4-6.7
			c5.3,0,9.8,2,13.5,6l-4,4.8c-2.8-2.9-5.9-4.3-9.3-4.3c-4.2,0-7.5,1.6-10.1,4.9c-2.5,3.3-3.8,7.6-3.8,13.1c0,5.6,1.2,10.1,3.7,13.3
			c2.5,3.3,5.8,4.9,10,4.9c3.9,0,7.5-1.7,10.5-5l4,4.7C236.8,234.3,231.8,236.6,225.9,236.6z"/>
		<path class="st8" d="M302.2,235.8v-47.5h7.7l15.8,27.9l5,10h0.3c-0.6-8.2-0.9-13.4-0.9-15.8v-22.2h7.1v47.5h-7.7l-15.7-28l-5-10
			h-0.3c0.6,8.2,0.9,13.4,0.9,15.6v22.4H302.2z"/>
		<path class="st8" d="M361.8,235.8v-41.2h-13.9v-6.3h35.4v6.3h-14v41.2H361.8z"/>
		<path class="st8" d="M394.1,235.8v-47.5h28.1v6.3h-20.6v13.2H419v6.3h-17.5v15.4h21.3v6.3H394.1z"/>
		<path class="st8" d="M450.3,236.6c-6.7,0-12.4-2.3-16.9-6.9l4.4-5.2c3.7,3.7,7.9,5.6,12.6,5.6c2.8,0,5-0.6,6.6-1.9
			c1.6-1.2,2.4-2.9,2.4-4.9c0-1.1-0.2-1.9-0.5-2.7c-0.3-0.7-0.9-1.4-1.8-2s-1.6-1.1-2.2-1.4s-1.6-0.8-3.2-1.5l-6.6-2.8
			c-6.4-2.7-9.6-6.9-9.6-12.5c0-3.7,1.5-6.9,4.4-9.4c3-2.5,6.7-3.8,11.2-3.8c2.7,0,5.4,0.5,7.9,1.6c2.5,1.1,4.7,2.5,6.5,4.4
			l-3.9,4.8c-3.2-2.9-6.7-4.3-10.5-4.3c-2.4,0-4.4,0.6-5.8,1.7c-1.5,1.1-2.2,2.6-2.2,4.5c0,1,0.2,1.8,0.6,2.6c0.4,0.7,1,1.4,2,2
			c0.9,0.6,1.7,1.1,2.2,1.3c0.6,0.3,1.5,0.7,2.9,1.2l6.5,2.8c3.1,1.3,5.5,3,7.2,5c1.7,2,2.5,4.6,2.5,7.9c0,3.9-1.5,7.2-4.6,9.8
			C459.5,235.3,455.4,236.6,450.3,236.6z"/>
		<path class="st8" d="M487.7,235.8v-41.2h-13.9v-6.3h35.4v6.3h-14v41.2H487.7z"/>
		<ellipse class="st20" cx="270.3" cy="212.2" rx="22.4" ry="23.2"/>
	</g>
	<g>
		<path class="st8" d="M224.8,172c-11.8,0-17.7-7.1-17.7-21.2v-27.1h7.5v27.7c0,9.5,3.4,14.2,10.2,14.2c6.9,0,10.4-4.7,10.4-14.2
			v-27.7h7.2v27.1C242.4,165,236.5,172,224.8,172z"/>
		<path class="st8" d="M257.5,171.2v-47.5h7.5v22.5h0.2l18.1-22.5h8.3L277,142l17.1,29.2h-8.3L272.4,148l-7.3,9v14.3H257.5z"/>
		<path class="st8" d="M320.7,172c-11.8,0-17.7-7.1-17.7-21.2v-27.1h7.5v27.7c0,9.5,3.4,14.2,10.2,14.2c6.9,0,10.4-4.7,10.4-14.2
			v-27.7h7.2v27.1C338.3,165,332.5,172,320.7,172z"/>
		<path class="st8" d="M353.7,171.2v-47.5h7.5v41.2h20.1v6.3H353.7z"/>
		<path class="st8" d="M394.9,171.2v-47.5H423v6.3h-20.6v13.2h17.5v6.3h-17.5v15.4h21.3v6.3H394.9z"/>
		<path class="st8" d="M438,171.2v-47.5h7.5v41.2h20.1v6.3H438z"/>
		<path class="st8" d="M479.2,171.2v-47.5h28.1v6.3h-20.6v13.2h17.5v6.3h-17.5v15.4H508v6.3H479.2z"/>
	</g>
	<g>
		<path class="st8" d="M217,106.7V65.4h-13.9v-6.3h35.4v6.3h-14v41.2H217z"/>
		<path class="st8" d="M249.8,106.7V59.1h7.5v19.4h20.4V59.1h7.4v47.5h-7.4V85h-20.4v21.6H249.8z"/>
		<path class="st8" d="M300.6,106.7V59.1h28.1v6.3h-20.6v13.2h17.5V85h-17.5v15.4h21.3v6.3H300.6z"/>
	</g>
</g>
</svg>
