<?xml version="1.0" encoding="utf-8"?>
<!-- Generator: Adobe Illustrator 24.0.0, SVG Export Plug-In . SVG Version: 6.00 Build 0)  -->
<svg version="1.1" id="レイヤー_1" xmlns="http://www.w3.org/2000/svg" xmlns:xlink="http://www.w3.org/1999/xlink" x="0px"
	 y="0px" width="100px" height="100px" viewBox="0 0 100 100" style="enable-background:new 0 0 100 100;" xml:space="preserve">
<style type="text/css">
	.st0{display:none;fill:#EE3B27;}
	.st1{clip-path:url(#SVGID_2_);}
	.st2{clip-path:url(#SVGID_4_);fill:#FFFFFF;}
	.st3{fill:#FFFFFF;}
</style>
<rect x="-408" y="-23.5" class="st0" width="537.5" height="156"/>
<g id="ベクトルスマートオブジェクト_3_">
	<g>
		<defs>
			<rect id="SVGID_1_" x="13.08" y="13" width="73.84" height="73.39"/>
		</defs>
		<clipPath id="SVGID_2_">
			<use xlink:href="#SVGID_1_"  style="overflow:visible;"/>
		</clipPath>
		<g class="st1">
			<defs>
				<rect id="SVGID_3_" x="13.08" y="13" width="73.84" height="73.39"/>
			</defs>
			<clipPath id="SVGID_4_">
				<use xlink:href="#SVGID_3_"  style="overflow:visible;"/>
			</clipPath>
			<path class="st2" d="M86.92,49.92C86.92,29.53,70.39,13,50,13S13.08,29.53,13.08,49.92c0,18.43,13.5,33.7,31.15,36.47v-25.8
				h-9.37V49.92h9.37v-8.13c0-9.25,5.51-14.36,13.95-14.36c4.04,0,8.26,0.72,8.26,0.72v9.09h-4.66c-4.59,0-6.02,2.85-6.02,5.77v6.93
				h10.24l-1.64,10.67h-8.6v25.8C73.42,83.62,86.92,68.35,86.92,49.92"/>
		</g>
	</g>
</g>
</svg>
