<?xml version="1.0" encoding="utf-8"?>
<!-- Generator: Adobe Illustrator 24.0.0, SVG Export Plug-In . SVG Version: 6.00 Build 0)  -->
<svg version="1.1" id="レイヤー_1" xmlns="http://www.w3.org/2000/svg" xmlns:xlink="http://www.w3.org/1999/xlink" x="0px"
	 y="0px" width="100px" height="100px" viewBox="0 0 100 100" style="enable-background:new 0 0 100 100;" xml:space="preserve">
<style type="text/css">
	.st0{display:none;fill:#EE3B27;}
	.st1{clip-path:url(#SVGID_2_);}
	.st2{clip-path:url(#SVGID_4_);fill:#FFFFFF;}
	.st3{fill:#FFFFFF;}
</style>
<rect x="-288" y="-23.5" class="st0" width="537.5" height="156"/>
<g>
	<path class="st3" d="M49.8,18.74c10.2,0,11.41,0.04,15.44,0.22c3.72,0.17,5.75,0.79,7.09,1.32c1.78,0.69,3.06,1.52,4.39,2.86
		c1.34,1.34,2.16,2.61,2.86,4.39c0.52,1.35,1.15,3.37,1.32,7.09c0.18,4.03,0.22,5.24,0.22,15.44s-0.04,11.41-0.22,15.44
		c-0.17,3.72-0.79,5.75-1.32,7.09c-0.69,1.78-1.52,3.06-2.86,4.39c-1.34,1.34-2.61,2.16-4.39,2.86c-1.35,0.52-3.37,1.15-7.09,1.32
		c-4.03,0.18-5.24,0.22-15.44,0.22s-11.41-0.04-15.44-0.22c-3.72-0.17-5.75-0.79-7.09-1.32c-1.78-0.69-3.06-1.52-4.39-2.86
		c-1.34-1.34-2.16-2.61-2.86-4.39c-0.52-1.35-1.15-3.37-1.32-7.09c-0.18-4.03-0.22-5.24-0.22-15.44s0.04-11.41,0.22-15.44
		c0.17-3.72,0.79-5.75,1.32-7.09c0.69-1.78,1.52-3.06,2.86-4.39c1.34-1.34,2.61-2.16,4.39-2.86c1.35-0.52,3.37-1.15,7.09-1.32
		C38.39,18.78,39.59,18.74,49.8,18.74 M49.8,11.86c-10.38,0-11.68,0.04-15.75,0.23c-4.07,0.19-6.84,0.83-9.27,1.78
		c-2.51,0.98-4.64,2.28-6.77,4.41c-2.12,2.12-3.43,4.25-4.41,6.77c-0.94,2.43-1.59,5.21-1.78,9.27c-0.19,4.07-0.23,5.38-0.23,15.75
		c0,10.38,0.04,11.68,0.23,15.75c0.19,4.07,0.83,6.84,1.78,9.27c0.98,2.51,2.28,4.64,4.41,6.77c2.12,2.12,4.25,3.43,6.77,4.41
		c2.43,0.94,5.21,1.59,9.27,1.78c4.07,0.19,5.38,0.23,15.75,0.23s11.68-0.04,15.75-0.23c4.07-0.19,6.84-0.83,9.27-1.78
		c2.51-0.98,4.64-2.28,6.77-4.41c2.12-2.12,3.43-4.25,4.41-6.77c0.94-2.43,1.59-5.21,1.78-9.27C87.96,61.74,88,60.44,88,50.06
		s-0.04-11.68-0.23-15.75c-0.19-4.07-0.83-6.84-1.78-9.27c-0.98-2.51-2.28-4.64-4.41-6.77c-2.12-2.12-4.25-3.43-6.77-4.41
		c-2.43-0.94-5.21-1.59-9.27-1.78C61.47,11.9,60.17,11.86,49.8,11.86L49.8,11.86z"/>
	<path class="st3" d="M49.8,30.45c-10.83,0-19.62,8.78-19.62,19.62s8.78,19.62,19.62,19.62s19.62-8.78,19.62-19.62
		S60.63,30.45,49.8,30.45z M49.8,62.8c-7.03,0-12.73-5.7-12.73-12.73c0-7.03,5.7-12.73,12.73-12.73c7.03,0,12.73,5.7,12.73,12.73
		C62.53,57.1,56.83,62.8,49.8,62.8z"/>
	<circle class="st3" cx="70.19" cy="29.67" r="4.58"/>
</g>
</svg>
