<?xml version="1.0" encoding="utf-8"?>
<!-- Generator: Adobe Illustrator 24.0.0, SVG Export Plug-In . SVG Version: 6.00 Build 0)  -->
<svg version="1.1" id="レイヤー_1" xmlns="http://www.w3.org/2000/svg" xmlns:xlink="http://www.w3.org/1999/xlink" x="0px"
	 y="0px" width="100px" height="100px" viewBox="0 0 100 100" style="enable-background:new 0 0 100 100;" xml:space="preserve">
<style type="text/css">
	.st0{display:none;fill:#EE3B27;}
	.st1{clip-path:url(#SVGID_2_);}
	.st2{clip-path:url(#SVGID_4_);fill:#FFFFFF;}
	.st3{fill:#FFFFFF;}
</style>
<rect x="-168" y="-23.5" class="st0" width="537.5" height="156"/>
<g id="Logo__x2014__FIXED">
	<g>
		<path class="st3" d="M34.46,84c31.56,0,48.82-26.17,48.82-48.82c0-0.74,0-1.47-0.03-2.21c3.35-2.41,6.26-5.45,8.57-8.9
			c-3.08,1.37-6.39,2.28-9.87,2.71c3.55-2.11,6.26-5.49,7.56-9.5c-3.31,1.97-6.99,3.38-10.91,4.15C75.45,18.07,71,16,66.08,16
			c-9.47,0-17.17,7.7-17.17,17.17c0,1.34,0.17,2.64,0.44,3.92c-14.26-0.7-26.91-7.56-35.37-17.94c-1.47,2.54-2.31,5.49-2.31,8.63
			c0,5.96,3.05,11.21,7.63,14.29c-2.81-0.1-5.45-0.87-7.76-2.14c0,0.07,0,0.13,0,0.23c0,8.3,5.92,15.26,13.75,16.83
			c-1.44,0.4-2.94,0.6-4.52,0.6c-1.1,0-2.18-0.1-3.21-0.3c2.18,6.83,8.53,11.78,16.03,11.91c-5.89,4.62-13.29,7.36-21.32,7.36
			c-1.37,0-2.74-0.07-4.08-0.23C15.75,81.16,24.78,84,34.46,84"/>
	</g>
</g>
</svg>
