<?xml version="1.0" encoding="utf-8"?>
<!-- Generator: Adobe Illustrator 24.0.0, SVG Export Plug-In . SVG Version: 6.00 Build 0)  -->
<svg version="1.1" id="レイヤー_1" xmlns="http://www.w3.org/2000/svg" xmlns:xlink="http://www.w3.org/1999/xlink" x="0px"
	 y="0px" width="100px" height="100px" viewBox="0 0 100 100" style="enable-background:new 0 0 100 100;" xml:space="preserve">
<style type="text/css">
	.st0{display:none;fill:#EE3B27;}
	.st1{clip-path:url(#SVGID_2_);}
	.st2{clip-path:url(#SVGID_4_);fill:#FFFFFF;}
	.st3{fill:#FFFFFF;}
</style>
<rect x="-48" y="-23.5" class="st0" width="537.5" height="156"/>
<path class="st3" d="M87.37,31.1c-0.9-3.38-3.54-6.04-6.9-6.94C74.39,22.52,50,22.52,50,22.52s-24.39,0-30.47,1.64
	c-3.36,0.9-6,3.56-6.9,6.94C11,37.23,11,50,11,50s0,12.77,1.63,18.9c0.9,3.38,3.54,6.04,6.9,6.94C25.61,77.48,50,77.48,50,77.48
	s24.39,0,30.47-1.64c3.36-0.9,6-3.56,6.9-6.94C89,62.77,89,50,89,50S89,37.23,87.37,31.1z M42.02,61.6V38.4L62.41,50L42.02,61.6z"/>
</svg>
