<?xml version="1.0" encoding="utf-8"?>
<!-- Generator: Adobe Illustrator 23.0.4, SVG Export Plug-In . SVG Version: 6.00 Build 0)  -->
<svg version="1.1" id="レイヤー_1" xmlns="http://www.w3.org/2000/svg" xmlns:xlink="http://www.w3.org/1999/xlink" x="0px"
	 y="0px" width="841.9px" height="841.9px" viewBox="0 0 841.9 841.9" style="enable-background:new 0 0 841.9 841.9;"
	 xml:space="preserve">
<style type="text/css">
	.st0{fill:#FFFFFF;}
	.st1{fill:none;}
	.st2{fill:#A37038;}
	.st3{fill:#EAA0A0;}
	.st4{fill:#898989;}
	.st5{fill:url(#SVGID_1_);}
	.st6{fill:#4F0D00;}
</style>
<path class="st0" d="M666.4,161.6c-1.8-1.9-4.5-4-8.8-5.8l-1-2.7c-3.7-9.9-10.6-17.8-20.6-23.5C579.7,97.2,529.2,68,480.4,39.7
	l-20.7-12c-7.8-4.5-15.9-6.8-24-6.8c-8,0-16,2.3-23.7,6.7c-8.4,4.8-16.7,9.7-25.1,14.5c-22.5,13-45.7,26.5-68.6,39.6
	c-28.1,16.2-56.6,32.7-84.1,48.6c-14.4,8.3-22.3,22.1-22.3,38.9v81.3c-3.4-0.5-7.1-0.7-11.3-0.8l-0.1,0h-0.1h-3.1h-0.1l-0.1,0
	l-3.2,0.1l-0.1,0l-0.1,0c-2.4,0.1-4.8,0.4-7.1,0.7c-10.4,1.4-19.6,4.3-27.3,8.7l0,0l0,0c-4.3,2.5-8.3,5.6-11.7,9l-0.1,0.1l-0.1,0.1
	c-3.5,3.7-6.5,7.7-8.8,12.1c-4.3,8.1-6.6,17.8-6.4,28c0.1,8.5,1.9,17.4,5.4,26.4c3,7.8,7.4,15.4,12.8,22l0,0l0,0
	c3.1,3.8,5.8,6.6,8.4,8.9l0.1,0l0.1,0l0.7,0.6c0.5,0.5,1.1,0.9,1.5,1.3l0,0l0,0l2,1.6c1.6,1.4,3.2,2.6,4.7,3.6
	c11.3,8.5,24.1,15.4,38.1,20.5c3.2,1.2,6.8,2.2,10.8,3.2l0.9,1.5c3.8,6.6,9.6,12.3,16.8,16.4c4.4,2.5,8.7,5,13,7.5
	c4.3,2.5,8.7,5,13,7.5l152.8,88.3l0,0l0,0c7.5,4.2,15.1,6.4,22.7,6.4c7.5,0,14.8-2,21.6-6c62.5-36,125.6-72.5,179.9-103.9
	c14.3-8.3,22.1-22,22.1-38.6v-74.7v-57.4v-55.2c6.5-3.5,10.4-8.7,10.9-15.2C670.9,169.2,669.5,164.9,666.4,161.6z"/>
<g>
	<path class="st1" d="M243.7,370.7c-1.6,2.5-2.3,4.8-2.3,7.1c0.4,8.8,10.4,14.3,22.4,17c-2.1-1.2-4.2-2.4-6.3-3.6
		C249.3,386.4,244.7,379.5,243.7,370.7z"/>
	<path class="st2" d="M630.6,160.5c-2.8,0-5.5,0.2-8.3,0.4c-16.1,1.5-31.8,7.2-42.8,14.3c17.2,4.7,35.2,7.8,48,8.9
		c3.3,0.3,6.4,0.4,8.9,0.4c13.5,0,24.7-4.1,25.2-11.7C662.3,165.2,650,160.5,630.6,160.5z"/>
	<path class="st1" d="M392.5,346.1c-0.1,0.1-0.2,0.2-0.3,0.3C392.3,346.3,392.4,346.2,392.5,346.1z"/>
	<path class="st1" d="M409.9,355.8c-4.3,3.2-8.6,6.2-13,9.1C401.3,362,405.7,359,409.9,355.8z"/>
	<path class="st1" d="M289.1,401.7c-2.2,0.1-4.4,0.1-6.6,0.1C284.7,401.8,286.9,401.8,289.1,401.7z"/>
	<path class="st1" d="M366.1,382.4c-2.3,1.1-4.7,2.2-7,3.2C361.4,384.6,363.7,383.5,366.1,382.4z"/>
	<path class="st1" d="M430.5,339.1c-1.7,1.5-3.5,3-5.2,4.5C427,342.1,428.8,340.6,430.5,339.1z"/>
	<path class="st1" d="M295.7,401.3c-1.5,0.1-3,0.2-4.6,0.3C292.7,401.5,294.2,401.5,295.7,401.3z"/>
	<path class="st1" d="M424.3,344.4c-2.1,1.7-4.1,3.4-6.2,5.1C420.2,347.8,422.3,346.1,424.3,344.4z"/>
	<path class="st1" d="M364.8,369c-0.2,0.1-0.4,0.3-0.7,0.4C364.3,369.3,364.5,369.2,364.8,369z"/>
	<path class="st1" d="M416.6,350.7c-1.7,1.3-3.3,2.6-5,3.9C413.3,353.3,414.9,352,416.6,350.7z"/>
	<path class="st1" d="M379.2,358.2c-0.2,0.2-0.4,0.4-0.6,0.5C378.7,358.6,379,358.4,379.2,358.2z"/>
	<path class="st1" d="M386,352.3c-0.2,0.2-0.4,0.3-0.5,0.5C385.6,352.6,385.8,352.5,386,352.3z"/>
	<path class="st1" d="M302.3,400.7c-1.4,0.2-2.8,0.3-4.2,0.4C299.5,401,300.9,400.9,302.3,400.7z"/>
	<path class="st1" d="M336.4,393.8c-2,0.6-4.1,1.2-6.2,1.7C332.3,395,334.4,394.4,336.4,393.8z"/>
	<path class="st1" d="M350,389.2c-2.4,0.9-4.8,1.8-7.3,2.6C345.2,391,347.6,390.1,350,389.2z"/>
	<path class="st1" d="M357.4,386.2c-1.9,0.8-3.8,1.6-5.7,2.3C353.6,387.8,355.5,387,357.4,386.2z"/>
	<path class="st1" d="M373,379c-2,1.1-4.1,2.1-6.2,3.1C368.9,381,371,380,373,379z"/>
	<path class="st1" d="M380.6,374.9c-1.9,1.1-3.9,2.1-5.8,3.1C376.8,377,378.7,376,380.6,374.9z"/>
	<path class="st1" d="M315.5,398.8c-1.4,0.3-2.9,0.5-4.3,0.7C312.6,399.3,314.1,399.1,315.5,398.8z"/>
	<path class="st1" d="M308.9,399.9c-1.4,0.2-2.8,0.4-4.2,0.6C306.1,400.3,307.5,400.1,308.9,399.9z"/>
	<path class="st1" d="M395.2,366.1c-1.8,1.2-3.6,2.3-5.4,3.4C391.7,368.3,393.5,367.2,395.2,366.1z"/>
	<path class="st1" d="M329,395.9c-1.7,0.4-3.3,0.8-5,1.2C325.6,396.7,327.3,396.3,329,395.9z"/>
	<path class="st1" d="M388.5,370.3c-2.2,1.4-4.5,2.7-6.7,4C384,373,386.2,371.7,388.5,370.3z"/>
	<path class="st1" d="M322.1,397.5c-1.5,0.3-3,0.6-4.5,0.9C319.1,398.1,320.6,397.8,322.1,397.5z"/>
	<path class="st1" d="M372.1,363.8c-0.2,0.2-0.5,0.3-0.7,0.5C371.6,364.1,371.9,364,372.1,363.8z"/>
	<path class="st1" d="M450.1,320.3c-1.5,1.5-3,3.1-4.5,4.6C447.1,323.4,448.6,321.8,450.1,320.3z"/>
	<path class="st1" d="M444.1,326.3c-1.9,1.9-3.9,3.8-5.9,5.7C440.3,330.1,442.2,328.2,444.1,326.3z"/>
	<path class="st1" d="M315.2,392c-0.1,0-0.3,0.1-0.4,0.1C314.9,392.1,315.1,392.1,315.2,392z"/>
	<path class="st1" d="M328.1,388L328.1,388L328.1,388z"/>
	<path class="st1" d="M457.4,312.6c-1.9,2-3.8,4-5.7,6C453.7,316.6,455.5,314.6,457.4,312.6z"/>
	<path class="st1" d="M357.1,373.9c-0.2,0.1-0.4,0.2-0.5,0.3C356.8,374.1,357,374,357.1,373.9z"/>
	<path class="st1" d="M334.5,385.4L334.5,385.4L334.5,385.4z"/>
	<path class="st1" d="M437.2,332.9c-1.7,1.5-3.3,3.1-5,4.6C433.9,336,435.6,334.5,437.2,332.9z"/>
	<path class="st1" d="M349.3,378.4c-0.1,0.1-0.2,0.1-0.3,0.2C349.1,378.6,349.2,378.5,349.3,378.4z"/>
	<path class="st2" d="M569,184c-11.7,8.2-33.5,30.5-46.4,46.4c-18.2,22.3-29.9,39.3-46.4,59.9c13.5,0.6,37.6-0.6,49.9-4.7
		c5.3-6.5,16.4-22.3,27-20c9.4,2.4,1.8,9.4-11.7,21.7c-12.3,10.6-20,18.8-27,27c-3.5,4.1-4.7,7-5.9,6.5c-2.3-0.6,0-7,2.3-11.7
		c2.9-6.5,8.2-13.5,10.6-16.4c-10.6,2.9-30.5,4.1-50.5,4.1c-4.1,5.3-8.8,10.6-13.5,15.9c-1.9,2-3.8,4-5.7,6
		c-0.5,0.6-1.1,1.1-1.6,1.7c-1.5,1.5-3,3.1-4.5,4.6c-0.5,0.5-1,1-1.5,1.4c-1.9,1.9-3.9,3.8-5.9,5.7c-0.4,0.3-0.7,0.7-1.1,1
		c-1.7,1.5-3.3,3.1-5,4.6c-0.6,0.5-1.1,1-1.7,1.5c-1.7,1.5-3.5,3-5.2,4.5c-0.3,0.3-0.6,0.6-1,0.8c-2.1,1.7-4.1,3.4-6.2,5.1
		c-0.5,0.4-1,0.8-1.5,1.2c-1.7,1.3-3.3,2.6-5,3.9c-0.6,0.4-1.1,0.8-1.7,1.3c-4.3,3.2-8.6,6.2-13,9.1c-0.6,0.4-1.1,0.7-1.7,1.1
		c-1.8,1.2-3.6,2.3-5.4,3.4c-0.5,0.3-0.9,0.6-1.4,0.9c-2.2,1.4-4.5,2.7-6.7,4c-0.4,0.2-0.7,0.4-1.1,0.6c-1.9,1.1-3.9,2.1-5.8,3.1
		c-0.6,0.3-1.2,0.6-1.8,0.9c-2,1.1-4.1,2.1-6.2,3.1c-0.3,0.1-0.5,0.3-0.8,0.4c-2.3,1.1-4.7,2.2-7,3.2c-0.5,0.2-1.1,0.4-1.6,0.7
		c-1.9,0.8-3.8,1.6-5.7,2.3c-0.6,0.2-1.2,0.5-1.7,0.7c-2.4,0.9-4.8,1.8-7.3,2.6l0,0c0.2,1.2,0.4,2.4,0.5,3.6
		c1.5,10.5,2.3,19.8,2.8,27.4s0.7,13.6,0.9,17.6c0,0.9,0,1.6,0,2.3c24.8,14.3,49.7,28.7,74.5,43c9,5.2,18.3,5.6,27.3,0.4
		c55.1-31.7,110.2-63.5,165.2-95.4c9-5.2,13.5-13.3,13.6-23.7c0.1-31.6,0-63.2,0-94.8c0-27.5,0-55,0-82.5
		C606.7,189.4,589.7,187.2,569,184z"/>
	<path class="st2" d="M342.3,423.2c-1.3-7.4-3-16.5-5.2-26.7c-0.2-0.9-0.4-1.8-0.6-2.7c0,0,0,0-0.1,0c-2,0.6-4.1,1.2-6.2,1.7
		c-0.4,0.1-0.9,0.2-1.3,0.3c-1.7,0.4-3.3,0.8-5,1.2c-0.6,0.1-1.2,0.3-1.8,0.4c-1.5,0.3-3,0.6-4.5,0.9c-0.7,0.1-1.4,0.3-2.1,0.4
		c-1.4,0.3-2.9,0.5-4.3,0.7c-0.8,0.1-1.5,0.2-2.3,0.3c-1.4,0.2-2.8,0.4-4.2,0.6c-0.8,0.1-1.6,0.2-2.4,0.3c-1.4,0.2-2.8,0.3-4.2,0.4
		c-0.8,0.1-1.6,0.1-2.3,0.2c-1.5,0.1-3,0.2-4.6,0.3c-0.7,0-1.4,0.1-2,0.1c-2.2,0.1-4.4,0.1-6.6,0.1s-4.4,0-6.6-0.1
		c4.7,2.7,9.5,5.5,14.2,8.2c18.4,10.6,36.8,21.3,55.3,31.9c-0.1-0.4-0.1-0.8-0.2-1.2C344.5,436.6,343.6,430.7,342.3,423.2z"/>
	<path class="st3" d="M314.8,322.4c4.4,6.2,8.3,12.4,11.9,18.7c3.5,6.2,6.7,12.4,8.9,19.1c2.2,6.4,3.6,12.6,4.9,18.5
		c0.3,1.3,0.5,2.6,0.7,3.9c2.6-1.2,5.2-2.6,7.8-3.9c0.1-0.1,0.2-0.1,0.3-0.2c2.5-1.3,4.9-2.7,7.3-4.2c0.2-0.1,0.4-0.2,0.5-0.3
		c2.3-1.4,4.7-2.9,6.9-4.4c0.2-0.1,0.4-0.3,0.7-0.4c2.2-1.5,4.5-3.1,6.7-4.7c0.2-0.2,0.5-0.3,0.7-0.5c2.2-1.6,4.3-3.3,6.4-5.1
		c0.2-0.2,0.4-0.4,0.6-0.5c2.1-1.8,4.2-3.6,6.3-5.4c0.2-0.2,0.4-0.3,0.5-0.5c2.1-1.9,4.2-3.9,6.2-5.9c0.1-0.1,0.2-0.2,0.3-0.3
		c2.1-2.1,4.2-4.3,6.2-6.5c14.7-15.8,25.2-28.8,35.8-43.4c-12.9,0-25.2,0-32.3,0.6c-12.3,0.6-15.3,2.9-15.3-0.6
		c0.6-2.3,5.9-4.1,20-5.3c6.5-0.6,22.3-0.6,31.7-0.6c8.2-11.2,17-21.7,29.9-36.4c28.2-30.5,66.9-62.2,85.1-72.8
		c-13.5-2.9-29.9-7-50.5-11.7c-23.5-5.3-67.5-13.5-99.2-13.5c-55.2,0-103.3,18.8-113.9,62.8c-4.7,21.7,1.8,51.1,38.7,66.9
		c5.9,2.3,8.2,1.8,7.6,3.5c-0.6,1.8-5.3,1.2-11.2-0.6c-34.6-12.3-49.9-42.9-45.8-74c5.9-43.4,54-77.5,127.4-76.9
		c24.7,0,63.4,7.6,99.8,17.6c19.4,5.3,39.9,11.2,59.9,16.4c12.4-6.7,31.7-13.3,51-15.6c-1.5-1.2-3.1-2.4-4.9-3.4
		c-54.1-31.1-108.1-62.3-162.1-93.6c-10.2-5.9-20-6-30.2-0.1c-54.4,31.5-108.9,62.9-163.3,94.4c-9.2,5.3-13.7,13.4-13.7,24
		c0,28,0,56,0,84.1c14.9,6.2,28.1,15.4,39.5,25.4C295.5,297.8,306,310.1,314.8,322.4z"/>
	<path class="st4" d="M381.7,374.3c-0.4,0.2-0.7,0.4-1.1,0.6C381,374.7,381.3,374.5,381.7,374.3z"/>
	<path class="st4" d="M374.8,378c-0.6,0.3-1.2,0.6-1.8,0.9C373.6,378.7,374.2,378.4,374.8,378z"/>
	<path class="st4" d="M366.9,382c-0.3,0.1-0.5,0.3-0.8,0.4C366.3,382.3,366.6,382.2,366.9,382z"/>
	<path class="st4" d="M438.3,332c-0.4,0.3-0.7,0.7-1.1,1C437.6,332.6,437.9,332.3,438.3,332z"/>
	<path class="st4" d="M418.1,349.5c-0.5,0.4-1,0.8-1.5,1.2C417.1,350.3,417.6,349.9,418.1,349.5z"/>
	<path class="st4" d="M451.7,318.6c-0.5,0.6-1.1,1.1-1.6,1.7C450.7,319.7,451.2,319.2,451.7,318.6z"/>
	<path class="st4" d="M432.2,337.5c-0.6,0.5-1.1,1-1.7,1.5C431.1,338.5,431.6,338,432.2,337.5z"/>
	<path class="st4" d="M425.3,343.6c-0.3,0.3-0.6,0.6-1,0.8C424.6,344.1,425,343.8,425.3,343.6z"/>
	<path class="st4" d="M389.9,369.5c-0.5,0.3-0.9,0.6-1.4,0.9C388.9,370,389.4,369.7,389.9,369.5z"/>
	<path class="st4" d="M411.6,354.5c-0.6,0.4-1.1,0.8-1.7,1.3C410.5,355.4,411,355,411.6,354.5z"/>
	<path class="st4" d="M445.6,324.9c-0.5,0.5-1,1-1.5,1.4C444.6,325.8,445.1,325.3,445.6,324.9z"/>
	<path class="st4" d="M397,364.9c-0.6,0.4-1.1,0.7-1.7,1.1C395.8,365.7,396.4,365.3,397,364.9z"/>
	<path class="st4" d="M304.7,400.5c-0.8,0.1-1.6,0.2-2.4,0.3C303.1,400.7,303.9,400.6,304.7,400.5z"/>
	<path class="st4" d="M291.2,401.6c-0.7,0-1.4,0.1-2,0.1C289.8,401.7,290.5,401.6,291.2,401.6z"/>
	<path class="st4" d="M359,385.6c-0.5,0.2-1.1,0.4-1.6,0.7C358,386,358.5,385.8,359,385.6z"/>
	<path class="st4" d="M311.2,399.6c-0.8,0.1-1.5,0.2-2.3,0.3C309.7,399.8,310.4,399.7,311.2,399.6z"/>
	<path class="st4" d="M298.1,401.1c-0.8,0.1-1.6,0.1-2.3,0.2C296.5,401.3,297.3,401.2,298.1,401.1z"/>
	<path class="st4" d="M330.3,395.6c-0.4,0.1-0.9,0.2-1.3,0.3C329.4,395.8,329.8,395.7,330.3,395.6z"/>
	<path class="st4" d="M324,397.1c-0.6,0.1-1.2,0.3-1.8,0.4C322.8,397.4,323.4,397.2,324,397.1z"/>
	<path class="st4" d="M351.7,388.6c-0.6,0.2-1.2,0.5-1.7,0.7C350.6,389,351.1,388.8,351.7,388.6z"/>
	<path class="st4" d="M317.6,398.4c-0.7,0.1-1.4,0.3-2.1,0.4C316.2,398.7,316.9,398.6,317.6,398.4z"/>
	<path class="st4" d="M334.5,385.4c-2.1,0.9-4.3,1.7-6.4,2.5C330.2,387.2,332.4,386.3,334.5,385.4z"/>
	<path class="st3" d="M276.8,293.7c-10.1-8.7-20.9-17.3-33.3-23.6c-2.3-1.1-4.6-2.2-6.9-3.2c-7.6-3.2-15.6-5.7-23.8-7
		c-4.1-0.7-8.3-1-12.5-1.1h-3.1l-3.2,0.1c-2,0.1-4.2,0.3-6.3,0.6c-8.4,1.1-16.7,3.4-24,7.6c-3.6,2.1-7,4.7-9.9,7.6
		c-2.9,3-5.4,6.4-7.3,10c-3.9,7.3-5.5,15.6-5.4,23.7s2,16,4.8,23.2s6.8,13.9,11.4,19.6c2.3,2.8,4.8,5.6,7.4,7.9
		c0.7,0.6,1.5,1.3,2.1,1.8l2.1,1.7c1.4,1.2,2.9,2.3,4.3,3.3c11.6,8.7,23.9,14.9,35.9,19.3c29.4,10.8,93.5,11.1,119.1,2.7l0,0
		c2.2-0.8,4.3-1.6,6.4-2.5l0,0C328.5,359.6,308.6,321.2,276.8,293.7z"/>
	
		<linearGradient id="SVGID_1_" gradientUnits="userSpaceOnUse" x1="143.2834" y1="516.0969" x2="234.0861" y2="516.0969" gradientTransform="matrix(1 0 0 -1 0 841.1968)">
		<stop  offset="0" style="stop-color:#FFFFFF;stop-opacity:0.5"/>
		<stop  offset="0.7488" style="stop-color:#FFFFFF;stop-opacity:0"/>
	</linearGradient>
	<path class="st5" d="M234.2,269.8c-7.2-3.1-14.8-5.4-22.6-6.6c-3.9-0.6-7.9-1-11.9-1h-3l-3.1,0.1c-1.9,0.1-4,0.3-6,0.6
		c-8,1-15.8,3.3-22.8,7.3c-3.5,2-6.6,4.4-9.4,7.2c-2.8,2.8-5.1,6.1-7,9.5c-3.7,6.9-5.3,14.8-5.1,22.5c0.1,7.7,1.9,15.2,4.6,22
		c2.7,6.9,6.4,13.2,10.8,18.6c2.2,2.7,4.6,5.3,7,7.5c0.6,0.5,1.4,1.3,2,1.7l2,1.6c1.3,1.1,2.7,2.1,4.1,3.1
		c11,8.2,22.7,14.1,34.1,18.3c7,2.6,16,4.5,26,5.8L234.2,269.8z"/>
	<path class="st6" d="M220.8,255.6c0-28.8,0-57.5,0-86.3c0-13.6,6.2-24.4,17.8-31.1c28-16.2,56-32.4,84.1-48.6
		c31.3-18,62.5-36.1,93.8-54.2c12.7-7.4,25.8-7.3,38.6,0.1c54.3,31.4,112,64.8,176.5,101.9c8.2,4.7,13.7,11,16.6,18.8
		c0,0-3.5-0.7-7-1.3s-7.8-1.4-7.8-1.4c-2-2.3-4.5-4.3-7.5-6C561.4,110.4,503.7,77,449.4,45.6c-4.7-2.7-9.2-4.1-13.7-4.1
		c-4.4,0-8.8,1.3-13.4,4c-31.3,18.1-62.5,36.1-93.8,54.2c-28,16.2-56,32.4-84,48.6c-8.1,4.7-12,11.6-12.1,21.1c0,29.3,0,58.7,0,88
		c0,0-1.5-0.6-6.1-1.7C221.7,254.4,220.8,255.6,220.8,255.6z M235.5,397.2c5.2,0.6,11.3,1,11.3,1c8,4.6,16,9.2,24,13.8l152.6,88.1
		c8.2,4.8,16.2,4.9,24,0.5c63.4-36.5,126.5-73,179.9-103.9c8-4.6,11.9-11.4,11.9-20.8c0-24.9,0-49.8,0-74.6v-57.4
		c0-18,0-35.9,0-53.9c0,0,3.3,0.6,6.2,0s5.3-2.3,5.3-2.3c0,18.7,0,37.4,0,56.2v57.4c0,24.9,0,49.8,0,74.7c0,13.5-6.1,24.1-17.6,30.8
		c-53.4,30.9-116.5,67.4-179.9,103.9c-5.5,3.2-11.3,4.8-17.1,4.8c-6.1,0-12.3-1.8-18.3-5.2L265,422c-8.7-5-17.3-10-26-15
		c-5.9-3.4-10.5-7.9-13.5-13.1C225.5,393.9,230.3,396.6,235.5,397.2z"/>
</g>
<g>
	<g>
		<path class="st6" d="M197,679.8c-2.3,10.5,0.8,24.7,18.7,32.3c2.8,1.1,4,0.8,3.7,1.7c-0.3,0.8-2.5,0.6-5.4-0.3
			c-16.7-5.9-24.1-20.7-22.1-35.7c2.8-21,26.1-37.4,61.5-37.1c11.9,0,30.6,3.7,48.2,8.5c9.4,2.5,19.3,5.4,28.9,7.9
			c7.4-4,19.8-7.9,31.2-7.9c9.9,0,17.9,2.8,17.6,8.8c-0.3,4.8-6.8,7.9-16.2,7.9c-11.6,0-20.4-1.1-31.4-2.8
			c-5.7,4-16.1,14.7-22.4,22.4c-8.8,10.8-14.4,19-22.4,28.9c6.5,0.3,18.1-0.3,24.1-2.3c2.5-3.1,7.9-10.8,13-9.6
			c4.5,1.1,0.8,4.5-5.7,10.5c-6,5.1-9.6,9.1-13,13c-1.7,2-2.3,3.4-2.8,3.1c-1.1-0.3,0-3.4,1.1-5.7c1.4-3.1,4-6.5,5.1-7.9
			c-5.1,1.4-14.7,2-24.4,2c-2,2.5-4.2,5.1-6.5,7.7c-23.5,25.5-52.1,43.1-84.4,43.1c-16.1,0-33.4-4.8-34-19.8
			c-0.3-7.1,4.8-14.2,13.6-14.2c5.1,0,9.1,4,8.5,8.8c-0.6,3.1-2.3,5.1-4.2,7.1c-2.6,2.6-3.7,4.5-3.7,6.5c0.3,6.2,10.5,9.1,19.3,9.1
			c21,0,41.6-11.1,56.7-27.5c7.1-7.6,12.2-13.9,17.3-21c-6.2,0-12.2,0-15.6,0.3c-6,0.3-7.4,1.4-7.4-0.3c0.3-1.1,2.8-2,9.6-2.5
			c3.1-0.3,10.8-0.3,15.3-0.3c4-5.4,8.2-10.5,14.4-17.6c13.6-14.7,32.3-30,41.1-35.1c-6.5-1.4-14.4-3.4-24.4-5.7
			c-11.3-2.5-32.6-6.5-47.9-6.5C225.4,649.5,202.1,658.6,197,679.8z M336.7,658.9c10.5,2.8,21.5,4.5,27.5,4.5c6.5,0,11.9-2,12.2-5.7
			c0.3-3.7-5.7-5.9-15-5.9C352.3,651.8,342.9,654.9,336.7,658.9z"/>
		<path class="st6" d="M398.5,748.9c-4.9,6-9.6,8.4-16.3,8.4c-17.3,0-29.4-13.5-29.4-32.9c0-5,0.8-5.9,5.9-5.9H390
			c3.1,0,8.2,0,8.9-0.6c0.1-0.2,0.5-1.2,0.5-3.7c0-9.1-8.7-18.8-22.7-18.8c-18.7,0-32.7,15.9-32.7,36.9c0,5.6,1.2,13.9,6.8,21.2
			c5.2,6.8,13.7,10.7,23.5,10.7c8.3,0,19.8-3.8,25.2-14.6C399.4,749.2,399.1,748.8,398.5,748.9z M374.8,697.9
			c10.6,0,14.3,6.4,14.3,11.9c0,2.2-0.5,3.6-1.6,4.3c-1.5,1.2-5.2,1.9-18.3,1.9h-12c-1.6,0-2.5-0.8-2.5-2.1
			C354.9,707.6,363.9,697.9,374.8,697.9z"/>
		<path class="st6" d="M441.8,761.9c5.5,0,10.3,0.1,16,0.5c0.1-0.2,0.2-0.6,0.2-1c0-0.3-0.1-0.5-0.1-0.7l-3.6-0.4
			c-7.3-1-7.6-3.9-7.6-16v-80c0-6.4,0.2-13.4,0.4-18.5l0.1-2.1c-0.1,0-0.1-0.1-0.2-0.1c-6,3.1-13.6,5.6-17.9,6.9c0,0.2,0,1,0.1,1.2
			l1.6,0.9c5.7,3.4,5.9,5.2,5.9,15.1v76.5c0,11.8,0,15-7.5,16l-3.4,0.4c-0.1,0.1-0.1,0.4-0.1,0.7c0,0.5,0.1,0.8,0.2,1
			C431,762,436,761.9,441.8,761.9z"/>
		<g>
			<path class="st6" d="M502.2,761.9c5.6,0,10.4,0.1,15.5,0.5c0.1-0.2,0.2-0.6,0.2-1c0-0.3-0.1-0.5-0.1-0.7l-3.1-0.4
				c-7.3-1-7.5-3.9-7.5-16v-30.5c0-8,0.4-16.9,0.7-20.7c0,0,0,0-0.1,0c-4.2,2.6-13.2,6.7-17.1,8.1c-0.1,0.2,0,0.7,0.1,1l1.4,0.9
				c5.1,3.4,5.1,4.8,5.1,11.6v29.6c0,11.8,0,15-7.5,16l-3.1,0.4c-0.1,0.1-0.1,0.4-0.1,0.7c0,0.5,0.1,0.8,0.2,1
				C491.4,762,496.3,761.9,502.2,761.9z"/>
			<path class="st6" d="M501,673.9c1.8,0,7.7-0.5,7.7-7.5c0-4.3-3.1-7.5-7.2-7.5c-4.6,0-7.9,3.2-7.9,7.8
				C493.6,670.3,496.1,673.9,501,673.9z"/>
		</g>
		<path class="st6" d="M604.7,747.1c-3.6,5.1-8.8,10.2-19.5,10.2c-17.9,0-28.5-15.4-28.5-30.2c0-18.7,12.4-28.5,24.6-28.5
			c7.5,0,14.2,4.9,17.9,9.4c0.4,0.5,0.8,0.7,1.4,0.7c0.9,0,2.4-2.3,2.4-5c0-2.5-1-4.7-2-5.7c-4.1-1.8-10.3-2.7-14.3-2.7
			c-27.3,0-39.7,18.9-39.7,36.4c0,9.8,3.3,18.1,9.4,24.1c5.5,5.3,13.4,8.3,22.3,8.3c8.9,0,21.2-4.2,26.9-16.1
			C605.5,747.6,605.1,747.3,604.7,747.1z"/>
		<path class="st6" d="M666.3,695.4c-19.8,0-34.8,15.2-34.8,35.3c0,19.8,13.7,33.6,33.4,33.6c20.3,0,34.4-14.4,34.4-35.1
			C699.3,709.9,685.1,695.4,666.3,695.4z M666.6,761.7c-15.9,0-23.1-17.2-23.1-33.3c0-18.6,8.1-30.6,20.7-30.6
			c16,0,23.1,17,23.1,33.9C687.3,746.3,681.9,761.7,666.6,761.7z"/>
	</g>
</g>
</svg>
