<svg xmlns="http://www.w3.org/2000/svg" width="100" height="100"><style></style><path d="M50.3 85.3H50c-.9.1-2.6-.4-7.3-4.2-3.9-3.2-8.3-7.4-12.3-11.8-7.7-8.5-14.7-17-16-28.1-.8-7.1.8-13.5 4.6-18 3.2-3.8 7.6-6 12.8-6.3 7.7-.5 12.9 2 18.3 8.9 5.4-7 10.6-9.4 18.3-8.9 5.2.3 9.6 2.5 12.8 6.3 3.8 4.5 5.4 10.9 4.6 18-1.3 11.1-8.3 19.6-16 28.1-4 4.4-8.4 8.6-12.3 11.8-4.5 3.4-6.3 4.2-7.2 4.2zm.3-3.4zm-1.2 0zm.6-.2h.2c1.6-.6 8.6-5.7 16.9-14.8 7.3-8 13.9-16.1 15.1-26.2.7-6.2-.6-11.6-3.8-15.4-2.5-3-6.1-4.8-10.3-5-7.1-.4-11.3 1.9-16.5 9.2l-.1.2c-.3.4-.9.7-1.4.7-.5 0-1.1-.2-1.4-.7l-.2-.2c-5.3-7.3-9.4-9.6-16.5-9.2-4.2.3-7.8 2-10.3 5-3.1 3.7-4.5 9.2-3.8 15.4 1.2 10.1 7.8 18.1 15.1 26.2 8.3 9.1 15.3 14.2 16.9 14.8h.1z" id="ol"/></svg>
