<?xml version="1.0" encoding="UTF-8"?>
<svg id="_レイヤー_1" xmlns="http://www.w3.org/2000/svg" version="1.1" viewBox="0 0 100 100">
  <!-- Generator: Adobe Illustrator 29.5.1, SVG Export Plug-In . SVG Version: 2.1.0 Build 141)  -->
  <path d="M49.7,31.1c0-11.3-9.2-20.4-20.4-20.4S8.9,19.8,8.9,31.1s9.2,20.4,20.4,20.4,20.4-9.2,20.4-20.4ZM11.9,31.1c0-9.6,7.8-17.4,17.4-17.4s17.4,7.8,17.4,17.4-7.8,17.4-17.4,17.4-17.4-7.8-17.4-17.4Z"/>
  <path d="M22.9,21.8c-.3-.8-1.1-1.2-1.9-.9-.8.3-1.2,1.1-.9,1.9.4,1.1.3,2.2-.2,3.2s-1.4,1.7-2.4,2.1c-1.1.3-2.2.3-3.2-.2-.7-.4-1.6,0-2,.7s0,1.6.7,2c1,.5,2.1.8,3.2.8s1.5-.1,2.2-.4c1.8-.6,3.3-1.9,4.1-3.6.9-1.7,1-3.7.4-5.5h0Z"/>
  <path d="M32.8,27.2c.9-1.7,1-3.7.4-5.5-.3-.8-1.1-1.2-1.9-.9-.8.3-1.2,1.1-.9,1.9.4,1.1.3,2.2-.2,3.2-1,2-3.5,2.9-5.6,1.8-.7-.4-1.6,0-2,.7s0,1.6.7,2c1,.5,2.1.8,3.2.8,2.6,0,5.1-1.4,6.4-3.9h-.1Z"/>
  <path d="M32.9,28.4c-.4.7,0,1.6.7,2,1,.5,2.1.8,3.2.8,2.6,0,5.1-1.4,6.4-3.9.9-1.7,1-3.7.4-5.5-.3-.8-1.1-1.2-1.9-.9-.8.3-1.2,1.1-.9,1.9.4,1.1.3,2.2-.2,3.2-1,2-3.5,2.9-5.6,1.8-.7-.4-1.6,0-2,.7h-.1Z"/>
  <path d="M51.9,59.6c-.3-.8-1.1-1.2-1.9-1-.8.3-1.2,1.1-1,1.9.4,1.1.3,2.2-.2,3.2-.5,1-1.4,1.7-2.4,2.1-1.1.3-2.2.3-3.2-.2-.7-.4-1.6,0-2,.7s0,1.6.7,2c1,.5,2.1.8,3.2.8s1.5,0,2.2-.4c1.8-.6,3.3-1.9,4.1-3.6.9-1.7,1-3.7.4-5.5h.1Z"/>
  <path d="M62.2,59.6c-.3-.8-1.1-1.2-1.9-.9-.8.3-1.2,1.1-.9,1.9.4,1.1.3,2.2-.2,3.2-.5,1-1.4,1.7-2.4,2.1-1.1.3-2.2.3-3.2-.2-.7-.4-1.6,0-2,.7s0,1.6.7,2c1,.5,2.1.8,3.2.8s1.5,0,2.2-.4c1.8-.6,3.3-1.9,4.1-3.6.9-1.7,1-3.7.4-5.5h0Z"/>
  <path d="M69.6,60.5c.4,1.1.3,2.2-.2,3.2-.5,1-1.4,1.7-2.4,2.1-1.1.3-2.2.3-3.2-.2-.7-.4-1.6,0-2,.7s0,1.6.7,2c1,.5,2.1.8,3.2.8s1.5,0,2.2-.4c1.8-.6,3.3-1.9,4.1-3.6.9-1.7,1-3.7.4-5.5-.3-.8-1.1-1.2-1.9-.9s-1.2,1.1-.9,1.9h0Z"/>
  <path d="M93.4,56.5c0-.4-.4-.8-.8-.9-.5-.2-1-.5-1.6-.7-5.6-2.1-11.7-1.7-16.9,1.1-3.7-4.6-9.4-7.5-15.8-7.5s-12,2.9-15.8,7.5c-5.2-2.8-11.3-3.2-16.9-1.1-.6.2-1.2.5-1.6.7s-.7.5-.8.9c-.1.4,0,.9.2,1.2l4.8,7.5c.3.4.7.7,1.2.7h0c.4,0,.9-.2,1.1-.5,1.9-2.3,4.4-4,7.2-5.1.8-.3,1.6-.5,2.4-.7-1.4,2.8-2.3,6-2.3,9.3,0,11.3,9.2,20.4,20.4,20.4s20.4-9.2,20.4-20.4-.8-6.5-2.3-9.3c.8.2,1.6.4,2.4.7,2.8,1.1,5.2,2.8,7.2,5.1.3.3.7.5,1.1.5s0,0,0,0c.5,0,.9-.3,1.2-.7l4.8-7.5c.2-.4.3-.8.2-1.2h.2ZM36.7,57.5c-2.6,1-5,2.5-7,4.5l-2.8-4.4c3.5-1.3,7.2-1.4,10.7-.4-.3,0-.6.2-.9.3ZM58.3,86.3c-9.6,0-17.4-7.8-17.4-17.4s7.8-17.4,17.4-17.4,17.4,7.8,17.4,17.4-7.8,17.4-17.4,17.4ZM86.9,62c-2-2-4.4-3.5-7-4.5-.3,0-.6-.2-.9-.3,3.5-1,7.2-.9,10.7.4,0,0-2.8,4.4-2.8,4.4Z"/>
</svg>