<svg xmlns="http://www.w3.org/2000/svg" width="100" height="100"><style>.st4{fill:#fff;stroke:#000;stroke-width:3;stroke-linecap:round;stroke-linejoin:round;stroke-miterlimit:10}</style><g id="ol"><path d="M80.4 20.9c-6.6-6.6-17.1-6.8-23.9-.4-.3.3-.5.7-.5 1.1 0 .4.2.8.4 1.1l22.2 22.2c.3.3.7.4 1.1.4.4 0 .8-.2 1.1-.5 6.4-6.8 6.2-17.3-.4-23.9zm-.8 20.7L59.7 21.7c5.6-4.2 13.5-3.7 18.6 1.3 5 5.1 5.5 13 1.3 18.6zM55.7 24c-.3-.3-.8-.5-1.2-.4-.5.1-.9.3-1.1.7-2 3.3-2.7 7-2.3 10.6L20.7 70.3c-.5.6-.5 1.5.1 2l3.3 3.3c-2.1 1.1-3.7 3.1-4.3 5.5-.5 2-2 3.5-4 4-.8.2-1.3 1-1.1 1.8.2.7.8 1.1 1.5 1.1h.4c3.1-.8 5.4-3.2 6.2-6.2.5-1.9 1.9-3.3 3.7-3.9l3.5 3.5c.3.3.7.4 1.1.4.3 0 .7-.1 1-.4l36-30.9c.1-.1.2-.2.2-.3 3 0 6.1-.8 8.8-2.4.4-.2.7-.6.7-1.1.1-.5-.1-.9-.4-1.2L55.7 24zM31 78.3l-7.1-7.1 28.9-33.7 12 12L31 78.3zm35.9-31L54 34.4c-.2-2.3.1-4.6 1-6.8l18.6 18.6c-2.1 1-4.4 1.3-6.7 1.1z"/></g></svg>
