<svg xmlns="http://www.w3.org/2000/svg" width="100" height="100"><style>.st4{fill:#fff;stroke:#000;stroke-width:3;stroke-linecap:round;stroke-linejoin:round;stroke-miterlimit:10}</style><g id="ol"><path d="M34.3 37.6c5.1 0 9.2-4.1 9.2-9.2s-4.1-9.2-9.2-9.2-9.2 4.1-9.2 9.2 4.1 9.2 9.2 9.2zm0-15.4c3.4 0 6.2 2.8 6.2 6.2s-2.8 6.2-6.2 6.2c-3.4 0-6.2-2.8-6.2-6.2s2.8-6.2 6.2-6.2z"/><path d="M95 34.5l-.1-.2c-.1-.2-.2-.5-.3-.7-.1-.1-.1-.3-.2-.5s-.2-.3-.3-.4c-.1-.1-.1-.2-.2-.3l-.2-.2-.2-.2c-.1-.1-.2-.2-.3-.2-.1-.1-.3-.2-.4-.3-.2-.1-.4-.2-.6-.4-.1-.1-.3-.2-.4-.2-.2-.1-.4-.2-.7-.2-.1 0-.3-.1-.4-.1-.2 0-.4-.1-.7-.1h-1l.1 1.5-.2-1.5h-.4c-.2 0-.4.1-.6.2l.4 1.5-.5-1.4c-.1 0-.3.1-.4.1-.2.1-.4.2-.7.4-.1.1-.2.1-.3.2-.3.2-.7.5-.9.8l-11.3 11c-2.1 2.1-5 3.3-8 3.3h-9.5c-2 0-3.8.8-5.2 2.2l-3.9 3.9v-5.1l9.6-9.6c.9 4.2 4.6 7.4 9 7.4 5.1 0 9.2-4.1 9.2-9.2S71.3 27 66.2 27c-1.1 0-2.1.2-3.1.6-.1-.2-.2-.4-.2-.6-.1-.1-.1-.3-.2-.5s-.2-.3-.3-.4c-.1-.1-.1-.2-.2-.3l-.2-.2-.2-.2c-.1-.1-.2-.2-.3-.2-.1-.1-.3-.2-.4-.3-.2-.1-.4-.2-.6-.4-.1-.1-.3-.2-.4-.2-.2-.1-.4-.2-.7-.2-.1 0-.3-.1-.4-.1-.2 0-.4-.1-.7-.1h-1l.1 1.5-.4-1.8h-.4c-.2 0-.4.1-.6.2l.4 1.5-.5-1.4c-.1 0-.3.1-.4.1-.2.1-.4.2-.7.4-.1.1-.2.1-.3.2-.3.2-.7.5-.9.8L42.3 36.5c-2.1 2.1-5 3.3-8 3.3s-5.9-1.2-8-3.3L15 25.3c-1.1-1.1-2.5-1.7-4.1-1.7-1.5 0-3 .6-4.1 1.7-2.2 2.2-2.2 5.9 0 8.1L21 47.5v29.7c0 .8.7 1.5 1.5 1.5S24 78 24 77.2V46.9c0-.4-.2-.8-.4-1.1L9 31.3c-1.1-1.1-1.1-2.8 0-3.9s2.8-1.1 3.9 0l11.2 11.2c5.6 5.6 14.7 5.6 20.3 0l11.2-11.2.4-.4c.1 0 .1-.1.2-.1.1-.1.2-.1.3-.2l.2-.1c.1 0 .2-.1.3-.1h1c.1 0 .1 0 .2.1.1 0 .2.1.3.1.1 0 .1.1.2.1.1.1.2.1.3.2.1 0 .1.1.2.2l.1.1.1.1.1.1.1.1c.1.1.1.1.1.2s.1.1.1.2c.1.1.1.2.2.4 0 .1.1.3.1.4-1.4 1.2-2.5 2.7-3 4.6L45 45.9c-.3.3-.4.7-.4 1.1v8.7l-8.1 8.1c-1.1 1.1-1.7 2.5-1.7 4.1s.6 3 1.7 4.1c2.2 2.2 5.8 2.2 8.1 0v12c0 .8.7 1.5 1.5 1.5s1.5-.7 1.5-1.5V68.9l5.3-5.3v18c0 .8.7 1.5 1.5 1.5s1.5-.7 1.5-1.5V60c0-.6-.4-1.2-.9-1.4-.6-.2-1.2-.1-1.6.3L42.5 69.7c-1.1 1.1-2.8 1.1-3.9 0-.5-.5-.8-1.2-.8-2s.3-1.4.8-2l15-15c.8-.8 1.9-1.3 3.1-1.3h9.5c3.8 0 7.4-1.5 10.2-4.2L87.6 34l.4-.4c.1 0 .1-.1.2-.1.1-.1.2-.1.3-.2l.2-.1c.1 0 .2-.1.3-.1h1c.1 0 .1 0 .2.1.1 0 .2.1.3.1.1 0 .1.1.2.1.1.1.2.1.3.2l.2.2.1.1.1.1.1.1.1.1c.1.1.1.1.1.2s.1.1.1.2c.1.1.1.2.2.4.3 1 0 2-.7 2.7L76.9 52.6c-.3.3-.4.7-.4 1.1v22.1c0 .8.7 1.5 1.5 1.5s1.5-.7 1.5-1.5V54.3l14.1-14.1c1.5-1.5 2-3.7 1.4-5.7zm-22.6 1.6c0 3.4-2.8 6.2-6.2 6.2S60 39.5 60 36.1s2.8-6.2 6.2-6.2 6.2 2.8 6.2 6.2z"/></g></svg>
