<svg xmlns="http://www.w3.org/2000/svg" width="100" height="100"><style></style><g id="ol"><path d="M75.2 17.9H24.8c-6.1 0-11.1 5-11.1 11.1v42c0 6.1 5 11.1 11.1 11.1h50.4c6.1 0 11.1-5 11.1-11.1V29c-.1-6.1-5-11.1-11.1-11.1zM63 29.4c0-1.9 1.5-3.4 3.4-3.4H72c1.9 0 3.4 1.5 3.4 3.4s-1.5 3.4-3.4 3.4h-5.6c-1.8 0-3.4-1.5-3.4-3.4zm12.2 49.7H24.8c-4.5 0-8.1-3.6-8.1-8.1V39.4h66.5V71c0 4.5-3.6 8.1-8 8.1z"/><path d="M50 44.9c-7.8 0-14.2 6.4-14.2 14.2S42.2 73.3 50 73.3 64.2 67 64.2 59.1 57.8 44.9 50 44.9zM50 70c-6 0-10.9-4.9-10.9-10.9S44 48.3 50 48.3s10.9 4.9 10.9 10.9S56 70 50 70z"/></g></svg>
