<?xml version="1.0" encoding="utf-8"?>
<!-- Generator: Adobe Illustrator 24.1.0, SVG Export Plug-In . SVG Version: 6.00 Build 0)  -->
<svg version="1.1" id="レイヤー_1" xmlns="http://www.w3.org/2000/svg" xmlns:xlink="http://www.w3.org/1999/xlink" x="0px"
	 y="0px" width="100px" height="100px" viewBox="0 0 100 100" style="enable-background:new 0 0 100 100;" xml:space="preserve">
<path d="M86.5,32.1c0-2.2-0.2-4.5-0.7-6.7c-1-4-3.2-7-6.6-9.2c-1.7-1.1-3.7-1.8-5.7-2.2c-1.6-0.3-3.2-0.4-4.8-0.5
	c-0.1,0-0.3,0-0.4,0H31.7c-0.5,0-0.9,0.1-1.4,0.1c-2.3,0.1-4.5,0.4-6.7,1.2c-4.1,1.6-7,4.4-8.7,8.4c-0.6,1.4-0.9,2.8-1.1,4.3
	c-0.2,1.2-0.3,2.4-0.3,3.6c0,0.1,0,0.2,0,0.3v37.2c0,0.4,0,0.9,0.1,1.3c0.2,2.5,0.5,4.9,1.5,7.2c2,4.3,5.3,7.2,9.8,8.5
	c1.3,0.4,2.6,0.6,3.9,0.7c1.7,0.2,3.4,0.2,5.1,0.2c11.2,0,22.4,0,33.5,0c1.6,0,3.2-0.1,4.8-0.3c2.5-0.3,4.9-1.1,7-2.5
	c2.6-1.7,4.5-3.9,5.7-6.7c0.6-1.3,0.9-2.6,1.1-4c0.3-2.1,0.4-4.1,0.4-6.2C86.5,55.2,86.5,43.7,86.5,32.1 M67,44.3
	c0,5.8,0,11.6,0,17.4c0,1.3-0.2,2.5-0.7,3.7c-0.9,1.8-2.3,2.9-4.2,3.5c-1.1,0.3-2.1,0.5-3.3,0.5c-2.9,0.1-5.4-1.8-5.9-4.7
	c-0.4-2.3,0.7-4.9,3.2-6.1c1-0.5,2-0.8,3.1-1c1.1-0.2,2.3-0.5,3.4-0.7c0.8-0.2,1.4-0.7,1.6-1.6c0-0.2,0.1-0.4,0.1-0.6
	c0-5.5,0-11,0-16.6c0-0.2,0-0.4-0.1-0.6c-0.1-0.5-0.5-0.7-0.9-0.7c-0.5,0-1,0.1-1.4,0.2c-2.3,0.5-4.6,0.9-6.9,1.4
	c-2.4,0.5-4.7,1-7.1,1.4c-1.4,0.3-2.8,0.6-4.2,0.8c0,0-0.1,0-0.1,0c-0.8,0.2-1.1,0.6-1.2,1.5c0,0.1,0,0.3,0,0.4c0,7.9,0,15.8,0,23.7
	c0,1.3-0.1,2.5-0.7,3.7c-0.8,2-2.3,3.2-4.4,3.8c-1.1,0.3-2.2,0.5-3.3,0.5c-2.9,0.1-5.3-1.8-5.8-4.7c-0.4-2.5,0.7-5.1,3.5-6.3
	c1.1-0.5,2.2-0.7,3.4-0.9c0.9-0.2,1.7-0.3,2.6-0.5c1.2-0.3,1.8-1,1.8-2.2c0-0.2,0-0.3,0-0.5c0-9,0-18,0-27c0-0.4,0-0.8,0.1-1.1
	c0.2-0.9,0.8-1.4,1.7-1.6c0.8-0.2,1.6-0.3,2.4-0.5c2.2-0.5,4.5-0.9,6.7-1.3c2.3-0.5,4.6-0.9,6.9-1.4c2-0.4,4.1-0.8,6.1-1.2
	c0.7-0.1,1.3-0.3,2-0.3c0.9-0.1,1.6,0.5,1.7,1.5c0,0.2,0,0.5,0,0.7C67,32.6,67,38.5,67,44.3L67,44.3z"/>
</svg>
