<?xml version="1.0" encoding="utf-8"?>
<!-- Generator: Adobe Illustrator 24.1.0, SVG Export Plug-In . SVG Version: 6.00 Build 0)  -->
<svg version="1.1" id="レイヤー_1" xmlns="http://www.w3.org/2000/svg" xmlns:xlink="http://www.w3.org/1999/xlink" x="0px"
	 y="0px" width="100px" height="100px" viewBox="0 0 100 100" style="enable-background:new 0 0 100 100;" xml:space="preserve">
<g>
	<path d="M50,18.4c10.3,0,11.5,0,15.6,0.2c3.8,0.2,5.8,0.8,7.1,1.3c1.8,0.7,3.1,1.5,4.4,2.9c1.3,1.3,2.2,2.6,2.9,4.4
		c0.5,1.4,1.2,3.4,1.3,7.1c0.2,4.1,0.2,5.3,0.2,15.6s0,11.5-0.2,15.6c-0.2,3.8-0.8,5.8-1.3,7.1c-0.7,1.8-1.5,3.1-2.9,4.4
		c-1.3,1.3-2.6,2.2-4.4,2.9c-1.4,0.5-3.4,1.2-7.1,1.3c-4.1,0.2-5.3,0.2-15.6,0.2s-11.5,0-15.6-0.2c-3.8-0.2-5.8-0.8-7.1-1.3
		c-1.8-0.7-3.1-1.5-4.4-2.9c-1.3-1.3-2.2-2.6-2.9-4.4c-0.5-1.4-1.2-3.4-1.3-7.1c-0.2-4.1-0.2-5.3-0.2-15.6s0-11.5,0.2-15.6
		c0.2-3.8,0.8-5.8,1.3-7.1c0.7-1.8,1.5-3.1,2.9-4.4c1.3-1.3,2.6-2.2,4.4-2.9c1.4-0.5,3.4-1.2,7.1-1.3C38.5,18.5,39.7,18.4,50,18.4
		 M50,11.5c-10.5,0-11.8,0-15.9,0.2c-4.1,0.2-6.9,0.8-9.3,1.8c-2.5,1-4.7,2.3-6.8,4.4c-2.1,2.1-3.5,4.3-4.4,6.8
		c-1,2.4-1.6,5.2-1.8,9.3c-0.2,4.1-0.2,5.4-0.2,15.9c0,10.5,0,11.8,0.2,15.9c0.2,4.1,0.8,6.9,1.8,9.3c1,2.5,2.3,4.7,4.4,6.8
		c2.1,2.1,4.3,3.5,6.8,4.4c2.4,1,5.2,1.6,9.3,1.8c4.1,0.2,5.4,0.2,15.9,0.2s11.8,0,15.9-0.2c4.1-0.2,6.9-0.8,9.3-1.8
		c2.5-1,4.7-2.3,6.8-4.4c2.1-2.1,3.5-4.3,4.4-6.8c1-2.4,1.6-5.2,1.8-9.3c0.2-4.1,0.2-5.4,0.2-15.9s0-11.8-0.2-15.9
		c-0.2-4.1-0.8-6.9-1.8-9.3c-1-2.5-2.3-4.7-4.4-6.8c-2.1-2.1-4.3-3.5-6.8-4.4c-2.4-1-5.2-1.6-9.3-1.8C61.8,11.5,60.5,11.5,50,11.5
		L50,11.5z"/>
	<path d="M50,30.2c-10.9,0-19.8,8.9-19.8,19.8S39.1,69.8,50,69.8S69.8,60.9,69.8,50S60.9,30.2,50,30.2z M50,62.8
		c-7.1,0-12.8-5.7-12.8-12.8c0-7.1,5.7-12.8,12.8-12.8c7.1,0,12.8,5.7,12.8,12.8C62.8,57.1,57.1,62.8,50,62.8z"/>
	<circle cx="70.6" cy="29.4" r="4.6"/>
</g>
</svg>
