<?xml version="1.0" encoding="utf-8"?>
<!-- Generator: Adobe Illustrator 24.1.0, SVG Export Plug-In . SVG Version: 6.00 Build 0)  -->
<svg version="1.1" id="レイヤー_1" xmlns="http://www.w3.org/2000/svg" xmlns:xlink="http://www.w3.org/1999/xlink" x="0px"
	 y="0px" width="100px" height="100px" viewBox="0 0 100 100" style="enable-background:new 0 0 100 100;" xml:space="preserve">
<g>
	<g>
		<g>
			<path d="M50,11.5c-21.3,0-38.5,17.2-38.5,38.5c0,21.3,17.2,38.5,38.5,38.5c21.3,0,38.5-17.2,38.5-38.5
				C88.5,28.7,71.3,11.5,50,11.5z M67.6,67c-0.7,1.1-2.2,1.5-3.3,0.8c-9-5.5-20.4-6.8-33.8-3.7c-1.3,0.3-2.6-0.5-2.9-1.8
				c-0.3-1.3,0.5-2.6,1.8-2.9c14.7-3.4,27.2-1.9,37.4,4.3C68,64.4,68.3,65.9,67.6,67z M72.4,56.5c-0.9,1.4-2.7,1.9-4.1,1
				c-10.3-6.4-26.1-8.2-38.3-4.5c-1.6,0.5-3.3-0.4-3.7-2c-0.5-1.6,0.4-3.3,2-3.7c14-4.2,31.4-2.2,43.2,5.1
				C72.8,53.3,73.2,55.1,72.4,56.5z M72.8,45.6c-12.4-7.4-32.9-8-44.7-4.4c-1.9,0.6-3.9-0.5-4.5-2.4c-0.6-1.9,0.5-3.9,2.4-4.5
				c13.6-4.1,36.2-3.3,50.5,5.1c1.7,1,2.3,3.2,1.3,4.9C76.7,46.1,74.5,46.6,72.8,45.6z"/>
		</g>
	</g>
</g>
</svg>
