<?xml version="1.0" encoding="utf-8"?>
<!-- Generator: Adobe Illustrator 24.1.0, SVG Export Plug-In . SVG Version: 6.00 Build 0)  -->
<svg version="1.1" id="レイヤー_1" xmlns="http://www.w3.org/2000/svg" xmlns:xlink="http://www.w3.org/1999/xlink" x="0px"
	 y="0px" width="100px" height="100px" viewBox="0 0 100 100" style="enable-background:new 0 0 100 100;" xml:space="preserve">
<style type="text/css">
	.st0{display:none;}
	.st1{display:inline;fill:none;stroke:#000000;stroke-width:5;stroke-miterlimit:10;}
</style>
<path d="M35.1,83.5c30.2,0,46.8-25,46.8-46.8c0-0.7,0-1.4,0-2.1c3.2-2.3,6-5.2,8.2-8.5c-3,1.3-6.2,2.2-9.4,2.6
	c3.4-2.1,6-5.3,7.2-9.1c-3.2,1.9-6.8,3.3-10.4,4c-6.2-6.6-16.6-6.9-23.2-0.7c-4.3,4-6.1,10-4.8,15.7C36.2,38,23.9,31.7,15.5,21.5
	c-4.4,7.5-2.1,17.1,5.1,21.9c-2.6-0.1-5.2-0.8-7.5-2.1c0,0.1,0,0.1,0,0.2c0,7.8,5.5,14.6,13.2,16.1c-2.4,0.7-5,0.8-7.4,0.3
	c2.2,6.7,8.3,11.3,15.4,11.4c-5.8,4.6-13,7.1-20.4,7c-1.3,0-2.6-0.1-3.9-0.2C17.5,81,26.2,83.5,35.1,83.5"/>
</svg>
