<?xml version="1.0" encoding="utf-8"?>
<!-- Generator: Adobe Illustrator 24.1.0, SVG Export Plug-In . SVG Version: 6.00 Build 0)  -->
<svg version="1.1" id="レイヤー_1" xmlns="http://www.w3.org/2000/svg" xmlns:xlink="http://www.w3.org/1999/xlink" x="0px"
	 y="0px" width="100px" height="100px" viewBox="0 0 100 100" style="enable-background:new 0 0 100 100;" xml:space="preserve">
<path d="M50,13.8c-20.1,0-36.5,16.4-36.5,36.5S29.9,86.8,50,86.8s36.5-16.4,36.5-36.5S70.1,13.8,50,13.8z M52.5,38.7
	c3.6-0.1,7.2-0.6,10.5-1.3c0.6,3,1,6.3,1.2,9.8H52.5V38.7z M52.5,33.7V19.3c3.6,1.5,7,6.3,9.2,13.2C58.8,33.2,55.7,33.6,52.5,33.7z
	 M47.5,19.3v14.4c-3.2-0.1-6.3-0.5-9.2-1.1C40.5,25.5,43.9,20.8,47.5,19.3z M47.5,38.7v8.6H35.8c0.2-3.5,0.6-6.8,1.2-9.8
	C40.3,38.1,43.9,38.6,47.5,38.7z M30.8,47.2H18.6c0.5-5.4,2.4-10.5,5.4-14.8c2.4,1.5,5.2,2.7,8.2,3.6C31.5,39.6,31,43.3,30.8,47.2z
	 M30.8,52.2c0.1,4.3,0.6,8.4,1.4,12.1c-3,1-5.8,2.2-8.2,3.6c-3.1-4.5-5.1-9.9-5.4-15.8H30.8z M35.8,52.2h11.7v9.6
	c-3.6,0.1-7.2,0.6-10.5,1.3C36.3,59.8,35.9,56.2,35.8,52.2z M47.5,66.8v14.4c-3.6-1.5-7-6.3-9.2-13.2C41.2,67.3,44.3,66.9,47.5,66.8
	z M52.5,81.2V66.8c3.2,0.1,6.3,0.5,9.2,1.1C59.5,75,56.1,79.7,52.5,81.2z M52.5,61.8v-9.6h11.7c-0.1,3.9-0.5,7.6-1.2,10.8
	C59.7,62.4,56.1,61.9,52.5,61.8z M69.2,52.2h12.2C81.1,58.1,79.1,63.5,76,68c-2.4-1.5-5.2-2.7-8.2-3.6
	C68.6,60.6,69.1,56.5,69.2,52.2z M69.2,47.2c-0.2-3.9-0.6-7.7-1.4-11.1c3-1,5.8-2.2,8.2-3.6c2.9,4.3,4.8,9.3,5.4,14.8H69.2z
	 M72.8,28.6c-1.9,1.1-4,2-6.3,2.7c-1.3-4-2.9-7.5-4.9-10.3C65.9,22.7,69.7,25.3,72.8,28.6z M38.4,21c-2,2.8-3.6,6.3-4.9,10.3
	c-2.3-0.8-4.4-1.7-6.3-2.7C30.3,25.3,34.1,22.7,38.4,21z M27.2,71.9c1.9-1.1,4-2,6.3-2.7c1.3,4,2.9,7.5,4.9,10.3
	C34.1,77.8,30.3,75.2,27.2,71.9z M61.6,79.5c2-2.8,3.6-6.3,4.9-10.3c2.3,0.8,4.4,1.7,6.3,2.7C69.7,75.2,65.9,77.8,61.6,79.5z"/>
</svg>
