<?xml version="1.0" encoding="utf-8"?>
<!-- Generator: Adobe Illustrator 24.1.0, SVG Export Plug-In . SVG Version: 6.00 Build 0)  -->
<svg version="1.1" id="レイヤー_1" xmlns="http://www.w3.org/2000/svg" xmlns:xlink="http://www.w3.org/1999/xlink" x="0px"
	 y="0px" width="100px" height="100px" viewBox="0 0 100 100" style="enable-background:new 0 0 100 100;" xml:space="preserve">
<style type="text/css">
	.st0{display:none;}
	.st1{display:inline;fill:none;stroke:#000000;stroke-width:5;stroke-miterlimit:10;}
</style>
<path d="M87.4,31.1c-0.9-3.4-3.5-6-6.9-6.9C74.4,22.5,50,22.5,50,22.5s-24.4,0-30.5,1.6c-3.4,0.9-6,3.6-6.9,6.9C11,37.2,11,50,11,50
	s0,12.8,1.6,18.9c0.9,3.4,3.5,6,6.9,6.9c6.1,1.6,30.5,1.6,30.5,1.6s24.4,0,30.5-1.6c3.4-0.9,6-3.6,6.9-6.9C89,62.8,89,50,89,50
	S89,37.2,87.4,31.1z M42,61.6V38.4L62.4,50L42,61.6z"/>
</svg>
