<?xml version="1.0" encoding="utf-8"?>
<!-- Generator: Adobe Illustrator 24.0.0, SVG Export Plug-In . SVG Version: 6.00 Build 0)  -->
<svg version="1.1" id="レイヤー_1" xmlns="http://www.w3.org/2000/svg" xmlns:xlink="http://www.w3.org/1999/xlink" x="0px"
	 y="0px" width="140px" height="100px" viewBox="0 0 140 100" style="enable-background:new 0 0 140 100;" xml:space="preserve">
<style type="text/css">
	.st0{fill:#4B473F;}
</style>
<g>
	<path class="st0" d="M52.88,34.94c0.07-0.43,0.26-0.83,0.56-1.19c0.3-0.36,0.62-0.81,0.96-1.34c0.34-0.53,0.68-1.18,1.01-1.95
		c0.34-0.77,0.58-1.79,0.72-3.04c0.12-1.06,0.19-2.12,0.2-3.17c0.01-1.05-0.07-2.09-0.24-3.13c-0.12-0.75-0.37-1.49-0.74-2.23
		c-0.37-0.74-0.8-1.42-1.29-2.04c-0.72-0.96-1.6-1.56-2.62-1.77c-1.03-0.22-2.11-0.08-3.24,0.4c-1.79,0.77-3.44,1.71-4.96,2.81
		c-1.52,1.1-2.94,2.35-4.27,3.75c-2.65,2.78-5.1,5.68-7.33,8.71c-2.23,3.03-4.28,6.17-6.15,9.41c-1.87,3.25-3.58,6.59-5.14,10.03
		c-1.56,3.44-2.99,6.96-4.29,10.55c-1.09,3.02-1.93,6.04-2.53,9.09c-0.6,3.04-0.83,6.18-0.69,9.41c0.07,1.62,0.28,3.21,0.62,4.78
		c0.34,1.57,0.93,3.08,1.77,4.53c1.52,2.56,3.33,4.17,5.43,4.85c2.1,0.68,4.46,0.33,7.09-1.05c3.43-1.76,6.6-3.84,9.52-6.23
		c1.81-1.45,3.55-2.99,5.21-4.62c1.67-1.63,3.37-3.24,5.1-4.83c0.1-0.1,0.27-0.27,0.52-0.51c0.25-0.24,0.51-0.46,0.76-0.67
		s0.46-0.34,0.63-0.42c0.17-0.07,0.22,0,0.15,0.22c-0.05,0.1-0.11,0.22-0.2,0.36c-0.08,0.14-0.18,0.29-0.27,0.45
		c-0.1,0.16-0.19,0.3-0.29,0.43c-0.1,0.13-0.18,0.24-0.25,0.31c-2.9,3.4-6.01,6.51-9.34,9.32c-3.33,2.81-6.96,5.29-10.89,7.44
		c-0.53,0.29-1.08,0.54-1.65,0.76c-0.57,0.22-1.14,0.4-1.72,0.54c-2.12,0.55-4.11,0.46-5.95-0.27c-1.85-0.74-3.38-2.01-4.62-3.82
		c-1.13-1.66-1.93-3.43-2.39-5.28c-0.46-1.86-0.75-3.77-0.87-5.72c-0.15-2.75,0-5.45,0.43-8.09c0.43-2.64,1.07-5.27,1.92-7.87
		c3.69-11.44,9-22.1,15.93-32c1.45-2.08,2.97-4.06,4.58-5.96c1.6-1.89,3.31-3.71,5.12-5.45c1.09-1.06,2.27-2.02,3.55-2.88
		c1.28-0.86,2.53-1.74,3.76-2.66c0.07-0.07,0.2-0.16,0.4-0.25c2.53-1.18,4.69-1.38,6.46-0.58c1.77,0.8,3.06,2.46,3.85,5
		c0.84,2.78,1.19,5.55,1.03,8.32c-0.16,2.78-0.92,5.45-2.3,8.04c-0.27,0.6-0.59,1.03-0.98,1.28c-0.39,0.25-0.75,0.36-1.1,0.31
		c-0.35-0.05-0.63-0.25-0.83-0.6C52.84,36.06,52.78,35.57,52.88,34.94z"/>
	<path class="st0" d="M62.07,62.63c0.46-0.17,0.84-0.35,1.14-0.54c0.3-0.19,0.56-0.37,0.78-0.52c0.22-0.16,0.4-0.27,0.56-0.34
		c0.16-0.07,0.3-0.08,0.42-0.04c0.1,0.05,0.1,0.22,0.02,0.53c-0.08,0.3-0.27,0.62-0.56,0.96c-0.27,0.34-0.56,0.61-0.87,0.81
		s-0.7,0.44-1.16,0.71c-0.29,0.17-0.52,0.32-0.71,0.45s-0.34,0.28-0.49,0.43c-0.14,0.16-0.28,0.33-0.42,0.53
		c-0.13,0.19-0.28,0.43-0.45,0.72c-0.34,0.58-0.72,1-1.16,1.27c-0.43,0.27-0.88,0.39-1.32,0.38c-0.45-0.01-0.89-0.16-1.32-0.45
		c-0.43-0.29-0.83-0.72-1.19-1.3c-0.34-0.53-0.58-1.13-0.74-1.81c-0.16-0.67-0.22-1.37-0.2-2.08c0.02-0.71,0.14-1.41,0.34-2.08
		c0.21-0.67,0.5-1.27,0.89-1.77c0.07-0.1,0.15-0.19,0.24-0.27c0.08-0.08,0.15-0.19,0.2-0.31c0.7-1.01,1.47-1.53,2.32-1.56
		c0.84-0.02,1.58,0.47,2.21,1.48c0.22,0.34,0.38,0.8,0.49,1.38c0.11,0.58,0.2,1.14,0.29,1.68c0.08,0.54,0.17,0.99,0.27,1.36
		C61.73,62.59,61.88,62.73,62.07,62.63z M56.57,62.3c-0.15,0.75-0.15,1.42-0.02,2.01c0.13,0.59,0.56,1.02,1.28,1.29
		c0.15,0.05,0.4-0.02,0.78-0.22c0.37-0.19,0.62-0.46,0.74-0.8c-0.34-0.02-0.66-0.19-0.96-0.49c-0.3-0.3-0.58-0.61-0.83-0.92
		s-0.46-0.57-0.63-0.78C56.76,62.19,56.64,62.16,56.57,62.3z M59.61,62.45c0.02-0.27,0.03-0.56,0.02-0.89
		c-0.01-0.33-0.05-0.65-0.13-0.98c-0.07-0.33-0.19-0.63-0.36-0.92c-0.17-0.29-0.41-0.53-0.72-0.72c-0.22,0.29-0.34,0.62-0.36,1
		c-0.02,0.37,0.03,0.74,0.16,1.09c0.13,0.35,0.33,0.66,0.58,0.92C59.05,62.21,59.32,62.38,59.61,62.45z"/>
	<path class="st0" d="M69.35,61.4c-0.14,0.36-0.28,0.72-0.42,1.09c-0.13,0.36-0.3,0.7-0.49,1.01c-0.29,0.48-0.59,0.95-0.9,1.41
		c-0.31,0.46-0.66,0.89-1.05,1.3c-0.34,0.34-0.72,0.46-1.14,0.36c-0.42-0.1-0.68-0.39-0.78-0.87c-0.1-0.6-0.14-1.33-0.14-2.17
		c0-0.84-0.04-1.57-0.11-2.17c-0.07-0.63-0.19-1.15-0.34-1.56c-0.16-0.41-0.26-0.93-0.31-1.56c-0.02-0.14,0.08-0.33,0.31-0.54
		c0.23-0.22,0.4-0.34,0.52-0.36c0.46-0.1,0.84-0.07,1.14,0.07c0.3,0.14,0.48,0.31,0.52,0.51c0.02,0.34,0.03,0.77,0.02,1.29
		c-0.01,0.52-0.02,1.03-0.02,1.54c0,0.51,0.03,0.96,0.09,1.38c0.06,0.41,0.19,0.66,0.38,0.76c0.07,0,0.16-0.13,0.27-0.4
		c0.11-0.26,0.23-0.58,0.38-0.96c0.14-0.37,0.28-0.76,0.42-1.16c0.13-0.4,0.26-0.73,0.38-1c0.17-0.41,0.39-0.77,0.67-1.09
		c0.28-0.31,0.63-0.41,1.07-0.29c0.31,0.1,0.62,0.31,0.9,0.63c0.29,0.33,0.49,0.66,0.62,0.99c0.24,0.72,0.42,1.46,0.52,2.21
		s0.25,1.51,0.42,2.28c0.12,1.13,0.33,2.08,0.63,2.84c0.3,0.76,0.63,1.56,1,2.41c-0.19,0.29-0.52,0.35-0.98,0.18
		c-0.46-0.17-0.86-0.48-1.19-0.94c-0.27-0.43-0.46-0.8-0.6-1.09c-0.13-0.29-0.26-0.67-0.38-1.16c-0.19-0.82-0.36-1.63-0.49-2.44
		c-0.13-0.81-0.27-1.63-0.42-2.48c0-0.17-0.06-0.27-0.18-0.31C69.55,61.09,69.44,61.18,69.35,61.4z"/>
	<path class="st0" d="M82.38,73.92c-0.31,0.63-0.63,1.24-0.96,1.83c-0.33,0.59-0.68,1.18-1.07,1.76c-0.27,0.41-0.56,0.8-0.87,1.16
		c-0.31,0.36-0.66,0.69-1.05,0.98c-0.56,0.39-1.09,0.52-1.61,0.4c-0.52-0.12-0.94-0.48-1.25-1.09c-0.22-0.43-0.38-0.89-0.49-1.36
		c-0.11-0.47-0.2-0.95-0.27-1.43c-0.34-2.56-0.4-5.1-0.2-7.62s0.51-5.05,0.92-7.58c0.34-1.98,0.7-3.96,1.09-5.94
		c0.39-1.98,0.76-3.96,1.12-5.94c0.02-0.1,0.06-0.21,0.11-0.34c0.05-0.13,0.09-0.27,0.13-0.4c0.04-0.13,0.04-0.24,0.02-0.33
		s-0.08-0.13-0.18-0.13c-0.92,0.05-1.68,0.16-2.3,0.33c-0.62,0.17-1.13,0.36-1.56,0.56c-0.42,0.21-0.78,0.42-1.09,0.63
		c-0.3,0.22-0.6,0.4-0.89,0.56c-0.29,0.16-0.61,0.26-0.96,0.31c-0.35,0.05-0.78,0.01-1.28-0.11c-0.02,0-0.1-0.04-0.24-0.13
		c-0.13-0.08-0.26-0.19-0.38-0.31c-0.12-0.12-0.22-0.25-0.29-0.38c-0.07-0.13-0.05-0.26,0.07-0.38c0.19-0.24,0.4-0.41,0.62-0.51
		s0.46-0.18,0.72-0.25c1.04-0.34,2.07-0.68,3.09-1.01c1.03-0.34,2.07-0.65,3.13-0.94c0.72-0.19,1.27-0.49,1.63-0.9
		c0.36-0.41,0.64-0.96,0.83-1.67c0.48-2.1,1-4.17,1.56-6.22c0.55-2.05,1.12-4.11,1.7-6.19c0.17-0.63,0.39-1.23,0.65-1.81
		c0.27-0.58,0.54-1.16,0.83-1.74c0.22-0.41,0.5-0.74,0.85-1s0.79-0.28,1.32-0.09c0.48,0.19,0.76,0.48,0.83,0.87s0.08,0.78,0.04,1.19
		c-0.05,0.41-0.11,0.81-0.18,1.19c-0.07,0.39-0.17,0.77-0.29,1.16c-0.58,2.08-1.16,4.13-1.76,6.17c-0.59,2.04-1.19,4.1-1.79,6.17
		c-0.05,0.19-0.1,0.36-0.16,0.51c-0.06,0.14,0.04,0.18,0.31,0.11c1.06-0.19,2.11-0.46,3.15-0.81c1.04-0.35,2.07-0.71,3.09-1.07
		c1.03-0.36,2.06-0.69,3.11-0.99c1.05-0.3,2.12-0.5,3.2-0.6c0.48-0.07,0.73-0.08,0.74-0.02c0.01,0.06-0.13,0.17-0.42,0.33
		c-0.29,0.16-0.69,0.35-1.21,0.58c-0.52,0.23-1.06,0.45-1.61,0.67c-0.56,0.22-1.09,0.42-1.61,0.62s-0.94,0.35-1.25,0.47
		c-1.11,0.41-2.21,0.8-3.31,1.18c-1.1,0.38-2.2,0.77-3.31,1.18c-0.56,0.19-1.03,0.46-1.41,0.81c-0.39,0.35-0.77,0.77-1.16,1.25
		c-0.68,0.82-1.21,1.68-1.59,2.59c-0.39,0.9-0.69,1.83-0.91,2.77c-0.22,0.94-0.39,1.9-0.52,2.88c-0.13,0.98-0.28,1.95-0.45,2.91
		c-0.29,1.88-0.52,3.76-0.69,5.65s-0.31,3.78-0.43,5.68c-0.07,1.28-0.05,2.55,0.05,3.82c0.11,1.27,0.33,2.55,0.67,3.86
		c0.1,0.22,0.25,0.29,0.45,0.22s0.43-0.22,0.67-0.45c0.24-0.23,0.47-0.49,0.69-0.79c0.22-0.3,0.39-0.55,0.51-0.74
		c0.84-1.42,1.68-2.85,2.5-4.27s1.65-2.85,2.5-4.27c0.27-0.43,0.54-0.87,0.83-1.3c0.29-0.43,0.57-0.86,0.83-1.27
		c0.31-0.41,0.48-0.54,0.49-0.4c0.01,0.15-0.08,0.47-0.27,0.98c-0.19,0.51-0.45,1.15-0.78,1.92c-0.33,0.77-0.68,1.56-1.05,2.37
		s-0.74,1.59-1.09,2.33C82.91,72.82,82.62,73.44,82.38,73.92z M80.64,42.43c0.39-0.65,0.76-1.42,1.12-2.3s0.69-1.77,1-2.68
		s0.57-1.79,0.8-2.64c0.23-0.86,0.4-1.6,0.51-2.23c0.11-0.63,0.14-1.09,0.09-1.38c-0.05-0.29-0.18-0.33-0.4-0.11
		c-0.53,1.91-1.05,3.8-1.56,5.68S81.17,40.55,80.64,42.43z"/>
	<path class="st0" d="M92.73,59.99c-1.01-0.14-1.94-0.03-2.77,0.34c-0.83,0.37-1.51,0.89-2.03,1.54c-0.52,0.65-0.84,1.4-0.96,2.24
		c-0.12,0.85,0.04,1.68,0.47,2.5c0.27,0.19,0.53,0.17,0.78-0.07c0.25-0.24,0.51-0.6,0.76-1.07c0.25-0.47,0.5-1,0.74-1.57
		s0.48-1.12,0.71-1.61s0.45-0.89,0.67-1.19c0.22-0.3,0.43-0.4,0.65-0.31c0.17,0.07,0.32,0.22,0.45,0.44
		c0.13,0.22,0.25,0.46,0.34,0.74c0.1,0.28,0.19,0.56,0.27,0.83s0.16,0.52,0.24,0.74c0.24,0.77,0.51,1.37,0.8,1.79
		c0.29,0.42,0.57,0.72,0.85,0.89c0.28,0.17,0.54,0.24,0.78,0.22c0.24-0.02,0.45-0.07,0.62-0.14c0.12-0.07,0.26-0.18,0.43-0.33
		c0.17-0.14,0.34-0.3,0.51-0.47s0.33-0.31,0.47-0.43c0.14-0.12,0.27-0.18,0.36-0.18c0.22,0,0.28,0.18,0.2,0.54
		c-0.08,0.36-0.25,0.76-0.49,1.19c-0.24,0.43-0.54,0.83-0.9,1.19c-0.36,0.36-0.71,0.54-1.05,0.54c-0.36,0-0.7-0.06-1.01-0.18
		s-0.62-0.31-0.92-0.56s-0.63-0.57-0.98-0.96s-0.74-0.83-1.18-1.34c-0.36,0.36-0.64,0.75-0.83,1.16s-0.5,0.77-0.9,1.09
		c-0.53,0.53-1.11,0.91-1.74,1.14c-0.63,0.23-1.27,0.16-1.92-0.2c-0.63-0.34-0.98-0.81-1.05-1.43c-0.07-0.62-0.07-1.22,0-1.83
		c0.12-1.11,0.4-2.16,0.83-3.15c0.43-0.99,1.06-1.87,1.88-2.64c0.39-0.34,0.89-0.7,1.52-1.08c0.63-0.39,1.21-0.63,1.74-0.72
		c0.26-0.02,0.58,0.04,0.94,0.2c0.36,0.16,0.66,0.36,0.91,0.62s0.37,0.53,0.38,0.81C93.3,59.55,93.11,59.79,92.73,59.99z"/>
	<path class="st0" d="M106.63,63.5c-0.51,0.19-0.85,0.21-1.03,0.04c-0.18-0.17-0.27-0.4-0.27-0.71c0-0.3,0.05-0.62,0.15-0.94
		c0.1-0.33,0.16-0.57,0.18-0.74c0.07-0.82,0.04-1.38-0.11-1.68c-0.15-0.3-0.63-0.37-1.45-0.2c-0.34,0.07-0.68,0.19-1.01,0.34
		c-0.34,0.16-0.63,0.37-0.87,0.63c-0.89,0.92-1.63,1.91-2.23,2.99c-0.59,1.07-0.98,2.26-1.18,3.57c-0.19,1.23,0.03,2.14,0.67,2.73
		s1.56,0.67,2.77,0.23c1.11-0.43,2.18-0.96,3.22-1.59c1.04-0.63,2.09-1.23,3.15-1.81c0.36-0.19,0.73-0.41,1.1-0.65
		c0.37-0.24,0.84-0.52,1.39-0.83c0.26-0.12,0.36-0.09,0.27,0.09c-0.08,0.18-0.23,0.41-0.45,0.69c-0.22,0.28-0.45,0.55-0.69,0.81
		s-0.37,0.41-0.4,0.43c-0.63,0.58-1.22,1.09-1.79,1.52c-0.57,0.43-1.14,0.83-1.72,1.19c-0.58,0.36-1.19,0.69-1.83,0.98
		s-1.37,0.57-2.19,0.83c-0.75,0.24-1.49,0.37-2.23,0.4c-0.74,0.02-1.43-0.28-2.08-0.91c-0.7-0.67-1.12-1.42-1.27-2.23
		c-0.14-0.81-0.05-1.63,0.29-2.48c0.41-0.96,0.83-1.92,1.25-2.88s0.94-1.85,1.54-2.7c0.41-0.58,0.94-1.1,1.59-1.56
		c0.65-0.46,1.3-0.87,1.96-1.23c0.84-0.46,1.67-0.58,2.48-0.36c0.81,0.22,1.42,0.65,1.83,1.3c0.43,0.6,0.71,1.14,0.81,1.61
		c0.11,0.47,0.1,0.89-0.04,1.27c-0.13,0.38-0.36,0.71-0.69,1.01C107.44,62.99,107.06,63.26,106.63,63.5z"/>
	<path class="st0" d="M117.41,73.92c-0.31,0.63-0.63,1.24-0.96,1.83c-0.33,0.59-0.68,1.18-1.07,1.76c-0.27,0.41-0.56,0.8-0.87,1.16
		c-0.31,0.36-0.66,0.69-1.05,0.98c-0.56,0.39-1.09,0.52-1.61,0.4c-0.52-0.12-0.94-0.48-1.25-1.09c-0.22-0.43-0.38-0.89-0.49-1.36
		c-0.11-0.47-0.2-0.95-0.27-1.43c-0.34-2.56-0.4-5.1-0.2-7.62s0.51-5.05,0.92-7.58c0.34-1.98,0.7-3.96,1.09-5.94
		c0.39-1.98,0.76-3.96,1.12-5.94c0.02-0.1,0.06-0.21,0.11-0.34c0.05-0.13,0.09-0.27,0.13-0.4c0.04-0.13,0.04-0.24,0.02-0.33
		s-0.08-0.13-0.18-0.13c-0.92,0.05-1.68,0.16-2.3,0.33c-0.62,0.17-1.13,0.36-1.56,0.56s-0.78,0.42-1.09,0.63
		c-0.3,0.22-0.6,0.4-0.89,0.56c-0.29,0.16-0.61,0.26-0.96,0.31c-0.35,0.05-0.78,0.01-1.29-0.11c-0.02,0-0.1-0.04-0.24-0.13
		c-0.13-0.08-0.26-0.19-0.38-0.31c-0.12-0.12-0.22-0.25-0.29-0.38c-0.07-0.13-0.05-0.26,0.07-0.38c0.19-0.24,0.4-0.41,0.62-0.51
		c0.22-0.1,0.46-0.18,0.72-0.25c1.04-0.34,2.07-0.68,3.09-1.01s2.07-0.65,3.13-0.94c0.72-0.19,1.27-0.49,1.63-0.9
		c0.36-0.41,0.64-0.96,0.83-1.67c0.48-2.1,1-4.17,1.56-6.22c0.55-2.05,1.12-4.11,1.7-6.19c0.17-0.63,0.39-1.23,0.65-1.81
		c0.27-0.58,0.54-1.16,0.83-1.74c0.22-0.41,0.5-0.74,0.85-1s0.79-0.28,1.32-0.09c0.48,0.19,0.76,0.48,0.83,0.87s0.08,0.78,0.04,1.19
		c-0.05,0.41-0.11,0.81-0.18,1.19c-0.07,0.39-0.17,0.77-0.29,1.16c-0.58,2.08-1.16,4.13-1.76,6.17c-0.59,2.04-1.19,4.1-1.79,6.17
		c-0.05,0.19-0.1,0.36-0.16,0.51c-0.06,0.14,0.04,0.18,0.31,0.11c1.06-0.19,2.11-0.46,3.15-0.81c1.04-0.35,2.07-0.71,3.09-1.07
		c1.03-0.36,2.06-0.69,3.11-0.99c1.05-0.3,2.12-0.5,3.2-0.6c0.48-0.07,0.73-0.08,0.74-0.02c0.01,0.06-0.13,0.17-0.42,0.33
		c-0.29,0.16-0.69,0.35-1.21,0.58c-0.52,0.23-1.06,0.45-1.61,0.67c-0.56,0.22-1.09,0.42-1.61,0.62s-0.94,0.35-1.25,0.47
		c-1.11,0.41-2.21,0.8-3.31,1.18c-1.1,0.38-2.2,0.77-3.31,1.18c-0.56,0.19-1.03,0.46-1.41,0.81c-0.39,0.35-0.77,0.77-1.16,1.25
		c-0.68,0.82-1.21,1.68-1.59,2.59c-0.39,0.9-0.69,1.83-0.91,2.77c-0.22,0.94-0.39,1.9-0.52,2.88c-0.13,0.98-0.28,1.95-0.45,2.91
		c-0.29,1.88-0.52,3.76-0.69,5.65s-0.31,3.78-0.43,5.68c-0.07,1.28-0.05,2.55,0.05,3.82c0.11,1.27,0.33,2.55,0.67,3.86
		c0.1,0.22,0.25,0.29,0.45,0.22s0.43-0.22,0.67-0.45c0.24-0.23,0.47-0.49,0.69-0.79c0.22-0.3,0.39-0.55,0.51-0.74
		c0.84-1.42,1.68-2.85,2.5-4.27s1.65-2.85,2.5-4.27c0.27-0.43,0.54-0.87,0.83-1.3c0.29-0.43,0.57-0.86,0.83-1.27
		c0.31-0.41,0.48-0.54,0.49-0.4c0.01,0.15-0.08,0.47-0.27,0.98c-0.19,0.51-0.45,1.15-0.78,1.92c-0.33,0.77-0.68,1.56-1.05,2.37
		s-0.74,1.59-1.09,2.33C117.95,72.82,117.65,73.44,117.41,73.92z M115.68,42.43c0.39-0.65,0.76-1.42,1.12-2.3s0.69-1.77,1-2.68
		s0.57-1.79,0.8-2.64c0.23-0.86,0.4-1.6,0.51-2.23c0.11-0.63,0.14-1.09,0.09-1.38c-0.05-0.29-0.18-0.33-0.4-0.11
		c-0.53,1.91-1.05,3.8-1.56,5.68S116.21,40.55,115.68,42.43z"/>
</g>
</svg>
