<?xml version="1.0" encoding="utf-8"?>
<!-- Generator: Adobe Illustrator 24.0.0, SVG Export Plug-In . SVG Version: 6.00 Build 0)  -->
<svg version="1.1" id="レイヤー_1" xmlns="http://www.w3.org/2000/svg" xmlns:xlink="http://www.w3.org/1999/xlink" x="0px"
	 y="0px" width="140px" height="100px" viewBox="0 0 140 100" style="enable-background:new 0 0 140 100;" xml:space="preserve">
<style type="text/css">
	.st0{fill:#4B473F;}
</style>
<g>
	<path class="st0" d="M31.2,51.59c-0.27-0.31-0.35-0.63-0.25-0.94c0.1-0.31,0.27-0.6,0.52-0.87c0.25-0.27,0.52-0.5,0.81-0.71
		c0.29-0.2,0.51-0.34,0.65-0.42c2.17-0.41,4.02-1.1,5.56-2.06c1.53-0.96,2.87-2.11,4-3.44c1.13-1.33,2.13-2.79,2.99-4.38
		c0.86-1.59,1.72-3.23,2.59-4.92c1.59-3.14,2.96-6.33,4.11-9.57c1.15-3.25,2-6.62,2.55-10.12c0.14-0.99,0.24-1.98,0.29-2.99
		c0.05-1,0.1-2.01,0.14-3.02c0.05-0.92-0.14-1.69-0.58-2.32c-0.43-0.63-1.04-1.16-1.81-1.59c-1.95-1.11-4.05-1.48-6.3-1.12
		c-1.59,0.27-3.11,0.72-4.54,1.36c-1.44,0.64-2.81,1.41-4.11,2.3c-2.97,2.03-5.8,4.18-8.49,6.46c-2.69,2.28-5.19,4.81-7.51,7.58
		c-1.54,1.86-2.9,3.81-4.07,5.85c-1.17,2.04-1.97,4.28-2.41,6.71c-0.31,1.69-0.46,3.38-0.45,5.07c0.01,1.69,0.15,3.38,0.42,5.07
		c0.48,2.75,1.23,5.39,2.24,7.91c1.01,2.52,2.09,5.05,3.22,7.58c0.92,1.98,1.83,3.95,2.75,5.92c0.92,1.97,1.82,3.95,2.71,5.95
		c0.39,0.84,0.73,1.71,1.03,2.59c0.3,0.88,0.62,1.74,0.96,2.59c0.07,0.22,0.16,0.45,0.25,0.69c0.1,0.24,0.22,0.53,0.36,0.87
		c0.87-1.06,1.77-2.18,2.71-3.37c0.94-1.18,1.92-2.35,2.93-3.49c1.01-1.15,2.05-2.24,3.11-3.28c1.06-1.04,2.16-1.94,3.29-2.71
		c0.29-0.14,0.42-0.16,0.38-0.05s-0.16,0.28-0.36,0.52c-0.21,0.24-0.46,0.53-0.76,0.87c-0.3,0.34-0.59,0.68-0.85,1.01
		c-1.47,1.88-2.95,3.75-4.43,5.59c-1.48,1.85-2.99,3.7-4.51,5.56c-0.41,0.51-0.68,1.01-0.81,1.52c-0.13,0.51-0.18,1.11-0.13,1.81
		c0.22,2.63,0.1,5.19-0.34,7.69c-0.45,2.5-1.41,4.88-2.88,7.15c-0.41,0.63-0.88,1.19-1.39,1.68c-0.52,0.49-1.14,0.86-1.86,1.1
		c-1.13,0.34-2.02,0.25-2.64-0.27c-0.63-0.52-0.84-1.36-0.65-2.52c0.48-3.19,1.46-6.17,2.93-8.94c0.55-1.01,1.1-2.02,1.63-3
		c0.53-0.99,1.15-1.93,1.85-2.82c0.68-0.87,1.04-1.72,1.1-2.55c0.06-0.83-0.09-1.71-0.45-2.62c-1.01-2.44-2.03-4.86-3.04-7.26
		c-1.01-2.4-2.04-4.82-3.08-7.26c-0.99-2.32-2-4.6-3.04-6.86c-1.04-2.26-1.94-4.58-2.71-6.97c-3.38-10.38-1.5-19.74,5.65-28.09
		c2.63-3.09,5.47-5.91,8.51-8.45c3.04-2.55,6.27-4.89,9.7-7.04c0.84-0.53,1.71-1.01,2.61-1.43c0.89-0.42,1.8-0.77,2.73-1.05
		c0.93-0.28,1.89-0.45,2.88-0.52c0.99-0.07,2-0.02,3.04,0.15c0.48,0.07,0.96,0.16,1.43,0.27c0.47,0.11,0.92,0.25,1.36,0.42
		c1.38,0.53,2.39,1.29,3.06,2.28c0.66,0.99,1.02,2.22,1.07,3.69c0.07,2.2-0.11,4.33-0.54,6.41c-0.43,2.08-0.95,4.15-1.56,6.23
		c-1.23,4.32-2.79,8.47-4.69,12.45c-1.89,3.98-4.33,7.7-7.29,11.15c-1.23,1.45-2.58,2.76-4.05,3.95c-1.47,1.18-3.05,2.23-4.74,3.15
		c-0.56,0.31-1.04,0.5-1.45,0.54C32.13,52.29,31.68,52.07,31.2,51.59z M27.58,82.57c-1.35,1.95-2.56,3.95-3.64,5.97
		c-1.07,2.03-1.84,4.22-2.3,6.59c-0.05,0.17-0.1,0.35-0.15,0.54c-0.05,0.19-0.07,0.38-0.07,0.56c0,0.18,0.04,0.34,0.13,0.49
		c0.08,0.15,0.24,0.24,0.45,0.29c0.31,0.07,0.64,0.06,0.98-0.04c0.34-0.1,0.71-0.34,1.12-0.72c0.19-0.19,0.39-0.45,0.58-0.76
		C27.14,91.54,28.11,87.23,27.58,82.57z"/>
	<path class="st0" d="M54.22,63.5c-0.51,0.19-0.85,0.21-1.03,0.04c-0.18-0.17-0.27-0.4-0.27-0.71c0-0.3,0.05-0.62,0.14-0.94
		c0.1-0.33,0.16-0.57,0.18-0.74c0.07-0.82,0.04-1.38-0.11-1.68c-0.14-0.3-0.63-0.37-1.45-0.2c-0.34,0.07-0.68,0.19-1.01,0.34
		c-0.34,0.16-0.63,0.37-0.87,0.63c-0.89,0.92-1.64,1.91-2.23,2.99c-0.59,1.07-0.98,2.26-1.18,3.56c-0.19,1.23,0.03,2.14,0.67,2.73
		c0.64,0.59,1.56,0.67,2.77,0.24c1.11-0.43,2.18-0.96,3.22-1.59c1.04-0.63,2.09-1.23,3.15-1.81c0.36-0.19,0.73-0.41,1.1-0.65
		c0.37-0.24,0.84-0.52,1.39-0.83c0.27-0.12,0.36-0.09,0.27,0.09c-0.08,0.18-0.24,0.41-0.45,0.69c-0.22,0.28-0.45,0.55-0.69,0.81
		c-0.24,0.27-0.37,0.41-0.4,0.43c-0.63,0.58-1.23,1.09-1.79,1.52c-0.57,0.43-1.14,0.83-1.72,1.19c-0.58,0.36-1.19,0.69-1.83,0.98
		c-0.64,0.29-1.37,0.57-2.19,0.83c-0.75,0.24-1.49,0.37-2.23,0.4c-0.74,0.02-1.43-0.28-2.08-0.9c-0.7-0.68-1.12-1.42-1.27-2.23
		c-0.14-0.81-0.05-1.63,0.29-2.48c0.41-0.96,0.83-1.92,1.25-2.88c0.42-0.95,0.93-1.85,1.54-2.7c0.41-0.58,0.94-1.1,1.59-1.56
		c0.65-0.46,1.3-0.87,1.95-1.23c0.84-0.46,1.67-0.58,2.48-0.36c0.81,0.22,1.42,0.65,1.83,1.3c0.43,0.6,0.71,1.14,0.81,1.61
		c0.11,0.47,0.1,0.89-0.04,1.27c-0.13,0.37-0.36,0.71-0.69,1.01C55.03,62.99,54.65,63.26,54.22,63.5z"/>
	<path class="st0" d="M57.84,74.32c-0.1-0.41-0.17-0.83-0.2-1.27c-0.04-0.43-0.06-0.86-0.06-1.27c0-1.74,0.01-3.47,0.04-5.19
		c0.02-1.73,0.06-3.46,0.11-5.19c0.17-4.05,0.58-8.05,1.22-12c0.64-3.95,1.47-7.88,2.51-11.82c0.22-0.84,0.48-1.69,0.78-2.53
		c0.3-0.84,0.62-1.68,0.96-2.5c0.12-0.27,0.3-0.53,0.54-0.8c0.24-0.27,0.48-0.4,0.72-0.4c0.24-0.02,0.51,0.08,0.8,0.31
		c0.29,0.23,0.49,0.46,0.62,0.71c0.22,0.48,0.4,0.98,0.54,1.48c0.15,0.51,0.25,1.01,0.33,1.52c0.24,2.17,0.17,4.3-0.2,6.39
		c-0.37,2.09-0.9,4.16-1.57,6.21c-0.53,1.57-1.17,3.06-1.92,4.47s-1.54,2.81-2.39,4.18c-0.34,0.56-0.63,1.17-0.87,1.85
		c-0.24,0.68-0.39,1.34-0.43,1.99c-0.12,1.45-0.18,2.9-0.16,4.34c0.01,1.45,0.02,2.9,0.02,4.34c0,0.07-0.01,0.21-0.02,0.4
		c-0.01,0.19-0.02,0.38-0.02,0.56s0.02,0.31,0.05,0.38c0.04,0.07,0.1,0.04,0.2-0.11c0.39-0.8,0.75-1.68,1.09-2.66
		c0.34-0.98,0.68-1.9,1.01-2.77c0.34-0.87,0.69-1.62,1.05-2.26c0.36-0.64,0.78-1.03,1.27-1.18c0.05-0.02,0.19-0.03,0.43-0.02
		c0.24,0.01,0.49,0.15,0.76,0.42c0.29,0.29,0.51,0.68,0.65,1.16c0.14,0.48,0.27,0.96,0.38,1.43c0.11,0.47,0.21,0.91,0.31,1.3
		c0.1,0.4,0.24,0.67,0.43,0.81c0.36,0.17,0.69,0.22,1,0.14c0.3-0.07,0.58-0.2,0.83-0.4c0.25-0.19,0.49-0.43,0.72-0.71
		c0.23-0.28,0.46-0.54,0.71-0.78c0.36-0.24,0.49-0.21,0.4,0.11c-0.1,0.31-0.32,0.72-0.67,1.23c-0.35,0.51-0.77,1-1.27,1.48
		c-0.5,0.48-0.97,0.76-1.43,0.83c-0.51,0.05-0.94-0.11-1.3-0.47s-0.67-0.76-0.92-1.19c-0.25-0.43-0.46-0.81-0.63-1.12
		c-0.17-0.31-0.31-0.4-0.43-0.25c-0.53,0.68-0.95,1.41-1.25,2.21c-0.3,0.8-0.6,1.59-0.89,2.39s-0.63,1.57-1.03,2.32
		c-0.4,0.75-0.94,1.41-1.61,1.99c-0.3,0.34-0.56,0.46-0.78,0.38C58.03,74.69,57.89,74.54,57.84,74.32z M64.71,34.4
		c-0.58,0.56-1.15,1.52-1.7,2.9c-0.56,1.38-1.06,2.98-1.5,4.81c-0.45,1.83-0.81,3.79-1.09,5.86c-0.28,2.08-0.42,4.08-0.42,6.01
		c0.68-0.82,1.31-1.78,1.9-2.88c0.59-1.1,1.11-2.26,1.56-3.47c0.45-1.22,0.82-2.46,1.12-3.71c0.3-1.25,0.52-2.47,0.65-3.66
		c0.13-1.18,0.16-2.28,0.07-3.29C65.23,35.95,65.03,35.1,64.71,34.4z"/>
	<path class="st0" d="M76.7,66.9c-0.51,0.27-0.97,0.51-1.39,0.72c-0.42,0.22-0.85,0.4-1.29,0.54c-0.44,0.15-0.89,0.25-1.36,0.31
		c-0.47,0.06-1.01,0.04-1.61-0.05c-0.68-0.12-1.21-0.45-1.59-0.98c-0.39-0.53-0.51-1.16-0.36-1.88c0.17-0.72,0.39-1.45,0.65-2.17
		c0.27-0.72,0.6-1.4,1.01-2.03c0.41-0.63,0.88-1.22,1.41-1.77c0.53-0.55,1.06-1.11,1.59-1.67c0.51-0.55,1.12-0.89,1.85-1
		c0.72-0.11,1.34,0.03,1.85,0.42c0.24,0.19,0.44,0.43,0.58,0.72s0.23,0.61,0.25,0.96c0.03,0.35-0.02,0.69-0.14,1.03
		s-0.32,0.65-0.62,0.94c-0.55,0.56-1.17,1.05-1.85,1.48c-0.68,0.43-1.35,0.87-2.03,1.3c-0.22,0.14-0.47,0.25-0.76,0.33
		s-0.57,0.14-0.83,0.22c-0.36,0.12-0.65,0.29-0.85,0.51c-0.21,0.22-0.24,0.51-0.09,0.87c0.12,0.27,0.31,0.52,0.56,0.78
		c0.25,0.25,0.5,0.39,0.74,0.42c0.46,0.05,0.92,0.02,1.39-0.09c0.47-0.11,0.95-0.21,1.43-0.31c0.17-0.02,0.29-0.05,0.38-0.07
		c0.08-0.02,0.16-0.05,0.24-0.09s0.14-0.07,0.22-0.11c0.07-0.04,0.19-0.08,0.36-0.13c0.44-0.05,0.66,0.01,0.67,0.18
		S76.98,66.66,76.7,66.9z M72.13,62.67c0.72-0.22,1.38-0.54,1.96-0.98c0.58-0.43,0.99-0.84,1.25-1.21c0.25-0.37,0.29-0.65,0.13-0.81
		c-0.17-0.17-0.65-0.1-1.45,0.22c-0.48,0.43-0.88,0.9-1.2,1.39C72.51,61.77,72.28,62.23,72.13,62.67z"/>
	<path class="st0" d="M93.85,73.2c0.34,1.23,0.79,2.38,1.36,3.46c0.57,1.07,1.39,1.98,2.48,2.73c-0.29,0.43-0.6,0.65-0.92,0.65
		c-0.33,0-0.6-0.11-0.81-0.33c-0.48-0.48-0.97-0.98-1.47-1.48c-0.5-0.51-0.84-1.06-1.03-1.67c-0.6-1.91-1.14-3.83-1.61-5.77
		s-0.95-3.89-1.43-5.85c-0.12-0.48-0.21-0.97-0.25-1.47c-0.05-0.49-0.12-1.02-0.22-1.57c-0.63,0.85-1.22,1.65-1.79,2.43
		c-0.57,0.77-1.17,1.51-1.79,2.21c-0.31,0.36-0.66,0.69-1.05,0.98s-0.78,0.56-1.19,0.8c-0.53,0.27-1.07,0.39-1.61,0.38
		c-0.54-0.01-1.06-0.24-1.54-0.67c-0.48-0.41-0.75-0.89-0.8-1.43s0.06-1.1,0.33-1.68c0.77-1.67,1.67-3.24,2.68-4.72
		c1.01-1.48,2.28-2.76,3.8-3.82c1.04-0.72,1.72-1.52,2.04-2.39c0.33-0.87,0.43-1.91,0.31-3.11c-0.27-2.48-0.33-4.95-0.2-7.38
		c0.13-2.44,0.48-4.87,1.03-7.31c0.05-0.19,0.08-0.4,0.11-0.63c0.02-0.23,0.08-0.45,0.16-0.65c0.08-0.21,0.22-0.39,0.42-0.56
		c0.19-0.17,0.49-0.3,0.91-0.4c0.34-0.07,0.63,0.11,0.89,0.56c0.25,0.45,0.46,1.08,0.62,1.9c0.16,0.82,0.26,1.78,0.33,2.88
		c0.06,1.1,0.07,2.27,0.04,3.51s-0.13,2.5-0.29,3.78c-0.16,1.28-0.37,2.51-0.63,3.69c-0.05,0.53-0.13,1.19-0.25,1.99
		c-0.12,0.8-0.23,1.46-0.33,1.99c-0.07,0.48-0.15,0.98-0.24,1.5c-0.08,0.52-0.16,1.01-0.22,1.48c-0.06,0.47-0.1,0.89-0.13,1.25
		c-0.02,0.36-0.02,0.63,0,0.8c0.17,1.4,0.31,2.75,0.42,4.04c0.11,1.29,0.28,2.64,0.53,4.04c0.19,1.01,0.4,2,0.63,2.97
		C93.34,71.27,93.59,72.23,93.85,73.2z M88.97,60.53c0.34-0.53,0.55-1.15,0.65-1.86c0.1-0.71-0.02-1.45-0.36-2.23
		c-1.74,0.92-3.15,2.07-4.23,3.46c-1.09,1.39-1.97,2.95-2.64,4.69c-0.1,0.27-0.12,0.61-0.07,1.03c0.05,0.42,0.17,0.73,0.36,0.92
		c0.36,0.36,0.73,0.44,1.1,0.23c0.37-0.2,0.69-0.45,0.96-0.74c0.75-0.89,1.49-1.79,2.23-2.68C87.69,62.46,88.36,61.52,88.97,60.53z
		 M91.28,53.15c0.1-0.39,0.19-0.76,0.27-1.12c0.08-0.36,0.19-0.72,0.31-1.09c0.1-0.41,0.19-0.9,0.29-1.48s0.17-1.15,0.24-1.72
		c0.06-0.57,0.11-1.1,0.16-1.59c0.05-0.49,0.07-0.86,0.07-1.1c0.02-0.6,0.05-1.2,0.07-1.79c0.02-0.59,0.01-1.19-0.04-1.79
		c-0.02-0.27-0.05-0.6-0.09-1.01c-0.04-0.41-0.09-0.8-0.16-1.16c-0.07-0.36-0.15-0.65-0.24-0.87c-0.08-0.22-0.19-0.27-0.31-0.14
		c-0.48,1.23-0.81,2.46-0.98,3.69c-0.17,1.23-0.24,2.47-0.22,3.71c0.02,1.24,0.1,2.49,0.24,3.73
		C91.03,50.64,91.16,51.89,91.28,53.15z"/>
	<path class="st0" d="M101.96,63.97c-0.27,0.58-0.5,1.1-0.71,1.57s-0.44,0.91-0.71,1.32c-0.29,0.43-0.62,0.75-0.98,0.96
		c-0.36,0.21-0.73,0.31-1.1,0.31c-0.38,0-0.74-0.11-1.1-0.34c-0.36-0.23-0.68-0.56-0.94-1c-0.41-0.7-0.68-1.45-0.8-2.24
		c-0.12-1.09-0.22-2.17-0.29-3.24c-0.07-1.07-0.16-2.15-0.25-3.24c0-0.17,0-0.36,0-0.56s0.02-0.4,0.07-0.6
		c0.05-0.19,0.13-0.37,0.24-0.52c0.11-0.16,0.26-0.27,0.45-0.34c0.27-0.1,0.51-0.13,0.72-0.09c0.22,0.04,0.41,0.12,0.58,0.25
		c0.17,0.13,0.29,0.29,0.38,0.47c0.08,0.18,0.14,0.34,0.16,0.49c0.07,0.48,0.04,1.07-0.11,1.77c-0.14,0.7-0.23,1.56-0.25,2.57
		c0,0.46,0.01,0.87,0.02,1.23c0.01,0.36,0.05,0.71,0.13,1.05s0.19,0.69,0.36,1.05c0.17,0.36,0.41,0.76,0.72,1.19
		c0.14,0.19,0.33,0.1,0.54-0.27c0.22-0.37,0.42-0.87,0.6-1.5c0.18-0.63,0.34-1.31,0.47-2.04c0.13-0.74,0.2-1.36,0.2-1.86
		c0.02-0.15,0.04-0.35,0.04-0.62c0-0.27-0.01-0.49-0.04-0.69c-0.07-0.55-0.06-0.92,0.04-1.09c0.1-0.17,0.37-0.29,0.83-0.36
		c0.48-0.07,0.82,0.02,1.01,0.27c0.19,0.25,0.33,0.59,0.4,1c0.1,0.48,0.19,0.95,0.29,1.41c0.1,0.46,0.22,0.93,0.36,1.41
		c0.14,0.41,0.27,0.77,0.38,1.07c0.11,0.3,0.25,0.55,0.42,0.74c0.17,0.19,0.37,0.31,0.62,0.36c0.24,0.05,0.57,0.01,0.98-0.11
		c0.36-0.12,0.64-0.22,0.83-0.31s0.46-0.21,0.8-0.38c0.19-0.1,0.43-0.24,0.71-0.42c0.28-0.18,0.54-0.33,0.78-0.45
		c0.24-0.12,0.45-0.19,0.62-0.22c0.17-0.02,0.25,0.05,0.25,0.22c-0.27,0.43-0.57,0.82-0.91,1.16c-0.34,0.34-0.66,0.62-0.98,0.85
		c-0.31,0.23-0.61,0.42-0.89,0.58c-0.28,0.16-0.49,0.27-0.63,0.34c-0.82,0.36-1.57,0.45-2.26,0.25
		C103.32,65.19,102.63,64.72,101.96,63.97z"/>
	<path class="st0" d="M119.84,67.15c-0.22,0.53-0.52,1.09-0.91,1.68c-0.39,0.59-0.8,1.17-1.23,1.74c-0.43,0.57-0.88,1.07-1.32,1.52
		c-0.45,0.45-0.83,0.79-1.14,1.03c-0.6,0.41-1.22,0.66-1.85,0.74c-0.63,0.08-1.2,0.02-1.72-0.2c-0.52-0.22-0.97-0.58-1.36-1.09
		c-0.39-0.51-0.65-1.13-0.8-1.88c-0.29-1.71-0.46-3.43-0.52-5.16c-0.06-1.73-0.13-3.46-0.2-5.19c-0.02-0.8,0.01-1.61,0.09-2.44
		c0.08-0.83,0.16-1.78,0.24-2.84c-0.31,0.27-0.54,0.48-0.69,0.65c-0.14,0.17-0.31,0.28-0.51,0.33c-0.36,0.12-0.66,0.06-0.89-0.18
		c-0.23-0.24-0.28-0.53-0.16-0.87c0.1-0.22,0.21-0.43,0.34-0.63s0.27-0.4,0.42-0.6c0.92-1.16,1.58-2.39,1.99-3.69
		c0.41-1.3,0.72-2.68,0.94-4.13c0.41-2.77,0.96-5.5,1.65-8.16c0.69-2.67,1.66-5.28,2.91-7.84c0.22-0.41,0.44-0.83,0.67-1.27
		c0.23-0.43,0.5-0.83,0.81-1.19c0.29-0.34,0.59-0.57,0.9-0.71c0.31-0.13,0.62-0.17,0.91-0.11c0.29,0.06,0.55,0.21,0.78,0.45
		c0.23,0.24,0.4,0.57,0.52,0.98c0.15,0.46,0.23,0.93,0.25,1.41c0.02,0.48,0,0.97-0.07,1.45c-0.12,0.77-0.27,1.53-0.45,2.28
		c-0.18,0.75-0.42,1.47-0.71,2.17c-0.92,2.12-1.83,4.23-2.75,6.32c-0.92,2.09-1.89,4.16-2.93,6.21c-0.8,1.57-1.41,3.15-1.85,4.74
		c-0.43,1.59-0.66,3.26-0.69,4.99c-0.05,1.74-0.04,3.46,0.02,5.18c0.06,1.71,0.15,3.44,0.27,5.18c0.02,0.39,0.07,0.77,0.13,1.16
		c0.06,0.39,0.17,0.75,0.33,1.1c0.16,0.35,0.37,0.66,0.63,0.92c0.26,0.27,0.62,0.46,1.05,0.58c0.46,0.15,0.86,0.16,1.21,0.05
		c0.35-0.11,0.67-0.28,0.96-0.52c0.29-0.24,0.55-0.52,0.8-0.83c0.24-0.31,0.48-0.6,0.72-0.87c0.41-0.46,0.78-0.95,1.1-1.47
		c0.33-0.52,0.67-1.02,1.03-1.5c0.22-0.31,0.45-0.61,0.71-0.89c0.25-0.28,0.51-0.57,0.78-0.89c0.31-0.34,0.44-0.3,0.38,0.13
		C120.59,65.42,120.32,66.14,119.84,67.15z M112.38,45.94c0.17-0.22,0.39-0.55,0.65-1c0.26-0.45,0.55-0.95,0.85-1.52
		c0.3-0.57,0.6-1.15,0.89-1.76c0.29-0.6,0.53-1.16,0.72-1.67c0.55-1.5,1.05-3.01,1.5-4.54c0.45-1.53,0.9-3.07,1.36-4.62
		c0.07-0.27,0.12-0.58,0.14-0.96c0.02-0.37-0.02-0.65-0.14-0.81c-0.05-0.17-0.14-0.23-0.29-0.18c-0.14,0.05-0.31,0.13-0.51,0.25
		c-0.92,1.23-1.65,2.52-2.19,3.87c-0.54,1.35-0.98,2.75-1.32,4.18c-0.34,1.44-0.62,2.89-0.85,4.36
		C112.97,43.04,112.7,44.5,112.38,45.94z"/>
	<path class="st0" d="M126.9,66.9c-0.51,0.27-0.97,0.51-1.39,0.72c-0.42,0.22-0.85,0.4-1.29,0.54c-0.43,0.15-0.89,0.25-1.36,0.31
		c-0.47,0.06-1.01,0.04-1.61-0.05c-0.68-0.12-1.21-0.45-1.59-0.98c-0.39-0.53-0.51-1.16-0.36-1.88c0.17-0.72,0.39-1.45,0.65-2.17
		c0.27-0.72,0.6-1.4,1.01-2.03c0.41-0.63,0.88-1.22,1.41-1.77c0.53-0.55,1.06-1.11,1.59-1.67c0.51-0.55,1.12-0.89,1.85-1
		c0.72-0.11,1.34,0.03,1.85,0.42c0.24,0.19,0.43,0.43,0.58,0.72s0.23,0.61,0.25,0.96c0.02,0.35-0.02,0.69-0.14,1.03
		c-0.12,0.34-0.33,0.65-0.62,0.94c-0.56,0.56-1.17,1.05-1.85,1.48c-0.68,0.43-1.35,0.87-2.03,1.3c-0.22,0.14-0.47,0.25-0.76,0.33
		c-0.29,0.07-0.57,0.14-0.83,0.22c-0.36,0.12-0.65,0.29-0.85,0.51c-0.21,0.22-0.24,0.51-0.09,0.87c0.12,0.27,0.31,0.52,0.56,0.78
		c0.25,0.25,0.5,0.39,0.74,0.42c0.46,0.05,0.92,0.02,1.39-0.09c0.47-0.11,0.95-0.21,1.43-0.31c0.17-0.02,0.29-0.05,0.38-0.07
		c0.08-0.02,0.16-0.05,0.24-0.09s0.14-0.07,0.22-0.11c0.07-0.04,0.19-0.08,0.36-0.13c0.43-0.05,0.66,0.01,0.67,0.18
		C127.33,66.45,127.19,66.66,126.9,66.9z M122.34,62.67c0.72-0.22,1.38-0.54,1.96-0.98c0.58-0.43,1-0.84,1.25-1.21
		c0.25-0.37,0.29-0.65,0.13-0.81c-0.17-0.17-0.65-0.1-1.45,0.22c-0.48,0.43-0.88,0.9-1.19,1.39
		C122.71,61.77,122.48,62.23,122.34,62.67z"/>
</g>
</svg>
