<?xml version="1.0" encoding="utf-8"?>
<!-- Generator: Adobe Illustrator 21.1.0, SVG Export Plug-In . SVG Version: 6.00 Build 0)  -->
<svg version="1.1" id="レイヤー_1" xmlns="http://www.w3.org/2000/svg" xmlns:xlink="http://www.w3.org/1999/xlink" x="0px"
	 y="0px" viewBox="0 0 237.9 48" style="enable-background:new 0 0 237.9 48;" xml:space="preserve">
<style type="text/css">
	.st0{fill:#585857;}
	.st1{fill:#B9B9DA;}
	.st2{fill:none;}
</style>
<g>
	<g>
		<path class="st0" d="M56.3,22.7L56,26.3c0,0.4,0,0.6,0.1,0.7c2.7-2.5,5.7-3.8,8.9-3.8c2.6,0,4.4,1.1,5.3,3.4
			c0.2,0.4,0.4,0.6,0.6,0.6c0.2,0,0.6-0.3,1.2-1c0.6-0.7,1.7-1.4,3.2-2c1.5-0.6,3.1-1,4.8-1c1.7,0,3.1,0.8,4.1,2.3
			c1,1.6,1.5,3.4,1.5,5.5v12.1c0,0.8,0.2,1.2,0.7,1.5c0.5,0.2,1.1,0.5,1.9,0.7c0.8,0.3,1.2,0.6,1.2,0.9c0,0.4-0.4,0.5-1.1,0.5
			l-4.5-0.3l-4.7,0.3c-0.8,0-1.1-0.2-1.1-0.5c0-0.4,0.4-0.7,1.3-1c0,0,0.1,0,0.2-0.1c1.2-0.4,2-0.9,2.2-1.5c0-0.2,0.1-0.4,0.1-0.6
			V31.2c0-1.4-0.5-2.6-1.4-3.7c-0.9-1.1-2-1.6-3.2-1.6c-2,0-3.6,0.5-4.8,1.4c-1.2,0.9-1.8,2.3-1.8,4.2v11.7c0,0.4,0.1,0.7,0.2,0.8
			c0.1,0.1,0.2,0.2,0.2,0.3c0,0.1,0.1,0.2,0.3,0.3c0.2,0.1,0.3,0.1,0.3,0.2s0.2,0.1,0.4,0.2c0.2,0.1,0.3,0.1,0.4,0.1
			c0.3,0.2,0.6,0.2,0.8,0.2c0.9,0.3,1.3,0.6,1.3,1c0,0.4-0.4,0.5-1.1,0.5l-4.6-0.3l-4.7,0.3c-0.8,0-1.1-0.2-1.1-0.5
			c0-0.4,0.5-0.7,1.6-1c1.1-0.3,1.7-0.7,1.9-1c0.2-0.4,0.3-0.7,0.3-1V31.2c0-1.4-0.5-2.6-1.4-3.7c-0.9-1.1-2-1.6-3.2-1.6
			c-2,0-3.6,0.4-4.7,1.3c-1.2,0.9-1.7,2.3-1.7,4.3v11.7c0,0.7,0.2,1.2,0.7,1.4c0.4,0.2,0.7,0.4,0.9,0.4c1.5,0.4,2.2,0.8,2.2,1.3
			c0,0.3-0.4,0.5-1.1,0.5l-4.6-0.3l-4.6,0.3c-0.8,0-1.1-0.2-1.1-0.5c0-0.4,0.3-0.6,0.9-0.8c0.6-0.2,1-0.3,1.1-0.3
			c0.1,0,0.3-0.1,0.6-0.3c0.3-0.2,0.5-0.3,0.6-0.4c0.4-0.4,0.6-0.8,0.6-1.3V31c0-1.2-0.2-2.1-0.5-2.8c-0.3-0.7-0.9-1.1-1.8-1.3
			c-0.3-0.1-0.5-0.3-0.5-0.7s0.1-0.6,0.4-0.7c1.7-0.4,3.5-1.3,5.4-2.6c0.5-0.3,0.7-0.5,0.8-0.5C55.9,22.3,56.1,22.4,56.3,22.7z"/>
		<path class="st0" d="M100.8,46.5l-4.6,0.3c-0.8,0-1.1-0.2-1.1-0.5c0-0.4,0.5-0.7,1.6-1c1.1-0.3,1.7-0.7,1.9-1
			c0.2-0.4,0.3-0.7,0.3-1V30.8c0-2.4-0.9-3.8-2.7-4.1c-0.3-0.1-0.5-0.3-0.5-0.7s0.1-0.6,0.4-0.7c1.8-0.5,3.8-1.3,5.8-2.7
			c0.6-0.4,0.9-0.6,1-0.6c0.3,0,0.4,0.1,0.4,0.3c-0.3,3.5-0.5,6-0.5,7.6v13.1c0,0.8,0.2,1.2,0.7,1.5c0.5,0.2,1.1,0.5,1.9,0.7
			c0.8,0.3,1.2,0.6,1.2,0.9c0,0.4-0.4,0.5-1.1,0.5L100.8,46.5z M98.3,16.7c-0.5-0.5-0.8-1.2-0.8-2c0-0.8,0.3-1.5,0.8-2
			c0.5-0.5,1.2-0.8,2-0.8c0.8,0,1.5,0.3,2,0.8c0.5,0.5,0.8,1.2,0.8,2.1c0,0.8-0.3,1.5-0.8,2c-0.5,0.5-1.2,0.8-2,0.8
			C99.5,17.6,98.9,17.3,98.3,16.7z"/>
		<path class="st0" d="M120.1,22.7l-0.3,3.6c0,0.4,0,0.6,0.1,0.7c2.7-2.5,5.7-3.8,8.9-3.8c2.6,0,4.4,1.1,5.3,3.4
			c0.2,0.4,0.4,0.6,0.6,0.6c0.2,0,0.6-0.3,1.2-1c0.6-0.7,1.7-1.4,3.2-2c1.5-0.6,3.1-1,4.8-1c1.7,0,3.1,0.8,4.1,2.3
			c1,1.6,1.5,3.4,1.5,5.5v12.1c0,0.8,0.2,1.2,0.7,1.5c0.5,0.2,1.1,0.5,1.9,0.7c0.8,0.3,1.2,0.6,1.2,0.9c0,0.4-0.4,0.5-1.1,0.5
			l-4.5-0.3l-4.7,0.3c-0.8,0-1.1-0.2-1.1-0.5c0-0.4,0.4-0.7,1.3-1c0,0,0.1,0,0.2-0.1c1.2-0.4,2-0.9,2.2-1.5c0-0.2,0.1-0.4,0.1-0.6
			V31.2c0-1.4-0.5-2.6-1.4-3.7c-0.9-1.1-2-1.6-3.2-1.6c-2,0-3.6,0.5-4.8,1.4s-1.8,2.3-1.8,4.2v11.7c0,0.4,0.1,0.7,0.2,0.8
			s0.2,0.2,0.2,0.3c0,0.1,0.1,0.2,0.3,0.3c0.2,0.1,0.3,0.1,0.3,0.2s0.2,0.1,0.4,0.2c0.2,0.1,0.3,0.1,0.4,0.1
			c0.3,0.2,0.6,0.2,0.8,0.2c0.9,0.3,1.3,0.6,1.3,1c0,0.4-0.4,0.5-1.1,0.5l-4.6-0.3l-4.7,0.3c-0.8,0-1.1-0.2-1.1-0.5
			c0-0.4,0.5-0.7,1.6-1s1.7-0.7,1.9-1c0.2-0.4,0.3-0.7,0.3-1V31.2c0-1.4-0.5-2.6-1.4-3.7s-2-1.6-3.2-1.6c-2,0-3.6,0.4-4.7,1.3
			c-1.2,0.9-1.7,2.3-1.7,4.3v11.7c0,0.7,0.2,1.2,0.7,1.4c0.4,0.2,0.7,0.4,0.9,0.4c1.5,0.4,2.2,0.8,2.2,1.3c0,0.3-0.4,0.5-1.1,0.5
			l-4.6-0.3l-4.6,0.3c-0.8,0-1.1-0.2-1.1-0.5c0-0.4,0.3-0.6,0.9-0.8c0.6-0.2,1-0.3,1.1-0.3c0.1,0,0.3-0.1,0.6-0.3
			c0.3-0.2,0.5-0.3,0.6-0.4c0.4-0.4,0.6-0.8,0.6-1.3V31c0-1.2-0.2-2.1-0.5-2.8c-0.3-0.7-0.9-1.1-1.8-1.3c-0.3-0.1-0.5-0.3-0.5-0.7
			s0.1-0.6,0.4-0.7c1.7-0.4,3.5-1.3,5.4-2.6c0.5-0.3,0.7-0.5,0.8-0.5C119.7,22.3,119.9,22.4,120.1,22.7z"/>
		<path class="st0" d="M164.4,46.5l-4.6,0.3c-0.8,0-1.1-0.2-1.1-0.5c0-0.4,0.3-0.7,1-0.9c0.7-0.2,1.2-0.4,1.4-0.6
			c0.9-0.4,1.3-1,1.3-1.9V14.6c0-2.4-0.8-3.8-2.5-4.1c-0.3-0.1-0.5-0.3-0.5-0.7c0-0.4,0.1-0.6,0.4-0.7c0.9-0.2,3.1-1,6.6-2.3
			l0.1-0.1c0.1,0,0.2,0.1,0.4,0.4c0,0.1,0,0.3-0.1,0.8c-0.3,1.7-0.4,4-0.4,6.9v9.9c0,1,0.2,1.7,0.5,2.1c3.2-2.4,6.1-3.6,8.6-3.6
			c1.8,0,3.4,0.7,4.6,2.2c1.2,1.5,1.8,3.3,1.8,5.5v11.9c0,1.2,0.8,2,2.3,2.5c0.9,0.3,1.3,0.6,1.3,1c0,0.4-0.4,0.5-1.1,0.5l-4.4-0.3
			l-4.4,0.3c-0.8,0-1.1-0.2-1.1-0.5c0-0.4,0.4-0.7,1.3-1c1.5-0.5,2.2-1.3,2.2-2.5V31.2c0-1.4-0.6-2.5-1.7-3.6s-2.3-1.5-3.6-1.5
			c-2.1,0-3.6,0.4-4.7,1.2c-0.6,0.5-1,1-1.2,1.6c-0.2,0.5-0.3,1.4-0.3,2.5V43c0,1.1,0.8,1.9,2.2,2.3c0.9,0.3,1.3,0.6,1.3,1
			c0,0.4-0.4,0.5-1.1,0.5L164.4,46.5z"/>
		<path class="st0" d="M196.6,46.5l-4.6,0.3c-0.8,0-1.1-0.2-1.1-0.5c0-0.4,0.3-0.7,1-0.9c0.7-0.2,1.2-0.4,1.4-0.6
			c0.9-0.4,1.3-1,1.3-1.9V14.6c0-2.4-0.8-3.8-2.5-4.1c-0.3-0.1-0.5-0.3-0.5-0.7c0-0.4,0.1-0.6,0.4-0.7c0.9-0.2,3.1-1,6.6-2.3
			l0.1-0.1c0.1,0,0.2,0.1,0.4,0.4c0,0.1,0,0.3-0.1,0.8c-0.3,1.7-0.4,4-0.4,6.9v9.9c0,1,0.2,1.7,0.5,2.1c3.2-2.4,6.1-3.6,8.6-3.6
			c1.8,0,3.4,0.7,4.6,2.2c1.2,1.5,1.8,3.3,1.8,5.5v11.9c0,1.2,0.8,2,2.3,2.5c0.9,0.3,1.3,0.6,1.3,1c0,0.4-0.4,0.5-1.1,0.5l-4.4-0.3
			l-4.4,0.3c-0.8,0-1.1-0.2-1.1-0.5c0-0.4,0.4-0.7,1.3-1c1.5-0.5,2.2-1.3,2.2-2.5V31.2c0-1.4-0.6-2.5-1.7-3.6s-2.3-1.5-3.6-1.5
			c-2.1,0-3.6,0.4-4.7,1.2c-0.6,0.5-1,1-1.2,1.6c-0.2,0.5-0.3,1.4-0.3,2.5V43c0,1.1,0.8,1.9,2.2,2.3c0.9,0.3,1.3,0.6,1.3,1
			c0,0.4-0.4,0.5-1.1,0.5L196.6,46.5z"/>
		<path class="st0" d="M233.7,25.7c-0.7-0.7-1.6-1-2.6-1c-1,0-1.8,0.3-2.5,1c-0.6,0.7-1,1.5-1,2.4c0,0.9,0.3,1.7,1,2.5
			c0.6,0.8,1.2,1.3,1.7,1.6c0.5,0.3,1.2,0.8,2.2,1.4s1.7,1.1,2.3,1.5c0.6,0.4,1.2,1.2,2,2.2c0.8,1.1,1.1,2.2,1.1,3.3
			c0,4.5-2.7,6.8-8.2,6.8c-1.4,0-2.7-0.2-3.9-0.7c-1.2-0.5-1.9-0.9-2.1-1.3c-0.4-0.9-0.7-2-0.7-3.5c0-0.3,0.3-0.5,0.9-0.5
			s0.9,0.1,0.9,0.4c0.2,1,0.8,1.9,1.9,2.8c1.1,0.9,2.3,1.3,3.5,1.3s2.2-0.4,2.8-1.1c0.7-0.7,1-1.6,1-2.7c0-1.1-0.3-2-1-2.7
			c-0.7-0.7-1.8-1.7-3.4-2.8s-2.9-2.2-3.9-3.3c-1-1.1-1.4-2.4-1.4-3.9c0-1.5,0.6-3,1.9-4.3s3-2,5.3-2s3.8,0.4,4.7,1.3
			c0.6,0.8,1,2.3,1,4.4c0,0.2-0.1,0.2-0.4,0.2c-0.3,0-0.6-0.1-1.1-0.4c-0.5-0.3-0.7-0.5-0.7-0.8C234.8,27.1,234.5,26.4,233.7,25.7z"
			/>
	</g>
	<g>
		<rect x="9.1" y="23" transform="matrix(0.4883 -0.8727 0.8727 0.4883 -2.5014 43.7162)" class="st1" width="53.9" height="2"/>
		<rect x="-1.9" y="23" transform="matrix(0.4883 -0.8727 0.8727 0.4883 -8.1297 34.117)" class="st1" width="53.9" height="2"/>
		<rect x="-12.9" y="23" transform="matrix(0.4883 -0.8727 0.8727 0.4883 -13.758 24.5178)" class="st1" width="53.9" height="2"/>
	</g>
</g>
<rect class="st2" width="237.9" height="48"/>
</svg>
