<svg id="logo_white" xmlns="http://www.w3.org/2000/svg" viewBox="0 0 237.9 48"><style>.st0{fill:#fff}</style><path class="st0" d="M56.3 22.7l-.3 3.6c0 .4 0 .6.1.7 2.7-2.5 5.7-3.8 8.9-3.8 2.6 0 4.4 1.1 5.3 3.4.2.4.4.6.6.6s.6-.3 1.2-1 1.7-1.4 3.2-2 3.1-1 4.8-1c1.7 0 3.1.8 4.1 2.3 1 1.6 1.5 3.4 1.5 5.5v12.1c0 .8.2 1.2.7 1.5.5.2 1.1.5 1.9.7.8.3 1.2.6 1.2.9 0 .4-.4.5-1.1.5l-4.5-.3-4.7.3c-.8 0-1.1-.2-1.1-.5 0-.4.4-.7 1.3-1 0 0 .1 0 .2-.1 1.2-.4 2-.9 2.2-1.5 0-.2.1-.4.1-.6V31.2c0-1.4-.5-2.6-1.4-3.7s-2-1.6-3.2-1.6c-2 0-3.6.5-4.8 1.4-1.2.9-1.8 2.3-1.8 4.2v11.7c0 .4.1.7.2.8s.2.2.2.3.1.2.3.3c.2.1.3.1.3.2s.2.1.4.2.3.1.4.1c.3.2.6.2.8.2.9.3 1.3.6 1.3 1s-.4.5-1.1.5l-4.6-.3-4.7.3c-.8 0-1.1-.2-1.1-.5 0-.4.5-.7 1.6-1s1.7-.7 1.9-1c.2-.4.3-.7.3-1V31.2c0-1.4-.5-2.6-1.4-3.7s-2-1.6-3.2-1.6c-2 0-3.6.4-4.7 1.3-1.2.9-1.7 2.3-1.7 4.3v11.7c0 .7.2 1.2.7 1.4.4.2.7.4.9.4 1.5.4 2.2.8 2.2 1.3 0 .3-.4.5-1.1.5l-4.6-.3-4.6.3c-.8 0-1.1-.2-1.1-.5 0-.4.3-.6.9-.8.6-.2 1-.3 1.1-.3s.3-.1.6-.3.5-.3.6-.4c.4-.4.6-.8.6-1.3V31c0-1.2-.2-2.1-.5-2.8-.3-.7-.9-1.1-1.8-1.3-.3-.1-.5-.3-.5-.7s.1-.6.4-.7c1.7-.4 3.5-1.3 5.4-2.6.5-.3.7-.5.8-.5 0-.1.2 0 .4.3zM100.8 46.5l-4.6.3c-.8 0-1.1-.2-1.1-.5 0-.4.5-.7 1.6-1s1.7-.7 1.9-1c.2-.4.3-.7.3-1V30.8c0-2.4-.9-3.8-2.7-4.1-.3-.1-.5-.3-.5-.7s.1-.6.4-.7c1.8-.5 3.8-1.3 5.8-2.7.6-.4.9-.6 1-.6.3 0 .4.1.4.3-.3 3.5-.5 6-.5 7.6V43c0 .8.2 1.2.7 1.5.5.2 1.1.5 1.9.7.8.3 1.2.6 1.2.9 0 .4-.4.5-1.1.5l-4.7-.1zm-2.5-29.8c-.5-.5-.8-1.2-.8-2s.3-1.5.8-2 1.2-.8 2-.8 1.5.3 2 .8.8 1.2.8 2.1c0 .8-.3 1.5-.8 2s-1.2.8-2 .8-1.4-.3-2-.9zM120.1 22.7l-.3 3.6c0 .4 0 .6.1.7 2.7-2.5 5.7-3.8 8.9-3.8 2.6 0 4.4 1.1 5.3 3.4.2.4.4.6.6.6.2 0 .6-.3 1.2-1s1.7-1.4 3.2-2 3.1-1 4.8-1 3.1.8 4.1 2.3c1 1.6 1.5 3.4 1.5 5.5v12.1c0 .8.2 1.2.7 1.5.5.2 1.1.5 1.9.7.8.3 1.2.6 1.2.9 0 .4-.4.5-1.1.5l-4.5-.3-4.7.3c-.8 0-1.1-.2-1.1-.5 0-.4.4-.7 1.3-1 0 0 .1 0 .2-.1 1.2-.4 2-.9 2.2-1.5 0-.2.1-.4.1-.6V31.2c0-1.4-.5-2.6-1.4-3.7s-2-1.6-3.2-1.6c-2 0-3.6.5-4.8 1.4s-1.8 2.3-1.8 4.2v11.7c0 .4.1.7.2.8s.2.2.2.3.1.2.3.3.3.1.3.2.2.1.4.2.3.1.4.1c.3.2.6.2.8.2.9.3 1.3.6 1.3 1s-.4.5-1.1.5l-4.6-.3-4.7.3c-.8 0-1.1-.2-1.1-.5 0-.4.5-.7 1.6-1 1.1-.3 1.7-.7 1.9-1 .2-.4.3-.7.3-1V31.2c0-1.4-.5-2.6-1.4-3.7s-2-1.6-3.2-1.6c-2 0-3.6.4-4.7 1.3-1.2.9-1.7 2.3-1.7 4.3v11.7c0 .7.2 1.2.7 1.4.4.2.7.4.9.4 1.5.4 2.2.8 2.2 1.3 0 .3-.4.5-1.1.5l-4.6-.3-4.6.3c-.8 0-1.1-.2-1.1-.5 0-.4.3-.6.9-.8s1-.3 1.1-.3.3-.1.6-.3c.3-.2.5-.3.6-.4.4-.4.6-.8.6-1.3V31c0-1.2-.2-2.1-.5-2.8-.3-.7-.9-1.1-1.8-1.3-.3-.1-.5-.3-.5-.7s.1-.6.4-.7c1.7-.4 3.5-1.3 5.4-2.6.5-.3.7-.5.8-.5 0-.1.2 0 .4.3zM164.4 46.5l-4.6.3c-.8 0-1.1-.2-1.1-.5 0-.4.3-.7 1-.9s1.2-.4 1.4-.6c.9-.4 1.3-1 1.3-1.9V14.6c0-2.4-.8-3.8-2.5-4.1-.3-.1-.5-.3-.5-.7s.1-.6.4-.7c.9-.2 3.1-1 6.6-2.3l.1-.1c.1 0 .2.1.4.4 0 .1 0 .3-.1.8-.3 1.7-.4 4-.4 6.9v9.9c0 1 .2 1.7.5 2.1 3.2-2.4 6.1-3.6 8.6-3.6 1.8 0 3.4.7 4.6 2.2 1.2 1.5 1.8 3.3 1.8 5.5v11.9c0 1.2.8 2 2.3 2.5.9.3 1.3.6 1.3 1s-.4.5-1.1.5l-4.4-.3-4.4.3c-.8 0-1.1-.2-1.1-.5 0-.4.4-.7 1.3-1 1.5-.5 2.2-1.3 2.2-2.5V31.2c0-1.4-.6-2.5-1.7-3.6s-2.3-1.5-3.6-1.5c-2.1 0-3.6.4-4.7 1.2-.6.5-1 1-1.2 1.6-.2.5-.3 1.4-.3 2.5V43c0 1.1.8 1.9 2.2 2.3.9.3 1.3.6 1.3 1s-.4.5-1.1.5l-4.5-.3zM196.6 46.5l-4.6.3c-.8 0-1.1-.2-1.1-.5 0-.4.3-.7 1-.9s1.2-.4 1.4-.6c.9-.4 1.3-1 1.3-1.9V14.6c0-2.4-.8-3.8-2.5-4.1-.3-.1-.5-.3-.5-.7s.1-.6.4-.7c.9-.2 3.1-1 6.6-2.3l.1-.1c.1 0 .2.1.4.4 0 .1 0 .3-.1.8-.3 1.7-.4 4-.4 6.9v9.9c0 1 .2 1.7.5 2.1 3.2-2.4 6.1-3.6 8.6-3.6 1.8 0 3.4.7 4.6 2.2 1.2 1.5 1.8 3.3 1.8 5.5v11.9c0 1.2.8 2 2.3 2.5.9.3 1.3.6 1.3 1s-.4.5-1.1.5l-4.4-.3-4.4.3c-.8 0-1.1-.2-1.1-.5 0-.4.4-.7 1.3-1 1.5-.5 2.2-1.3 2.2-2.5V31.2c0-1.4-.6-2.5-1.7-3.6s-2.3-1.5-3.6-1.5c-2.1 0-3.6.4-4.7 1.2-.6.5-1 1-1.2 1.6-.2.5-.3 1.4-.3 2.5V43c0 1.1.8 1.9 2.2 2.3.9.3 1.3.6 1.3 1s-.4.5-1.1.5l-4.5-.3zM233.7 25.7c-.7-.7-1.6-1-2.6-1s-1.8.3-2.5 1c-.6.7-1 1.5-1 2.4s.3 1.7 1 2.5c.6.8 1.2 1.3 1.7 1.6s1.2.8 2.2 1.4 1.7 1.1 2.3 1.5 1.2 1.2 2 2.2c.8 1.1 1.1 2.2 1.1 3.3 0 4.5-2.7 6.8-8.2 6.8-1.4 0-2.7-.2-3.9-.7s-1.9-.9-2.1-1.3c-.4-.9-.7-2-.7-3.5 0-.3.3-.5.9-.5s.9.1.9.4c.2 1 .8 1.9 1.9 2.8 1.1.9 2.3 1.3 3.5 1.3s2.2-.4 2.8-1.1c.7-.7 1-1.6 1-2.7s-.3-2-1-2.7-1.8-1.7-3.4-2.8-2.9-2.2-3.9-3.3-1.4-2.4-1.4-3.9.6-3 1.9-4.3 3-2 5.3-2 3.8.4 4.7 1.3c.6.8 1 2.3 1 4.4 0 .2-.1.2-.4.2-.3 0-.6-.1-1.1-.4s-.7-.5-.7-.8c-.2-.7-.5-1.4-1.3-2.1z"/><path transform="rotate(-60.771 36.047 23.974)" class="st0" d="M9.1 23H63v2H9.1z"/><path transform="rotate(-60.771 25.047 23.974)" class="st0" d="M-1.9 23H52v2H-1.9z"/><path transform="rotate(-60.771 14.048 23.975)" class="st0" d="M-12.9 23H41v2h-53.9z"/></svg>